<?xml version="1.0" encoding="UTF-8"?>
<svg xmlns="http://www.w3.org/2000/svg" id="Ebene_1" data-name="Ebene 1" width="1728" height="623.5" viewBox="0 0 1728 623.5">
  <defs>
    <style>
      .cls-1 {
        fill: #64dca0;
      }
    </style>
  </defs>
  <path class="cls-1" d="M140.4,623.5h.02c-1.33-1.71-2.67-3.41-3.98-5.12,1.31,1.71,2.64,3.41,3.97,5.12Z"></path>
  <path class="cls-1" d="M126.61,605.49c-24.87-32.99-47.56-65.86-68.01-98.56C36.47,471.55,16.93,436.34,0,401.41v.02c16.96,35,36.54,70.27,58.73,105.72,20.42,32.63,43.07,65.43,67.88,98.34Z"></path>
  <path class="cls-1" d="M126.91,605.89c2.93,3.88,5.89,7.76,8.88,11.65-2.99-3.88-5.95-7.77-8.88-11.65Z"></path>
  <path class="cls-1" d="M0,396.87c33.27,69.35,79.48,145.15,142.88,226.63h.01C79.49,542.01,33.27,466.21,0,396.85v.02Z"></path>
  <path class="cls-1" d="M135.79,617.54c.22,.28,.43,.56,.65,.85-.22-.28-.43-.56-.65-.85Z"></path>
  <path class="cls-1" d="M126.61,605.49c.1,.13,.2,.27,.3,.4-.1-.13-.2-.27-.3-.4Z"></path>
  <path class="cls-1" d="M0,401.41c16.93,34.93,36.47,70.14,58.6,105.52,20.46,32.7,43.14,65.57,68.01,98.56,.1,.13,.2,.27,.3,.4,2.93,3.88,5.89,7.76,8.88,11.65,.22,.28,.43,.56,.65,.85,1.31,1.71,2.66,3.41,3.98,5.12h2.46C79.48,542.02,33.27,466.22,0,396.87v4.54Z"></path>
  <path class="cls-1" d="M1546.69,607.55c1.22-3.04,2.43-6.07,3.63-9.1-1.2,3.03-2.4,6.06-3.63,9.1Z"></path>
  <path class="cls-1" d="M1611.29,408.19c.76-3.17,1.5-6.33,2.23-9.48-.72,3.15-1.47,6.31-2.23,9.48Z"></path>
  <path class="cls-1" d="M1608.58,419.26c.78-3.11,1.54-6.22,2.29-9.31-.75,3.1-1.51,6.2-2.29,9.31Z"></path>
  <path class="cls-1" d="M1613.84,397.27c.74-3.25,1.47-6.49,2.18-9.73-.71,3.23-1.44,6.48-2.18,9.73Z"></path>
  <path class="cls-1" d="M1629.69,311.82c-2.93,20.93-6.66,42.29-11.18,64.06,4.51-21.7,8.23-42.99,11.16-63.85,12.9-92.07,10.44-176.03-7.31-249.56C1616.7,39.04,1609.83,18.25,1602.5,0h0c7.31,18.19,14.15,38.89,19.79,62.21,17.79,73.53,20.28,157.51,7.4,249.6Z"></path>
  <path class="cls-1" d="M1616.25,386.49c.73-3.36,1.45-6.71,2.14-10.04-.69,3.34-1.41,6.69-2.14,10.04Z"></path>
  <path class="cls-1" d="M1541.68,619.89c1.26-3.06,2.5-6.12,3.73-9.17-1.23,3.05-2.47,6.11-3.73,9.17Z"></path>
  <path class="cls-1" d="M1540.19,623.5h0c.06-.15,.12-.29,.18-.44-.06,.15-.12,.29-.18,.44Z"></path>
  <path class="cls-1" d="M1545.41,610.73c.43-1.06,.86-2.12,1.28-3.18-.43,1.06-.85,2.12-1.28,3.18Z"></path>
  <path class="cls-1" d="M1550.32,598.45c.42-1.06,.84-2.12,1.25-3.17-.42,1.06-.83,2.11-1.25,3.17Z"></path>
  <path class="cls-1" d="M1540.37,623.06c.44-1.06,.87-2.11,1.31-3.17-.43,1.05-.87,2.11-1.31,3.17Z"></path>
  <path class="cls-1" d="M1608.09,421.25c.17-.66,.33-1.32,.49-1.99-.17,.66-.33,1.32-.49,1.99Z"></path>
  <path class="cls-1" d="M1610.87,409.95c.14-.59,.28-1.17,.42-1.76-.14,.59-.28,1.17-.42,1.76Z"></path>
  <path class="cls-1" d="M1616.02,387.54c.08-.35,.15-.7,.23-1.05-.08,.35-.15,.7-.23,1.05Z"></path>
  <path class="cls-1" d="M1618.39,376.44c.04-.19,.08-.38,.12-.57-.04,.19-.08,.38-.12,.57Z"></path>
  <path class="cls-1" d="M1613.51,398.71c.11-.48,.22-.96,.33-1.44-.11,.48-.22,.96-.33,1.44Z"></path>
  <g>
    <path class="cls-1" d="M1591.96,604.76c-6.12,6.57-12.02,12.82-17.68,18.74h2.77c41.96-43.99,97.63-106.53,150.95-179.44v-3.42c-48.91,67.06-99.36,124.7-136.04,164.11Z"></path>
    <path class="cls-1" d="M1578.03,522.92c1-2.97,1.99-5.93,2.97-8.88,.32-.98,.64-1.96,.97-2.94,.97-2.96,1.94-5.92,2.89-8.88,.31-.96,.61-1.92,.92-2.88,.95-2.96,1.88-5.92,2.8-8.88,.29-.94,.58-1.87,.87-2.8,.92-2.97,1.83-5.94,2.72-8.9,.27-.9,.54-1.8,.81-2.7,.89-2.98,1.78-5.96,2.64-8.93,.25-.87,.5-1.73,.75-2.6,.87-2.99,1.73-5.99,2.57-8.97,.23-.83,.46-1.66,.69-2.48,.84-3.01,1.68-6.02,2.49-9.02,.21-.79,.42-1.57,.63-2.35,.82-3.04,1.63-6.07,2.42-9.09,.19-.73,.37-1.45,.56-2.18,.8-3.07,1.58-6.14,2.35-9.19,.17-.66,.33-1.32,.49-1.99,.78-3.11,1.54-6.22,2.29-9.31,.14-.59,.28-1.17,.42-1.76,.76-3.17,1.5-6.33,2.23-9.48,.11-.48,.22-.96,.33-1.44,.74-3.25,1.47-6.49,2.18-9.73,.08-.35,.15-.7,.23-1.05,.73-3.36,1.45-6.71,2.14-10.04,.04-.19,.08-.38,.12-.57,4.52-21.77,8.25-43.13,11.18-64.06,12.88-92.09,10.39-176.07-7.4-249.6C1616.65,38.89,1609.8,18.19,1602.5,0h-2.11c44.29,109.84,68.8,306.61-62.35,623.5h2.15c.06-.15,.12-.29,.18-.44,.44-1.06,.87-2.11,1.31-3.17,1.26-3.06,2.5-6.12,3.73-9.17,.43-1.06,.86-2.12,1.28-3.18,1.22-3.04,2.43-6.07,3.63-9.1,.42-1.06,.84-2.12,1.25-3.17,1.19-3.03,2.36-6.04,3.53-9.06,.41-1.06,.81-2.11,1.22-3.17,1.15-3.01,2.3-6.01,3.43-9.01,.4-1.05,.79-2.1,1.18-3.15,1.12-3,2.23-5.99,3.33-8.97,.38-1.04,.76-2.08,1.15-3.12,1.09-2.98,2.17-5.96,3.24-8.94,.37-1.03,.74-2.06,1.11-3.1,1.06-2.97,2.11-5.94,3.15-8.91,.36-1.02,.71-2.04,1.06-3.05,1.03-2.97,2.05-5.93,3.06-8.89,.34-1,.68-2.01,1.02-3.01Z"></path>
  </g>
</svg>
