<?xml version="1.0" encoding="UTF-8"?>
<svg xmlns="http://www.w3.org/2000/svg" id="Ebene_1" data-name="Ebene 1" viewBox="0 0 1728 623.5">
  <defs>
    <style>
      .cls-1 {
        fill: #64dca0;
      }
    </style>
  </defs>
  <path class="cls-1" d="M1551.57,595.27c1.19-3.03,2.36-6.04,3.53-9.06-1.16,3.01-2.34,6.03-3.53,9.06Z"></path>
  <path class="cls-1" d="M1546.69,607.55c1.22-3.04,2.43-6.07,3.63-9.1-1.2,3.03-2.4,6.06-3.63,9.1Z"></path>
  <path class="cls-1" d="M1556.32,583.05c1.15-3.01,2.3-6.01,3.43-9.01-1.13,3-2.27,6-3.43,9.01Z"></path>
  <path class="cls-1" d="M1560.93,570.9c1.12-3,2.23-5.99,3.33-8.97-1.1,2.98-2.21,5.97-3.33,8.97Z"></path>
  <path class="cls-1" d="M1541.68,619.89c1.26-3.06,2.5-6.12,3.73-9.17-1.23,3.05-2.47,6.11-3.73,9.17Z"></path>
  <path class="cls-1" d="M1540.19,623.5h0c.06-.15,.12-.29,.18-.44-.06,.15-.12,.29-.18,.44Z"></path>
  <path class="cls-1" d="M1545.41,610.73c.43-1.06,.86-2.12,1.28-3.18-.43,1.06-.85,2.12-1.28,3.18Z"></path>
  <path class="cls-1" d="M1559.74,574.05c.4-1.05,.79-2.1,1.18-3.15-.39,1.05-.79,2.1-1.18,3.15Z"></path>
  <path class="cls-1" d="M1550.32,598.45c.42-1.06,.84-2.12,1.25-3.17-.42,1.06-.83,2.11-1.25,3.17Z"></path>
  <path class="cls-1" d="M1540.37,623.06c.44-1.06,.87-2.11,1.31-3.17-.43,1.05-.87,2.11-1.31,3.17Z"></path>
  <path class="cls-1" d="M1555.1,586.22c.41-1.06,.81-2.11,1.22-3.17-.4,1.05-.81,2.11-1.22,3.17Z"></path>
  <path class="cls-1" d="M1564.26,561.93c.38-1.04,.76-2.08,1.15-3.12-.38,1.04-.76,2.08-1.15,3.12Z"></path>
  <g>
    <path class="cls-1" d="M1591.96,604.76c-6.12,6.57-12.02,12.82-17.68,18.74h2.77c41.96-43.99,97.63-106.53,150.95-179.44v-3.42c-48.91,67.06-99.36,124.7-136.04,164.11Z"></path>
    <path class="cls-1" d="M1578.03,522.92c1-2.97,1.99-5.93,2.97-8.88,.32-.98,.64-1.96,.97-2.94,.97-2.96,1.94-5.92,2.89-8.88,.31-.96,.61-1.92,.92-2.88,.95-2.96,1.88-5.92,2.8-8.88,.29-.94,.58-1.87,.87-2.8,.92-2.97,1.83-5.94,2.72-8.9,.27-.9,.54-1.8,.81-2.7,.89-2.98,1.78-5.96,2.64-8.93,.25-.87,.5-1.73,.75-2.6,.87-2.99,1.73-5.99,2.57-8.97,.23-.83,.46-1.66,.69-2.48,.84-3.01,1.68-6.02,2.49-9.02,.21-.79,.42-1.57,.63-2.35,.82-3.04,1.63-6.07,2.42-9.09,.19-.73,.37-1.45,.56-2.18,.8-3.07,1.58-6.14,2.35-9.19,.17-.66,.33-1.32,.49-1.99,.78-3.11,1.54-6.22,2.29-9.31,.14-.59,.28-1.17,.42-1.76,.76-3.17,1.5-6.33,2.23-9.48,.11-.48,.22-.96,.33-1.44,.74-3.25,1.47-6.49,2.18-9.73,.08-.35,.15-.7,.23-1.05,.73-3.36,1.45-6.71,2.14-10.04,.04-.19,.08-.38,.12-.57,4.51-21.7,8.23-42.99,11.16-63.85,12.9-92.07,10.44-176.03-7.31-249.56C1616.7,39.04,1609.83,18.25,1602.5,0h-2.11c44.29,109.84,68.8,306.61-62.35,623.5h2.15c.06-.15,.12-.29,.18-.44,.44-1.06,.87-2.11,1.31-3.17,1.26-3.06,2.5-6.12,3.73-9.17,.43-1.06,.86-2.12,1.28-3.18,1.22-3.04,2.43-6.07,3.63-9.1,.42-1.06,.84-2.12,1.25-3.17,1.19-3.02,2.36-6.04,3.53-9.06,.41-1.06,.81-2.11,1.22-3.17,1.15-3.01,2.3-6.01,3.43-9.01,.4-1.05,.79-2.1,1.18-3.15,1.12-3,2.23-5.99,3.33-8.97,.38-1.04,.76-2.08,1.15-3.12,1.09-2.98,2.17-5.96,3.24-8.94,.37-1.03,.74-2.06,1.11-3.1,1.06-2.97,2.11-5.94,3.15-8.91,.36-1.02,.71-2.04,1.06-3.05,1.03-2.97,2.05-5.93,3.06-8.89,.34-1,.68-2.01,1.02-3.01Z"></path>
  </g>
</svg>
