<?xml version="1.0" encoding="UTF-8"?>
<svg id="SVGDoc" width="216" height="40" xmlns="http://www.w3.org/2000/svg" version="1.1" xmlns:xlink="http://www.w3.org/1999/xlink" xmlns:avocode="https://avocode.com/" viewBox="0 0 216 40"><defs></defs><desc>Generated with Avocode.</desc><g><g><title>Page-1</title><g><title>Logo_beyonnex_RGB_black</title><g><title>Group</title><g><title>Shape</title><path d="M11.15816,25.57951c-2.77108,0 -4.7428,-2.13159 -4.7428,-5.27569c0,-3.09082 1.91844,-5.22241 4.7428,-5.22241c2.71779,0 4.63622,2.1316 4.63622,5.22241c0,3.09081 -1.86515,5.27569 -4.63622,5.27569zM13.12989,9.75243c-2.93094,0 -5.38227,1.49212 -6.39478,3.41055v-11.99021h-6.23491v29.14954h6.23491v-2.82436c0.95922,1.86514 3.35726,3.35726 6.23491,3.35726c5.43556,0 9.21914,-4.26319 9.21914,-10.55139c0,-6.34149 -3.677,-10.55139 -9.05927,-10.55139z" fill="#1d1d1b" fill-opacity="1"></path></g><g><title>Path</title><path d="M69.80525,11.01072v0v19.3975c0,3.25068 -1.11909,5.70201 -2.82436,7.24742c-1.75857,1.54541 -3.89016,2.34475 -7.19413,2.34475c-3.35726,0 -5.59543,-0.69277 -7.24742,-2.0783c-1.43883,-1.22567 -2.39804,-3.1441 -2.45132,-5.27569h6.28819c0.10658,1.70527 1.0658,2.71778 3.41055,2.71778c2.29147,0 3.78358,-1.38553 3.78358,-4.47635v-3.1441c-1.11909,2.1316 -3.25068,3.30397 -6.23491,3.30397c-5.00925,0 -7.24741,-3.41055 -7.24741,-8.41979v-11.61719v0h6.23491v0v10.65797c0,2.55791 0.85263,4.31647 3.46384,4.31647c2.50462,0 3.78358,-1.97172 3.78358,-5.06253v-9.91191v0z" fill="#1d1d1b" fill-opacity="1"></path></g><g><title>Shape</title><path d="M85.1194,26.06618c-2.98423,0 -4.68951,-2.25942 -4.68951,-5.40057c0,-3.14115 1.70527,-5.40057 4.68951,-5.40057c2.93093,0 4.68951,2.25942 4.68951,5.40057c0,3.14115 -1.75857,5.40057 -4.68951,5.40057zM85.17268,31.68718c6.71452,0 10.87112,-4.68417 10.87112,-11.02157c0,-6.3374 -4.1566,-10.96646 -10.87112,-10.96646c-6.76781,0 -10.92441,4.62906 -10.92441,10.96646c0,6.28229 4.1033,10.96646 10.92441,11.02157z" fill="#1d1d1b" fill-opacity="1"></path></g><g><title>Path</title><path d="M100.43821,10.30412v0h6.23489v0v3.0343c1.11911,-2.3171 3.35727,-3.58599 6.34151,-3.58599c4.74278,0 7.14082,2.81363 7.14082,8.49604v12.79923v0h-6.28819v0v-10.7028c0,-3.47565 -0.95921,-5.07556 -3.46384,-5.07556c-2.50462,0 -3.78358,1.71024 -3.78358,4.91005v10.86831v0h-6.23489v0v-20.74357v0z" fill="#1d1d1b" fill-opacity="1"></path></g><g><title>Path</title><path d="M125.77754,10.30412v0h6.23492v0v3.0343c1.11908,-2.3171 3.35724,-3.58599 6.34149,-3.58599c4.7428,0 7.14084,2.81363 7.14084,8.49604v12.79923v0h-6.23492v0v-10.7028c0,-3.47565 -0.9592,-5.07556 -3.46384,-5.07556c-2.50461,0 -3.78357,1.71024 -3.78357,4.91005v10.86831v0h-6.23492v0z" fill="#1d1d1b" fill-opacity="1"></path></g><g><title>Path</title><path d="M178.30389,20.55608v0l-7.08755,-10.27075v0h7.46057v0l3.35727,6.01888v0l3.41055,-6.01888v0h7.46057v0l-7.03424,10.27075v0l7.14081,10.49162v0h-7.46057v0l-3.51712,-6.18454v0l-3.51712,6.18454v0h-7.46057v0z" fill="#1d1d1b" fill-opacity="1"></path></g><g><title>Shape</title><path d="M35.45833,14.05084c2.66449,0 4.10331,1.54302 4.1566,4.29841h-8.52637c0.05329,-2.53496 1.70528,-4.29841 4.36977,-4.29841zM39.50835,25.45817c-0.63948,0.82662 -2.23817,1.26748 -3.78358,1.26748c-2.77107,0 -4.47635,-1.54302 -4.58293,-4.24331h13.90865c0.10658,-0.44086 0.31973,-1.76345 0.31973,-2.86561c0,-5.84143 -3.78358,-9.86431 -9.85862,-9.86431c-6.39478,0 -10.60468,4.1882 -10.60468,10.96646c0,6.94359 4.10332,11.02157 10.76455,11.02157c2.39804,0 5.06253,-0.60619 6.71452,-1.65324z" fill="#1d1d1b" fill-opacity="1"></path></g><g><title>Shape</title><path d="M160.34523,14.05084c2.66449,0 4.1033,1.54302 4.15662,4.29841h-8.5264c0.05331,-2.53496 1.70529,-4.29841 4.36978,-4.29841zM164.39525,25.45817c-0.63947,0.82662 -2.23816,1.26748 -3.78357,1.26748c-2.77109,0 -4.47635,-1.54302 -4.58292,-4.24331h13.90863c0.10657,-0.44086 0.31976,-1.76345 0.31976,-2.86561c0,-5.84143 -3.7836,-9.86431 -9.85864,-9.86431c-6.39478,0 -10.60468,4.1882 -10.60468,10.96646c0,6.94359 4.10333,11.02157 10.76456,11.02157c2.39804,0 5.06253,-0.60619 6.71451,-1.65324z" fill="#1d1d1b" fill-opacity="1"></path></g></g><g><title>Group</title><g><title>Path</title><path d="M195.62309,9.00637c0,-0.74606 0.58619,-1.38554 1.38554,-1.38554c0.79935,0 1.38554,0.63948 1.38554,1.38554c0,0.74606 -0.58619,1.38553 -1.38554,1.38553c-0.79935,0 -1.38554,-0.63948 -1.38554,-1.38553z" fill="#1d1d1b" fill-opacity="1"></path></g><g><title>Shape</title><path d="M201.27181,3.41094h2.18488v6.8211h-2.18488zM201.00536,1.49251c0,-0.74606 0.5329,-1.33225 1.33224,-1.33225c0.79935,0 1.33225,0.58619 1.33225,1.33225c0,0.74606 -0.58619,1.33225 -1.33225,1.33225c-0.74606,0 -1.33224,-0.58619 -1.33224,-1.33225z" fill="#1d1d1b" fill-opacity="1"></path></g><g><title>Shape</title><path d="M210.11792,8.47347c-1.91843,0 -2.93094,-1.43883 -2.93094,-3.19739c0,-1.75856 1.01251,-3.19739 2.93094,-3.19739c1.91844,0 2.93094,1.49212 2.93094,3.19739c0,1.75856 -1.01251,3.19739 -2.93094,3.19739zM210.17121,10.55177c3.35726,0 5.32898,-2.45133 5.32898,-5.27569c0,-2.82436 -1.97172,-5.27569 -5.32898,-5.27569c-3.35726,0 -5.32898,2.45133 -5.32898,5.27569c0,2.82436 1.97172,5.27569 5.32898,5.27569z" fill="#1d1d1b" fill-opacity="1"></path></g></g></g></g></g></svg>