<?xml version="1.0" encoding="UTF-8"?>
<svg xmlns="http://www.w3.org/2000/svg" viewBox="0 0 500 500">
  <defs>
    <style>.cls-1{fill:none;}.cls-2{fill:#004a5a;}.cls-3{fill:#64dca0;}</style>
  </defs>
  <g id="Ebene_1">
    <path class="cls-3" d="M210.99,42.94l-1.98,2.29c-.6,.7-.54,1.73,.13,2.36,16,15.03,26.01,36.36,26.01,59.99s-10.72,46.44-27.71,61.54c-1.07,.95-1.2,2.55-.27,3.63l21.33,24.6c.82,.94,2.3,.96,3.12,.03,16.23-18.47,26.08-42.66,26.08-69.1,0-35.32-17.55-66.61-44.39-85.62-.73-.52-1.75-.39-2.33,.29Z"></path>
    <g>
      <path class="cls-2" d="M444.49,222.12c-.42-.67-.91-1.3-1.49-1.88l-36.06-36.42V104.44c0-6.05-4.92-10.97-10.97-10.97h-128.1c-1.38,0-2.5,1.12-2.5,2.5s1.12,2.5,2.5,2.5h128.1c3.29,0,5.97,2.68,5.97,5.97v74.33l-38.55-38.94c-.57-.58-1.21-1.08-1.89-1.51-.32-1.01-1.26-1.74-2.37-1.74-.41,0-.79,.11-1.13,.28-.79-.18-1.59-.28-2.41-.28h-80.35c-1.38,0-2.5,1.12-2.5,2.5s1.12,2.5,2.5,2.5h80.35c.35,0,.69,.04,1.03,.1v74.32c0,6.05,4.92,10.97,10.97,10.97h73.49c.05,.32,.09,.65,.09,.98v239.18c0,3.29-2.68,5.97-5.97,5.97H202.27c-3.29,0-5.97-2.68-5.97-5.97V208.06c4.54-2.29,8.92-4.95,13.11-7.96,1.12-.8,1.38-2.37,.57-3.49-.81-1.12-2.37-1.38-3.49-.57-4.35,3.12-8.93,5.83-13.67,8.14,0,0,0,0,0,0-12.59,6.12-26.41,9.32-40.69,9.32-51.45,0-93.31-41.86-93.31-93.31S100.68,26.89,152.13,26.89c15.35,0,30.57,3.81,44.02,11.01,1.22,.65,2.73,.19,3.38-1.02,.65-1.22,.19-2.73-1.02-3.38-14.17-7.59-30.2-11.61-46.38-11.61-54.21,0-98.31,44.1-98.31,98.31s41.09,95.23,92.7,98.15v213.04c0,6.05,4.92,10.97,10.97,10.97h33.8v24.78c0,6.05,4.92,10.97,10.97,10.97h232.93c6.05,0,10.97-4.92,10.97-10.97V227.96c0-.81-.1-1.61-.27-2.38,.17-.33,.27-.71,.27-1.1,0-1.1-.71-2.02-1.69-2.35ZM157.49,437.36c-3.29,0-5.97-2.68-5.97-5.97V218.5c.2,0,.41,0,.61,0,13.65,0,26.91-2.78,39.16-8.12v226.97h-33.8Zm204.14-221.36v-70.84l76.05,76.82h-70.08c-3.29,0-5.97-2.68-5.97-5.97Z"></path>
      <path class="cls-2" d="M256.67,304.27c-.98,.98-.98,2.56,0,3.54l54.96,54.96c.36,.36,.8,.58,1.27,.68,0,0,0,0,0,0,.16,.03,.33,.05,.49,.05,0,0,0,0,0,0s0,0,0,0c.06,0,.12-.01,.18-.02,.1,0,.2-.01,.29-.03,.15-.03,.29-.07,.43-.13,.01,0,.02,0,.03,0,.34-.14,.64-.34,.88-.6l54.9-54.9c.98-.98,.98-2.56,0-3.54-.98-.98-2.56-.98-3.54,0l-50.68,50.68v-126.77c0-1.38-1.12-2.5-2.5-2.5s-2.5,1.12-2.5,2.5v126.79l-50.7-50.7c-.98-.98-2.56-.98-3.54,0Z"></path>
      <path class="cls-2" d="M258.44,399.93h109.92c1.38,0,2.5-1.12,2.5-2.5s-1.12-2.5-2.5-2.5h-109.92c-1.38,0-2.5,1.12-2.5,2.5s1.12,2.5,2.5,2.5Z"></path>
      <path class="cls-2" d="M168.85,79.21c0-6.81-5.54-12.34-12.34-12.34s-12.34,5.54-12.34,12.34,5.54,12.34,12.34,12.34,12.34-5.54,12.34-12.34Zm-12.34,7.34c-4.05,0-7.34-3.29-7.34-7.34s3.29-7.34,7.34-7.34,7.34,3.29,7.34,7.34-3.29,7.34-7.34,7.34Z"></path>
      <path class="cls-2" d="M154.01,109.31v58.99c0,1.38,1.12,2.5,2.5,2.5s2.5-1.12,2.5-2.5v-58.99c0-1.38-1.12-2.5-2.5-2.5s-2.5,1.12-2.5,2.5Z"></path>
    </g>
  </g>
  <g id="Ebene_2">
    <rect class="cls-1" y="0" width="500" height="500"></rect>
  </g>
</svg>
