<?xml version="1.0" encoding="UTF-8"?>
<svg xmlns="http://www.w3.org/2000/svg" width="200" height="56" viewBox="0 0 200 56">
  <g transform="translate(4.53 -5.47)">
    <g transform="translate(-4.53 5.47)" stroke="#000" stroke-width="1">
      <rect width="200" height="56" rx="8" stroke="none"></rect>
      <rect x="0.5" y="0.5" width="199" height="55" rx="7.5" fill="none"></rect>
    </g>
    <g transform="translate(5.47 5.47)">
      <path d="M102.805,86.4a8.068,8.068,0,0,1,3.853-6.779,8.28,8.28,0,0,0-6.523-3.522c-2.74-.288-5.4,1.641-6.8,1.641s-3.574-1.614-5.893-1.566a8.674,8.674,0,0,0-7.3,4.454c-3.16,5.469-.8,13.5,2.221,17.922,1.514,2.167,3.282,4.583,5.6,4.5,2.267-.091,3.11-1.442,5.843-1.442s3.5,1.442,5.864,1.387c2.43-.036,3.962-2.174,5.422-4.359a17.843,17.843,0,0,0,2.48-5.048A7.812,7.812,0,0,1,102.805,86.4Z" transform="translate(-64.855 -59.907)" fill="#fff"></path>
      <path d="M147.383,43.928a7.96,7.96,0,0,0,1.813-5.7,8.067,8.067,0,0,0-5.238,2.72,7.579,7.579,0,0,0-1.868,5.49A6.724,6.724,0,0,0,147.383,43.928Z" transform="translate(-113.893 -30.23)" fill="#fff"></path>
      <path d="M276.57,130.438H273.4L271.663,125h-6.02l-1.652,5.44h-3.08l5.97-18.548h3.688Zm-5.424-7.734-1.568-4.844q-.247-.732-.941-3.493h-.057q-.274,1.183-.882,3.493l-1.541,4.844Z" transform="translate(-205.813 -87.665)" fill="#fff"></path>
      <path d="M353.687,140.3a7.571,7.571,0,0,1-1.854,5.392,5.44,5.44,0,0,1-4.123,1.761,4.13,4.13,0,0,1-3.819-1.895v7.027h-2.972V138.17q0-2.142-.109-4.4h2.613l.165,2.122h.054a5.286,5.286,0,0,1,8.461-.526A7.371,7.371,0,0,1,353.687,140.3Zm-3.028.109a5.529,5.529,0,0,0-.879-3.221,3.049,3.049,0,0,0-2.579-1.319,3.1,3.1,0,0,0-1.994.727,3.4,3.4,0,0,0-1.179,1.915,3.917,3.917,0,0,0-.136.907v2.23a3.574,3.574,0,0,0,.893,2.464,2.976,2.976,0,0,0,2.326,1.006,3.049,3.049,0,0,0,2.613-1.3,5.653,5.653,0,0,0,.936-3.4Z" transform="translate(-267.602 -104.582)" fill="#fff"></path>
      <path d="M421.547,140.3a7.577,7.577,0,0,1-1.852,5.392,5.44,5.44,0,0,1-4.125,1.761,4.133,4.133,0,0,1-3.819-1.895v7.027h-2.972V138.17q0-2.142-.109-4.4h2.613l.165,2.122h.054a5.289,5.289,0,0,1,8.464-.526A7.394,7.394,0,0,1,421.547,140.3Zm-3.028.109a5.518,5.518,0,0,0-.882-3.221,3.037,3.037,0,0,0-2.584-1.319,3.108,3.108,0,0,0-2,.728,3.384,3.384,0,0,0-1.167,1.915,3.957,3.957,0,0,0-.141.907v2.23a3.586,3.586,0,0,0,.893,2.464,2.974,2.974,0,0,0,2.328,1.006,3.046,3.046,0,0,0,2.616-1.3,5.642,5.642,0,0,0,.934-3.4Z" transform="translate(-320.081 -104.582)" fill="#fff"></path>
      <path d="M502.113,124.3a4.95,4.95,0,0,1-1.648,3.853,7.325,7.325,0,0,1-5.052,1.623,8.817,8.817,0,0,1-4.8-1.156l.68-2.475a8.284,8.284,0,0,0,4.293,1.156,4.045,4.045,0,0,0,2.613-.757,2.468,2.468,0,0,0,.938-2.02,2.591,2.591,0,0,0-.773-1.9,7.108,7.108,0,0,0-2.559-1.428q-4.871-1.813-4.873-5.313a4.69,4.69,0,0,1,1.72-3.742,6.788,6.788,0,0,1,4.556-1.46,8.992,8.992,0,0,1,4.209.879l-.743,2.423a7.348,7.348,0,0,0-3.563-.852,3.621,3.621,0,0,0-2.459.771,2.208,2.208,0,0,0-.746,1.68,2.282,2.282,0,0,0,.855,1.813,9.668,9.668,0,0,0,2.7,1.428,9.229,9.229,0,0,1,3.52,2.255A4.7,4.7,0,0,1,502.113,124.3Z" transform="translate(-383.448 -86.731)" fill="#fff"></path>
      <path d="M557.018,125.565h-3.275v6.494q0,2.48,1.734,2.475a5.24,5.24,0,0,0,1.319-.138l.082,2.267a6.755,6.755,0,0,1-2.312.32,3.556,3.556,0,0,1-2.752-1.074,5.275,5.275,0,0,1-.993-3.606V125.56H548.87v-2.23h1.952v-2.448l2.922-.882v3.33h3.275Z" transform="translate(-428.503 -93.951)" fill="#fff"></path>
      <path d="M605.191,140.375a7.332,7.332,0,0,1-1.761,5.064,6.28,6.28,0,0,1-4.9,2.04,5.991,5.991,0,0,1-4.694-1.949,7.1,7.1,0,0,1-1.748-4.925,7.274,7.274,0,0,1,1.8-5.091,6.252,6.252,0,0,1,4.86-1.983,6.1,6.1,0,0,1,4.733,1.956A6.988,6.988,0,0,1,605.191,140.375Zm-3.08.068a6,6,0,0,0-.8-3.155,2.939,2.939,0,0,0-2.67-1.587,2.985,2.985,0,0,0-2.72,1.587,6.087,6.087,0,0,0-.8,3.212,5.973,5.973,0,0,0,.8,3.157,2.993,2.993,0,0,0,2.7,1.587,2.953,2.953,0,0,0,2.67-1.618,6.014,6.014,0,0,0,.818-3.189Z" transform="translate(-461.927 -104.43)" fill="#fff"></path>
      <path d="M668.1,136.387a5.176,5.176,0,0,0-.936-.082,2.8,2.8,0,0,0-2.423,1.185,4.454,4.454,0,0,0-.741,2.641v7.027h-2.972v-9.171q0-2.312-.086-4.211h2.589l.109,2.559h.082a4.583,4.583,0,0,1,1.487-2.119,3.588,3.588,0,0,1,2.146-.716,4.609,4.609,0,0,1,.743.054v2.833Z" transform="translate(-515.171 -104.402)" fill="#fff"></path>
      <path d="M710.558,139.753a6.9,6.9,0,0,1-.109,1.346h-8.915a3.882,3.882,0,0,0,1.294,3.03,4.449,4.449,0,0,0,2.915.934,9.831,9.831,0,0,0,3.609-.632l.453,2.063a11.165,11.165,0,0,1-4.483.825,6.5,6.5,0,0,1-4.887-1.827,6.748,6.748,0,0,1-1.775-4.912,7.659,7.659,0,0,1,1.655-5.034,5.689,5.689,0,0,1,4.676-2.146,4.983,4.983,0,0,1,4.377,2.146A7.178,7.178,0,0,1,710.558,139.753Zm-2.833-.777a4.033,4.033,0,0,0-.576-2.267,2.6,2.6,0,0,0-2.369-1.242,2.817,2.817,0,0,0-2.364,1.213,4.439,4.439,0,0,0-.879,2.3Z" transform="translate(-544.341 -104.329)" fill="#fff"></path>
      <path d="M274.526,47.119h-3.563v3.3h3.971v.993H269.78V42.25h4.95v.993h-3.767v2.894h3.563Z" transform="translate(-212.672 -33.467)" fill="#fff"></path>
      <path d="M302.534,55.183c0-.775-.014-1.439-.054-2.054h1.047l.041,1.294h.054a1.973,1.973,0,0,1,1.813-1.444,1.289,1.289,0,0,1,.34.043v1.133a1.813,1.813,0,0,0-.408-.039,1.677,1.677,0,0,0-1.6,1.535,3.4,3.4,0,0,0-.054.558v3.5h-1.183Z" transform="translate(-237.96 -41.794)" fill="#fff"></path>
      <path d="M326.18,40.09h1.2V44.2h.027a2.242,2.242,0,0,1,.857-.845,2.494,2.494,0,0,1,1.224-.34c.884,0,2.3.546,2.3,2.815v3.917h-1.2V45.963c0-1.061-.394-1.958-1.523-1.958a1.723,1.723,0,0,0-1.6,1.2,1.448,1.448,0,0,0-.082.571v3.971h-1.2Z" transform="translate(-256.288 -31.669)" fill="#fff"></path>
      <path d="M364.962,51.507l-.1-.834h-.041a2.452,2.452,0,0,1-2.013.979,1.875,1.875,0,0,1-2.013-1.89c0-1.587,1.414-2.462,3.957-2.448v-.136a1.355,1.355,0,0,0-1.5-1.521,3.28,3.28,0,0,0-1.714.49l-.272-.791a4.105,4.105,0,0,1,2.162-.576c2.013,0,2.493,1.376,2.493,2.693v2.457a9.266,9.266,0,0,0,.109,1.587Zm-3.3-8.443a.7.7,0,0,1,.694-.694.666.666,0,0,1,.666.694.68.68,0,1,1-1.36,0Zm3.128,5.084c-1.306-.027-2.788.2-2.788,1.482a1.058,1.058,0,0,0,1.133,1.133,1.639,1.639,0,0,0,1.587-1.1,1.249,1.249,0,0,0,.068-.381Zm-.6-5.084a.68.68,0,0,1,.68-.694.666.666,0,0,1,.666.694.68.68,0,1,1-1.346,0Z" transform="translate(-283.062 -33.562)" fill="#fff"></path>
      <path d="M395.6,40.09h1.2v9.654h-1.2Z" transform="translate(-309.974 -31.669)" fill="#fff"></path>
      <path d="M412.311,45.31V47.2h1.714V48.1h-1.714v3.554c0,.816.227,1.278.907,1.278a2.664,2.664,0,0,0,.694-.082l.054.907a2.931,2.931,0,0,1-1.061.163,1.659,1.659,0,0,1-1.292-.5,2.44,2.44,0,0,1-.453-1.714v-3.6h-1.02V47.2h1.02V45.618Z" transform="translate(-321.218 -35.843)" fill="#fff"></path>
      <path d="M436.82,40.09h1.2v9.654h-1.2Z" transform="translate(-341.851 -31.669)" fill="#fff"></path>
      <path d="M455.4,42.936a.741.741,0,1,1-1.482,0,.73.73,0,0,1,.748-.748.709.709,0,0,1,.734.748Zm-1.333,8.43V44.793h1.2v6.573Z" transform="translate(-355.074 -33.419)" fill="#fff"></path>
      <path d="M475.288,59.52a4.409,4.409,0,0,1-1.89.381,3.127,3.127,0,0,1-3.278-3.359,3.35,3.35,0,0,1,3.536-3.493,4,4,0,0,1,1.659.34l-.272.925A2.747,2.747,0,0,0,473.656,54a2.279,2.279,0,0,0-2.326,2.493,2.256,2.256,0,0,0,2.285,2.459,3.4,3.4,0,0,0,1.464-.329Z" transform="translate(-367.603 -41.848)" fill="#fff"></path>
      <path d="M502.7,40.09h1.2V44.2h.027a2.241,2.241,0,0,1,.857-.845,2.493,2.493,0,0,1,1.224-.34c.884,0,2.3.546,2.3,2.815v3.917h-1.2V45.963c0-1.061-.394-1.958-1.523-1.958a1.723,1.723,0,0,0-1.6,1.2,1.449,1.449,0,0,0-.082.571v3.971h-1.2Z" transform="translate(-392.798 -31.669)" fill="#fff"></path>
      <path d="M556.742,42.936a.741.741,0,1,1-1.482,0,.73.73,0,0,1,.748-.748.709.709,0,0,1,.734.748Zm-1.333,8.43V44.793h1.2v6.573Z" transform="translate(-433.444 -33.419)" fill="#fff"></path>
      <path d="M573.374,54.922c0-.68-.014-1.238-.054-1.784h1.047l.054,1.061h.041a2.267,2.267,0,0,1,2.067-1.206,1.947,1.947,0,0,1,1.863,1.321h.027a2.72,2.72,0,0,1,.734-.868,2.266,2.266,0,0,1,1.455-.453c.87,0,2.162.573,2.162,2.856v3.876H581.6V55.995c0-1.265-.453-2.024-1.428-2.024a1.548,1.548,0,0,0-1.414,1.086,1.972,1.972,0,0,0-.1.6v4.066H577.5V55.777c0-1.047-.453-1.813-1.374-1.813a1.633,1.633,0,0,0-1.482,1.195,1.657,1.657,0,0,0-.1.585v3.978h-1.17Z" transform="translate(-447.411 -41.803)" fill="#fff"></path>
    </g>
  </g>
</svg>
