<?xml version="1.0" encoding="UTF-8"?>
<svg xmlns="http://www.w3.org/2000/svg" xmlns:xlink="http://www.w3.org/1999/xlink" width="200" height="56" viewBox="0 0 200 56">
  <defs>
    <linearGradient id="a" x1="1.001" y1="-36.478" x2="-0.294" y2="-35.803" gradientUnits="objectBoundingBox">
      <stop offset="0" stop-color="#4696d2"></stop>
      <stop offset="0.01" stop-color="#4598d3"></stop>
      <stop offset="0.26" stop-color="#3fb9eb"></stop>
      <stop offset="0.51" stop-color="#4ac1ed"></stop>
      <stop offset="0.76" stop-color="#5cc4e6"></stop>
      <stop offset="1" stop-color="#60c4e5"></stop>
    </linearGradient>
    <linearGradient id="b" x1="1.182" y1="-106.513" x2="-1.193" y2="-106.513" gradientUnits="objectBoundingBox">
      <stop offset="0" stop-color="#ffe00a"></stop>
      <stop offset="0.41" stop-color="#fbbc0f"></stop>
      <stop offset="0.78" stop-color="#f7a418"></stop>
      <stop offset="1" stop-color="#f59a1b"></stop>
    </linearGradient>
    <linearGradient id="c" x1="0.43" y1="-71.642" x2="-0.931" y2="-69.856" gradientUnits="objectBoundingBox">
      <stop offset="0" stop-color="#e8404a"></stop>
      <stop offset="1" stop-color="#c31262"></stop>
    </linearGradient>
    <linearGradient id="d" x1="-0.618" y1="-71.108" x2="-0.011" y2="-70.311" gradientUnits="objectBoundingBox">
      <stop offset="0" stop-color="#32a071"></stop>
      <stop offset="0.07" stop-color="#2da771"></stop>
      <stop offset="0.48" stop-color="#4fb26f"></stop>
      <stop offset="0.8" stop-color="#61b668"></stop>
      <stop offset="1" stop-color="#64b664"></stop>
    </linearGradient>
  </defs>
  <g transform="translate(5 2)">
    <g transform="translate(-5 -2)" stroke="#000" stroke-width="1">
      <rect width="200" height="56" rx="8" stroke="none"></rect>
      <rect x="0.5" y="0.5" width="199" height="55" rx="7.5" fill="none"></rect>
    </g>
    <g transform="translate(-7.295 -2.552)">
      <path d="M293.7,110.652a6.425,6.425,0,1,0,6.529,6.432A6.371,6.371,0,0,0,293.7,110.652Zm0,10.316a3.9,3.9,0,1,1,3.67-3.884,3.733,3.733,0,0,1-3.67,3.884Zm-14.23-10.316a6.424,6.424,0,1,0,6.522,6.425A6.366,6.366,0,0,0,279.469,110.652Zm0,10.316a3.9,3.9,0,1,1,3.665-3.891,3.737,3.737,0,0,1-3.665,3.891Zm-16.93-8.347v2.735h6.609a5.69,5.69,0,0,1-1.492,3.429,6.82,6.82,0,0,1-5.095,1.989,7.25,7.25,0,1,1,0-14.5,7.037,7.037,0,0,1,4.973,1.947l1.947-1.922a9.68,9.68,0,0,0-6.917-2.752,9.98,9.98,0,1,0-.025,19.954,9.28,9.28,0,0,0,7.044-2.8,9.719,9.719,0,0,0,2.238-8.076Zm69.235,2.116a6.022,6.022,0,0,0-5.567-4.085,6.122,6.122,0,0,0-6.127,6.432,6.32,6.32,0,0,0,6.447,6.422,6.465,6.465,0,0,0,5.418-2.847l-2.215-1.46a3.725,3.725,0,0,1-3.2,1.775,3.289,3.289,0,0,1-3.148-1.944l8.7-3.556Zm-8.864,2.138a3.543,3.543,0,0,1,3.394-3.745,2.531,2.531,0,0,1,2.419,1.363Zm-7.066,6.234H318.7V104.23h-2.859Zm-4.675-11.027h-.095a4.53,4.53,0,0,0-3.416-1.43,6.427,6.427,0,0,0,0,12.847,4.476,4.476,0,0,0,3.416-1.46h.094v.92c0,2.457-1.328,3.777-3.481,3.777a3.6,3.6,0,0,1-3.275-2.295l-2.486,1.027a6.2,6.2,0,0,0,5.761,3.8c3.352,0,6.179-1.947,6.179-6.689V111.043h-2.7Zm-3.267,8.887a3.7,3.7,0,0,1-3.618-3.871,3.744,3.744,0,0,1,3.618-3.916,3.918,3.918,0,0,1,0,7.788Zm37.249-16.739h-6.835v18.88h2.852v-7.154h3.978a5.876,5.876,0,1,0,0-11.726Zm.075,9.1h-4.058v-6.465h4.065a3.232,3.232,0,1,1,0,6.465Zm17.616-2.71a5.356,5.356,0,0,0-5.08,2.892l2.529,1.047a2.706,2.706,0,0,1,2.6-1.387c1.492,0,2.984.878,3,2.429v.2a6.348,6.348,0,0,0-2.984-.729c-2.735,0-5.5,1.492-5.5,4.247,0,2.529,2.238,4.16,4.724,4.16a4.04,4.04,0,0,0,3.643-1.85h.1v1.457h2.753v-7.241C368.648,112.49,366.12,110.62,362.842,110.62Zm-.343,10.346c-.932,0-2.238-.455-2.238-1.6,0-1.46,1.619-2.021,3.021-2.021a5.165,5.165,0,0,1,2.606.634,3.446,3.446,0,0,1-3.389,2.981Zm16.177-9.931-3.275,8.183h-.1l-3.387-8.183h-3.061l5.09,11.438-2.9,6.365h2.984l7.84-17.8Zm-25.69,12.074h2.859V104.23h-2.859Z" transform="translate(-191.524 -80.716)" fill="#fff"></path>
      <g transform="translate(13.295 9.042)">
        <path d="M61.989,45.459a2.993,2.993,0,0,0-.709,2.123v33.4a2.94,2.94,0,0,0,.709,2.126l.112.1L81.037,64.5v-.44L62.1,45.35Z" transform="translate(-61.28 -45.35)" fill="url(#a)"></path>
      </g>
      <g transform="translate(33.052 21.511)">
        <path d="M147.046,108.422l-6.306-6.241v-.44l6.313-6.241.139.082,7.477,4.2c2.133,1.193,2.133,3.155,0,4.356l-7.477,4.2Z" transform="translate(-140.74 -95.5)" fill="url(#b)"></path>
      </g>
      <g transform="translate(14.004 27.972)">
        <path d="M89.631,127.86l-6.452-6.38L64.13,140.31c.709.746,1.865.823,3.178.087L89.631,127.86" transform="translate(-64.13 -121.48)" fill="url(#c)"></path>
      </g>
      <g transform="translate(14.004 8.552)">
        <path d="M89.631,56.419,67.308,43.88c-1.313-.729-2.469-.639-3.178.1L83.179,62.8Z" transform="translate(-64.13 -43.377)" fill="url(#d)"></path>
      </g>
      <path d="M256.273,42.23V48.2c0,1.8-.348,3.618-2.536,3.618a2.75,2.75,0,0,1-1.467-.41l.584-.995a1.556,1.556,0,0,0,.932.311c1.343,0,1.318-1.566,1.318-2.524V42.23Z" transform="translate(-191.486 -33.386)" fill="#fff"></path>
      <path d="M278.92,42.23h5.035V43.3h-3.866v2.623h3.755v1.072h-3.755v3.543h3.866v1.069H278.92Z" transform="translate(-211.51 -33.384)" fill="#fff"></path>
      <path d="M308.864,51.606H307.7V43.3H305.47V42.23h5.619V43.3h-2.225Z" transform="translate(-231.459 -33.384)" fill="#fff"></path>
      <path d="M339.271,50.537v1.069H332.62l4.749-8.307h-4.078V42.23h5.98l-4.749,8.307Z" transform="translate(-251.858 -33.384)" fill="#fff"></path>
      <path d="M367.264,51.606H366.1V43.3H363.87V42.23h5.619V43.3h-2.238Z" transform="translate(-275.338 -33.384)" fill="#fff"></path>
      <path d="M412.22,42.23h1.144c1.765,0,3.431.46,3.431,2.573a2,2,0,0,1-1.007,1.778v.025a2.416,2.416,0,0,1,1.877,2.377c0,1.877-1.6,2.623-3.257,2.623H412.22Zm1.169,4.155h.3c1.106,0,2.014-.226,2.014-1.569s-.9-1.542-1.989-1.542h-.323Zm0,4.177h.9c1.082,0,2.213-.323,2.213-1.653s-1.343-1.591-2.387-1.591h-.721Z" transform="translate(-311.666 -33.384)" fill="#fff"></path>
      <path d="M443.37,42.23h5.035V43.3h-3.866v2.623h3.755v1.072h-3.755v3.543h3.866v1.069H443.37Z" transform="translate(-335.07 -33.384)" fill="#fff"></path>
      <path d="M474.469,51.606H473.3V42.23h1.169Z" transform="translate(-357.559 -33.384)" fill="#fff"></path>
    </g>
  </g>
</svg>
