<?xml version="1.0" encoding="UTF-8"?><svg id="Ebene_1" xmlns="http://www.w3.org/2000/svg" width="256" height="256" viewBox="0 0 256 256"><defs><style>.cls-1{fill:#00de97;}.cls-2{fill:#004b5c;}.cls-3{fill:#fff;}</style></defs><rect class="cls-2" width="256" height="256" rx="31.8915" ry="31.8915"/><path id="Pfad_104" class="cls-1" d="M149.5565,32.9903l-2.4491,2.8244c-.7432,.8598-.6708,2.1539,.1636,2.9255,40.9441,38.3321,43.0614,102.5982,4.7293,143.5422-2.1707,2.3186-4.4489,4.534-6.8272,6.6391-1.3261,1.1513-1.4724,3.1579-.3272,4.4893l26.3583,30.4048c.9307,1.0712,2.5536,1.1851,3.6248,.2543,.0793-.0689,.1543-.1426,.2245-.2206,47.1955-53.6541,41.9599-135.4089-11.6942-182.6044-3.4832-3.0639-7.1286-5.9383-10.9206-8.6106-.9112-.6393-2.1584-.4855-2.887,.3561"/><path class="cls-3" d="M50.9976,162.9258c-.6973-.6914-1.0449-1.5322-1.0449-2.5225V63.8218c0-1.0874,.3213-1.9775,.9707-2.6704,.6465-.6909,1.5166-1.0386,2.6133-1.0386h13.1455c1.0938,0,1.9902,.3477,2.6885,1.0386,.6953,.6929,1.0449,1.583,1.0449,2.6704v34.7158l33.7578-35.7544c1.293-1.7803,3.2354-2.6704,5.8262-2.6704h14.7871c.7959,0,1.5176,.2964,2.166,.8901,.6465,.5933,.9707,1.335,.9707,2.2251,0,.6934-.2002,1.2866-.5967,1.7803l-41.0771,44.8047,43.9146,49.1069c.498,.5928,.7461,1.2373,.7461,1.9287,0,.8896-.3242,1.6318-.9707,2.2246-.6484,.5938-1.3696,.8906-2.1655,.8906h-15.3848c-2.4902,0-4.4326-.8906-5.8252-2.6709l-36.1484-39.3145v38.4248c0,1.0898-.3496,1.9541-1.0449,2.5967-.6982,.6436-1.5947,.9639-2.6885,.9639h-13.1455c-.9961,0-1.8438-.3457-2.5391-1.0381Z"/></svg>