<?xml version="1.0" encoding="UTF-8"?>
<svg xmlns="http://www.w3.org/2000/svg" id="Ebene_1" preserveAspectRatio="none" viewBox="0 0 1440 508">
  <defs>
    <style>.cls-1{fill:none;stroke:#64dca0;stroke-miterlimit:10;}</style>
  </defs>
  <g id="pattern-white-mirrorred-vertical" transform="translate(0.521 0.527)">
    <path id="Pfad_1559" class="cls-1" d="M-92.95,32.4294c-168.5139-72.3144-508.451,126.6945-222.4663,222.3616C66.6402,382.6029,48.4679,582.8179,48.4679,582.8179,246.0062,329.8964,74.216,104.1654-92.95,32.4294Z"></path>
    <path id="Pfad_1560" class="cls-1" d="M48.4641,582.8192s179.5119,13.0046,150.0588-126.9916C148.2934,217.0669-315.4197,254.7933-315.4197,254.7933"></path>
  </g>
  <g id="pattern-white-mirrorred-vertical-2" transform="translate(0.521 0.527)">
    <path id="Pfad_1559-2" class="cls-1" d="M1705.5602,354.69s-267.5843-113.5679-219.0256-667.2361c36.3547-414.4395-408.9915-133.8945-409.9116,121.1226-.9127,252.9772,193.6204,616.0416,628.9372,546.1134Z"></path>
    <path id="Pfad_1560-2" class="cls-1" d="M1486.5394-312.5488s-306.9304,541.2144-27.8992,764.5308c163.6081,130.9422,246.9237-97.2957,246.9237-97.2957"></path>
  </g>
</svg>
