<?xml version="1.0" encoding="UTF-8"?>
<svg xmlns="http://www.w3.org/2000/svg" xmlns:xlink="http://www.w3.org/1999/xlink" version="1.1" x="0px" y="0px" viewBox="0 0 176 176" style="enable-background:new 0 0 176 176;" xml:space="preserve">
<style type="text/css">
	.st0{fill:none;stroke:#004A5A;stroke-width:2;stroke-linecap:round;stroke-linejoin:round;stroke-miterlimit:10;}
	.st1{fill:#64DCA0;}
	.st2{fill:#FFFFFF;}
	.st3{fill:#FFFFFF;stroke:#004A5A;stroke-width:2;stroke-linecap:round;stroke-linejoin:round;stroke-miterlimit:10;}
	.st4{fill:none;stroke:#004A5A;stroke-width:2;stroke-linecap:round;stroke-linejoin:round;}
	.st5{fill:none;}
	.st6{fill:#004A5A;}
	.st7{fill:#E6007E;}
</style>
<g id="Ebene_1">
</g>
<g id="Ebene_2">
	<g>
		<g>
			<g>
				<g>
					<g>
						<path class="st1" d="M106.4,70l-0.5,0.6c-0.2,0.2-0.1,0.5,0,0.6c4.3,4,6.9,9.7,6.9,16c0,6.5-2.9,12.4-7.4,16.4        c-0.3,0.3-0.3,0.7-0.1,1l5.7,6.6c0.2,0.3,0.6,0.3,0.8,0c4.3-4.9,7-11.4,7-18.4c0-9.4-4.7-17.8-11.8-22.8        C106.8,69.8,106.5,69.9,106.4,70z"></path>
					</g>
					<g>
						<path class="st6" d="M90.7,117.2c-14.6,0-26.6-11.9-26.6-26.6S76,64.1,90.7,64.1c4.5,0,9,1.2,12.9,3.3        c0.5,0.3,0.7,0.9,0.4,1.4c-0.3,0.5-0.9,0.7-1.4,0.4c-3.6-2-7.7-3.1-11.9-3.1c-13.5,0-24.6,11-24.6,24.6s11,24.6,24.6,24.6        c5.2,0,10.1-1.6,14.3-4.6c0.4-0.3,1.1-0.2,1.4,0.2c0.3,0.4,0.2,1.1-0.2,1.4C101.6,115.5,96.3,117.2,90.7,117.2z"></path>
					</g>
					<g>
						<path class="st6" d="M86.1,102c-0.6,0-1.2-0.2-1.6-0.7l-7.9-7.9c-0.4-0.4-0.4-1,0-1.4c0.4-0.4,1-0.4,1.4,0l7.9,7.9        c0.1,0.1,0.3,0.1,0.4,0l17.8-17.9c0.4-0.4,1-0.4,1.4,0s0.4,1,0,1.4l-17.8,17.9C87.3,101.7,86.7,102,86.1,102z"></path>
					</g>
				</g>
			</g>
		</g>
		<g>
			<path class="st6" d="M150.4,23.5h-34.6c-2,0-3.8,1.2-4.5,2.9h-3.9c-0.6,0-1,0.4-1,1v5c0,0.6,0.4,1,1,1h3.4v16.9c0,2.8,2.2,5,5,5     H145v3.1c0,0.6,0.4,1,1,1s1-0.4,1-1v-3.1h2.1v3.1c0,0.6,0.4,1,1,1s1-0.4,1-1v-3.2c2.4-0.4,4.3-2.4,4.3-4.9V28.5     C155.4,25.8,153.2,23.5,150.4,23.5z M108.4,31.5v-3h2.4c0,0,0,0,0,0.1v3H108.4z M153.4,50.3c0,1.7-1.3,3-3,3h-34.6     c-1.7,0-3-1.3-3-3V28.5c0-1.7,1.3-3,3-3h34.6c1.7,0,3,1.3,3,3V50.3z"></path>
			<path class="st6" d="M118.3,29.6c-0.6,0-1,0.4-1,1v17.6c0,0.6,0.4,1,1,1c0.6,0,1-0.4,1-1V30.6C119.3,30.1,118.9,29.6,118.3,29.6z     "></path>
			<path class="st6" d="M147.9,29.6c-0.6,0-1,0.4-1,1v17.6c0,0.6,0.4,1,1,1s1-0.4,1-1V30.6C148.9,30.1,148.4,29.6,147.9,29.6z"></path>
			<path class="st6" d="M133.1,29.6c-0.6,0-1,0.4-1,1v17.6c0,0.6,0.4,1,1,1c0.6,0,1-0.4,1-1V30.6C134.1,30.1,133.7,29.6,133.1,29.6z     "></path>
			<path class="st6" d="M125.7,29.6c-0.6,0-1,0.4-1,1v17.6c0,0.6,0.4,1,1,1s1-0.4,1-1V30.6C126.7,30.1,126.3,29.6,125.7,29.6z"></path>
			<path class="st6" d="M140.5,29.6c-0.6,0-1,0.4-1,1v17.6c0,0.6,0.4,1,1,1c0.6,0,1-0.4,1-1V30.6C141.5,30.1,141,29.6,140.5,29.6z"></path>
			<path class="st6" d="M127.2,17.5c0,1.2-0.7,2.3-0.7,2.3c-0.3,0.5-0.2,1.1,0.2,1.4c0.2,0.1,0.4,0.2,0.6,0.2c0.3,0,0.6-0.1,0.8-0.4     c0.1-0.2,1.2-1.7,1.1-3.5c0-1.3-0.5-2-0.8-2.6c-0.3-0.5-0.5-0.8-0.5-1.6c0-1.2,0.8-2.3,0.8-2.4c0.3-0.5,0.2-1.1-0.2-1.4     c-0.4-0.3-1.1-0.2-1.4,0.2c0,0.1-1.2,1.7-1.1,3.6c0,1.3,0.5,2,0.8,2.6C126.9,16.4,127.1,16.7,127.2,17.5z"></path>
			<path class="st6" d="M132.8,17.5c0,1.2-0.7,2.3-0.7,2.3c-0.3,0.5-0.2,1.1,0.2,1.4c0.2,0.1,0.4,0.2,0.6,0.2c0.3,0,0.6-0.1,0.8-0.4     c0.1-0.2,1.2-1.7,1.1-3.5c0-1.3-0.5-2-0.8-2.6c-0.3-0.5-0.5-0.8-0.5-1.6c0-1.2,0.7-2.3,0.8-2.4c0.3-0.5,0.2-1.1-0.2-1.4     c-0.5-0.3-1.1-0.2-1.4,0.2c0,0.1-1.2,1.7-1.1,3.6c0,1.3,0.5,2,0.8,2.6C132.6,16.4,132.8,16.7,132.8,17.5z"></path>
			<path class="st6" d="M138.4,17.5c0,1.2-0.7,2.3-0.7,2.3c-0.3,0.5-0.2,1.1,0.2,1.4c0.2,0.1,0.4,0.2,0.6,0.2c0.3,0,0.6-0.1,0.8-0.4     c0.1-0.2,1.2-1.7,1.1-3.5c0-1.3-0.5-2-0.8-2.6c-0.3-0.5-0.5-0.8-0.5-1.6c0-1.2,0.7-2.3,0.8-2.4c0.3-0.5,0.2-1.1-0.2-1.4     c-0.5-0.3-1.1-0.2-1.4,0.2c0,0.1-1.2,1.7-1.1,3.6c0,1.3,0.5,2,0.8,2.6C138.2,16.4,138.4,16.7,138.4,17.5z"></path>
		</g>
		<g>
			<path class="st6" d="M43.7,122.3h-1.8c-2.5,0-4.9,1-6.7,2.8s-2.8,4.2-2.8,6.7c0,0.5,0.2,1,0.5,1.3c0.3,0.3,0.8,0.5,1.3,0.5h17     c0.5,0,1-0.2,1.3-0.5c0.3-0.3,0.5-0.8,0.5-1.3C53.2,126.6,48.9,122.4,43.7,122.3z M45.2,131.7l3-3.1c0.4-0.4,0.4-1,0-1.4     c-0.4-0.4-1-0.4-1.4,0l-4.4,4.5h-8c0-1.9,0.8-3.8,2.2-5.1c1.4-1.4,3.3-2.2,5.3-2.2h1.8c4.1,0,7.4,3.3,7.5,7.3H45.2z"></path>
			<path class="st6" d="M48.5,145.4c-0.2-0.2-0.6-0.6-1.2-0.6c-0.3,0-0.7,0.1-0.9,0.4c-0.1,0.1-0.1,0.2-0.2,0.3c0-0.1,0-0.2,0-0.2     c-0.1-1.1-0.2-2.2-0.5-3.3c-0.5-2.5-1.7-4.4-3.2-5.5c-0.3-0.2-0.6-0.3-0.9-0.3c-0.2,0-0.4,0.1-0.6,0.2c-0.3,0.2-0.6,0.5-0.6,1.2     c0.1,1.7-0.2,3.5-0.8,5.1c-0.5,1.4-1.4,2.8-2.2,4.1c-1.7,2.8-4,6.5-2.5,10.7c0.7,1.9,2.1,3.6,3.9,4.6c0.3,0.2,0.5,0.2,0.8,0.2     c0.4,0,0.7-0.2,0.9-0.4c0.2-0.2,0.5-0.7,0.1-1.5c-0.6-1.1-0.7-2.7-0.4-4.6c0.4-2,1.1-3.9,2.2-5.6c0.3,0.5,0.5,1,0.8,1.5     c1,1.9,1.9,3.7,2.3,5.6c0.3,1.3,0.2,2.2-0.1,2.9c-0.1,0.3-0.4,0.8-0.2,1.3c0.1,0.3,0.4,0.6,0.7,0.7c0.3,0.1,0.7,0.1,1.1-0.1     c1.7-0.8,3.1-2.5,3.9-4.5c0.6-1.7,0.8-3.7,0.5-5.7C51.1,149.4,50.1,147.1,48.5,145.4z M49,157c-0.3,0.8-0.8,1.6-1.3,2.2     c0-0.7,0-1.5-0.2-2.3c-0.5-2.1-1.4-4-2.5-6c-0.4-0.8-0.8-1.5-1.2-2.2c-0.4-0.8-0.9-0.9-1.3-0.9c0,0-0.1,0-0.1,0     c-0.6,0.1-1,0.5-1.1,0.7c-1.5,2.1-2.5,4.6-3,7.1c-0.2,1.3-0.3,2.5-0.2,3.5c-0.5-0.6-1-1.3-1.2-2.1c-1.1-3,0.4-5.9,2.3-9.1     c0.8-1.4,1.7-2.8,2.3-4.4c0.5-1.3,0.8-2.8,0.9-4.2c0.7,1,1.1,2.2,1.3,3.2c0.2,1,0.3,2,0.4,3.1c0.1,0.9,0.2,1.7,0.4,2.6     c0.1,0.5,0.4,1.1,0.9,1.4c0.4,0.2,0.8,0.2,1.1,0c0.5-0.2,0.7-0.6,0.7-0.8c0.2-0.3,0.3-0.7,0.4-1c0.9,1.3,1.4,2.8,1.7,4.6     C49.7,154,49.6,155.6,49,157z"></path>
			<path class="st6" d="M59.1,119.2c-0.1-1.4-1-2.7-2.3-3.4c-4.6-2.3-9.8-3.6-14.9-3.6c-4.7,0-9.3,1.2-13.4,3.5     c-1.3,0.8-2.1,2.1-2,3.6v40.7c0,1.4,0.7,2.7,1.9,3.5c3.6,2.3,9.2,3.8,14.3,3.8c0.1,0,0.2,0,0.4,0c0.1,0,0.2,0,0.4,0     c4.9,0,10.2-1.4,13.9-3.8c1.2-0.8,1.9-2.1,1.9-3.5v-18.6v-21.9v-0.2C59.2,119.3,59.1,119.3,59.1,119.2z M57.2,160.1     c0,0.7-0.4,1.4-1,1.8c-3.5,2.2-8.5,3.6-13.1,3.5c0,0,0,0,0,0s0,0,0,0c-4.7,0.1-10.2-1.3-13.5-3.5c-0.6-0.4-1-1.1-1-1.8v-40.7     c0-0.8,0.4-1.5,1.1-1.9c3.7-2.2,8-3.3,12.3-3.3c4.9,0,9.7,1.2,14,3.4c0.7,0.4,1.2,1.1,1.2,2v21.9V160.1z"></path>
		</g>
		<g>
			<path class="st6" d="M167.4,36.2C167.4,17.4,152,2,133.2,2C114.3,2,99,17.4,99,36.2s15.3,34.2,34.2,34.2c6.8,0,13.1-2,18.4-5.4     c7,16,6.8,36.2-0.5,53c-10.7,24.6-35.5,40.3-61.9,40.3c-2.3,0-4.7-0.1-7.1-0.4l8-8c0.4-0.4,0.4-1,0-1.4c-0.4-0.4-1-0.4-1.4,0     l-8.2,8.2c-0.5,0.5-0.8,1.2-0.8,1.9s0.3,1.4,0.8,1.9l8.2,8.2c0.2,0.2,0.5,0.3,0.7,0.3c0.3,0,0.5-0.1,0.7-0.3c0.4-0.4,0.4-1,0-1.4     l-7.3-7.3c2.1,0.2,4.3,0.3,6.4,0.3c27.3,0,52.7-16.2,63.8-41.5c7.6-17.5,7.8-38.4,0.4-55C161.8,57.7,167.4,47.6,167.4,36.2z      M101,36.2C101,18.5,115.4,4,133.2,4c17.8,0,32.2,14.4,32.2,32.2s-14.4,32.2-32.2,32.2C115.4,68.4,101,54,101,36.2z"></path>
			<path class="st6" d="M42.8,105.6c-6.6,0-12.8,1.9-18,5.1c-4.4-13.7-4-28.9,1.1-42.9C35.9,40.7,61.6,23,90.3,23.5l-7.7,7.7     c-0.4,0.4-0.4,1,0,1.4c0.2,0.2,0.5,0.3,0.7,0.3c0.3,0,0.5-0.1,0.7-0.3l8.2-8.2c0.5-0.5,0.7-1.1,0.8-1.8c0,0,0,0,0-0.1     c0,0,0,0,0,0c0,0,0,0,0-0.1c0-0.7-0.3-1.4-0.8-1.9L84,12.3c-0.4-0.4-1-0.4-1.4,0c-0.4,0.4-0.4,1,0,1.4l7.8,7.7     c-29.6-0.4-56,17.7-66.2,45.7c-5.3,14.6-5.7,30.5-1,44.8c-8.7,6.2-14.5,16.4-14.5,27.9C8.6,158.6,24,174,42.8,174     c18.9,0,34.2-15.3,34.2-34.2S61.7,105.6,42.8,105.6z M42.8,172c-17.8,0-32.2-14.4-32.2-32.2s14.4-32.2,32.2-32.2     c17.8,0,32.2,14.4,32.2,32.2S60.6,172,42.8,172z"></path>
		</g>
	</g>
</g>
</svg>
