<?xml version="1.0" encoding="UTF-8"?>
<svg xmlns="http://www.w3.org/2000/svg" viewBox="0 0 176 176">
  <defs>
    <style>.cls-1{fill:none;}.cls-2{fill:#004a5a;}.cls-3{fill:#64dca0;}</style>
  </defs>
  <g id="Ebene_1">
    <g>
      <path class="cls-3" d="M142.57,56.89l-.68,.78c-.21,.24-.19,.59,.05,.81,5.49,5.15,8.92,12.47,8.92,20.57s-3.68,15.93-9.5,21.11c-.37,.33-.41,.88-.09,1.25l7.32,8.44c.28,.32,.79,.33,1.07,0,5.57-6.33,8.95-14.63,8.95-23.7,0-12.12-6.02-22.85-15.22-29.37-.25-.18-.6-.13-.8,.1Z"></path>
      <g>
        <path class="cls-2" d="M73.87,64.23h-7.15c-1.83,0-3.33,1.49-3.33,3.33v9.96c0,.55,.45,1,1,1s1-.45,1-1v-9.96c0-.73,.6-1.33,1.33-1.33h7.15c.55,0,1-.45,1-1s-.45-1-1-1Z"></path>
        <path class="cls-2" d="M75.84,40.17h-8.7c-1.83,0-3.33,1.49-3.33,3.33v9.96c0,.55,.45,1,1,1s1-.45,1-1v-9.96c0-.73,.6-1.33,1.33-1.33h8.7c.55,0,1-.45,1-1s-.45-1-1-1Z"></path>
        <path class="cls-2" d="M73.87,88.29h-7.15c-1.83,0-3.33,1.49-3.33,3.33v9.96c0,.55,.45,1,1,1s1-.45,1-1v-9.96c0-.73,.6-1.33,1.33-1.33h7.15c.55,0,1-.45,1-1s-.45-1-1-1Z"></path>
        <path class="cls-2" d="M50.58,40.17h-8.7c-1.83,0-3.33,1.49-3.33,3.33v9.96c0,.55,.45,1,1,1s1-.45,1-1v-9.96c0-.73,.6-1.33,1.33-1.33h8.7c.55,0,1-.45,1-1s-.45-1-1-1Z"></path>
        <path class="cls-2" d="M50.16,88.29h-8.7c-1.83,0-3.33,1.49-3.33,3.33v9.96c0,.55,.45,1,1,1s1-.45,1-1v-9.96c0-.73,.6-1.33,1.33-1.33h8.7c.55,0,1-.45,1-1s-.45-1-1-1Z"></path>
        <path class="cls-2" d="M50.16,64.23h-8.7c-1.83,0-3.33,1.49-3.33,3.33v9.96c0,.55,.45,1,1,1s1-.45,1-1v-9.96c0-.73,.6-1.33,1.33-1.33h8.7c.55,0,1-.45,1-1s-.45-1-1-1Z"></path>
        <path class="cls-2" d="M161.01,148.16l-24.05-32.35c2.59-1.68,4.99-3.69,7.13-6.03,.37-.41,.35-1.04-.06-1.41-.41-.37-1.04-.35-1.41,.06-7.8,8.52-19.28,12.6-30.69,10.91-18.92-2.8-32.03-20.47-29.22-39.39,2.05-13.82,12.11-25.01,25.64-28.51,.14-.04,14.33-3.57,26.78,4,.47,.29,1.09,.14,1.37-.33,.29-.47,.14-1.09-.33-1.37-13.16-8-27.71-4.39-28.32-4.23-6.1,1.58-11.53,4.64-15.92,8.77V30.12c0-2.14-1.74-3.87-3.87-3.87H27.35c-2.14,0-3.87,1.74-3.87,3.87v115.57c0,.68,.19,1.32,.5,1.87H15.79c-.55,0-1,.45-1,1s.45,1,1,1h10.64c.11,0,.21-.03,.31-.06,.2,.03,.4,.06,.61,.06H126.69c2.14,0,3.87-1.74,3.87-3.87v-26.58c1.61-.64,3.18-1.39,4.68-2.25l24.15,32.5c.2,.26,.5,.4,.8,.4,.21,0,.42-.06,.6-.2,.44-.33,.54-.96,.21-1.4Zm-89.23-.6h-28.16v-25.18c0-1.03,.84-1.87,1.87-1.87h24.41c1.03,0,1.87,.84,1.87,1.87v25.18Zm18.14,0h-16.14v-25.18c0-2.14-1.74-3.87-3.87-3.87h-24.41c-2.14,0-3.87,1.74-3.87,3.87v25.18h-14.27c-1.03,0-1.87-.84-1.87-1.87V30.12c0-1.03,.84-1.87,1.87-1.87h60.69c1.03,0,1.87,.84,1.87,1.87v30.17c-4.82,5.28-8.1,11.96-9.2,19.37-1.44,9.69,.99,19.36,6.83,27.23,.75,1.01,1.54,1.97,2.37,2.88v37.79Zm38.65-1.87c0,1.03-.84,1.87-1.87,1.87h-34.78v-35.77c5.41,5.09,12.22,8.42,19.71,9.53,1.8,.27,3.6,.4,5.39,.4,3.95,0,7.85-.65,11.54-1.88v25.84Z"></path>
        <path class="cls-2" d="M105.42,79.69c.3,0,.59-.14,.78-.37,.19-.24,.26-.54,.2-.84l-2.41-11.2c-.1-.46-.51-.79-.98-.79h-8.1c-.47,0-.88,.33-.98,.79l-2.41,11.2c-.06,.3,0,.6,.2,.84,.19,.23,.48,.37,.78,.37h5.46v22.11h-1.43c-.55,0-1,.45-1,1s.45,1,1,1h4.85c.55,0,1-.45,1-1s-.45-1-1-1h-1.43v-22.11h5.46Zm-11.67-2l1.98-9.2h6.48l1.98,9.2h-10.44Z"></path>
        <path class="cls-2" d="M134.62,88.78v-.53c0-1.83-1.49-3.33-3.33-3.33h-18.2c-1.83,0-3.33,1.49-3.33,3.33v.53h-.9c-1.83,0-3.33,1.49-3.33,3.33v9.75c0,1.07,.87,1.94,1.94,1.94h29.41c1.07,0,1.94-.87,1.94-1.94v-9.75c0-1.83-1.49-3.33-3.33-3.33h-.9Zm-22.85-.53c0-.73,.59-1.33,1.33-1.33h18.2c.73,0,1.33,.59,1.33,1.33v.61c-1.49,.33-2.61,1.66-2.61,3.24v3.32h-15.29v-3.32c0-1.7-1.29-3.1-2.95-3.29v-.57Zm25.07,3.86v9.69l-29.29,.06v-9.75c0-.73,.6-1.33,1.33-1.33h2.52c.73,0,1.33,.6,1.33,1.33v3.55c0,.98,.8,1.78,1.78,1.78h15.74c.98,0,1.78-.8,1.78-1.78v-3.55c0-.73,.59-1.33,1.33-1.33h2.18c.73,0,1.33,.6,1.33,1.33Z"></path>
      </g>
    </g>
  </g>
  <g id="Ebene_2">
    <rect class="cls-1" width="176" height="176"></rect>
  </g>
</svg>
