<?xml version="1.0" encoding="UTF-8"?>
<svg xmlns="http://www.w3.org/2000/svg" viewBox="0 0 176 176">
  <defs>
    <style>.cls-1{fill:none;}.cls-2{fill:#fff;}.cls-3{fill:#64dca0;}</style>
  </defs>
  <g id="Ebene_1">
    <g>
      <path class="cls-3" d="M150.23,32.4l-.67,.78c-.21,.24-.18,.59,.05,.8,5.43,5.1,8.83,12.34,8.83,20.36s-3.64,15.76-9.4,20.88c-.36,.32-.41,.87-.09,1.23l7.24,8.35c.28,.32,.78,.33,1.06,0,5.51-6.27,8.85-14.48,8.85-23.45,0-11.99-5.96-22.6-15.06-29.06-.25-.18-.59-.13-.79,.1"></path>
      <g>
        <path class="cls-2" d="M147.01,49.16h-7.17c-.55,0-1,.45-1,1s.45,1,1,1h7.17c.55,0,1-.45,1-1s-.45-1-1-1Z"></path>
        <path class="cls-2" d="M148.01,56.7c0-.55-.45-1-1-1h-7.17c-.55,0-1,.45-1,1s.45,1,1,1h7.17c.55,0,1-.45,1-1Z"></path>
        <path class="cls-2" d="M138.85,43.62c0,.55,.45,1,1,1h7.17c.55,0,1-.45,1-1s-.45-1-1-1h-7.17c-.55,0-1,.45-1,1Z"></path>
        <path class="cls-2" d="M130.31,37.32c-2.7,0-4.89,2.16-4.89,4.81v18.18c-3.09,1.71-5.01,4.87-5.03,8.38-.04,5.24,4.28,9.64,9.62,9.79,.1,0,.21,0,.31,0,2.63,0,5.1-.99,6.98-2.82,1.9-1.84,2.94-4.29,2.94-6.91,0-3.54-1.91-6.72-5.03-8.45v-18.18c0-2.65-2.19-4.81-4.89-4.81Zm7.93,31.44c0,2.07-.83,4.01-2.33,5.47-1.56,1.51-3.63,2.31-5.84,2.25-4.19-.12-7.71-3.69-7.68-7.78,.02-2.95,1.73-5.58,4.46-6.88,.35-.17,.57-.52,.57-.9v-18.79c0-1.55,1.3-2.81,2.89-2.81s2.89,1.26,2.89,2.81v18.79c0,.39,.22,.74,.57,.9,2.75,1.31,4.46,3.97,4.46,6.94Z"></path>
        <path class="cls-2" d="M49.4,99.51h25.67c.55,0,1-.45,1-1s-.45-1-1-1h-25.67c-.55,0-1,.45-1,1s.45,1,1,1Z"></path>
        <path class="cls-2" d="M56.72,62.05c0,.55,.45,1,1,1h1.89c.16,.9,.42,1.73,.77,2.49,.62,1.3,1.57,2.32,2.84,3.04,1.24,.7,2.78,1.06,4.6,1.06,1.34,0,2.55-.18,3.58-.53,1.05-.36,1.93-.85,2.64-1.45,.71-.61,1.26-1.31,1.64-2.07,.24-.5,.04-1.1-.45-1.34-.5-.24-1.09-.04-1.34,.45-.26,.52-.64,1-1.15,1.44-.51,.44-1.18,.8-1.99,1.08-.82,.28-1.81,.42-2.93,.42-1.46,0-2.68-.27-3.61-.8-.92-.52-1.58-1.23-2.02-2.17-.24-.5-.42-1.04-.54-1.63h5.72c.55,0,1-.45,1-1s-.45-1-1-1h-5.93v-3.93h5.93c.55,0,1-.45,1-1s-.45-1-1-1h-5.73c.13-.6,.31-1.16,.56-1.66,.45-.93,1.12-1.64,2.03-2.16,.92-.53,2.13-.8,3.59-.8,1.13,0,2.11,.14,2.93,.42,.81,.28,1.47,.64,1.99,1.08,.5,.43,.89,.92,1.15,1.44,.24,.5,.84,.7,1.34,.45s.7-.84,.45-1.34c-.38-.77-.93-1.46-1.64-2.07-.71-.6-1.59-1.09-2.64-1.45-1.03-.35-2.23-.53-3.58-.53-1.82,0-3.36,.36-4.59,1.06-1.25,.72-2.21,1.73-2.83,3.02-.37,.76-.64,1.61-.8,2.54h-1.88c-.55,0-1,.45-1,1s.45,1,1,1h1.71v3.93h-1.71c-.55,0-1,.45-1,1Z"></path>
        <path class="cls-2" d="M49.4,89.28h33.71c.55,0,1-.45,1-1s-.45-1-1-1H49.4c-.55,0-1,.45-1,1s.45,1,1,1Z"></path>
        <path class="cls-2" d="M49.4,79.05h33.71c.55,0,1-.45,1-1s-.45-1-1-1H49.4c-.55,0-1,.45-1,1s.45,1,1,1Z"></path>
        <path class="cls-2" d="M150.28,82.2c-.31-.46-.93-.58-1.39-.28-4.71,3.13-10.21,4.79-15.9,4.79-15.85,0-28.75-12.88-28.75-28.72s12.9-28.72,28.75-28.72c4.02,0,7.91,.81,11.56,2.42,.51,.22,1.1,0,1.32-.51,.22-.51,0-1.1-.51-1.32-3.9-1.71-8.06-2.58-12.36-2.58-16.95,0-30.75,13.78-30.75,30.72,0,1.64,.13,3.26,.38,4.83h-9.46v-19.42c0-1.83-1.49-3.31-3.31-3.31h-5.75v-4.81c0-1.83-1.49-3.32-3.31-3.32H33.84c-1.83,0-3.32,1.49-3.32,3.32v27.55h-4.15c-3.64,0-6.61,2.95-6.64,6.59v65.73H9.92c-.55,0-1,.45-1,1v6.16c.01,3.55,2.91,6.43,6.46,6.43h123.06c3.55,0,6.45-2.88,6.46-6.44v-6.16c0-.55-.45-1-1-1h-9.81c-.01-5.26-.07-30.15-.14-46.47,5.74-.18,11.27-1.91,16.05-5.09,.46-.31,.58-.93,.28-1.39Zm-60.43-40.12c.73,0,1.31,.59,1.31,1.31V108.23c0,.72-.59,1.31-1.31,1.31H42.9c-.73,0-1.32-.59-1.32-1.31V43.39c0-.73,.59-1.31,1.32-1.31h46.95Zm-57.33-6.81c0-.73,.59-1.32,1.32-1.32h46.95c.73,0,1.31,.59,1.31,1.32v4.81H42.9c-1.83,0-3.32,1.49-3.32,3.31v58.02h-5.75c-.73,0-1.32-.59-1.32-1.31V35.26Zm-10.79,34.15c.02-2.54,2.09-4.6,4.64-4.6h4.15v35.28c0,1.83,1.49,3.31,3.32,3.31h5.75v4.81c0,1.83,1.49,3.31,3.32,3.31h46.95c1.83,0,3.31-1.49,3.31-3.31v-43.41h9.85c3.04,13.33,14.79,23.39,28.93,23.86,.07,16.31,.13,41.19,.14,46.46H21.73V69.42Zm121.17,67.72v5.16c0,2.46-2.04,4.41-4.48,4.44H15.38c-2.45,0-4.46-1.99-4.46-4.44v-5.16H142.9Z"></path>
      </g>
    </g>
  </g>
  <g id="Ebene_2">
    <rect class="cls-1" width="176" height="176"></rect>
  </g>
</svg>
