<?xml version="1.0" encoding="UTF-8"?>
<svg xmlns="http://www.w3.org/2000/svg" viewBox="0 0 176 176">
  <defs>
    <style>.cls-1{fill:none;}.cls-2{fill:#fff;}.cls-3{fill:#64dca0;}</style>
  </defs>
  <g id="Ebene_1">
    <g>
      <path class="cls-3" d="M38.02,65.46l-.74,.85c-.22,.26-.2,.64,.05,.88,5.95,5.59,9.67,13.52,9.67,22.3s-3.99,17.26-10.3,22.88c-.4,.35-.45,.95-.1,1.35l7.93,9.15c.3,.35,.85,.36,1.16,.01,6.03-6.87,9.7-15.86,9.7-25.69,0-13.13-6.53-24.76-16.5-31.83-.27-.19-.65-.14-.87,.11Z"></path>
      <g>
        <path class="cls-2" d="M84.98,58.82v-8.44c0-.54,.44-.97,.97-.97h7.37c.55,0,1-.45,1-1s-.45-1-1-1h-7.37c-1.64,0-2.97,1.33-2.97,2.97v8.44c0,.55,.45,1,1,1s1-.45,1-1Z"></path>
        <path class="cls-2" d="M61.21,79.2c0,.55,.45,1,1,1s1-.45,1-1v-8.44c0-.54,.44-.97,.97-.97h7.37c.55,0,1-.45,1-1s-.45-1-1-1h-7.37c-1.64,0-2.97,1.33-2.97,2.97v8.44Z"></path>
        <path class="cls-2" d="M82.62,79.2c0,.55,.45,1,1,1s1-.45,1-1v-8.44c0-.54,.44-.97,.97-.97h7.37c.55,0,1-.45,1-1s-.45-1-1-1h-7.37c-1.64,0-2.97,1.33-2.97,2.97v8.44Z"></path>
        <path class="cls-2" d="M82.62,99.59c0,.55,.45,1,1,1s1-.45,1-1v-8.44c0-.54,.44-.97,.97-.97h7.37c.55,0,1-.45,1-1s-.45-1-1-1h-7.37c-1.64,0-2.97,1.33-2.97,2.97v8.44Z"></path>
        <path class="cls-2" d="M63.57,58.82v-8.44c0-.54,.44-.97,.97-.97h7.37c.55,0,1-.45,1-1s-.45-1-1-1h-7.37c-1.64,0-2.97,1.33-2.97,2.97v8.44c0,.55,.45,1,1,1s1-.45,1-1Z"></path>
        <path class="cls-2" d="M61.21,99.59c0,.55,.45,1,1,1s1-.45,1-1v-8.44c0-.54,.44-.97,.97-.97h7.37c.55,0,1-.45,1-1s-.45-1-1-1h-7.37c-1.64,0-2.97,1.33-2.97,2.97v8.44Z"></path>
        <path class="cls-2" d="M165.61,135.56c-.56-3.53-3.43-6.31-6.97-6.78-2.4-.31-4.8,.43-6.58,2.05-.23,.2-.58,.21-.8,.02-.84-.77-1.83-1.34-2.89-1.7v-27.71l3.7,3.26c.41,.37,1.05,.33,1.41-.09,.37-.41,.33-1.05-.09-1.41l-13.56-11.96v-21.83c0-1.89-1.54-3.43-3.43-3.43h-29.31v-26.93c0-1.9-1.54-3.44-3.44-3.44H52.23c-1.89,0-3.43,1.54-3.43,3.44v31.09c0,.55,.45,1,1,1s1-.45,1-1v-31.09c0-.79,.64-1.44,1.43-1.44h51.42c.8,0,1.44,.65,1.44,1.44v52.82l-7.46,6.64c-.13,.07-.23,.17-.32,.29l-5.04,4.49c-.41,.37-.45,1-.08,1.41,.2,.22,.47,.33,.75,.33,.24,0,.47-.08,.66-.25l3.5-3.12v23.42c-.78-.24-1.59-.39-2.43-.39-1.04,0-2.04,.2-2.96,.56v-8.03c0-1.89-1.54-3.43-3.43-3.43h-20.69c-1.89,0-3.43,1.54-3.43,3.43v21.18h-13.37v-12.71c0-.55-.45-1-1-1s-1,.45-1,1v12.71H31.86v-15.56c2.31-.12,4.52-.62,6.58-1.55,.5-.23,.73-.82,.5-1.32s-.82-.73-1.32-.5c-1.8,.81-3.73,1.25-5.76,1.37v-37.11c0-.55-.45-1-1-1s-1,.45-1,1v37.13c-10.71-.58-17.58-10.49-17.58-25.59,0-13.95,13.43-29.3,17.54-33.67,.55-.58,1.53-.58,2.07,0,.89,.95,1.79,1.95,2.69,2.99,.36,.42,.99,.47,1.41,.1,.42-.36,.46-.99,.1-1.41-.91-1.06-1.83-2.08-2.75-3.05-.65-.69-1.55-1.08-2.49-1.08s-1.85,.39-2.49,1.08c-5.44,5.78-18.08,20.75-18.08,35.04,0,13.42,6.07,26.95,19.58,27.59v15.54h-10.96c-.55,0-1,.45-1,1s.45,1,1,1h120.25s.05,0,.07,0h23.79c1.3,0,2.39-.9,2.6-2.14,.15-.88,.15-1.79,.01-2.7Zm-58.52-67.58h29.31c.79,0,1.43,.64,1.43,1.43v20.07l-13.34-11.76c-1-.88-2.51-.88-3.51,0l-13.89,12.37v-22.11Zm-27.4,70.42h-13.52v-21.18c0-.79,.64-1.43,1.43-1.43h20.69c.79,0,1.43,.64,1.43,1.43v9.15c-1.58,1.2-2.71,2.97-3.08,5.05-.05,.3-.26,.51-.55,.56-2.87,.5-5.93,2.71-6.41,6.42Zm2.02,0c.52-2.92,3.22-4.19,4.73-4.45,1.12-.2,1.97-1.05,2.17-2.18,.52-2.94,3.08-5.08,6.07-5.08,1.09,0,2.12,.28,3.03,.79h.01c.91,.52,1.68,1.27,2.25,2.2,.69,1.15,2.19,1.57,3.41,.96,2.09-1.04,4.61-.82,6.57,.68,.03,.02,2.98,2.01,3.33,7.08h-31.57Zm33.58,0l-.13-20.56c0-.17,.07-.34,.19-.46,.12-.12,.29-.19,.46-.19h13.56c.36,0,.65,.29,.65,.65l.13,20.57h-14.86Zm23.84,0s-.05,0-.07,0h-6.91l-.13-20.58c0-1.45-1.2-2.63-2.65-2.63h-13.56c-.71,0-1.38,.28-1.88,.78s-.77,1.17-.77,1.88l.09,14.14c-1.04-1.57-2.1-2.28-2.15-2.31-2.45-1.89-5.86-2.22-8.62-.84-.29,.15-.64,.05-.8-.21-.65-1.08-1.54-1.96-2.57-2.63v-26.14l23.2-20.66c.25-.22,.62-.22,.86,0l23.2,20.46v38.07c0,.25,.1,.47,.25,.65h-7.49Zm24.49-.48c-.05,.27-.32,.48-.63,.48h-14.87c.15-.18,.25-.4,.25-.65v-6.45c.56,.26,1.08,.6,1.54,1.02,.97,.89,2.5,.88,3.49-.01,1.36-1.24,3.13-1.79,4.98-1.54,2.63,.34,4.83,2.49,5.25,5.11,.11,.69,.11,1.38,0,2.05Z"></path>
      </g>
    </g>
  </g>
  <g id="Ebene_2">
    <rect class="cls-1" width="176" height="176"></rect>
  </g>
</svg>
