<?xml version="1.0" encoding="UTF-8"?>
<svg xmlns="http://www.w3.org/2000/svg" viewBox="0 0 176 176">
  <defs>
    <style>.cls-1{fill:none;}.cls-2{fill:#fff;}.cls-3{fill:#64dca0;}</style>
  </defs>
  <g id="Ebene_1">
    <g>
      <path class="cls-3" d="M124.11,62.09l-.49,.56c-.15,.17-.13,.43,.03,.58,3.94,3.7,6.41,8.96,6.41,14.79s-2.64,11.45-6.83,15.17c-.26,.23-.3,.63-.07,.9l5.26,6.06c.2,.23,.57,.24,.77,0,4-4.55,6.43-10.51,6.43-17.03,0-8.71-4.33-16.42-10.94-21.11-.18-.13-.43-.1-.57,.07Z"></path>
      <g>
        <path class="cls-2" d="M109.63,128.82c-2.96,0-5.36,2.41-5.36,5.36s2.41,5.36,5.36,5.36,5.36-2.41,5.36-5.36-2.41-5.36-5.36-5.36Zm0,8.72c-1.85,0-3.36-1.51-3.36-3.36s1.51-3.36,3.36-3.36,3.36,1.51,3.36,3.36-1.51,3.36-3.36,3.36Z"></path>
        <path class="cls-2" d="M123.87,98.6c-4.16,3.56-9.47,5.52-14.95,5.52-2.76,0-5.46-.48-8.03-1.44-.52-.19-1.09,.07-1.29,.59-.19,.52,.07,1.09,.59,1.29,2.79,1.04,5.72,1.57,8.73,1.57,5.96,0,11.73-2.13,16.25-6,.42-.36,.47-.99,.11-1.41-.36-.42-.99-.47-1.41-.11Z"></path>
        <path class="cls-2" d="M121.85,59.73c-3.89-2.36-8.36-3.6-12.93-3.6-13.78,0-25,11.21-25,25,0,.55,.45,1,1,1s1-.45,1-1c0-12.68,10.32-23,23-23,4.21,0,8.32,1.15,11.9,3.31,.47,.29,1.09,.14,1.37-.34,.29-.47,.14-1.09-.34-1.37Z"></path>
        <path class="cls-2" d="M158.67,7.93h-39.23c-2.82,0-5.12,2.3-5.12,5.12V29.4h-29.6c-4.12,0-7.47,3.35-7.47,7.47v54.55c0,.1,.03,.18,.05,.27l-28.51,17.26,2.88-10.01c.51-1.56,.89-3.17,1.13-4.76,.35-2.28,.47-3.94,.36-4.93-.55-5.03-3.43-8.52-7.7-9.34-1.34-.26-2.65,.58-2.98,1.9l-2.63,10.43c-1.24,4.92-3.15,9.61-5.67,13.96-4.55,7.83-10.09,19.04-10.8,28.19l-10.92,11.88c-.37,.41-.35,1.04,.06,1.41,.19,.18,.43,.26,.68,.26,.27,0,.54-.11,.74-.32l11.15-12.14c.15-.17,.25-.38,.26-.61,.59-9.29,6.87-21.32,10.56-27.67,2.62-4.51,4.6-9.38,5.88-14.48l2.63-10.43c.07-.29,.37-.48,.67-.42,4.85,.93,5.87,5.62,6.09,7.59,.09,.79-.04,2.35-.35,4.41-.23,1.49-.58,2.99-1.07,4.48l-3.49,12.12-3.42,2.07c-.47,.29-.62,.9-.34,1.37,.19,.31,.52,.48,.86,.48,.18,0,.35-.05,.52-.14l61.04-36.95c2.1-1.22,4.76-.56,6.04,1.5,.64,1.03,.84,2.24,.55,3.42-.29,1.18-1.02,2.17-2.09,2.81l-28.81,18.61c-1.09,.58-1.79,1.11-1.86,1.16-.03,.03-.05,.06-.08,.09l-2.08,1.34c-.46,.3-.6,.92-.3,1.38,.3,.46,.92,.6,1.38,.3l3.91-2.53c1.39-.73,3.47-1.55,5.51-1.26,1.54,.22,2.81,1.03,3.84,2.42,.01,.02,1.28,2.02,.71,4.1-.38,1.37-1.5,2.53-3.28,3.41l-3.59,1.58c-.13,.05-.24,.1-.36,.16l-1.66,.73c-.5,.22-.73,.81-.51,1.32,.17,.37,.53,.6,.92,.6,.13,0,.27-.03,.4-.08l1.79-.79c.89-.37,4.95-1.78,7.31,2.26,.02,.03,.04,.06,.06,.09,.04,.06,.42,.58,.68,1.38,0,0,0,.02,0,.03,0,.18,.06,.34,.15,.49,.29,1.37,.09,3.27-2.23,5.01-.53,.4-1.18,.76-2.02,1.13-.4,.15-.67,.28-.78,.34l-1.75,.76c-.51,.22-.74,.81-.52,1.32,.16,.38,.53,.6,.92,.6,.13,0,.27-.03,.4-.08l2.49-1.09s.05-.03,.08-.04c1.11-.36,3.3-.58,5.02,2.39,.04,.06,1.02,1.59,.54,3.75-.48,2.17-2.24,4.21-5.2,6.04l-5.15,2.94s-.08,.04-.11,.07l-15.37,8.78c-.1,.04-10.2,4.45-20.64,1.46-.35-.1-.73,0-.99,.26l-10.83,10.91c-.39,.39-.39,1.02,0,1.41,.2,.19,.45,.29,.7,.29s.51-.1,.71-.3l10.42-10.49c10.92,2.88,21-1.52,21.52-1.76l15.24-8.7h48.47c4.12,0,7.47-3.35,7.47-7.47v-7.54s0-.03,0-.05V48.78h16.68c2.82,0,5.12-2.3,5.12-5.12V13.05c0-2.82-2.3-5.12-5.12-5.12Zm-48.18,78.81c1.51-.9,2.57-2.33,2.98-4.03,.41-1.7,.13-3.46-.8-4.95-1.86-2.98-5.7-3.94-8.76-2.17l-7.29,4.41c.47-6.19,5.64-11.08,11.95-11.08,6.61,0,11.99,5.38,11.99,11.99s-5.38,11.99-11.99,11.99c-1.94,0-3.83-.47-5.53-1.36l7.45-4.81Zm29.5,44.97s0,.03,0,.05v7.59c0,3.02-2.45,5.47-5.47,5.47h-44.97l2.02-1.15c3.49-2.16,5.55-4.65,6.14-7.38,.64-2.99-.78-5.15-.8-5.18-.97-1.67-2.2-2.76-3.66-3.24,2.01-1.8,2.56-3.79,2.43-5.53h36.66c.55,0,1-.45,1-1s-.45-1-1-1h-37.11c-.24-.61-.53-1.15-.83-1.55-1.16-1.95-2.66-2.97-4.2-3.43,1.81-1.1,2.95-2.5,3.41-4.18,.8-2.95-.9-5.59-1-5.75-1.38-1.87-3.13-2.97-5.21-3.26-.23-.03-.45-.05-.67-.06l14.44-9.33c2.22,1.39,4.78,2.14,7.42,2.14,7.72,0,13.99-6.28,13.99-13.99s-6.28-13.99-13.99-13.99-13.99,6.28-13.99,13.99c0,.11,0,.21,0,.32l-15.33,9.28V36.87c0-3.02,2.45-5.47,5.47-5.47h29.6v12.26c0,2.82,2.3,5.12,5.12,5.12h3.75l.15,7.42c0,.41,.27,.77,.65,.92,.11,.04,.23,.06,.35,.06,.28,0,.55-.12,.74-.33l7.26-8.07h7.65v82.93Zm21.79-88.05c0,1.72-1.4,3.12-3.12,3.12h-26.77c-.28,0-.55,.12-.74,.33l-5.86,6.52-.12-5.87c-.01-.54-.46-.98-1-.98h-4.73c-1.72,0-3.12-1.4-3.12-3.12V13.05c0-1.72,1.4-3.12,3.12-3.12h39.23c1.72,0,3.12,1.4,3.12,3.12v30.61Z"></path>
        <path class="cls-2" d="M141.31,30.14v-12.82c0-2.05-1.67-3.72-3.72-3.72s-3.72,1.67-3.72,3.72v12.82c-2.16,1.29-3.49,3.59-3.51,6.14-.03,3.9,3.12,7.16,7.01,7.28,.08,0,.15,0,.22,0,1.89,0,3.67-.72,5.03-2.04,1.42-1.37,2.19-3.22,2.19-5.19,0-2.57-1.33-4.89-3.51-6.19Zm-.08,9.95c-1.02,.99-2.38,1.51-3.8,1.47-2.77-.08-5.09-2.49-5.07-5.26,.01-2,1.14-3.78,2.95-4.66,.34-.17,.56-.52,.56-.9v-13.41c0-.95,.77-1.72,1.72-1.72s1.72,.77,1.72,1.72v13.41c0,.38,.22,.73,.56,.9,1.82,.88,2.95,2.68,2.95,4.7,0,1.43-.56,2.76-1.59,3.75Z"></path>
        <path class="cls-2" d="M149.26,17.38h-5c-.55,0-1,.45-1,1s.45,1,1,1h5c.55,0,1-.45,1-1s-.45-1-1-1Z"></path>
        <path class="cls-2" d="M149.26,22.05h-5c-.55,0-1,.45-1,1s.45,1,1,1h5c.55,0,1-.45,1-1s-.45-1-1-1Z"></path>
        <path class="cls-2" d="M149.26,26.72h-5c-.55,0-1,.45-1,1s.45,1,1,1h5c.55,0,1-.45,1-1s-.45-1-1-1Z"></path>
      </g>
    </g>
  </g>
  <g id="Ebene_2">
    <rect class="cls-1" width="176" height="176"></rect>
  </g>
</svg>
