<?xml version="1.0" encoding="UTF-8"?>
<svg xmlns="http://www.w3.org/2000/svg" viewBox="0 0 120 120">
  <g id="uuid-b6b22116-ec9a-4754-94aa-cef7d8e33034" data-name="Kreis">
    <path d="m60,113.04c-29.24,0-53.04-23.79-53.04-53.04S30.76,6.96,60,6.96s53.04,23.79,53.04,53.04-23.79,53.04-53.04,53.04Zm0-104.18c-28.2,0-51.14,22.94-51.14,51.14s22.94,51.14,51.14,51.14,51.14-22.94,51.14-51.14S88.2,8.86,60,8.86Z" style="fill: #004a5a;"></path>
  </g>
  <g id="uuid-b6a60150-104e-425d-b171-c9d2d5a2b63a" data-name="Icons">
    <path d="m87.6,59h-53.31l18.14-18.14c.39-.39.39-1.02,0-1.41-.39-.39-1.02-.39-1.41,0l-18.97,18.96c-.44.44-.65,1.01-.66,1.58,0,0,0,0,0,.01,0,0,0,0,0,.01,0,.57.22,1.14.66,1.58l18.97,18.97c.2.2.45.29.71.29s.51-.1.71-.29c.39-.39.39-1.02,0-1.41l-18.14-18.14h53.31c.55,0,1-.45,1-1s-.45-1-1-1Z" style="fill: #004a5a;"></path>
  </g>
</svg>
