<?xml version="1.0" encoding="UTF-8"?>
<svg xmlns="http://www.w3.org/2000/svg" viewBox="0 0 120 120">
  <g id="uuid-c31c596f-2589-45c6-81df-ebb1e995cff2" data-name="Kreis">
    <path d="m60,113.04c-29.24,0-53.04-23.79-53.04-53.04S30.76,6.96,60,6.96s53.04,23.79,53.04,53.04-23.79,53.04-53.04,53.04Zm0-104.18c-28.2,0-51.14,22.94-51.14,51.14s22.94,51.14,51.14,51.14,51.14-22.94,51.14-51.14S88.2,8.86,60,8.86Z" style="fill: #004a5a;"></path>
  </g>
  <g id="uuid-7f3a8721-6576-4ae1-9bc2-e50f114820dd" data-name="Icons">
    <g>
      <path d="m73.01,60.8c.26,0,.51-.1.71-.29.39-.39.39-1.02,0-1.41-7.56-7.52-19.87-7.52-27.44,0-.39.39-.39,1.02,0,1.41.39.39,1.02.39,1.41,0,6.79-6.75,17.83-6.75,24.62,0,.2.19.45.29.71.29Z" style="fill: #004a5a;"></path>
      <path d="m90.67,42.25c-16.91-16.8-44.42-16.8-61.33,0-.39.39-.39,1.02,0,1.41.2.2.45.29.71.29s.51-.1.7-.29c16.13-16.03,42.38-16.03,58.51,0,.39.39,1.02.39,1.41,0s.39-1.02,0-1.41Z" style="fill: #004a5a;"></path>
      <path d="m38.11,50.97c-.39.39-.39,1.02,0,1.41.39.39,1.02.39,1.41,0,11.29-11.22,29.67-11.22,40.96,0,.2.19.45.29.71.29s.51-.1.71-.29c.39-.39.39-1.02,0-1.41-12.07-11.99-31.71-11.99-43.78,0Z" style="fill: #004a5a;"></path>
      <path d="m75.74,63.39c-.5.23-.73.82-.5,1.32.99,2.18,1.49,4.51,1.49,6.92,0,9.23-7.51,16.74-16.73,16.74s-16.73-7.51-16.73-16.74c0-2.25.44-4.44,1.31-6.5.21-.51-.02-1.1-.53-1.31-.51-.22-1.1.02-1.31.53-.97,2.31-1.47,4.75-1.47,7.28,0,10.33,8.4,18.74,18.73,18.74s18.73-8.4,18.73-18.74c0-2.7-.56-5.31-1.67-7.75-.23-.5-.82-.73-1.32-.5Z" style="fill: #004a5a;"></path>
      <path d="m62.87,65.37c0-1.59-1.29-2.88-2.88-2.88s-2.88,1.29-2.88,2.88,1.29,2.88,2.88,2.88,2.88-1.29,2.88-2.88Zm-2.88.88c-.48,0-.88-.39-.88-.88s.39-.88.88-.88.88.39.88.88-.39.88-.88.88Z" style="fill: #004a5a;"></path>
      <path d="m59,71.1v11.24c0,.55.45,1,1,1s1-.45,1-1v-11.24c0-.55-.45-1-1-1s-1,.45-1,1Z" style="fill: #004a5a;"></path>
    </g>
  </g>
</svg>
