<?xml version="1.0" encoding="UTF-8"?>
<svg xmlns="http://www.w3.org/2000/svg" viewBox="0 0 120 120">
  <g id="uuid-87248649-559a-4b48-a86c-d5a86e6b215a" data-name="Kreis">
    <path d="m60,113.04c-29.24,0-53.04-23.79-53.04-53.04S30.76,6.96,60,6.96s53.04,23.79,53.04,53.04-23.79,53.04-53.04,53.04Zm0-104.18c-28.2,0-51.14,22.94-51.14,51.14s22.94,51.14,51.14,51.14,51.14-22.94,51.14-51.14S88.2,8.86,60,8.86Z" style="fill: #004a5a;"></path>
  </g>
  <g id="uuid-f954f554-ec57-4a3a-9fb8-93482913d41b" data-name="Icons">
    <g>
      <path d="m92.57,49.45c-17.96-17.85-47.18-17.85-65.14,0-.39.39-.39,1.02,0,1.41.39.39,1.02.39,1.41,0,17.18-17.07,45.14-17.07,62.32,0,.2.19.45.29.71.29s.51-.1.71-.29c.39-.39.39-1.02,0-1.41Z" style="fill: #004a5a;"></path>
      <path d="m71.42,51.22l1.44-8.24c.09-.49-.21-.97-.68-1.13-.48-.15-.99.07-1.21.53l-3.59,7.63c-11.16-2.32-22.83.96-30.63,8.71-.39.39-.39,1.02,0,1.41.2.2.45.3.71.3s.51-.1.7-.29c7.11-7.06,18.1-10.23,28.34-8.27l-4.5,9.57c-6.13-.43-12.41,1.8-16.56,5.92-.39.39-.39,1.02,0,1.41.2.2.45.3.71.3s.51-.1.7-.29c3.58-3.55,8.91-5.54,14.23-5.38l-4.14,8.8c-.22.46-.47.99-.8,1.44-.79,1.1-1.25,2.39-1.33,3.73-.18,2.88,1.39,5.38,3.91,6.22l.42.14c.53.16,1.07.24,1.6.24,2.01,0,3.97-1.11,5.17-3.06.59-.95.95-2.04,1.05-3.16l.04-.51c.06-.81.13-1.58.26-2.34l1.63-9.29c1.53.87,3.04,2,4.23,3.18.19.19.45.29.7.29s.51-.1.71-.3c.39-.39.39-1.02,0-1.41-1.47-1.46-3.39-2.84-5.28-3.83l1.8-10.29c3.39,1.44,7.69,3.86,10.76,6.91.19.19.45.29.7.29s.51-.1.71-.3c.39-.39.39-1.02,0-1.41-3.39-3.37-8.17-6.01-11.81-7.5Zm-6.12,23.32c-.15.85-.22,1.7-.28,2.52l-.04.5c-.07.81-.33,1.59-.75,2.28-1.04,1.67-2.84,2.46-4.48,1.96l-.4-.13c-1.63-.54-2.65-2.23-2.53-4.19.06-.97.39-1.9.96-2.69.42-.58.73-1.21.98-1.75l10.85-23.07-4.3,24.56Z" style="fill: #004a5a;"></path>
    </g>
  </g>
</svg>
