<?xml version="1.0" encoding="UTF-8"?>
<svg xmlns="http://www.w3.org/2000/svg" viewBox="0 0 120 120">
  <g id="uuid-60a129aa-9bf0-47a4-861a-d5367b0ecf13" data-name="Kreis">
    <path d="m60,113.04c-29.24,0-53.04-23.79-53.04-53.04S30.76,6.96,60,6.96s53.04,23.79,53.04,53.04-23.79,53.04-53.04,53.04Zm0-104.18c-28.2,0-51.14,22.94-51.14,51.14s22.94,51.14,51.14,51.14,51.14-22.94,51.14-51.14S88.2,8.86,60,8.86Z" style="fill: #004a5a;"></path>
  </g>
  <g id="uuid-7fd4c6c7-99a0-4377-b5ec-96884302c1df" data-name="Icons">
    <g>
      <path d="m78.93,40.13c-1.54-1.47-3.25-2.75-5.08-3.83-.48-.28-1.09-.12-1.37.36-.28.48-.12,1.09.36,1.37,1.7.99,3.28,2.19,4.71,3.55,5.5,5.24,8.35,12.61,7.83,20.22-.87,12.66-11.08,22.81-23.75,23.6-7.12.45-13.88-1.98-19.06-6.84-5.18-4.86-8.03-11.45-8.03-18.55s2.65-13.19,7.45-17.99c1.54-1.54,3.27-2.88,5.14-3.98.48-.28.64-.89.36-1.37-.28-.48-.89-.64-1.37-.36-2.02,1.18-3.89,2.63-5.55,4.29-5.18,5.18-8.04,12.08-8.04,19.41s3.16,14.84,8.66,20.01c5.15,4.83,11.75,7.44,18.77,7.44.59,0,1.19-.02,1.79-.06,13.67-.85,24.68-11.8,25.62-25.46.56-8.2-2.52-16.15-8.45-21.8Z" style="fill: #004a5a;"></path>
      <path d="m60,53.84c.55,0,1-.45,1-1v-19.28c0-.55-.45-1-1-1s-1,.45-1,1v19.28c0,.55.45,1,1,1Z" style="fill: #004a5a;"></path>
    </g>
  </g>
</svg>
