<?xml version="1.0" encoding="UTF-8"?>
<svg xmlns="http://www.w3.org/2000/svg" viewBox="0 0 120 120">
  <g id="uuid-aa05adf4-2b42-4c0e-a6ce-d2604532905f" data-name="Kreis">
    <path d="m60,113.04c-29.24,0-53.04-23.79-53.04-53.04S30.76,6.96,60,6.96s53.04,23.79,53.04,53.04-23.79,53.04-53.04,53.04Zm0-104.18c-28.2,0-51.14,22.94-51.14,51.14s22.94,51.14,51.14,51.14,51.14-22.94,51.14-51.14S88.2,8.86,60,8.86Z" style="fill: #004a5a;"></path>
  </g>
  <g id="uuid-06d3350f-3cd0-4784-9644-a9319898cf3f" data-name="Icons">
    <g>
      <path d="m56.22,50.7h7.56c.55,0,1-.45,1-1s-.45-1-1-1h-7.56c-.55,0-1,.45-1,1s.45,1,1,1Z" style="fill: #004a5a;"></path>
      <path d="m80.31,33.29h-40.61c-1.17,0-2.12.95-2.12,2.12v7.05c0,1.17.95,2.12,2.12,2.12h4.42l2.07,9.63c.14.49.39.93.72,1.29-.86,1.71-1.97,4.82-.72,7.81.88,2.11,2.75,3.72,5.57,4.81-1.43,1.17-3.15,3.24-3.22,6.41-.04,2.03.71,4.03,2.1,5.63,1.48,1.68,4.66,4.13,9.84,2.4.8,1.48,2.84,4.15,7.07,4.15.72,0,1.49-.08,2.34-.25,2.04-.45,5.62-2.55,5.24-7.28.92-.64,2.5-2.09,2.47-4.6-.04-3.06-1.61-4.97-3.24-6.05,2.09-1.16,3.15-3.15,3.15-5.93,0-3.87-2.19-6.01-4.41-7.07.34-.38.61-.85.76-1.38l2.05-9.56h4.41c1.17,0,2.12-.95,2.12-2.12v-7.05c0-1.17-.95-2.12-2.12-2.12Zm-4.82,29.3c0,2.76-1.25,4.27-4.04,4.88-.46.1-.79.51-.79.98,0,.47.33.88.8.98.17.04,4.06.91,4.13,5.18.02,1.27-.64,2.11-1.2,2.6-.33-.46-.81-.98-1.53-1.46-.46-.31-1.08-.18-1.39.28-.31.46-.18,1.08.28,1.39.89.59,1.23,1.27,1.32,1.48.64,4.49-3.18,5.52-3.6,5.61-5.91,1.2-7.46-3.32-7.52-3.51-.08-.27-.28-.49-.53-.61-.25-.12-.55-.13-.8-.02-3.48,1.43-6.33.92-8.47-1.53-1.07-1.22-1.64-2.73-1.61-4.27.08-4.05,3.78-5.78,3.94-5.85.02-.01.04-.03.07-.04.02-.01.05-.02.08-.03.01,0,1.13-.72,3.1-1.13.54-.11.89-.64.78-1.18-.11-.54-.64-.89-1.18-.78-1.65.34-2.79.87-3.37,1.17-3.12-.88-5.12-2.28-5.92-4.18-.91-2.18-.1-4.57.59-5.99.27.07.54.11.82.11h20.49c.44.05,5.57.69,5.57,5.92Zm-2.52-13.89h-4.02c-.55,0-1,.45-1,1s.45,1,1,1h3.6l-.64,2.96c-.17.59-.72,1-1.33,1h-21.13c-.62,0-1.16-.41-1.32-.94l-.65-3.03h3.57c.55,0,1-.45,1-1s-.45-1-1-1h-4l-.88-4.11h27.69l-.88,4.11Zm7.46-6.23c0,.07-.05.12-.12.12h-40.61c-.07,0-.12-.05-.12-.12v-7.05c0-.07.05-.12.12-.12h40.61c.07,0,.12.05.12.12v7.05Z" style="fill: #004a5a;"></path>
    </g>
  </g>
</svg>
