<?xml version="1.0" encoding="utf-8"?>
<!-- Generator: Adobe Illustrator 26.1.0, SVG Export Plug-In . SVG Version: 6.00 Build 0)  -->
<svg version="1.1" id="Ebene_1" xmlns="http://www.w3.org/2000/svg" xmlns:xlink="http://www.w3.org/1999/xlink" x="0px" y="0px"
	 viewBox="0 0 949.8 811.2" style="enable-background:new 0 0 949.8 811.2;" xml:space="preserve">
<style type="text/css">
	.st0{fill:#FFFFFF;stroke:#CCDBDE;stroke-width:2;stroke-linecap:round;stroke-linejoin:round;stroke-miterlimit:10;}
	.st1{fill:#FFFFFF;stroke:#004B5C;stroke-width:2;stroke-miterlimit:10;}
	.st2{fill:none;stroke:#004B5C;stroke-width:2;stroke-miterlimit:10;}
	.st3{fill:#004A5A;}
	.st4{fill:none;stroke:#004A5A;stroke-width:2;stroke-linecap:round;stroke-linejoin:round;stroke-dasharray:2,8;}
	.st5{fill:#FFFFFF;}
	.st6{fill:#64DA9E;}
	.st7{fill:none;stroke:#64DA9E;stroke-width:3.707;}
	.st8{fill:none;stroke:#004A5A;stroke-width:2;stroke-linecap:round;stroke-linejoin:round;stroke-miterlimit:10;}
	.st9{fill:none;stroke:#CCDBDE;stroke-width:2;stroke-linecap:round;stroke-linejoin:round;stroke-miterlimit:10;}
	.st10{fill:none;stroke:#004A5A;stroke-width:2;stroke-linecap:round;stroke-miterlimit:10;}
</style>
<g>
	<path class="st0" d="M948.8,637.7v155c0,9.7-9.1,17.5-20.3,17.5H21.4c-11.2,0-20.3-7.8-20.3-17.5v-155"/>
	<line class="st0" x1="600.2" y1="640.8" x2="600.2" y2="810.2"/>
	<line class="st0" x1="358.1" y1="640.8" x2="358.1" y2="810.2"/>
</g>
<g>
	<rect x="1" y="138.5" class="st1" width="947.8" height="501.3"/>
	<line class="st2" x1="0" y1="473" x2="949.8" y2="473"/>
	<line class="st2" x1="0" y1="305.7" x2="949.8" y2="305.7"/>
	<line class="st2" x1="600.2" y1="138.5" x2="600.2" y2="638.7"/>
	<line class="st2" x1="358.1" y1="138.5" x2="358.1" y2="638.7"/>
</g>
<path class="st3" d="M527.7,405.5H422.1c-3.3,0-6-2.7-6-6v-36c0-3.3,2.7-6,6-6h105.6c3.3,0,6,2.7,6,6v36
	C533.7,402.9,531,405.5,527.7,405.5z"/>
<path class="st4" d="M766.5,732H512.2c-20.6,0-37.3-16.7-37.3-37.3V594.1"/>
<path class="st3" d="M848.3,38.6l101.5,98.9H0l92.2-98C98,33.5,106,30,114.4,30h712.7C835,30,842.7,33.1,848.3,38.6z"/>
<path class="st3" d="M705.9,12.7h35c2.2,0,4,1.8,4,4v13.8h-43V16.7C701.9,14.5,703.7,12.7,705.9,12.7z"/>
<path class="st3" d="M205,12.7h35c2.2,0,4,1.8,4,4v13.8h-43V16.7C201,14.5,202.8,12.7,205,12.7z"/>
<line class="st4" x1="474.9" y1="521.3" x2="474.9" y2="272.3"/>
<path class="st3" d="M527.7,710.4H422.1c-3.3,0-6-2.7-6-6v-36c0-3.3,2.7-6,6-6h105.6c3.3,0,6,2.7,6,6v36
	C533.7,707.7,531,710.4,527.7,710.4z"/>
<g>
	<path class="st5" d="M431.1,691.9c-1.1-1.1-1.7-2.7-1.8-5c0-0.5,0-1.2,0-2c0-0.9,0-1.6,0-2c0.1-2.2,0.7-3.8,1.9-4.9
		s2.8-1.7,4.8-1.7c2,0,3.6,0.6,4.8,1.7c1.2,1.1,1.8,2.8,1.9,4.9c0,0.9,0,1.6,0,2c0,0.4,0,1.1,0,2c-0.1,2.2-0.7,3.9-1.8,5
		c-1.1,1.1-2.8,1.6-4.8,1.6C433.9,693.6,432.3,693,431.1,691.9z M439,690.4c0.8-0.8,1.2-1.9,1.2-3.5c0-1,0-1.6,0-1.9
		c0-0.4,0-1,0-1.9c-0.1-1.6-0.5-2.8-1.2-3.5c-0.8-0.8-1.8-1.2-3-1.2c-1.3,0-2.3,0.4-3,1.2c-0.8,0.8-1.2,1.9-1.2,3.5
		c0,0.5,0,1.1,0,1.9c0,0.8,0,1.4,0,1.9c0.1,1.6,0.5,2.8,1.2,3.5c0.8,0.8,1.8,1.2,3,1.2C437.3,691.5,438.3,691.1,439,690.4z"/>
	<path class="st5" d="M446.1,697.7c-0.1-0.1-0.2-0.2-0.2-0.4v-15.9c0-0.2,0.1-0.3,0.2-0.4c0.1-0.1,0.2-0.2,0.4-0.2h1.1
		c0.2,0,0.3,0.1,0.4,0.2c0.1,0.1,0.2,0.2,0.2,0.4v1.1c0.9-1.2,2.2-1.8,3.9-1.8c1.7,0,2.9,0.5,3.8,1.6c0.8,1.1,1.3,2.4,1.4,4.1
		c0,0.2,0,0.4,0,0.8c0,0.4,0,0.6,0,0.8c-0.1,1.6-0.5,3-1.4,4.1c-0.8,1.1-2.1,1.6-3.8,1.6s-3-0.6-3.9-1.8v5.6c0,0.2,0,0.3-0.1,0.4
		c-0.1,0.1-0.2,0.2-0.4,0.2h-1.2C446.3,697.9,446.2,697.8,446.1,697.7z M454,690.6c0.5-0.7,0.8-1.6,0.9-2.8c0-0.2,0-0.4,0-0.7
		c0-3-1.1-4.5-3.4-4.5c-1.1,0-1.9,0.4-2.5,1.1c-0.6,0.7-0.9,1.6-0.9,2.6l0,0.9l0,0.9c0,0.9,0.3,1.8,0.9,2.5c0.6,0.7,1.4,1.1,2.5,1.1
		C452.7,691.6,453.5,691.3,454,690.6z"/>
	<path class="st5" d="M461.1,689.1v-6.3h-1.9c-0.2,0-0.3-0.1-0.4-0.2s-0.2-0.2-0.2-0.4v-0.8c0-0.2,0.1-0.3,0.2-0.4
		c0.1-0.1,0.2-0.2,0.4-0.2h1.9v-4c0-0.2,0.1-0.3,0.2-0.4c0.1-0.1,0.2-0.2,0.4-0.2h1.1c0.2,0,0.3,0.1,0.4,0.2
		c0.1,0.1,0.2,0.2,0.2,0.4v4h3c0.2,0,0.3,0.1,0.4,0.2c0.1,0.1,0.2,0.2,0.2,0.4v0.8c0,0.2-0.1,0.3-0.2,0.4s-0.2,0.2-0.4,0.2h-3v6.2
		c0,0.8,0.1,1.4,0.4,1.8c0.3,0.4,0.7,0.6,1.3,0.6h1.5c0.2,0,0.3,0.1,0.4,0.2c0.1,0.1,0.2,0.2,0.2,0.4v0.9c0,0.2-0.1,0.3-0.2,0.4
		c-0.1,0.1-0.2,0.2-0.4,0.2h-1.7C462.4,693.3,461.1,691.9,461.1,689.1z"/>
	<path class="st5" d="M469.4,678.4c-0.1-0.1-0.2-0.2-0.2-0.4v-1.3c0-0.2,0.1-0.3,0.2-0.4c0.1-0.1,0.2-0.2,0.4-0.2h1.5
		c0.2,0,0.3,0.1,0.4,0.2c0.1,0.1,0.2,0.2,0.2,0.4v1.3c0,0.2-0.1,0.3-0.2,0.4c-0.1,0.1-0.2,0.2-0.4,0.2h-1.5
		C469.6,678.5,469.5,678.5,469.4,678.4z M469.6,693.2c-0.1-0.1-0.2-0.2-0.2-0.4v-11.4c0-0.2,0.1-0.3,0.2-0.4
		c0.1-0.1,0.2-0.2,0.4-0.2h1.2c0.2,0,0.3,0.1,0.4,0.2c0.1,0.1,0.2,0.2,0.2,0.4v11.4c0,0.2-0.1,0.3-0.2,0.4c-0.1,0.1-0.2,0.2-0.4,0.2
		H470C469.8,693.3,469.7,693.3,469.6,693.2z"/>
	<path class="st5" d="M476.2,692.1c-1-1-1.5-2.3-1.5-4l0-1l0-1c0.1-1.6,0.6-2.9,1.6-3.9c1-1,2.3-1.5,4.1-1.5c1.7,0,3.1,0.5,4.1,1.5
		s1.5,2.3,1.6,3.9c0,0.2,0,0.5,0,1c0,0.5,0,0.9,0,1c-0.1,1.6-0.6,3-1.5,4c-1,1-2.3,1.5-4.1,1.5C478.6,693.6,477.2,693.1,476.2,692.1
		z M482.7,690.8c0.6-0.6,0.9-1.6,0.9-2.8c0-0.2,0-0.5,0-0.9c0-0.4,0-0.8,0-0.9c0-1.2-0.4-2.1-0.9-2.8c-0.6-0.6-1.4-1-2.4-1
		c-1,0-1.8,0.3-2.4,1c-0.6,0.6-0.9,1.6-0.9,2.8l0,0.9l0,0.9c0,1.2,0.3,2.1,0.9,2.8c0.6,0.6,1.4,1,2.4,1
		C481.3,691.7,482.1,691.4,482.7,690.8z"/>
	<path class="st5" d="M489.2,693.2c-0.1-0.1-0.2-0.2-0.2-0.4v-11.4c0-0.2,0.1-0.3,0.2-0.4c0.1-0.1,0.2-0.2,0.4-0.2h1.1
		c0.2,0,0.3,0.1,0.4,0.2c0.1,0.1,0.2,0.2,0.2,0.4v1.1c0.5-0.6,1-1,1.6-1.4c0.6-0.3,1.4-0.5,2.4-0.5c1.5,0,2.7,0.5,3.6,1.5
		c0.9,1,1.3,2.3,1.3,3.9v6.8c0,0.2-0.1,0.3-0.2,0.4c-0.1,0.1-0.2,0.2-0.4,0.2h-1.2c-0.2,0-0.3-0.1-0.4-0.2c-0.1-0.1-0.2-0.2-0.2-0.4
		v-6.6c0-1.1-0.3-2-0.8-2.6s-1.3-0.9-2.4-0.9c-1,0-1.8,0.3-2.4,0.9c-0.6,0.6-0.9,1.5-0.9,2.6v6.6c0,0.2-0.1,0.3-0.2,0.4
		c-0.1,0.1-0.2,0.2-0.4,0.2h-1.2C489.4,693.3,489.3,693.3,489.2,693.2z"/>
	<path class="st5" d="M509,693.2c-0.1-0.1-0.2-0.2-0.2-0.4V692c0-0.4,0.2-0.7,0.6-1.1l5.1-5.1c1.2-1,2.1-1.9,2.5-2.5
		c0.5-0.6,0.7-1.3,0.7-2.1c0-0.9-0.3-1.7-0.8-2.2c-0.5-0.5-1.3-0.8-2.3-0.8c-0.9,0-1.7,0.3-2.2,0.8c-0.6,0.6-0.9,1.3-1,2.2
		c0,0.2-0.1,0.3-0.2,0.4c-0.1,0.1-0.3,0.1-0.4,0.1h-1.2c-0.1,0-0.3,0-0.4-0.1c-0.1-0.1-0.1-0.2-0.1-0.3c0-0.9,0.3-1.7,0.7-2.5
		c0.4-0.8,1.1-1.4,1.9-1.9c0.8-0.5,1.9-0.8,3-0.8c1.8,0,3.2,0.5,4.1,1.4c0.9,0.9,1.4,2.1,1.4,3.6c0,1-0.3,1.9-0.8,2.7
		c-0.5,0.8-1.3,1.7-2.3,2.6l-4.6,4.7h7.5c0.2,0,0.3,0.1,0.4,0.2c0.1,0.1,0.2,0.2,0.2,0.4v1c0,0.2-0.1,0.3-0.2,0.4
		c-0.1,0.1-0.2,0.2-0.4,0.2h-10.6C509.2,693.3,509.1,693.3,509,693.2z"/>
</g>
<g id="Heizung_00000162336769292102143930000015468612223411535540_" transform="translate(1069.344 4012.107)">
	<path id="Rechteck_818_00000161631387107476782810000016852697411317847468_" class="st6" d="M-224.8-3801.1h3.5
		c1,0,1.7,0.8,1.7,1.7v78.7c0,1-0.8,1.7-1.7,1.7h0h-3.5c-1,0-1.7-0.8-1.7-1.7l0,0v-78.7C-226.5-3800.3-225.7-3801.1-224.8-3801.1
		L-224.8-3801.1z"/>
	<path id="Rechteck_819_00000066481731661560846840000015543100281242919314_" class="st6" d="M-214.1-3801.1h3.5
		c1,0,1.7,0.8,1.7,1.7v78.7c0,1-0.8,1.7-1.7,1.7l0,0h-3.5c-1,0-1.7-0.8-1.7-1.7l0,0v-78.7C-215.8-3800.3-215-3801.1-214.1-3801.1
		L-214.1-3801.1z"/>
	<path id="Rechteck_820_00000087398379116476171710000006057959469826351505_" class="st6" d="M-203.4-3801.1h3.5
		c1,0,1.7,0.8,1.7,1.7c0,0,0,0,0,0v78.7c0,1-0.8,1.7-1.7,1.7c0,0,0,0,0,0h-3.5c-1,0-1.7-0.8-1.7-1.7l0,0v-78.7
		C-205.2-3800.3-204.4-3801.1-203.4-3801.1L-203.4-3801.1z"/>
	<path id="Rechteck_821_00000167359222343834726220000013129394550558254481_" class="st6" d="M-192.8-3801.1h3.5
		c1,0,1.7,0.8,1.7,1.7c0,0,0,0,0,0v78.7c0,1-0.8,1.7-1.7,1.7c0,0,0,0,0,0h-3.5c-1,0-1.7-0.8-1.7-1.7l0,0v-78.7
		C-194.5-3800.3-193.7-3801.1-192.8-3801.1L-192.8-3801.1z"/>
	<path id="Rechteck_822_00000036221487379183038610000004674417377907238043_" class="st6" d="M-182.1-3801.1h3.5
		c1,0,1.7,0.8,1.7,1.7v78.7c0,1-0.8,1.7-1.7,1.7h0h-3.5c-1,0-1.7-0.8-1.7-1.7l0,0v-78.7C-183.8-3800.3-183-3801.1-182.1-3801.1
		L-182.1-3801.1z"/>
	
		<line id="Linie_254_00000061468338083964766480000003137816988068037522_" class="st7" x1="-224.2" y1="-3731.6" x2="-121.6" y2="-3731.6"/>
</g>
<g id="Heizung_00000176750428076857008280000017362773331400631726_" transform="translate(1069.344 4012.107)">
	<path id="Rechteck_818_00000091735165380021502710000002705242578633370010_" class="st6" d="M-224.8-3633.6h3.5
		c1,0,1.7,0.8,1.7,1.7v78.7c0,1-0.8,1.7-1.7,1.7h0h-3.5c-1,0-1.7-0.8-1.7-1.7l0,0v-78.7C-226.5-3632.8-225.7-3633.6-224.8-3633.6
		L-224.8-3633.6z"/>
	<path id="Rechteck_819_00000033364786721763431340000009854177190559916213_" class="st6" d="M-214.1-3633.6h3.5
		c1,0,1.7,0.8,1.7,1.7v78.7c0,1-0.8,1.7-1.7,1.7l0,0h-3.5c-1,0-1.7-0.8-1.7-1.7l0,0v-78.7C-215.8-3632.8-215-3633.6-214.1-3633.6
		L-214.1-3633.6z"/>
	<path id="Rechteck_820_00000000218855739141511740000016663290492025318048_" class="st6" d="M-203.4-3633.6h3.5
		c1,0,1.7,0.8,1.7,1.7c0,0,0,0,0,0v78.7c0,1-0.8,1.7-1.7,1.7c0,0,0,0,0,0h-3.5c-1,0-1.7-0.8-1.7-1.7l0,0v-78.7
		C-205.2-3632.8-204.4-3633.6-203.4-3633.6L-203.4-3633.6z"/>
	<path id="Rechteck_821_00000102538364034845569240000016955169757591512705_" class="st6" d="M-192.8-3633.6h3.5
		c1,0,1.7,0.8,1.7,1.7c0,0,0,0,0,0v78.7c0,1-0.8,1.7-1.7,1.7c0,0,0,0,0,0h-3.5c-1,0-1.7-0.8-1.7-1.7l0,0v-78.7
		C-194.5-3632.8-193.7-3633.6-192.8-3633.6L-192.8-3633.6z"/>
	<path id="Rechteck_822_00000182503994846734901510000009756590922693687217_" class="st6" d="M-182.1-3633.6h3.5
		c1,0,1.7,0.8,1.7,1.7v78.7c0,1-0.8,1.7-1.7,1.7h0h-3.5c-1,0-1.7-0.8-1.7-1.7l0,0v-78.7C-183.8-3632.8-183-3633.6-182.1-3633.6
		L-182.1-3633.6z"/>
	
		<line id="Linie_254_00000031200720183142495430000006062711806303751356_" class="st7" x1="-224.2" y1="-3564.1" x2="-121.6" y2="-3564.1"/>
</g>
<g id="Heizung_00000033367087640483178070000005732655119530803130_" transform="translate(1069.344 4012.107)">
	<path id="Rechteck_818_00000082334485100044119790000017576474306941324952_" class="st6" d="M-224.8-3465.7h3.5
		c1,0,1.7,0.8,1.7,1.7v78.7c0,1-0.8,1.7-1.7,1.7h0h-3.5c-1,0-1.7-0.8-1.7-1.7l0,0v-78.7C-226.5-3464.9-225.7-3465.7-224.8-3465.7
		L-224.8-3465.7z"/>
	<path id="Rechteck_819_00000118361713955057844940000011897292857645281470_" class="st6" d="M-214.1-3465.7h3.5
		c1,0,1.7,0.8,1.7,1.7v78.7c0,1-0.8,1.7-1.7,1.7l0,0h-3.5c-1,0-1.7-0.8-1.7-1.7l0,0v-78.7C-215.8-3464.9-215-3465.7-214.1-3465.7
		L-214.1-3465.7z"/>
	<path id="Rechteck_820_00000042717342750646198190000011265273062396050339_" class="st6" d="M-203.4-3465.7h3.5
		c1,0,1.7,0.8,1.7,1.7c0,0,0,0,0,0v78.7c0,1-0.8,1.7-1.7,1.7c0,0,0,0,0,0h-3.5c-1,0-1.7-0.8-1.7-1.7l0,0v-78.7
		C-205.2-3464.9-204.4-3465.7-203.4-3465.7L-203.4-3465.7z"/>
	<path id="Rechteck_821_00000119075360293583872620000014260165605368496562_" class="st6" d="M-192.8-3465.7h3.5
		c1,0,1.7,0.8,1.7,1.7c0,0,0,0,0,0v78.7c0,1-0.8,1.7-1.7,1.7c0,0,0,0,0,0h-3.5c-1,0-1.7-0.8-1.7-1.7l0,0v-78.7
		C-194.5-3464.9-193.7-3465.7-192.8-3465.7L-192.8-3465.7z"/>
	<path id="Rechteck_822_00000092423638413801276790000018115701843701939385_" class="st6" d="M-182.1-3465.7h3.5
		c1,0,1.7,0.8,1.7,1.7v78.7c0,1-0.8,1.7-1.7,1.7h0h-3.5c-1,0-1.7-0.8-1.7-1.7l0,0v-78.7C-183.8-3464.9-183-3465.7-182.1-3465.7
		L-182.1-3465.7z"/>
	
		<line id="Linie_254_00000101069605414645838340000016162313911557164949_" class="st7" x1="-224.2" y1="-3396.2" x2="-121.6" y2="-3396.2"/>
</g>
<g id="Gruppe_459_00000137127330672266597060000014287252278071570621_">
	<g>
		<g id="Gruppe_458_00000167361572010852076300000009377321446159852432_">
			<path class="st6" d="M903.2,712.8h-52.6c-4.1,0-7.5,3.4-7.5,7.5v60.2c0,4.1,3.4,7.5,7.5,7.5h52.6c4.1,0,7.5-3.4,7.5-7.5v-60.2
				C910.7,716.2,907.3,712.9,903.2,712.8z M885.5,759.4l-9.5,11.9c0,0,0,0.1-0.1,0.1c-0.2,0.4-0.1,0.9,0.3,1.1l0.1,0.1
				c0.1,0.1,0.2,0.1,0.2,0.2c0.3,0.4,0.2,0.9-0.2,1.1l-4.3,3.1c-0.2,0.1-0.4,0.2-0.5,0.1c-0.4,0-0.8-0.4-0.7-0.9l0.5-5.5
				c0-0.1,0.1-0.3,0.1-0.4c0.2-0.4,0.7-0.5,1.1-0.3l0.6,0.4c0,0,0.1,0,0.1,0.1c0.4,0.2,0.9,0,1.1-0.4l3.8-8.1c0-0.1,0.1-0.1,0.1-0.2
				c0.1-0.4-0.2-0.9-0.7-0.9l-9.1-1.5c-0.1,0-0.1,0-0.2-0.1c-0.4-0.2-0.6-0.7-0.4-1.1l5.2-11.5c0.1-0.3,0.4-0.5,0.7-0.5h7.6
				c0.2,0,0.3,0.1,0.5,0.2c0.4,0.3,0.4,0.8,0.2,1.1l-6.2,8.2c-0.1,0.1-0.1,0.3-0.2,0.4c0,0.5,0.3,0.9,0.7,0.9l8.5,0.9
				c0.2,0,0.3,0.1,0.4,0.2C885.7,758.5,885.8,759,885.5,759.4z M895.7,727.5v5.6c0,2.1-1.7,3.8-3.8,3.8c0,0,0,0,0,0h-30
				c-2.1,0-3.8-1.7-3.8-3.8c0,0,0,0,0,0v-5.6c0.1-2.1,1.7-3.7,3.8-3.8h30C894,723.7,895.7,725.4,895.7,727.5
				C895.7,727.5,895.7,727.5,895.7,727.5z"/>
			<path id="Pfad_1239_00000064319794904276475530000010666044785436668037_" class="st6" d="M865.1,781.5h2.4
				c0.8,0,1.4,0.8,1.4,1.7c0,0,0,0,0,0v24.3c0,1-0.6,1.7-1.4,1.7c0,0,0,0,0,0h-2.4c-0.8,0-1.4-0.8-1.4-1.7c0,0,0,0,0,0v-24.3
				C863.6,782.2,864.3,781.5,865.1,781.5C865.1,781.5,865.1,781.5,865.1,781.5"/>
			<path id="Pfad_1240_00000089574886789585179990000016694751542324668289_" class="st6" d="M886.3,781.5h2.4
				c0.8,0,1.4,0.8,1.4,1.7c0,0,0,0,0,0v24.3c0,1-0.6,1.7-1.4,1.7c0,0,0,0,0,0h-2.4c-0.8,0-1.4-0.8-1.4-1.7c0,0,0,0,0,0v-24.3
				C884.8,782.2,885.5,781.5,886.3,781.5C886.3,781.5,886.3,781.5,886.3,781.5"/>
			<path id="Pfad_1241_00000137841133872698588180000001230376830555889575_" class="st6" d="M875.7,781.5h2.4
				c0.8,0,1.4,0.8,1.4,1.7c0,0,0,0,0,0v24.3c0,1-0.6,1.7-1.4,1.7c0,0,0,0,0,0h-2.4c-0.8,0-1.4-0.8-1.4-1.7c0,0,0,0,0,0v-24.3
				C874.2,782.2,874.9,781.5,875.7,781.5C875.7,781.5,875.7,781.5,875.7,781.5"/>
		</g>
	</g>
</g>
<polyline class="st1" points="1052.3,637.7 1052.3,310.7 1828.2,310.7 1828.2,637.7 "/>
<g>
	<path class="st8" d="M1499.5,637.7v-16.3c0-1,0.8-1.8,1.8-1.8h15c1,0,1.8-0.8,1.8-1.8v-14.6c0-1,0.8-1.8,1.8-1.8h15
		c1,0,1.8-0.8,1.8-1.8v-14.6c0-1,0.8-1.8,1.8-1.8h16.7"/>
	<path class="st8" d="M1518,603.3c0-1,0.8-1.8,1.8-1.8h15c1,0,1.8-0.8,1.8-1.8v-14.6c0-1,0.8-1.8,1.8-1.8h16.7"/>
</g>
<g>
	<path class="st8" d="M544.9,639.8v-16.3c0-1,0.8-1.8,1.8-1.8h15c1,0,1.8-0.8,1.8-1.8v-14.6c0-1,0.8-1.8,1.8-1.8h15
		c1,0,1.8-0.8,1.8-1.8v-14.6c0-1,0.8-1.8,1.8-1.8h16.7"/>
	<path class="st8" d="M563.3,605.3c0-1,0.8-1.8,1.8-1.8h15c1,0,1.8-0.8,1.8-1.8v-14.6c0-1,0.8-1.8,1.8-1.8h16.7"/>
</g>
<g>
	<path class="st8" d="M544.9,472.7v-16.3c0-1,0.8-1.8,1.8-1.8h15c1,0,1.8-0.8,1.8-1.8v-14.6c0-1,0.8-1.8,1.8-1.8h15
		c1,0,1.8-0.8,1.8-1.8v-14.6c0-1,0.8-1.8,1.8-1.8h16.7"/>
	<path class="st8" d="M563.3,438.2c0-1,0.8-1.8,1.8-1.8h15c1,0,1.8-0.8,1.8-1.8v-14.6c0-1,0.8-1.8,1.8-1.8h16.7"/>
</g>
<path class="st0" d="M1827.9,637.7v147.7c0,9.2-7.5,16.7-16.7,16.7h-742.6c-9.2,0-16.7-7.5-16.7-16.7V637.7"/>
<line class="st2" x1="1325" y1="310.3" x2="1325" y2="637.7"/>
<line class="st2" x1="1554.9" y1="310.6" x2="1554.9" y2="637.7"/>
<line class="st9" x1="1325" y1="638.7" x2="1325" y2="802.1"/>
<line class="st9" x1="1554.9" y1="638.8" x2="1554.9" y2="802.1"/>
<line class="st2" x1="1052" y1="473.5" x2="1827.9" y2="473.5"/>
<line class="st10" x1="1052" y1="637.7" x2="1827.9" y2="637.7"/>
<g>
	<path class="st9" d="M1499.5,802.1v-16.4c0-1,0.8-1.8,1.8-1.8h15c1,0,1.8-0.8,1.8-1.8v-14.6c0-1,0.8-1.8,1.8-1.8h15
		c1,0,1.8-0.8,1.8-1.8v-14.6c0-1,0.8-1.8,1.8-1.8h16.7"/>
</g>
<g>
	<path class="st9" d="M544.9,810.2v-16.4c0-1,0.8-1.8,1.8-1.8h15c1,0,1.8-0.8,1.8-1.8v-14.6c0-1,0.8-1.8,1.8-1.8h15
		c1,0,1.8-0.8,1.8-1.8v-14.6c0-1,0.8-1.8,1.8-1.8h16.7"/>
</g>
<g>
	<g id="Gruppe_455_00000054947694814402699710000010695150321406290584_" transform="translate(329.344 4252.904)">
		<g>
			<g id="Gruppe_454_00000164495646105298972000000014897507614829448879_">
				<path id="Pfad_1235_00000085235604115802912640000011322697893011748482_" class="st6" d="M-256.2-3489.8h1.6
					c1,0,1.7,1.1,1.7,2.4v41.3c0,1.3-0.8,2.4-1.7,2.4h-1.6c-1,0-1.7-1.1-1.7-2.4v-41.3C-257.9-3488.7-257.1-3489.8-256.2-3489.8"/>
				<path id="Pfad_1236_00000033355831071646370530000011652820730303331728_" class="st6" d="M-239.6-3490.4h1.6
					c1,0,1.7,1.1,1.7,2.4v42c0,1.3-0.8,2.4-1.7,2.4h-1.6c-1,0-1.7-1.1-1.7-2.4v-42C-241.3-3489.3-240.6-3490.4-239.6-3490.4"/>
			</g>
		</g>
	</g>
	<path class="st6" d="M107,682.6c-7.8-4-16.5-6.1-25.3-6.2c-7.8,0-15.6,2-22.4,5.9c-1.7,1-2.7,2.8-2.7,4.8V758
		c0,1.9,0.9,3.6,2.5,4.6c6.7,4.3,14.4,6.5,22.3,6.4c8.9-0.2,17.6-2.4,25.5-6.3c1.9-0.9,3.1-2.9,3.1-5v-70.2
		C110,685.4,108.8,683.5,107,682.6z M93.2,749.1c-0.9,2.4-2.6,4.5-4.8,5.6c-0.1,0.1-0.3,0.1-0.4,0.1c-0.3-0.1-0.2-0.6,0-0.9
		c0.9-1.6,0.7-3.5,0.3-5.2c-0.7-2.9-2.1-5.6-3.5-8.3c-0.6-1.1-1.1-2.1-1.7-3.2c-0.1-0.3-0.3-0.5-0.6-0.5c-0.2,0-0.4,0.2-0.5,0.4
		c-2,2.9-3.4,6.2-4.1,9.6c-0.5,2.5-0.5,5.2,0.7,7.5c0.1,0.2,0.2,0.4,0.1,0.6c-0.1,0.2-0.4,0.1-0.6,0c-2.2-1.3-4-3.4-4.9-5.8
		c-1.9-5.1,0.8-9.8,3.4-14.1c1.2-2,2.4-4,3.2-6.1c1-2.5,1.4-5.2,1.3-7.8c0-0.2,0-0.4,0.1-0.5c0,0,0.1,0,0.1,0c0.1,0,0.3,0.1,0.4,0.2
		c2.2,1.6,3.4,4.3,4,7c0.6,2.7,0.7,5.4,1.2,8.1c0.1,0.5,0.5,1.2,0.9,1c0.2-0.1,0.3-0.3,0.4-0.4c0.5-0.9,0.8-1.9,0.8-3
		c0-0.1,0-0.3,0.1-0.4c0.2-0.3,0.6,0,0.9,0.3c2.1,2.4,3.4,5.4,3.8,8.6C94.2,744.1,94.1,746.7,93.2,749.1z M98.1,710.3H86.9l6.4-6.6
		c0.5-0.5,0.5-1.3,0-1.8c-0.5-0.5-1.3-0.5-1.8,0l-8.2,8.3H68.5c-0.8,0-1.5-0.7-1.5-1.5c0,0,0,0,0,0c0-8.2,6.6-14.8,14.8-14.8h3.1
		c0,0,0,0,0,0c8.2,0,14.8,6.6,14.7,14.8C99.6,709.7,98.9,710.3,98.1,710.3z"/>
</g>
<g id="Gruppe_462_00000137098854184220386510000005459592431944232380_" transform="translate(304.344 4010.115)">
	<g>
		<g id="Gruppe_461_00000064355606280525112060000015028904222011789966_">
			<path id="Pfad_1243_00000116946956848000943530000012503409161648155062_" class="st6" d="M-222.6-3767.4h-77.1
				c-1.4,0-2.6-1.1-2.6-2.5c0,0,0,0,0,0v-5.6c0-1.4,1.2-2.5,2.6-2.5c0,0,0,0,0,0h77.1c1.4,0,2.6,1.1,2.6,2.5c0,0,0,0,0,0v5.6
				C-220.1-3768.5-221.2-3767.4-222.6-3767.4C-222.6-3767.4-222.6-3767.4-222.6-3767.4"/>
			<path id="Pfad_1244_00000041273919381675239260000017351937899379435436_" class="st6" d="M-224.8-3799.7c0.9,0,1.6,0.7,1.6,1.6
				c0,0.1,0,0.3,0,0.4c-2.9,11.3-15.4,20.2-28.1,20.2c-12.6,0-23.8-8-27.9-19.9c-0.3-0.8,0.2-1.8,1-2c0.2-0.1,0.3-0.1,0.5-0.1
				L-224.8-3799.7z"/>
			<path id="Pfad_1245_00000052094752635372653720000006589750580326636977_" class="st6" d="M-281.9-3778h-4.3v-46.3
				c-0.1-5.8,4.5-10.6,10.3-10.8c5.3-0.1,9.9,3.7,10.6,9c0.1,0.7-0.4,1.4-1.1,1.4c-0.1,0-0.1,0-0.2,0h-1.7c-0.6,0-1.2-0.4-1.3-1.1
				c-0.6-3.4-3.9-5.6-7.3-5c-2.9,0.5-5,3.1-5.1,6V-3778z"/>
			<path id="Pfad_1246_00000126315933340495657280000011355182088038596006_" class="st6" d="M-285.7-3800.7h-2.7
				c-0.3,0-0.5-0.2-0.5-0.5l0,0v-3.1c0-0.3,0.2-0.5,0.5-0.5h0h2.7c0.3,0,0.5,0.2,0.5,0.5v0v3.1
				C-285.2-3800.9-285.4-3800.7-285.7-3800.7L-285.7-3800.7"/>
			<path id="Pfad_1247_00000122685752548193477400000006367899355840957374_" class="st6" d="M-291.7-3804.7v-9.7c0-0.5-0.4-1-1-1
				c0,0,0,0,0,0h-0.3c-0.1,0-0.2,0.1-0.2,0.2v14c0,0.3,0.2,0.5,0.5,0.5c0,0,0,0,0,0h2.2c0.5,0,1-0.4,1-1c0,0,0,0,0,0v-3.1H-291.7z"
				/>
			<path id="Pfad_1248_00000154399566276826740490000015074274549426246534_" class="st6" d="M-253.7-3770.4v20.6c0,0.6-0.5,1-1.1,1
				h-46.5c-0.6,0-1,0.4-1.1,1v3.3c0,0.6,0.5,1,1.1,1h46.5c0.6,0,1,0.4,1.1,1v6.3c0,0.6,0.5,1,1.1,1h3.5c0.6,0,1-0.4,1.1-1v-34.3
				c0-0.6-0.5-1-1.1-1h-3.5C-253.2-3771.4-253.6-3771-253.7-3770.4"/>
		</g>
	</g>
</g>
<g id="Gruppe_462_00000048463076095606613360000001709808837289437086_" transform="translate(304.344 4010.115)">
	<g>
		<g id="Gruppe_461_00000067220005192219729280000016857892179698719368_">
			<path id="Pfad_1243_00000125599591670525685420000011614505180943543680_" class="st6" d="M-222.6-3599.8h-77.1
				c-1.4,0-2.6-1.1-2.6-2.5c0,0,0,0,0,0v-5.6c0-1.4,1.2-2.5,2.6-2.5c0,0,0,0,0,0h77.1c1.4,0,2.6,1.1,2.6,2.5c0,0,0,0,0,0v5.6
				C-220.1-3600.8-221.2-3599.7-222.6-3599.8C-222.6-3599.8-222.6-3599.8-222.6-3599.8"/>
			<path id="Pfad_1244_00000068664945348306596070000005411274457819280542_" class="st6" d="M-224.8-3632.1c0.9,0,1.6,0.7,1.6,1.6
				c0,0.1,0,0.3,0,0.4c-2.9,11.3-15.4,20.2-28.1,20.2c-12.6,0-23.8-8-27.9-19.9c-0.3-0.8,0.2-1.8,1-2c0.2-0.1,0.3-0.1,0.5-0.1
				L-224.8-3632.1z"/>
			<path id="Pfad_1245_00000162324071365463719580000012766669540853889944_" class="st6" d="M-281.9-3610.4h-4.3v-46.3
				c-0.1-5.8,4.5-10.6,10.3-10.8c5.3-0.1,9.9,3.7,10.6,9c0.1,0.7-0.4,1.4-1.1,1.4c-0.1,0-0.1,0-0.2,0h-1.7c-0.6,0-1.2-0.4-1.3-1.1
				c-0.6-3.4-3.9-5.6-7.3-5c-2.9,0.5-5,3.1-5.1,6V-3610.4z"/>
			<path id="Pfad_1246_00000013879875573279594770000006102533468067987337_" class="st6" d="M-285.7-3633h-2.7
				c-0.3,0-0.5-0.2-0.5-0.5l0,0v-3.1c0-0.3,0.2-0.5,0.5-0.5h0h2.7c0.3,0,0.5,0.2,0.5,0.5l0,0v3.1
				C-285.2-3633.2-285.4-3633-285.7-3633L-285.7-3633"/>
			<path id="Pfad_1247_00000071526465715008813190000011387011887787967659_" class="st6" d="M-291.7-3637.1v-9.7c0-0.5-0.4-1-1-1
				c0,0,0,0,0,0h-0.3c-0.1,0-0.2,0.1-0.2,0.2v14c0,0.3,0.2,0.5,0.5,0.5c0,0,0,0,0,0h2.2c0.5,0,1-0.4,1-1c0,0,0,0,0,0v-3.1H-291.7z"
				/>
			<path id="Pfad_1248_00000055693937102497392890000007177172579977900675_" class="st6" d="M-253.7-3602.8v20.6c0,0.6-0.5,1-1.1,1
				h-46.5c-0.6,0-1,0.4-1.1,1v3.3c0,0.6,0.5,1,1.1,1h46.5c0.6,0,1,0.4,1.1,1v6.3c0,0.6,0.5,1,1.1,1h3.5c0.6,0,1-0.4,1.1-1v-34.3
				c0-0.6-0.5-1-1.1-1h-3.5C-253.2-3603.8-253.6-3603.3-253.7-3602.8"/>
		</g>
	</g>
</g>
<g id="Gruppe_462_00000080923754378275667460000000243006711984222138_" transform="translate(304.344 4010.115)">
	<g>
		<g id="Gruppe_461_00000075872097826392184820000004610385036090447234_">
			<path id="Pfad_1243_00000062877577705992114920000005265368596889418903_" class="st6" d="M-222.6-3432.7h-77.1
				c-1.4,0-2.6-1.1-2.6-2.5c0,0,0,0,0,0v-5.6c0-1.4,1.2-2.5,2.6-2.5c0,0,0,0,0,0h77.1c1.4,0,2.6,1.1,2.6,2.5c0,0,0,0,0,0v5.6
				C-220.1-3433.8-221.2-3432.6-222.6-3432.7C-222.6-3432.7-222.6-3432.7-222.6-3432.7"/>
			<path id="Pfad_1244_00000008132265266177822420000008215513727982913951_" class="st6" d="M-224.8-3465c0.9,0,1.6,0.7,1.6,1.6
				c0,0.1,0,0.3,0,0.4c-2.9,11.3-15.4,20.2-28.1,20.2c-12.6,0-23.8-8-27.9-19.9c-0.3-0.8,0.2-1.8,1-2c0.2-0.1,0.3-0.1,0.5-0.1
				L-224.8-3465z"/>
			<path id="Pfad_1245_00000017479577660537818910000012468799854176834945_" class="st6" d="M-281.9-3443.3h-4.3v-46.3
				c-0.1-5.8,4.5-10.6,10.3-10.8c5.3-0.1,9.9,3.7,10.6,9c0.1,0.7-0.4,1.4-1.1,1.4c-0.1,0-0.1,0-0.2,0h-1.7c-0.6,0-1.2-0.4-1.3-1.1
				c-0.6-3.4-3.9-5.6-7.3-5c-2.9,0.5-5,3.1-5.1,6V-3443.3z"/>
			<path id="Pfad_1246_00000059994587735777485500000005916906376084210091_" class="st6" d="M-285.7-3465.9h-2.7
				c-0.3,0-0.5-0.2-0.5-0.5l0,0v-3.1c0-0.3,0.2-0.5,0.5-0.5h0h2.7c0.3,0,0.5,0.2,0.5,0.5v0v3.1
				C-285.2-3466.1-285.4-3465.9-285.7-3465.9L-285.7-3465.9"/>
			<path id="Pfad_1247_00000091010107278411228070000006012649974366378905_" class="st6" d="M-291.7-3470v-9.7c0-0.5-0.4-1-1-1
				c0,0,0,0,0,0h-0.3c-0.1,0-0.2,0.1-0.2,0.2v14c0,0.3,0.2,0.5,0.5,0.5c0,0,0,0,0,0h2.2c0.5,0,1-0.4,1-1c0,0,0,0,0,0v-3.1H-291.7z"
				/>
			<path id="Pfad_1248_00000176018084635251879900000007542911758519847068_" class="st6" d="M-253.7-3435.7v20.6c0,0.6-0.5,1-1.1,1
				h-46.5c-0.6,0-1,0.4-1.1,1v3.3c0,0.6,0.5,1,1.1,1h46.5c0.6,0,1,0.4,1.1,1v6.3c0,0.6,0.5,1,1.1,1h3.5c0.6,0,1-0.4,1.1-1v-34.3
				c0-0.6-0.5-1-1.1-1h-3.5C-253.2-3436.7-253.6-3436.2-253.7-3435.7"/>
		</g>
	</g>
</g>
<g>
	<path class="st5" d="M433.3,387.1c-1.1-1.1-1.7-2.7-1.8-5c0-0.5,0-1.2,0-2c0-0.9,0-1.6,0-2c0.1-2.2,0.7-3.8,1.9-4.9
		s2.8-1.7,4.8-1.7c2,0,3.6,0.6,4.8,1.7c1.2,1.1,1.8,2.8,1.9,4.9c0,0.9,0,1.6,0,2c0,0.4,0,1.1,0,2c-0.1,2.2-0.7,3.9-1.8,5
		c-1.1,1.1-2.8,1.6-4.8,1.6C436.1,388.7,434.5,388.2,433.3,387.1z M441.2,385.5c0.8-0.8,1.2-1.9,1.2-3.5c0-1,0-1.6,0-1.9
		c0-0.4,0-1,0-1.9c-0.1-1.6-0.5-2.8-1.2-3.5c-0.8-0.8-1.8-1.2-3-1.2c-1.3,0-2.3,0.4-3,1.2c-0.8,0.8-1.2,1.9-1.2,3.5
		c0,0.5,0,1.1,0,1.9c0,0.8,0,1.4,0,1.9c0.1,1.6,0.5,2.8,1.2,3.5c0.8,0.8,1.8,1.2,3,1.2C439.5,386.7,440.5,386.3,441.2,385.5z"/>
	<path class="st5" d="M448.3,392.9c-0.1-0.1-0.2-0.2-0.2-0.4v-15.9c0-0.2,0.1-0.3,0.2-0.4c0.1-0.1,0.2-0.2,0.4-0.2h1.1
		c0.2,0,0.3,0.1,0.4,0.2c0.1,0.1,0.2,0.2,0.2,0.4v1.1c0.9-1.2,2.2-1.8,3.9-1.8c1.7,0,2.9,0.5,3.8,1.6c0.8,1.1,1.3,2.4,1.4,4.1
		c0,0.2,0,0.4,0,0.8c0,0.4,0,0.6,0,0.8c-0.1,1.6-0.5,3-1.4,4.1c-0.8,1.1-2.1,1.6-3.8,1.6s-3-0.6-3.9-1.8v5.6c0,0.2,0,0.3-0.1,0.4
		c-0.1,0.1-0.2,0.2-0.4,0.2h-1.2C448.5,393,448.4,393,448.3,392.9z M456.2,385.7c0.5-0.7,0.8-1.6,0.9-2.8c0-0.2,0-0.4,0-0.7
		c0-3-1.1-4.5-3.4-4.5c-1.1,0-1.9,0.4-2.5,1.1c-0.6,0.7-0.9,1.6-0.9,2.6l0,0.9l0,0.9c0,0.9,0.3,1.8,0.9,2.5c0.6,0.7,1.4,1.1,2.5,1.1
		C454.9,386.8,455.7,386.4,456.2,385.7z"/>
	<path class="st5" d="M463.3,384.3v-6.3h-1.9c-0.2,0-0.3-0.1-0.4-0.2s-0.2-0.2-0.2-0.4v-0.8c0-0.2,0.1-0.3,0.2-0.4
		c0.1-0.1,0.2-0.2,0.4-0.2h1.9v-4c0-0.2,0.1-0.3,0.2-0.4c0.1-0.1,0.2-0.2,0.4-0.2h1.1c0.2,0,0.3,0.1,0.4,0.2
		c0.1,0.1,0.2,0.2,0.2,0.4v4h3c0.2,0,0.3,0.1,0.4,0.2c0.1,0.1,0.2,0.2,0.2,0.4v0.8c0,0.2-0.1,0.3-0.2,0.4s-0.2,0.2-0.4,0.2h-3v6.2
		c0,0.8,0.1,1.4,0.4,1.8c0.3,0.4,0.7,0.6,1.3,0.6h1.5c0.2,0,0.3,0.1,0.4,0.2c0.1,0.1,0.2,0.2,0.2,0.4v0.9c0,0.2-0.1,0.3-0.2,0.4
		c-0.1,0.1-0.2,0.2-0.4,0.2h-1.7C464.6,388.5,463.3,387.1,463.3,384.3z"/>
	<path class="st5" d="M471.6,373.5c-0.1-0.1-0.2-0.2-0.2-0.4v-1.3c0-0.2,0.1-0.3,0.2-0.4c0.1-0.1,0.2-0.2,0.4-0.2h1.5
		c0.2,0,0.3,0.1,0.4,0.2c0.1,0.1,0.2,0.2,0.2,0.4v1.3c0,0.2-0.1,0.3-0.2,0.4c-0.1,0.1-0.2,0.2-0.4,0.2H472
		C471.8,373.7,471.7,373.6,471.6,373.5z M471.8,388.3c-0.1-0.1-0.2-0.2-0.2-0.4v-11.4c0-0.2,0.1-0.3,0.2-0.4
		c0.1-0.1,0.2-0.2,0.4-0.2h1.2c0.2,0,0.3,0.1,0.4,0.2c0.1,0.1,0.2,0.2,0.2,0.4v11.4c0,0.2-0.1,0.3-0.2,0.4c-0.1,0.1-0.2,0.2-0.4,0.2
		h-1.2C472,388.5,471.9,388.4,471.8,388.3z"/>
	<path class="st5" d="M478.5,387.2c-1-1-1.5-2.3-1.5-4l0-1l0-1c0.1-1.6,0.6-2.9,1.6-3.9c1-1,2.3-1.5,4.1-1.5c1.7,0,3.1,0.5,4.1,1.5
		s1.5,2.3,1.6,3.9c0,0.2,0,0.5,0,1c0,0.5,0,0.9,0,1c-0.1,1.6-0.6,3-1.5,4c-1,1-2.3,1.5-4.1,1.5C480.8,388.7,479.4,388.2,478.5,387.2
		z M484.9,385.9c0.6-0.6,0.9-1.6,0.9-2.8c0-0.2,0-0.5,0-0.9c0-0.4,0-0.8,0-0.9c0-1.2-0.4-2.1-0.9-2.8c-0.6-0.6-1.4-1-2.4-1
		c-1,0-1.8,0.3-2.4,1c-0.6,0.6-0.9,1.6-0.9,2.8l0,0.9l0,0.9c0,1.2,0.3,2.1,0.9,2.8c0.6,0.6,1.4,1,2.4,1
		C483.6,386.9,484.4,386.6,484.9,385.9z"/>
	<path class="st5" d="M491.4,388.3c-0.1-0.1-0.2-0.2-0.2-0.4v-11.4c0-0.2,0.1-0.3,0.2-0.4c0.1-0.1,0.2-0.2,0.4-0.2h1.1
		c0.2,0,0.3,0.1,0.4,0.2c0.1,0.1,0.2,0.2,0.2,0.4v1.1c0.5-0.6,1-1,1.6-1.4c0.6-0.3,1.4-0.5,2.4-0.5c1.5,0,2.7,0.5,3.6,1.5
		c0.9,1,1.3,2.3,1.3,3.9v6.8c0,0.2-0.1,0.3-0.2,0.4c-0.1,0.1-0.2,0.2-0.4,0.2h-1.2c-0.2,0-0.3-0.1-0.4-0.2c-0.1-0.1-0.2-0.2-0.2-0.4
		v-6.6c0-1.1-0.3-2-0.8-2.6s-1.3-0.9-2.4-0.9c-1,0-1.8,0.3-2.4,0.9c-0.6,0.6-0.9,1.5-0.9,2.6v6.6c0,0.2-0.1,0.3-0.2,0.4
		c-0.1,0.1-0.2,0.2-0.4,0.2h-1.2C491.6,388.5,491.5,388.4,491.4,388.3z"/>
	<path class="st5" d="M516.1,388.3c-0.1-0.1-0.2-0.2-0.2-0.4v-13.4l-4,3.1c-0.1,0.1-0.2,0.1-0.4,0.1c-0.1,0-0.3-0.1-0.4-0.2
		l-0.6-0.8c-0.1-0.1-0.1-0.2-0.1-0.3c0-0.2,0.1-0.3,0.2-0.5l5.2-4c0.2-0.1,0.4-0.2,0.6-0.2h1.2c0.2,0,0.3,0.1,0.4,0.2
		c0.1,0.1,0.2,0.2,0.2,0.4v15.7c0,0.2-0.1,0.3-0.2,0.4c-0.1,0.1-0.2,0.2-0.4,0.2h-1.3C516.3,388.5,516.2,388.4,516.1,388.3z"/>
</g>
<g>
	<path class="st8" d="M765.8,723.7l7.5,7.5c0.6,0.6,0.6,1.6,0,2.3l-7.5,7.5"/>
</g>
<g>
	<path class="st8" d="M466.3,279.6l7.5-7.5c0.6-0.6,1.6-0.6,2.3,0l7.5,7.5"/>
</g>
</svg>
