<?xml version="1.0" encoding="UTF-8"?>
<svg id="SVGDoc" width="93" height="40" xmlns="http://www.w3.org/2000/svg" version="1.1" xmlns:xlink="http://www.w3.org/1999/xlink" xmlns:avocode="https://avocode.com/" viewBox="0 0 93 40"><defs></defs><g><g><title>kalo-logo</title><g><title>Rechteck 158</title></g><g><title>Gruppe 121</title><g><title>Pfad 101</title><path d="M16.84695,26.45771v0l-8.53045,-10.03909c-0.04189,-0.04898 -0.04189,-0.12115 0.00064,-0.17013l7.94724,-9.20518c0.08184,-0.10182 0.12309,-0.22427 0.12309,-0.36733c0,-0.18431 -0.06702,-0.33769 -0.19978,-0.46078c-0.1334,-0.12244 -0.28097,-0.18367 -0.44466,-0.18367h-2.86003c-0.32673,0 -0.58773,0.06638 -0.78171,0.19913c-0.19462,0.1334 -0.33317,0.25069 -0.41437,0.35251l-7.48453,8.63356v0v-1.24184v0v-7.17648c0,-0.22491 -0.07218,-0.40858 -0.2146,-0.55229c-0.14371,-0.14307 -0.32673,-0.2146 -0.55293,-0.2146h-2.69827c-0.20429,0 -0.37829,0.07153 -0.522,0.2146c-0.14307,0.14371 -0.2146,0.32738 -0.2146,0.55229v19.96604c0,0.20493 0.07153,0.37893 0.2146,0.52199c0.14371,0.14307 0.31771,0.2146 0.522,0.2146h2.69827c0.2262,0 0.40922,-0.07153 0.55293,-0.2146c0.14242,-0.14306 0.2146,-0.31706 0.2146,-0.52199v-7.94337v0v-1.27664v0l7.97559,9.40432c0.06122,0.06122 0.18818,0.1682 0.3828,0.32222c0.19398,0.15338 0.46464,0.23006 0.81264,0.23006h2.98311c0.16369,0 0.31126,-0.06186 0.44466,-0.18431c0.13276,-0.12309 0.19978,-0.27583 0.19978,-0.46014c0,-0.14306 -0.05156,-0.27582 -0.15402,-0.3989" fill="#004a5a" fill-opacity="1"></path></g><g><title>Pfad 102</title><path d="M19.30555,27.50043c-0.16369,0 -0.31255,-0.06186 -0.44531,-0.18431c-0.1334,-0.12244 -0.19913,-0.27582 -0.19913,-0.45948c0,-0.08184 0.01997,-0.174 0.06122,-0.27646l7.39237,-19.78237c0.06058,-0.20429 0.17851,-0.38344 0.35252,-0.53682c0.17335,-0.15338 0.41373,-0.23007 0.72048,-0.23007h3.34336c0.30675,0 0.54133,0.07669 0.70502,0.23007c0.16369,0.15338 0.28613,0.33253 0.36798,0.53682l7.39173,19.78237c0.01997,0.10246 0.03028,0.19462 0.03028,0.27646c0,0.18366 -0.06122,0.33704 -0.18366,0.45948c-0.12309,0.12245 -0.26616,0.18431 -0.42984,0.18431h-2.66798c-0.28613,0 -0.49557,-0.06637 -0.62833,-0.19978c-0.1334,-0.13211 -0.2204,-0.26035 -0.261,-0.38344l-1.43066,-3.71326c-0.00709,-0.01676 -0.0232,-0.02836 -0.04125,-0.02836h-9.04858c-0.01805,0 -0.03481,0.0116 -0.04124,0.02836l-1.43066,3.71326c-0.04125,0.12309 -0.1276,0.25133 -0.26035,0.38344c-0.1334,0.1334 -0.34284,0.19978 -0.62833,0.19978zM25.44063,19.64858v0h6.83686c0.03029,0 0.05156,-0.03029 0.0406,-0.05929l-3.43293,-9.30571c-0.01418,-0.03802 -0.06831,-0.03802 -0.08249,0l-3.40329,9.30636c-0.01031,0.02835 0.01096,0.05864 0.04125,0.05864" fill="#004a5a" fill-opacity="1"></path></g><g><title>Pfad 103</title><path d="M42.05997,27.50043c-0.20493,0 -0.37894,-0.07153 -0.52135,-0.2146c-0.14307,-0.14307 -0.21524,-0.31706 -0.21524,-0.52135v-19.99697c0,-0.20429 0.07217,-0.37829 0.21524,-0.52135c0.14242,-0.14307 0.31642,-0.21524 0.52135,-0.21524h2.85165c0.20493,0 0.37894,0.07218 0.522,0.21524c0.14307,0.14306 0.2146,0.31706 0.2146,0.52135v17.08282v0h8.408c0.22427,0 0.40858,0.07218 0.55228,0.21524c0.14242,0.14307 0.2146,0.32738 0.2146,0.55165v2.14727c0,0.20429 -0.07218,0.37829 -0.2146,0.52135c-0.1437,0.14306 -0.32802,0.2146 -0.55228,0.2146z" fill="#004a5a" fill-opacity="1"></path></g><g><title>Pfad 104</title><path d="M80.74837,0.15617v0l-0.50911,0.58708c-0.1553,0.17915 -0.13857,0.44531 0.03416,0.60771c4.1096,3.8602 6.68156,9.33923 6.68156,15.40727c0,6.28007 -2.75436,11.92858 -7.11722,15.80489c-0.27388,0.2436 -0.30804,0.65669 -0.06766,0.93315l5.47839,6.31938c0.20944,0.24166 0.58966,0.24747 0.80104,0.00709c4.16759,-4.74308 6.69896,-10.95613 6.69896,-17.74917c0,-9.07243 -4.50851,-17.10795 -11.40146,-21.99152c-0.18753,-0.13275 -0.44852,-0.09924 -0.59868,0.07411" fill="#00de97" fill-opacity="1"></path></g><g><title>Pfad 105</title><path d="M65.88428,9.31368c-4.13602,0 -7.26091,3.4194 -7.26091,7.38399c0,4.03355 3.12489,7.51933 7.32922,7.51933c4.0677,0 7.15779,-3.55409 7.15779,-7.41751c0,-3.9298 -3.09009,-7.48582 -7.2261,-7.48582M65.82242,27.95798c-6.09126,0 -11.33765,-4.72181 -11.33765,-10.93035c0,-1.60337 0.2623,-3.11845 0.84486,-4.60517c0.32094,-0.84486 0.84486,-1.69101 1.39908,-2.41987c2.21559,-2.91416 5.45068,-4.42988 9.12335,-4.42988c6.29617,0 11.39691,4.83781 11.39691,11.19263c0,6.38318 -5.10074,11.19264 -11.42656,11.19264" fill="#004a5a" fill-opacity="1"></path></g><g><title>Rechteck 157</title></g></g></g></g></svg>