<?xml version="1.0" encoding="UTF-8"?>
<svg xmlns="http://www.w3.org/2000/svg" width="500" height="500" viewBox="0 0 500 500">
  <defs>
    <style>.cls-1{fill:none;}.cls-2{fill:#fff;}.cls-3{fill:#64dca0;}</style>
  </defs>
  <g id="Ebene_1">
    <g>
      <path class="cls-3" d="M441.94,263.51l-1.6,1.85c-.49,.56-.44,1.4,.11,1.91,12.91,12.13,20.99,29.34,20.99,48.41s-8.65,37.48-22.36,49.66c-.86,.76-.97,2.06-.21,2.93l17.21,19.85c.66,.76,1.85,.78,2.52,.02,13.09-14.9,21.05-34.42,21.05-55.77,0-28.51-14.17-53.75-35.82-69.1-.59-.42-1.41-.31-1.88,.23Z"></path>
      <path class="cls-1" d="M443.69,385.48c-13.37,11.06-30.53,17.7-49.24,17.7-42.7,0-77.32-34.62-77.32-77.32s34.62-77.32,77.32-77.32c16.01,0,30.89,4.87,43.23,13.2"></path>
    </g>
    <g>
      <path class="cls-2" d="M440.79,387.81c-.79-1.13-2.35-1.41-3.48-.61-12.6,8.82-27.42,13.49-42.86,13.49-41.25,0-74.82-33.56-74.82-74.82s33.56-74.82,74.82-74.82c2.88,0,5.79,.17,8.64,.49h0c8.98,1.03,17.61,3.66,25.63,7.8,.37,.19,.76,.28,1.15,.28,.91,0,1.78-.49,2.22-1.35,.63-1.23,.15-2.73-1.07-3.37-7.88-4.07-16.3-6.74-25.06-8.01l.66-73.37c0-3.59-1.29-6.97-3.96-10.31-.9-1.13-2.19-1.9-3.61-2.15-.21-.06-.43-.1-.66-.1h-36.54c-.06,0-.11,.01-.16,.02V96.82c0-1.38-1.12-2.5-2.5-2.5H197.89c-1.38,0-2.5,1.12-2.5,2.5v64.13h-36.11c-.06,0-.11,.01-.17,.02-.08,0-.15,0-.23,.01-1.62,.16-3.13,1-4.12,2.31-2.33,3.07-3.62,7.15-3.62,11.49v145.46c0,10.88,8.85,19.72,19.72,19.72h145.04c6.68,37.3,39.35,65.71,78.54,65.71,16.47,0,32.28-4.98,45.73-14.39,1.13-.79,1.41-2.35,.61-3.48Zm-78.94-221.86h28.22l-28.38,25.16v-25.18c.06,0,.11,.02,.16,.02Zm-5.16-66.63v96.23l-68.85,61.04c-5.3,4.71-13.29,4.71-18.59,0l-68.85-61.19V99.32h156.3Zm-161.3,91.63l-28.13-25h28.13v25Zm-24.52,144.02c-8.12,0-14.72-6.61-14.72-14.72V174.78c0-3.25,.92-6.26,2.6-8.47,.21-.28,.48-.35,.63-.36,.15-.02,.37,0,.57,.19l35.98,31.98c.19,.24,.42,.45,.69,.61l69.31,61.6c7.19,6.39,18.04,6.38,25.23,0l106.18-94.12c.27-.24,.58-.25,.74-.24,.16,.01,.45,.08,.68,.36,1.96,2.46,2.87,4.75,2.87,7.17l-.66,72.82c-2.16-.17-4.34-.27-6.51-.27-44.01,0-79.82,35.81-79.82,79.82,0,3.08,.19,6.12,.54,9.11H170.87Z"></path>
      <path class="cls-2" d="M392.96,304.76c-16.58,0-16.58,14.29-16.58,18.98s0,18.98,16.58,18.98c5.84,0,10.61-3.47,13.2-8.96,1.95,4.3,5.57,7.72,12.14,7.72,13.43,0,13.43-15.19,13.43-26.29,0-18.93-15.15-31.65-37.71-31.65-24.32,0-37.71,14.17-37.71,39.89,0,27.17,12.69,40.95,37.71,40.95,20.17,0,29.59-9.33,29.98-9.73,.97-.98,.96-2.57-.03-3.54-.98-.97-2.57-.96-3.54,.03-.08,.08-8.32,8.24-26.41,8.24-22.01,0-32.71-11.76-32.71-35.95,0-15.92,5.68-34.89,32.71-34.89,19.87,0,32.71,10.46,32.71,26.65,0,14.72-1.22,21.29-8.43,21.29-2.3,0-9.3,0-9.3-14.57,0-12.53-.22-15.57-.23-15.69-.11-1.38-1.31-2.41-2.68-2.3-1.38,.1-2.41,1.3-2.31,2.68,0,.02,.06,.89,.12,3.47-2.72-3.34-6.53-5.31-10.94-5.31Zm0,32.96c-8.33,0-11.58-3.92-11.58-13.98s3.25-13.98,11.58-13.98c6.77,0,10.31,7.03,10.31,13.98s-3.54,13.98-10.31,13.98Z"></path>
      <path class="cls-2" d="M226.96,138.34h97.44c1.38,0,2.5-1.12,2.5-2.5s-1.12-2.5-2.5-2.5h-97.44c-1.38,0-2.5,1.12-2.5,2.5s1.12,2.5,2.5,2.5Z"></path>
      <path class="cls-2" d="M226.96,165.71h97.44c1.38,0,2.5-1.12,2.5-2.5s-1.12-2.5-2.5-2.5h-97.44c-1.38,0-2.5,1.12-2.5,2.5s1.12,2.5,2.5,2.5Z"></path>
      <path class="cls-2" d="M226.96,193.08h97.44c1.38,0,2.5-1.12,2.5-2.5s-1.12-2.5-2.5-2.5h-97.44c-1.38,0-2.5,1.12-2.5,2.5s1.12,2.5,2.5,2.5Z"></path>
      <path class="cls-2" d="M130.82,200.36H47.45c-1.38,0-2.5,1.12-2.5,2.5s1.12,2.5,2.5,2.5h83.37c1.38,0,2.5-1.12,2.5-2.5s-1.12-2.5-2.5-2.5Z"></path>
      <path class="cls-2" d="M17.85,238.36c0,1.38,1.12,2.5,2.5,2.5H103.72c1.38,0,2.5-1.12,2.5-2.5s-1.12-2.5-2.5-2.5H20.35c-1.38,0-2.5,1.12-2.5,2.5Z"></path>
      <path class="cls-2" d="M55.75,273.87c0,1.38,1.12,2.5,2.5,2.5h79.66c1.38,0,2.5-1.12,2.5-2.5s-1.12-2.5-2.5-2.5H58.25c-1.38,0-2.5,1.12-2.5,2.5Z"></path>
    </g>
  </g>
  <g id="Ebene_2">
    <rect class="cls-1" width="500" height="500"></rect>
  </g>
</svg>
