<?xml version="1.0" encoding="UTF-8"?>
<svg xmlns="http://www.w3.org/2000/svg" xmlns:xlink="http://www.w3.org/1999/xlink" version="1.1" id="Ebene_2_00000064322797567337970170000012807282663340139940_" x="0px" y="0px" viewBox="0 0 180 180" style="enable-background:new 0 0 180 180;" xml:space="preserve">
<style type="text/css">
	.st0{fill:#FFFFFF;}
	.st1{fill:#004C5C;}
	.st2{fill:#004C5C;stroke:#004C5C;stroke-width:0.4;stroke-miterlimit:10;}
	.st3{fill:#004C5C;stroke:#004C5C;stroke-width:0.1;stroke-miterlimit:10;}
</style>
<g id="weißer_Kreis">
	<circle class="st0" cx="90" cy="90" r="82.3"></circle>
</g>
<g>
	<path class="st1" d="M138.8,127.6h-17.5V82.2l0,0h5.7c0.4,0,0.8,0,1.1,0s0.6-0.1,0.8-0.1l0,0c0,0,0,0,0.1,0h0.1l0.3-0.1   c0.3-0.1,0.6-0.1,0.8-0.2c0.2,0,0.3-0.1,0.4-0.1c0.2-0.1,0.4-0.1,0.7-0.2c5.1-1.8,8.5-6.7,8.5-12.1c0-4.7-2.6-9-6.6-11.2   c0-0.1,0-0.1,0-0.2c0-3.4-1.4-6.7-3.9-9c-0.5-0.5-1-0.9-1.6-1.3c-0.1-0.1-0.3-0.2-0.4-0.3l-0.1-0.1c-3-1.8-6.7-2.3-10.2-1.2   l-0.6,0.2c-0.2,0.1-0.3,0.1-0.5,0.2h-0.1l-0.5,0.2c-0.1,0.1-0.2,0.1-0.4,0.2c-0.3,0.1-0.5,0.3-0.8,0.5l-0.1,0.1   c-3.5-5.6-9.7-9-16.3-9c-6.7,0-12.6,3.4-16,8.6H52.6c-1.6,0-2.9,1.3-2.9,2.9v76.5c0,0.4,0.1,0.7,0.2,1h-8.8l0,0c-0.6,0-1,0.4-1,1   c0,0.6,0.4,1,1,1l66.3,0.1h31.4c0.6,0,1-0.4,1-1C139.8,128.1,139.4,127.6,138.8,127.6z M97.8,40.5c6.3,0,12.1,3.4,15.1,8.9   c0.1,0.3,0.4,0.4,0.7,0.5c0.3,0.1,0.6,0,0.8-0.2c0.3-0.2,0.6-0.4,0.9-0.6c0.2-0.1,0.4-0.2,0.6-0.4c0.1-0.1,0.2-0.1,0.3-0.1l0.5-0.2   c0.1-0.1,0.3-0.1,0.4-0.2l0.5-0.2c2.8-0.9,6-0.5,8.5,1l0.1,0.1c0.1,0.1,0.2,0.1,0.4,0.2c0.5,0.3,0.9,0.7,1.3,1.1   c2.1,2,3.3,4.7,3.3,7.6c0,0.3,0,0.5,0,0.8c0,0.4,0.2,0.8,0.6,0.9c3.7,1.8,6.1,5.6,6.1,9.7c0,4.6-2.9,8.7-7.1,10.2   c-0.2,0.1-0.4,0.1-0.6,0.2c-0.1,0-0.2,0.1-0.4,0.1c-0.2,0.1-0.4,0.1-0.6,0.1l-0.3,0.1c0,0,0,0-0.1,0c-0.2,0-0.5,0.1-0.7,0.1   c-0.3,0-0.6,0-0.9,0H84.3c-2.9,0-5.7-1.2-7.8-3.3c-2.1-2.1-3.3-4.9-3.3-7.8c0-4.4,2.6-8.3,6.6-10.1c0.4-0.2,0.6-0.6,0.6-1   c0-0.1,0-0.1,0-0.2C80.4,48.2,88.2,40.5,97.8,40.5z M51.7,50c0-0.5,0.4-0.9,0.9-0.9h27.9c-1.3,2.5-2.1,5.4-2.1,8.4   c-4.4,2.2-7.2,6.7-7.2,11.7c0,3.5,1.4,6.8,3.8,9.2c2.5,2.5,5.8,3.8,9.2,3.8H94l0,0v45.3h-9.7v-16.3c0-1.6-1.3-2.9-2.9-2.9H65.2   c-1.6,0-2.9,1.3-2.9,2.9v16.3h-9.7c-0.5,0-0.9-0.4-0.9-0.9C51.7,126.6,51.7,50,51.7,50z M82.4,111.2v16.3H64.3v-16.3   c0-0.5,0.4-0.9,0.9-0.9h16.3C82,110.3,82.4,110.7,82.4,111.2z M96.2,127.6V82.2l0,0h23.2l0,0v45.4h-11.8H96.2z"></path>
	<path class="st1" d="M60.8,98.3c0.6,0,1-0.4,1-1v-6.6c0-0.3,0.2-0.5,0.5-0.5h5.8c0.6,0,1-0.4,1-1s-0.4-1-1-1h-5.8   c-1.4,0-2.5,1.1-2.5,2.5v6.6C59.8,97.9,60.2,98.3,60.8,98.3z"></path>
	<path class="st1" d="M77.5,98.3c0.6,0,1-0.4,1-1v-6.6c0-0.3,0.2-0.5,0.5-0.5h5.8c0.6,0,1-0.4,1-1s-0.4-1-1-1H79   c-1.4,0-2.5,1.1-2.5,2.5v6.6C76.5,97.9,77,98.3,77.5,98.3z"></path>
	<path class="st1" d="M61,66.4c0.6,0,1-0.4,1-1v-6.6c0-0.3,0.2-0.5,0.5-0.5h5.8c0.6,0,1-0.4,1-1s-0.4-1-1-1h-5.8   c-1.4,0-2.5,1.1-2.5,2.5v6.6C60,65.9,60.5,66.4,61,66.4z"></path>
</g>
<g>
	<g>
		<path class="st2" d="M96.1,71.1c-2,0-3.5-0.5-4.5-1.6c-1.1-1.1-1.6-2.6-1.7-4.5c0-0.4,0-1.1,0-2s0-1.6,0-2    c0.1-1.9,0.6-3.4,1.7-4.5s2.6-1.6,4.5-1.6s3.4,0.5,4.5,1.5s1.7,2.1,1.8,3.5c0,0.1,0,0.2-0.1,0.3s-0.2,0.1-0.3,0.1h-1.2    c-0.3,0-0.5-0.2-0.6-0.5c-0.2-1.1-0.7-1.9-1.4-2.3c-0.7-0.5-1.6-0.7-2.6-0.7c-2.6,0-3.9,1.4-4,4.3c0,1.2,0,2.5,0,3.8    c0.1,2.8,1.4,4.3,4,4.3c1.1,0,2-0.2,2.6-0.7c0.7-0.5,1.1-1.2,1.4-2.3c0.1-0.3,0.3-0.5,0.6-0.5h1.2c0.1,0,0.2,0,0.3,0.1    c0.1,0.1,0.1,0.2,0.1,0.3c-0.1,1.4-0.6,2.5-1.7,3.5C99.6,70.6,98.1,71.1,96.1,71.1z"></path>
		<path class="st2" d="M111,71.1c-4,0-6-2.1-6.2-6.2c0-0.4,0-1.1,0-1.9c0-0.8,0-1.4,0-1.9c0.1-2,0.7-3.6,1.8-4.6    c1.1-1,2.6-1.6,4.5-1.6s3.4,0.5,4.5,1.6s1.7,2.6,1.7,4.6c0,0.9,0,1.5,0,1.9s0,1,0,1.9c-0.1,2.1-0.6,3.6-1.7,4.6S113,71.1,111,71.1    z M108.2,68.1c0.7,0.7,1.7,1.1,2.8,1.1c1.2,0,2.1-0.4,2.8-1.1c0.7-0.7,1.1-1.8,1.1-3.3c0-0.9,0-1.5,0-1.8s0-0.9,0-1.8    c0-1.5-0.4-2.6-1.1-3.3s-1.6-1.1-2.8-1.1s-2.1,0.4-2.8,1.1c-0.7,0.7-1.1,1.8-1.1,3.3c0,0.4,0,1,0,1.8s0,1.4,0,1.8    C107.1,66.3,107.5,67.4,108.2,68.1z"></path>
	</g>
	<g>
		<path class="st3" d="M123.5,74.6h-5.7c-0.1,0-0.1,0-0.2-0.1s-0.1-0.1-0.1-0.2v-0.8c0-0.2,0.1-0.4,0.3-0.5l1.1-1.1    c0.6-0.5,1.1-0.9,1.5-1.1c0.8-0.6,1.1-1.1,1.1-1.5c0-0.6-0.3-0.9-0.9-0.9s-0.9,0.3-1,1c0,0.2-0.2,0.3-0.4,0.3h-1.4    c-0.1,0-0.1,0-0.2-0.1c0,0-0.1-0.1-0.1-0.2c0-0.7,0.3-1.3,0.8-1.8s1.3-0.7,2.2-0.7c0.9,0,1.6,0.2,2.2,0.6c0.5,0.4,0.8,1,0.8,1.8    c0,0.4-0.1,0.7-0.2,1c-0.3,0.5-0.8,1.1-1.7,1.8l-1,1h2.9c0.2,0,0.3,0.1,0.3,0.3v1.1c0,0.1,0,0.1-0.1,0.2    C123.7,74.6,123.6,74.6,123.5,74.6z"></path>
	</g>
</g>
</svg>
