<?xml version="1.0" encoding="UTF-8"?>
<svg xmlns="http://www.w3.org/2000/svg" width="180" height="180" viewBox="0 0 180 180">
  <defs>
    <style>.cls-1{fill:#004a5a;}.cls-2{fill:#fff;}</style>
  </defs>
  <g id="weißer_Kreis">
    <circle class="cls-2" cx="90" cy="90" r="84.33"></circle>
  </g>
  <g id="Kreis">
    <path class="cls-1" d="M90,174.33c-46.5,0-84.33-37.83-84.33-84.33S43.5,5.67,90,5.67s84.33,37.83,84.33,84.33-37.83,84.33-84.33,84.33Zm0-166.67C44.6,7.67,7.67,44.6,7.67,90s36.93,82.33,82.33,82.33,82.33-36.93,82.33-82.33S135.4,7.67,90,7.67Z"></path>
  </g>
  <g id="Icons">
    <path class="cls-1" d="M60.92,85.83c-.55,0-1,.45-1,1v31.94c0,.55,.45,1,1,1s1-.45,1-1v-31.94c0-.55-.45-1-1-1Z"></path>
    <path class="cls-1" d="M87.75,85.83c-.55,0-1,.45-1,1v31.94c0,.55,.45,1,1,1s1-.45,1-1v-31.94c0-.55-.45-1-1-1Z"></path>
    <path class="cls-1" d="M74.33,85.83c-.55,0-1,.45-1,1v31.94c0,.55,.45,1,1,1s1-.45,1-1v-31.94c0-.55-.45-1-1-1Z"></path>
    <path class="cls-1" d="M101.17,85.83c-.55,0-1,.45-1,1v31.94c0,.55,.45,1,1,1s1-.45,1-1v-31.94c0-.55-.45-1-1-1Z"></path>
    <path class="cls-1" d="M70.77,69.02c.18,.12,.38,.18,.58,.18,.31,0,.62-.15,.82-.42,.08-.11,1.97-2.82,1.87-5.92-.07-2.16-.77-3.27-1.39-4.25-.55-.87-1.03-1.62-1.08-3.24-.08-2.45,1.52-4.75,1.53-4.77,.32-.45,.21-1.07-.24-1.39-.45-.32-1.07-.21-1.39,.24-.08,.12-2,2.85-1.9,5.99,.07,2.16,.77,3.27,1.39,4.25,.55,.87,1.03,1.62,1.08,3.24,.08,2.4-1.47,4.64-1.51,4.7-.32,.45-.21,1.07,.24,1.39Z"></path>
    <path class="cls-1" d="M80.98,69.02c.18,.12,.38,.18,.58,.18,.31,0,.62-.15,.82-.42,.08-.11,1.97-2.82,1.87-5.92-.07-2.16-.77-3.27-1.39-4.25-.55-.87-1.03-1.62-1.08-3.24-.08-2.45,1.52-4.75,1.53-4.77,.32-.45,.21-1.07-.24-1.39-.45-.32-1.08-.21-1.39,.24-.08,.12-2,2.85-1.9,5.99,.07,2.16,.77,3.27,1.39,4.25,.55,.87,1.03,1.62,1.08,3.24,.08,2.41-1.49,4.67-1.51,4.69-.32,.45-.21,1.08,.24,1.39Z"></path>
    <path class="cls-1" d="M91.19,69.02c.18,.12,.38,.18,.58,.18,.31,0,.62-.15,.82-.42,.08-.11,1.97-2.82,1.87-5.92-.07-2.16-.77-3.27-1.39-4.25-.55-.87-1.03-1.62-1.08-3.24-.08-2.45,1.52-4.75,1.53-4.77,.32-.45,.21-1.07-.24-1.39-.45-.32-1.08-.21-1.39,.24-.08,.12-2,2.85-1.9,5.99,.07,2.16,.77,3.27,1.4,4.25,.55,.87,1.03,1.62,1.08,3.24,.08,2.41-1.49,4.67-1.5,4.69-.32,.45-.21,1.07,.24,1.39Z"></path>
    <path class="cls-1" d="M142.98,41.62h-34.26c-1.47,0-2.67,1.2-2.67,2.67v30.45H48.69c-3.16,0-5.79,2.33-6.27,5.35h-7.08c-.55,0-1,.45-1,1v6.13c0,.55,.45,1,1,1h6.99v36.29c0,3.5,2.85,6.35,6.35,6.35h55.69v6.51c0,.55,.45,1,1,1s1-.45,1-1v-6.51h5.5v6.51c0,.55,.45,1,1,1s1-.45,1-1v-6.51h1.42c3.5,0,6.35-2.85,6.35-6.35v-12.92h21.31c1.47,0,2.67-1.2,2.67-2.67V44.29c0-1.47-1.2-2.67-2.67-2.67Zm-34.93,2.67c0-.37,.3-.67,.67-.67h34.26c.37,0,.67,.3,.67,.67v48.46h-35.6V44.29ZM36.35,86.22v-4.13h5.99v4.13h-5.99Zm83.32,38.29c0,2.4-1.95,4.35-4.35,4.35H48.69c-2.4,0-4.35-1.95-4.35-4.35v-43.42c0-2.4,1.95-4.35,4.35-4.35h57.35v32.19c0,1.47,1.2,2.67,2.67,2.67h10.95v12.92Zm23.31-14.92h-34.26c-.37,0-.67-.3-.67-.67v-14.18h35.6v14.18c0,.37-.3,.67-.67,.67Z"></path>
    <path class="cls-1" d="M120.51,50.1h10.67c.55,0,1-.45,1-1s-.45-1-1-1h-10.67c-.55,0-1,.45-1,1s.45,1,1,1Z"></path>
    <path class="cls-1" d="M125.74,98.41c-2.11,0-3.82,1.71-3.82,3.82s1.71,3.82,3.82,3.82,3.82-1.71,3.82-3.82-1.71-3.82-3.82-3.82Zm0,5.64c-1,0-1.82-.82-1.82-1.82s.82-1.82,1.82-1.82,1.82,.82,1.82,1.82-.82,1.82-1.82,1.82Z"></path>
    <path class="cls-1" d="M117.02,64.47c2.11,0,3.82-1.71,3.82-3.82s-1.71-3.82-3.82-3.82-3.82,1.71-3.82,3.82,1.71,3.82,3.82,3.82Zm0-5.64c1,0,1.82,.82,1.82,1.82s-.82,1.82-1.82,1.82-1.82-.82-1.82-1.82,.82-1.82,1.82-1.82Z"></path>
    <path class="cls-1" d="M121.42,67.7c-1.79,8.26,.04,13.51,.06,13.56,.52,1.46,2.34,4.88,7.91,5.05,0,0,.09,0,.19,0,.05,0,.1,0,.14,0,5.56-.17,7.38-3.59,7.9-5.05,.19-.52-.09-1.09-.61-1.28-.52-.19-1.09,.08-1.28,.61-.48,1.34-1.9,3.6-6.09,3.72-.08,0-.21,0-.21,0-4.17-.12-5.6-2.39-6.08-3.72-.02-.05-1.64-4.87,.01-12.47,.96-4.44,5.96-4.29,6.23-4.28,.53-.02,5.2,0,6.13,4.28,.12,.54,.65,.88,1.19,.77,.54-.12,.88-.65,.76-1.19-1.03-4.75-5.59-5.93-8.06-5.86-2.56-.1-7.15,1.02-8.2,5.86Z"></path>
  </g>
</svg>
