<?xml version="1.0" encoding="UTF-8"?>
<svg xmlns="http://www.w3.org/2000/svg" width="180" height="180" viewBox="0 0 180 180">
  <defs>
    <style>.cls-1{fill:#004a5a;}.cls-2{fill:#fff;}</style>
  </defs>
  <g id="weißer_Kreis">
    <circle class="cls-2" cx="90" cy="90" r="84.33"></circle>
  </g>
  <g id="Kreis">
    <path class="cls-1" d="M90,174.33c-46.5,0-84.33-37.83-84.33-84.33S43.5,5.67,90,5.67s84.33,37.83,84.33,84.33-37.83,84.33-84.33,84.33Zm0-166.67C44.6,7.67,7.67,44.6,7.67,90s36.93,82.33,82.33,82.33,82.33-36.93,82.33-82.33S135.4,7.67,90,7.67Z"></path>
  </g>
  <g id="Icons">
    <path class="cls-1" d="M34.6,88.27l18.19-16.04v64.52c0,2.69,2.19,4.88,4.88,4.88H122.33c2.69,0,4.88-2.19,4.88-4.88V72.23l18.19,16.04c.19,.17,.43,.25,.66,.25,.28,0,.55-.11,.75-.34,.37-.41,.33-1.05-.09-1.41l-53.49-47.17c-1.84-1.62-4.62-1.62-6.46,0l-53.49,47.17c-.41,.37-.45,1-.09,1.41,.36,.41,1,.46,1.41,.09Zm53.49-47.17c1.09-.96,2.73-.96,3.81,0l33.3,29.37v66.28c0,1.59-1.29,2.88-2.88,2.88H57.67c-1.59,0-2.88-1.29-2.88-2.88V70.46l33.3-29.37Z"></path>
    <path class="cls-1" d="M62.51,90.23h21.49c.57,0,1.12-.29,1.47-.78l3.89-5.5c.51-.72,.51-1.72,0-2.44l-3.89-5.51c-.35-.49-.9-.78-1.47-.78h-21.49c-1.02,0-1.85,.9-1.85,2v11.01c0,1.1,.83,2,1.85,2Zm.15-2v-11.01h21.22l3.85,5.44s.02,.1,0,.13l-3.85,5.44h-21.22Z"></path>
    <path class="cls-1" d="M62.51,111.92h35.29c.57,0,1.12-.29,1.47-.78l3.89-5.51c.51-.72,.51-1.72,0-2.44l-3.89-5.51c-.35-.49-.9-.78-1.47-.78H62.51c-1.02,0-1.85,.9-1.85,2v11.01c0,1.1,.83,2,1.85,2Zm.15-2v-11.01h35.02l3.85,5.44s.02,.1,0,.13l-3.85,5.44H62.66Z"></path>
    <path class="cls-1" d="M62.51,133.61h49.09c.57,0,1.12-.29,1.47-.78l3.89-5.5c.51-.72,.51-1.72,0-2.44l-3.89-5.5c-.35-.49-.9-.78-1.47-.78H62.51c-1.02,0-1.85,.9-1.85,2v11.01c0,1.1,.83,2,1.85,2Zm.15-2v-11.01h48.82l3.85,5.44s.02,.1,0,.13l-3.85,5.44H62.66Z"></path>
  </g>
</svg>
