<svg xmlns="http://www.w3.org/2000/svg" xmlns:xlink="http://www.w3.org/1999/xlink" width="201" height="132" viewBox="0 0 201 132">
  <defs>
    <clipPath id="clip-path">
      <rect id="Rechteck_1003" data-name="Rechteck 1003" width="201" height="132" fill="rgba(0,0,0,0)"/>
    </clipPath>
  </defs>
  <g id="icn-3" transform="translate(183.621 -5.915)">
    <g id="Gruppe_652" data-name="Gruppe 652" transform="translate(-183.621 5.915)">
      <path id="Pfad_1384" data-name="Pfad 1384" d="M121.376,102.626,110.557,113.92H70.4L39.13,81.274v-16" transform="translate(-0.006)" fill="rgba(0,0,0,0)"/>
      <path id="Pfad_1384_-_Kontur" data-name="Pfad 1384 - Kontur" d="M110.557,114.92H70.4a1,1,0,0,1-.722-.308L38.408,81.966a1,1,0,0,1-.278-.692v-16a1,1,0,0,1,2,0v15.6l30.7,32.048h39.3l10.524-10.986a1,1,0,1,1,1.444,1.384l-10.819,11.294A1,1,0,0,1,110.557,114.92Z" transform="translate(-0.006)" fill="#004b5c"/>
      <path id="Linie_382" data-name="Linie 382" d="M38.585,1H0A1,1,0,0,1-1,0,1,1,0,0,1,0-1H38.585a1,1,0,0,1,1,1A1,1,0,0,1,38.585,1Z" transform="translate(71.182 81.884)" fill="#004b5c"/>
      <path id="Linie_383" data-name="Linie 383" d="M38.585,1H0A1,1,0,0,1-1,0,1,1,0,0,1,0-1H38.585a1,1,0,0,1,1,1A1,1,0,0,1,38.585,1Z" transform="translate(71.182 95.554)" fill="#004b5c"/>
      <path id="Pfad_1386" data-name="Pfad 1386" d="M131.586,65.194H26.613V25.6H154.351V40.639" fill="rgba(0,0,0,0)"/>
      <path id="Pfad_1386_-_Kontur" data-name="Pfad 1386 - Kontur" d="M131.586,66.194H26.613a1,1,0,0,1-1-1V25.6a1,1,0,0,1,1-1H154.351a1,1,0,0,1,1,1V40.639a1,1,0,1,1-2,0V26.6H27.613V64.194H131.586a1,1,0,0,1,0,2Z" fill="#004b5c"/>
      <g id="Gruppe_653" data-name="Gruppe 653">
        <g id="Gruppe_652-2" data-name="Gruppe 652" clip-path="url(#clip-path)">
          <path id="Pfad_1387" data-name="Pfad 1387" d="M91.023,43.553a1.785,1.785,0,1,1-1.785,1.785,1.785,1.785,0,0,1,1.785-1.785" transform="translate(-0.008)" fill="#fff"/>
          <ellipse id="Ellipse_406" data-name="Ellipse 406" cx="1.785" cy="1.785" rx="1.785" ry="1.785" transform="translate(89.23 43.553)" fill="rgba(0,0,0,0)"/>
          <path id="Ellipse_406_-_Kontur" data-name="Ellipse 406 - Kontur" d="M1.785-1A2.785,2.785,0,1,1-1,1.785,2.788,2.788,0,0,1,1.785-1Zm0,3.57A.785.785,0,1,0,1,1.785.786.786,0,0,0,1.785,2.57Z" transform="translate(89.23 43.553)" fill="#004a5a"/>
          <path id="Pfad_1389" data-name="Pfad 1389" d="M177.894,128.3a38.756,38.756,0,0,1-17.638,4.639c-42.842,2.2-50.325-52.02-25.672-67.656,0,0,3.042,9.521,6.418,11.56,0,0,13.849-13.266,1.351-36.724A63.344,63.344,0,0,1,174.365,53.7" transform="translate(-0.01 -2)" fill="rgba(0,0,0,0)"/>
          <path id="Pfad_1389_-_Kontur" data-name="Pfad 1389 - Kontur" d="M157.764,134a41.912,41.912,0,0,1-11.71-1.592,34.944,34.944,0,0,1-11.21-5.548,37.7,37.7,0,0,1-13.174-19.021,44.34,44.34,0,0,1-.7-24.5,35.344,35.344,0,0,1,4.816-10.787,28.21,28.21,0,0,1,8.261-8.115,1,1,0,0,1,1.488.54c.007.023.762,2.372,1.91,4.927a18.749,18.749,0,0,0,3.439,5.586,19.857,19.857,0,0,0,1.372-1.82,25.328,25.328,0,0,0,3.214-6.9,28.389,28.389,0,0,0,.933-11.074,41.738,41.738,0,0,0-4.933-15.11,1,1,0,0,1,1.006-1.463,64.288,64.288,0,0,1,32.517,13.8,1,1,0,1,1-1.257,1.556,62.285,62.285,0,0,0-29.618-13.11,42.459,42.459,0,0,1,4.275,14.113,30.378,30.378,0,0,1-1,11.851,24.889,24.889,0,0,1-5.676,10.208,1,1,0,0,1-1.228.153c-1.578-.953-3.217-3.3-4.871-6.991-.674-1.5-1.21-2.911-1.554-3.87a26.484,26.484,0,0,0-6.616,6.835,33.351,33.351,0,0,0-4.54,10.18,42.316,42.316,0,0,0,.67,23.383,35.711,35.711,0,0,0,12.465,18.025,32.951,32.951,0,0,0,10.572,5.23,41.113,41.113,0,0,0,13.593,1.449h.032a37.922,37.922,0,0,0,17.182-4.519,1,1,0,1,1,.949,1.76,39.755,39.755,0,0,1-18.077,4.758Q159.017,134,157.764,134Z" transform="translate(-0.01 -2)" fill="#004b5c"/>
          <path id="Pfad_1391" data-name="Pfad 1391" d="M165.687,95.067c1.334-.806,2.536-4.568,2.536-4.568,9.742,6.178,6.785,27.6-10.144,26.735-8.262-.369-11.568-5.288-12.873-9.639a19,19,0,0,1,.434-11.7c4.964-14.213,19.511-15.34,19.511-15.34C160.215,89.825,165.687,95.065,165.687,95.067Z" transform="translate(-0.012 -2)" fill="rgba(0,0,0,0)"/>
          <path id="Pfad_1391_-_Kontur" data-name="Pfad 1391 - Kontur" d="M165.151,79.555a1,1,0,0,1,.882,1.47c-3.484,6.543-1.451,10.856-.285,12.539a15.243,15.243,0,0,0,1.521-3.37,1,1,0,0,1,1.488-.54,11.728,11.728,0,0,1,3.381,3.29,14.458,14.458,0,0,1,1.989,4.323,18.115,18.115,0,0,1-.094,9.8,15.723,15.723,0,0,1-5.045,7.856,14.28,14.28,0,0,1-4.373,2.445,16.828,16.828,0,0,1-5.552.9c-.34,0-.688-.009-1.035-.027a15.02,15.02,0,0,1-9.665-3.582,14.518,14.518,0,0,1-4.116-6.769l0-.015a20,20,0,0,1,.454-12.309,23.429,23.429,0,0,1,5.37-8.757,24.074,24.074,0,0,1,6.753-4.807,25.3,25.3,0,0,1,8.252-2.437Zm-.175,16.215a10.509,10.509,0,0,1-2.394-4.289,12.608,12.608,0,0,1-.418-4.918,16.669,16.669,0,0,1,1.265-4.723,25.2,25.2,0,0,0-5.8,1.986,22.053,22.053,0,0,0-6.16,4.407,21.454,21.454,0,0,0-4.881,7.99l0,.014a18,18,0,0,0-.413,11.077,12.551,12.551,0,0,0,3.536,5.849,13.087,13.087,0,0,0,8.421,3.071h.006c.314.016.628.024.935.024a13.258,13.258,0,0,0,8.656-2.888,13.734,13.734,0,0,0,4.393-6.868,16.089,16.089,0,0,0,.088-8.7,11.308,11.308,0,0,0-3.5-5.714c-.1.25-.213.521-.338.8a6.647,6.647,0,0,1-2.163,3.033,1,1,0,0,1-1.228-.152Z" transform="translate(-0.012 -2)" fill="#004b5c"/>
          <path id="Pfad_1392" data-name="Pfad 1392" d="M179.773,58.447l-.9,1.03a.761.761,0,0,0,.065,1.067,36.773,36.773,0,0,1-.776,54.705,1.158,1.158,0,0,0-.124,1.629l9.706,11.082a.952.952,0,0,0,1.338.109,1.107,1.107,0,0,0,.108-.109A46.9,46.9,0,0,0,180.865,58.3a.81.81,0,0,0-1.09.142" transform="translate(-0.015 -2)" fill="#64dca0"/>
          <path id="Pfad_1393" data-name="Pfad 1393" d="M17.678,26.083a8.061,8.061,0,0,1,8.048-8.073h.009" transform="translate(-0.001)" fill="rgba(0,0,0,0)"/>
          <path id="Pfad_1393_-_Kontur" data-name="Pfad 1393 - Kontur" d="M17.678,27.083a1,1,0,0,1-1-1,9.071,9.071,0,0,1,9.047-9.075h.011a1,1,0,0,1,0,2h-.009a7.068,7.068,0,0,0-7.048,7.071A1,1,0,0,1,17.678,27.083Z" transform="translate(-0.001)" fill="#004b5c"/>
          <path id="Pfad_1394" data-name="Pfad 1394" d="M9.453,25.779A16.287,16.287,0,0,1,25.716,9.467h.018" transform="translate(-0.001)" fill="rgba(0,0,0,0)"/>
          <path id="Pfad_1394_-_Kontur" data-name="Pfad 1394 - Kontur" d="M9.453,26.779a1,1,0,0,1-1-1A17.273,17.273,0,0,1,25.714,8.467h.019a1,1,0,0,1,0,2h-.018A15.287,15.287,0,0,0,10.453,25.778,1,1,0,0,1,9.453,26.779Z" transform="translate(-0.001)" fill="#004b5c"/>
          <path id="Pfad_1395" data-name="Pfad 1395" d="M1,25.781A24.743,24.743,0,0,1,25.7,1h.029" transform="translate(0)" fill="rgba(0,0,0,0)"/>
          <path id="Pfad_1395_-_Kontur" data-name="Pfad 1395 - Kontur" d="M1,26.781a1,1,0,0,1-1-1A25.721,25.721,0,0,1,25.7,0h.03a1,1,0,1,1,0,2H25.7A23.723,23.723,0,0,0,2,25.78,1,1,0,0,1,1,26.781Z" transform="translate(0)" fill="#004b5c"/>
        </g>
      </g>
    </g>
  </g>
</svg>
