<svg xmlns="http://www.w3.org/2000/svg" width="180" height="180" viewBox="0 0 180 180">
  <g id="icn-circle-3" transform="translate(-1070 -1631)">
    <circle id="Ellipse_70" data-name="Ellipse 70" cx="90" cy="90" r="90" transform="translate(1070 1631)" fill="#fff"/>
    <path id="Ellipse_70_-_Kontur" data-name="Ellipse 70 - Kontur" d="M90,2A88.659,88.659,0,0,0,72.263,3.788,87.508,87.508,0,0,0,40.8,17.028,88.262,88.262,0,0,0,8.915,55.747,87.54,87.54,0,0,0,3.788,72.263a88.877,88.877,0,0,0,0,35.474A87.508,87.508,0,0,0,17.028,139.2a88.262,88.262,0,0,0,38.719,31.885,87.54,87.54,0,0,0,16.516,5.127,88.877,88.877,0,0,0,35.474,0,87.508,87.508,0,0,0,31.463-13.24,88.262,88.262,0,0,0,31.885-38.719,87.54,87.54,0,0,0,5.127-16.516,88.877,88.877,0,0,0,0-35.474A87.508,87.508,0,0,0,162.972,40.8,88.262,88.262,0,0,0,124.253,8.915a87.54,87.54,0,0,0-16.516-5.127A88.659,88.659,0,0,0,90,2m0-2A90,90,0,1,1,0,90,90,90,0,0,1,90,0Z" transform="translate(1070 1631)" fill="#004a5a"/>
    <g id="icon_amr" transform="translate(1105.09 1664.109)">
      <path id="Pfad_577" data-name="Pfad 577" d="M18.49,63.548,48.074,37.554a2.153,2.153,0,0,1,2.85,0L80.507,63.548" transform="translate(6.152 21.392)" fill="rgba(0,0,0,0)"/>
      <path id="Pfad_577_-_Kontur" data-name="Pfad 577 - Kontur" d="M80.507,64.548a1,1,0,0,1-.66-.249L50.264,38.305a1.153,1.153,0,0,0-1.528,0L19.15,64.3a1,1,0,1,1-1.32-1.5L47.414,36.8a3.154,3.154,0,0,1,4.173,0L81.167,62.8a1,1,0,0,1-.66,1.751Z" transform="translate(6.152 21.392)" fill="#004a5a"/>
      <path id="Pfad_578" data-name="Pfad 578" d="M24.88,47V77.269a2.142,2.142,0,0,0,2.163,2.138H35.9a2.142,2.142,0,0,0,2.146-2.155l-.1-14.485a2.159,2.159,0,0,1,2.146-2.155H49.5a2.159,2.159,0,0,1,2.163,2.121l.086,14.553A2.142,2.142,0,0,0,53.9,79.407H62.86a2.142,2.142,0,0,0,2.146-2.138V47" transform="translate(10.733 28.483)" fill="rgba(0,0,0,0)"/>
      <path id="Pfad_578_-_Kontur" data-name="Pfad 578 - Kontur" d="M27.027,80.407a3.142,3.142,0,0,1-3.147-3.138V47a1,1,0,0,1,2,0V77.269a1.141,1.141,0,0,0,.338.806,1.158,1.158,0,0,0,.818.331H35.9a1.158,1.158,0,0,0,.815-.338,1.141,1.141,0,0,0,.331-.809l-.1-14.486s0,0,0-.007a3.168,3.168,0,0,1,3.138-3.155H49.5a3.159,3.159,0,0,1,3.163,3.105s0,.007,0,.01l.086,14.553A1.145,1.145,0,0,0,53.9,78.407H62.86a1.143,1.143,0,0,0,1.146-1.138V47a1,1,0,0,1,2,0V77.269a3.146,3.146,0,0,1-3.146,3.138H53.9a3.151,3.151,0,0,1-3.146-3.113l-.086-14.55A1.165,1.165,0,0,0,49.5,61.613H40.1a1.162,1.162,0,0,0-1.151,1.151l.1,14.481A3.142,3.142,0,0,1,35.9,80.407H27.027Z" transform="translate(10.733 28.483)" fill="#004a5a"/>
      <path id="Pfad_579" data-name="Pfad 579" d="M24.89,36.05a28.135,28.135,0,0,1,39.491,0" transform="translate(10.74 14.961)" fill="rgba(0,0,0,0)"/>
      <path id="Pfad_579_-_Kontur" data-name="Pfad 579 - Kontur" d="M64.381,37.05a1,1,0,0,1-.7-.288,27.106,27.106,0,0,0-38.086,0,1,1,0,1,1-1.4-1.424,29.106,29.106,0,0,1,40.9,0,1,1,0,0,1-.7,1.712Z" transform="translate(10.74 14.961)" fill="#004a5a"/>
      <path id="Pfad_580" data-name="Pfad 580" d="M17.67,30.984a45.836,45.836,0,0,1,64.335,0" transform="translate(5.564 7.748)" fill="rgba(0,0,0,0)"/>
      <path id="Pfad_580_-_Kontur" data-name="Pfad 580 - Kontur" d="M82.005,31.984a1,1,0,0,1-.7-.288,44.789,44.789,0,0,0-62.931,0,1,1,0,1,1-1.4-1.424,46.789,46.789,0,0,1,65.74,0,1,1,0,0,1-.7,1.712Z" transform="translate(5.564 7.748)" fill="#004a5a"/>
      <path id="Pfad_581" data-name="Pfad 581" d="M9.91,25.547a64.811,64.811,0,0,1,91,0" transform="translate(0 0)" fill="rgba(0,0,0,0)"/>
      <path id="Pfad_581_-_Kontur" data-name="Pfad 581 - Kontur" d="M100.91,26.547a1,1,0,0,1-.7-.288A63.435,63.435,0,0,0,67.5,9.039a64.048,64.048,0,0,0-35.914,3.444A63.258,63.258,0,0,0,10.613,26.259a1,1,0,1,1-1.405-1.423A65.435,65.435,0,0,1,42.943,7.074a66.048,66.048,0,0,1,37.036,3.552,65.248,65.248,0,0,1,21.634,14.209,1,1,0,0,1-.7,1.712Z" transform="translate(0 0)" fill="#004a5a"/>
    </g>
  </g>
</svg>
