<svg xmlns="http://www.w3.org/2000/svg" width="115.151" height="162.3" viewBox="0 0 115.151 162.3">
  <g id="illus_weiß_einfach" transform="translate(-35.877 -0.624)">
    <g id="Gruppe_151" data-name="Gruppe 151" transform="translate(37.028 41.319)">
      <path id="Pfad_125" data-name="Pfad 125" d="M94.769,201.592a1.15,1.15,0,0,1-1.085-.768l-3.633-10.316a27.63,27.63,0,0,1-8.393-3.17,34.967,34.967,0,0,1-6.652-4.982,36.2,36.2,0,0,1-5.555-6.572,1.15,1.15,0,1,1,1.958-1.207,34.665,34.665,0,0,0,5.226,6.153,32.616,32.616,0,0,0,6.2,4.63,25.137,25.137,0,0,0,8.272,3,1.15,1.15,0,0,1,.894.752l3.855,10.946a1.151,1.151,0,0,1-1.085,1.532Z" transform="translate(-44.314 -79.988)" fill="#fff"/>
      <g id="Gruppe_149" data-name="Gruppe 149" transform="translate(0.835)">
        <path id="Pfad_126" data-name="Pfad 126" d="M51.766,95.2a1.146,1.146,0,0,1-.806-.329,118.127,118.127,0,0,1-10.3-11.037c-2.52-3.243-3.7-5.769-3.711-7.952a6.086,6.086,0,0,1,1.942-4.419,4.479,4.479,0,0,1,3.371-1.327c2.018.034,4.464,1.169,7.27,3.375a34.293,34.293,0,0,1,3.524,3.2,1.15,1.15,0,1,1-1.681,1.569c-1.5-1.608-6.077-5.79-9.152-5.84a2.2,2.2,0,0,0-1.7.653,3.774,3.774,0,0,0-1.27,2.783c.008,1.626,1.064,3.77,3.226,6.552a116.231,116.231,0,0,0,10.1,10.807,1.15,1.15,0,0,1-.806,1.971Z" transform="translate(-38.096 -57.324)" fill="#fff"/>
        <path id="Linie_55" data-name="Linie 55" d="M0,24.207a1.15,1.15,0,0,1-1.15-1.15V0A1.15,1.15,0,0,1,0-1.15,1.15,1.15,0,0,1,1.15,0V23.057A1.15,1.15,0,0,1,0,24.207Z" transform="translate(65.86 14.199)" fill="#fff"/>
        <path id="Pfad_127" data-name="Pfad 127" d="M56.15,103.063a1.15,1.15,0,0,1-1.15-1.15V58.77a6.518,6.518,0,0,1,6.506-6.49H90.622a1.15,1.15,0,0,1,0,2.3H61.506A4.213,4.213,0,0,0,57.3,58.773v43.14A1.15,1.15,0,0,1,56.15,103.063Z" transform="translate(-42.034 -53.43)" fill="#fff"/>
        <path id="Pfad_128" data-name="Pfad 128" d="M98.15,173.1H61.507a6.506,6.506,0,0,1-6.477-6.487V160.35a1.15,1.15,0,1,1,2.3,0V166.6a4.216,4.216,0,0,0,4.185,4.19H98.15a1.15,1.15,0,1,1,0,2.3Z" transform="translate(-42.041 -76.753)" fill="#fff"/>
        <path id="Ellipse_17" data-name="Ellipse 17" d="M3.6-1.15A4.747,4.747,0,1,1-1.15,3.6,4.752,4.752,0,0,1,3.6-1.15Zm0,7.193A2.447,2.447,0,1,0,1.15,3.6,2.449,2.449,0,0,0,3.6,6.043Z" transform="translate(36.391 81.994)" fill="#fff"/>
      </g>
      <g id="Gruppe_150" data-name="Gruppe 150" transform="translate(0 27.563)">
        <path id="Pfad_129" data-name="Pfad 129" d="M143.307,182.7a1.15,1.15,0,0,1-1.138-.992c-.031-.221-3.091-22.165-4.353-28.7s-5.622-28.732-8.839-40.573c-1.723-6.374.172-17.239.885-21.329.054-.312.11-.63.149-.868a4.342,4.342,0,0,0-1.521-.368c-4.449-.4-6.129,2.107-7.4,6.273-.888,2.917-3.861,23.759-5.309,34.371a1.15,1.15,0,0,1-.156.44,36.169,36.169,0,0,0-5.271,14.884,29.88,29.88,0,0,0,1.084,11.735,29.371,29.371,0,0,0,5.5,10.478,1.15,1.15,0,0,1-1.7,1.549,31.316,31.316,0,0,1-6-11.371,32.168,32.168,0,0,1-1.167-12.634,38.335,38.335,0,0,1,5.467-15.627c.42-3.071,4.233-30.808,5.355-34.5a13.72,13.72,0,0,1,2.89-5.606,8.09,8.09,0,0,1,6.913-2.288,6.772,6.772,0,0,1,2.269.564,2.112,2.112,0,0,1,1.392,1.647,6.928,6.928,0,0,1-.228,1.711c-2.52,14.453-1.324,18.878-.931,20.332,3.237,11.917,7.613,34.195,8.877,40.739,1.273,6.591,4.342,28.595,4.373,28.816a1.151,1.151,0,0,1-1.14,1.309Z" transform="translate(-52.736 -88.683)" fill="#fff"/>
        <path id="Pfad_130" data-name="Pfad 130" d="M42.063,125.1a9.673,9.673,0,0,1,4.015.978l.01,0,.034.016.448.224c2.031,1.014,6.788,3.387,8.654,4.511q.036.022.07.046a6.983,6.983,0,0,1,2.462,8.274l-.019.044a6.045,6.045,0,0,1-5.867,3.643,15.128,15.128,0,0,1-6.65-1.9c-3.168-1.608-5.926-3.086-7.6-4.9a6.16,6.16,0,0,1-1.689-3.344,7.014,7.014,0,0,1,.776-4.079A5.652,5.652,0,0,1,42.063,125.1Zm3.047,3.065a7.411,7.411,0,0,0-3.047-.765,3.4,3.4,0,0,0-3.274,2.2l0,.006c-.95,1.98-.791,3.438.53,4.874,1.41,1.533,3.979,2.9,6.944,4.408a12.931,12.931,0,0,0,5.609,1.656,3.768,3.768,0,0,0,3.756-2.257,4.67,4.67,0,0,0-1.627-5.5c-1.817-1.088-6.635-3.492-8.457-4.4Z" transform="translate(-37.028 -96.877)" fill="#fff"/>
        <path id="Pfad_131" data-name="Pfad 131" d="M43.918,142.13a9.639,9.639,0,0,1,4.238,1.137,27.612,27.612,0,0,1,6.015,4.065c3.4,3.156,3.305,5.669,2.627,7.222a5,5,0,0,1-4.9,3.256A16.69,16.69,0,0,1,45.383,156a14.125,14.125,0,0,1-5.909-4.263,6.389,6.389,0,0,1,1.474-8.743A5.227,5.227,0,0,1,43.918,142.13Zm7.976,13.379a2.738,2.738,0,0,0,2.8-1.876,2.486,2.486,0,0,0-.12-2.12,8.393,8.393,0,0,0-1.964-2.5,25.158,25.158,0,0,0-5.474-3.691,7.509,7.509,0,0,0-3.214-.9,3.015,3.015,0,0,0-2.974,2.193c-.416,1.017-1.68,4.112,5.379,7.272A14.9,14.9,0,0,0,51.894,155.509Z" transform="translate(-37.556 -100.593)" fill="#fff"/>
      </g>
    </g>
    <g id="Gruppe_153" data-name="Gruppe 153" transform="translate(61.627 52.746)">
      <g id="Gruppe_152" data-name="Gruppe 152">
        <path id="Linie_56" data-name="Linie 56" d="M16.779,1.15H0A1.15,1.15,0,0,1-1.15,0,1.15,1.15,0,0,1,0-1.15H16.779A1.15,1.15,0,0,1,17.929,0,1.15,1.15,0,0,1,16.779,1.15Z" fill="#fff"/>
        <path id="Linie_57" data-name="Linie 57" d="M16.779,1.15H0A1.15,1.15,0,0,1-1.15,0,1.15,1.15,0,0,1,0-1.15H16.779A1.15,1.15,0,0,1,17.929,0,1.15,1.15,0,0,1,16.779,1.15Z" transform="translate(0 7.123)" fill="#fff"/>
      </g>
      <path id="Pfad_132" data-name="Pfad 132" d="M101.39,129.711H67.77a1.15,1.15,0,0,1-1.15-1.15V95.05a1.15,1.15,0,0,1,1.15-1.15H100.3a2.19,2.19,0,0,1,2.19,2.19v4.965a2.19,2.19,0,0,1-2.19,2.19H68.92v24.166h31.32V107.286a1.15,1.15,0,1,1,2.3,0v21.274A1.15,1.15,0,0,1,101.39,129.711ZM68.92,100.945h31.273V96.2H68.92Z" transform="translate(-67.77 -73.502)" fill="#fff"/>
    </g>
    <path id="Pfad_133" data-name="Pfad 133" d="M108.583,70.734a1.15,1.15,0,0,1-1.15-1.126l-.141-6.693h-3.26a4.979,4.979,0,0,1-4.973-4.973V30.373a4.979,4.979,0,0,1,4.973-4.973h34.324a4.979,4.979,0,0,1,4.973,4.973V57.942a4.979,4.979,0,0,1-4.973,4.973H116.133l-6.694,7.438A1.15,1.15,0,0,1,108.583,70.734ZM104.033,27.7a2.676,2.676,0,0,0-2.673,2.673V57.942a2.676,2.676,0,0,0,2.673,2.673h4.386a1.15,1.15,0,0,1,1.15,1.126l.1,4.914L114.766,61a1.15,1.15,0,0,1,.855-.381h22.737a2.676,2.676,0,0,0,2.673-2.673V30.373a2.676,2.676,0,0,0-2.673-2.673Z" transform="translate(-12.487 -6.405)" fill="#fff"/>
    <path id="Pfad_134" data-name="Pfad 134" d="M79.226,42.47A1.15,1.15,0,0,1,78.08,41.4c-.073-1-.11-1.992-.11-2.948A37.9,37.9,0,0,1,133.381,4.909a1.15,1.15,0,1,1-1.062,2.04A35.6,35.6,0,0,0,80.27,38.458c0,.9.035,1.833.1,2.778a1.15,1.15,0,0,1-1.063,1.231Q79.268,42.47,79.226,42.47Z" transform="translate(-6.991 0)" fill="#fff"/>
    <path id="Pfad_135" data-name="Pfad 135" d="M136.3,96.281a1.15,1.15,0,0,1-.22-2.279A36.989,36.989,0,0,0,140.4,92.88a36.079,36.079,0,0,0,9.022-4.432,1.15,1.15,0,1,1,1.292,1.9,38.382,38.382,0,0,1-9.6,4.715,39.3,39.3,0,0,1-4.594,1.193A1.156,1.156,0,0,1,136.3,96.281Z" transform="translate(-20.203 -19.487)" fill="#fff"/>
    <path id="Pfad_136" data-name="Pfad 136" d="M45.179,111.161a16.714,16.714,0,0,1,6.8,1.983,31.724,31.724,0,0,1,6.723,4.109c3.689,3.149,3.555,5.91,2.792,7.672a5.709,5.709,0,0,1-5.579,3.66c-2.946,0-6.209-1.563-8.592-2.7l-.216-.1a23.591,23.591,0,0,1-6.061-3.7,6.72,6.72,0,0,1-1.926-3.051,6.049,6.049,0,0,1,.368-4.011A5.837,5.837,0,0,1,45.179,111.161Zm10.737,15.124a3.429,3.429,0,0,0,3.468-2.273c.671-1.551-.04-3.189-2.174-5.011a29.607,29.607,0,0,0-6.227-3.786l-.007,0a14.68,14.68,0,0,0-5.8-1.752,3.556,3.556,0,0,0-3.57,2.447,3.652,3.652,0,0,0,1.03,4.507A21.6,21.6,0,0,0,48.1,123.7l.217.1C50.5,124.852,53.493,126.285,55.916,126.285Z" transform="translate(-0.666 -24.612)" fill="#fff"/>
    <path id="Pfad_137" data-name="Pfad 137" d="M154.693,10.256l-.837.962a.719.719,0,0,0,.055,1,34.738,34.738,0,0,1-.712,51.361,1.087,1.087,0,0,0-.117,1.564l9.015,10.4a.876.876,0,0,0,1.321,0,44.238,44.238,0,0,0-7.74-65.387A.782.782,0,0,0,154.693,10.256Z" transform="translate(-23.415 -1.8)" fill="#64dca0"/>
    <path id="Pfad_138" data-name="Pfad 138" d="M118.944,57.176a1.146,1.146,0,0,1-.813-.337L110.8,49.5a1.15,1.15,0,0,1,1.626-1.626l6.521,6.521,16.013-16.013a1.15,1.15,0,0,1,1.626,1.626L119.757,56.839A1.146,1.146,0,0,1,118.944,57.176Z" transform="translate(-15.05 -9.335)" fill="#fff"/>
  </g>
</svg>
