<svg xmlns="http://www.w3.org/2000/svg" width="510.6" height="484.6" viewBox="0 0 510.6 484.6">
  <g id="news-icn" transform="translate(1.15 1.15)">
    <path id="kalo-swoosh" d="M83.813,86.464l-1.856,2.13a1.584,1.584,0,0,0,.124,2.206,76.34,76.34,0,0,1-1.587,113.248,2.4,2.4,0,0,0-.248,3.385l19.972,22.928a1.951,1.951,0,0,0,2.919.026,97.02,97.02,0,0,0,24.421-64.4A97.538,97.538,0,0,0,86,86.2a1.649,1.649,0,0,0-2.182.269" transform="translate(88.185 94.353)" fill="#64dca0"/>
    <path id="Pfad_1095" data-name="Pfad 1095" d="M139.668,251.812a2.3,2.3,0,0,1-2-1.167L70.285,131.635a18.23,18.23,0,0,0-5.875-5.3,5.784,5.784,0,0,0-3.01-.661,6.337,6.337,0,0,0-5.932,6.2,28.038,28.038,0,0,0,1.325,8.176,65.606,65.606,0,0,0,5.5,12.6l.033.063L88.58,204.1a2.3,2.3,0,1,1-4.1,2.093l-26.24-51.343c-4.963-9.023-7.445-16.767-7.376-23.018a10.8,10.8,0,0,1,1.53-5.43,11.064,11.064,0,0,1,3.788-3.782,10.537,10.537,0,0,1,10.344-.362,22.774,22.774,0,0,1,7.629,6.9q.043.065.082.133l67.427,119.093a2.3,2.3,0,0,1-2,3.434Z" transform="translate(58.426 136.066)" fill="#fff"/>
    <path id="Pfad_1096" data-name="Pfad 1096" d="M64.585,185.845a2.3,2.3,0,0,1-1.839-.917l-7.414-9.85q-.031-.041-.059-.083a19.612,19.612,0,0,1-3.123-6.86,12.839,12.839,0,0,1,.063-5.914c1.542-6.085,7.263-9.076,7.506-9.2q.056-.029.113-.054a15.845,15.845,0,0,1,12.613-.544c8.283,3.246,12.49,12.878,12.665,13.286a2.3,2.3,0,0,1-4.227,1.814c-.069-.159-3.681-8.308-10.133-10.824a10.508,10.508,0,0,0-4.088-.728,12.94,12.94,0,0,0-4.881,1.164c-.454.253-4.164,2.422-5.116,6.25-.663,2.669.136,5.686,2.376,8.968l7.383,9.808a2.3,2.3,0,0,1-1.836,3.683Z" transform="translate(59.514 169.8)" fill="#fff"/>
    <path id="Pfad_1097" data-name="Pfad 1097" d="M53.8,192.728a2.3,2.3,0,0,1-1.835-.911l-3.306-4.364a24.386,24.386,0,0,1-2.977-4.882c-1.835-4.149-2.083-8.009-.737-11.473a14.937,14.937,0,0,1,7.179-7.576,15.622,15.622,0,0,1,8.528-2.238,14.662,14.662,0,0,1,6.732,2.038,19.242,19.242,0,0,1,5.694,5.117l-3.784,2.616,0,.007a14.734,14.734,0,0,0-4.346-3.832,10.042,10.042,0,0,0-4.59-1.355,11.2,11.2,0,0,0-6.024,1.679,1.918,1.918,0,0,1-.223.114,11,11,0,0,0-3.8,3.153,8,8,0,0,0-1.557,3.858,11.616,11.616,0,0,0,1.133,6.032,19.982,19.982,0,0,0,2.437,3.965l3.306,4.364a2.3,2.3,0,0,1-1.832,3.689Z" transform="translate(50.823 180.823)" fill="#fff"/>
    <path id="Pfad_1098" data-name="Pfad 1098" d="M117.2,292.626a2.3,2.3,0,0,1-2.046-1.247l-13.162-25.542a61.567,61.567,0,0,1-14.582-5.913,74.264,74.264,0,0,1-11.692-8.144,68.875,68.875,0,0,1-10-10.23q-.069-.092-.128-.19L40.857,200.23q-.022-.036-.042-.073a33.525,33.525,0,0,1-4.01-10.958,18.193,18.193,0,0,1,.5-8.214,15.105,15.105,0,0,1,4.035-6.474,12.94,12.94,0,0,1,2.688-1.987c5.986-3.478,10.538-2.33,13.306-.751a13.067,13.067,0,0,1,4.551,4.366l-3.972,2.321.008.014a8.7,8.7,0,0,0-3.005-2.782c-2.475-1.343-5.374-1.062-8.617.833-.053.031-.076.045-.128.07a8.738,8.738,0,0,0-1.812,1.395,10.371,10.371,0,0,0-2.692,4.456,13.749,13.749,0,0,0-.3,6.131,29.076,29.076,0,0,0,3.458,9.32L69.465,238.88a66.856,66.856,0,0,0,9.318,9.47,69.572,69.572,0,0,0,10.936,7.6,56.538,56.538,0,0,0,14.369,5.673A2.3,2.3,0,0,1,105.6,262.8l13.64,26.469a2.3,2.3,0,0,1-2.043,3.354Z" transform="translate(42.355 190.825)" fill="#fff"/>
    <path id="Pfad_1099" data-name="Pfad 1099" d="M126.475,310.774a2.3,2.3,0,0,1-2.094-1.345L107.224,271.85a2.3,2.3,0,0,1,.023-1.959c3.509-7.235,6.014-17.1,7.447-29.314a230.286,230.286,0,0,0,1.351-29.276,111.958,111.958,0,0,1,4-31.164l5.906-21.544c-5.6-2.161-10.594-2.28-14.854-.349a17.333,17.333,0,0,0-5.092,3.6,24.308,24.308,0,0,0-3.51,4.526,27.933,27.933,0,0,0-2.595,5.5L93.339,204.64a2.3,2.3,0,0,1-4.511-.9l6.584-32.9q.021-.106.052-.209a31.417,31.417,0,0,1,3.021-6.527,29.05,29.05,0,0,1,4.184-5.435,21.96,21.96,0,0,1,6.493-4.6,20.3,20.3,0,0,1,9.076-1.786,29.969,29.969,0,0,1,11.411,2.875,2.3,2.3,0,0,1,1.27,2.7l-6.44,23.492a107.361,107.361,0,0,0-3.836,29.885,231.628,231.628,0,0,1-1.382,29.875c-1.43,12.192-3.921,22.208-7.41,29.8l16.714,36.608a2.3,2.3,0,0,1-2.091,3.256Z" transform="translate(101.016 170.808)" fill="#fff"/>
    <path id="Pfad_1100" data-name="Pfad 1100" d="M66.362,260.674a2.292,2.292,0,0,1-.947-.205A96.142,96.142,0,0,1,25.4,118.824,97.245,97.245,0,0,1,147.214,85.578a2.3,2.3,0,1,1-1.941,4.17,95.334,95.334,0,0,0-19.186-6.581A92.332,92.332,0,0,0,20.7,137.006a91.041,91.041,0,0,0-5.375,17.235A91.808,91.808,0,0,0,67.312,256.278a2.3,2.3,0,0,1-.95,4.4Z" transform="translate(11.232 86.237)" fill="#fff"/>
    <path id="Pfad_1101" data-name="Pfad 1101" d="M163.389,222.858a2.3,2.3,0,0,1-2.3-2.252l-.456-21.77H107.894a14.118,14.118,0,0,1-14.145-14.09V12.936A14.114,14.114,0,0,1,107.892-1.15H388.716a14.114,14.114,0,0,1,14.141,14.086V184.75a14.114,14.114,0,0,1-14.141,14.086h-202.6L165.1,222.1A2.3,2.3,0,0,1,163.389,222.858ZM107.892,3.45a9.526,9.526,0,0,0-9.543,9.486v171.81a9.529,9.529,0,0,0,9.545,9.49h54.992a2.3,2.3,0,0,1,2.3,2.252l.382,18.229,17.821-19.723a2.3,2.3,0,0,1,1.707-.758H388.716a9.524,9.524,0,0,0,9.541-9.486V12.936a9.524,9.524,0,0,0-9.541-9.486Z" transform="translate(106.593 0)" fill="#fff"/>
    <path id="Pfad_1102" data-name="Pfad 1102" d="M209,271.016H104.1a2.3,2.3,0,1,1,0-4.6H209a14.9,14.9,0,0,0,10.579-4.36,14.734,14.734,0,0,0,4.377-10.513V93.605a2.3,2.3,0,1,1,4.6,0V251.543a19.378,19.378,0,0,1-5.732,13.773,19.544,19.544,0,0,1-13.824,5.7Z" transform="translate(115.634 102.931)" fill="#fff"/>
    <path id="Pfad_1103" data-name="Pfad 1103" d="M82.073,302.383H18.4A19.56,19.56,0,0,1,.389,290.495a19.286,19.286,0,0,1-1.539-7.584V82.6A19.377,19.377,0,0,1,4.58,68.829,19.538,19.538,0,0,1,18.4,63.13H202.644a2.3,2.3,0,1,1,0,4.6H18.4A14.894,14.894,0,0,0,7.826,72.09,14.733,14.733,0,0,0,3.45,82.6v200.31a14.736,14.736,0,0,0,4.376,10.513,14.893,14.893,0,0,0,10.576,4.36H82.073a2.3,2.3,0,1,1,0,4.6Z" transform="translate(0 71.563)" fill="#fff"/>
    <path id="Linie_228" data-name="Linie 228" d="M0,177.411a2.3,2.3,0,0,1-2.3-2.3V0A2.3,2.3,0,0,1,0-2.3,2.3,2.3,0,0,1,2.3,0V175.111A2.3,2.3,0,0,1,0,177.411Z" transform="translate(296.031 196.536)" fill="#fff"/>
    <path id="Pfad_1104" data-name="Pfad 1104" d="M156.1,114a12.139,12.139,0,1,1-8.6,3.546A12.106,12.106,0,0,1,156.1,114Zm0,19.633a7.516,7.516,0,1,0-7.56-7.516A7.548,7.548,0,0,0,156.1,133.636Z" transform="translate(162.965 128.201)" fill="#fff"/>
    <path id="Pfad_1105" data-name="Pfad 1105" d="M82.912,203.823a53.77,53.77,0,0,1-49.52-32.674A53.3,53.3,0,0,1,44.912,112.48a53.843,53.843,0,0,1,87.52,17.006,52.966,52.966,0,0,1,4.226,20.831A53.452,53.452,0,0,1,116.611,192a2.3,2.3,0,1,1-2.879-3.588,49.153,49.153,0,0,0,13.356-16.64,48.7,48.7,0,0,0-9.421-56.031,49.243,49.243,0,0,0-80.041,15.545A48.706,48.706,0,0,0,48.157,184.9a49.106,49.106,0,0,0,34.755,14.328,49.685,49.685,0,0,0,11.15-1.264,2.3,2.3,0,1,1,1.034,4.482A54.291,54.291,0,0,1,82.912,203.823Z" transform="translate(34.052 109.064)" fill="#fff"/>
    <path id="Linie_229" data-name="Linie 229" d="M98.464,2.3H0A2.3,2.3,0,0,1-2.3,0,2.3,2.3,0,0,1,0-2.3H98.464a2.3,2.3,0,0,1,2.3,2.3A2.3,2.3,0,0,1,98.464,2.3Z" transform="translate(341.89 30.5)" fill="#fff"/>
    <path id="Linie_230" data-name="Linie 230" d="M79.587,2.3H0A2.3,2.3,0,0,1-2.3,0,2.3,2.3,0,0,1,0-2.3H79.587a2.3,2.3,0,0,1,2.3,2.3A2.3,2.3,0,0,1,79.587,2.3Z" transform="translate(341.89 97.5)" fill="#fff"/>
    <path id="Linie_231" data-name="Linie 231" d="M98.464,2.3H0A2.3,2.3,0,0,1-2.3,0,2.3,2.3,0,0,1,0-2.3H98.464a2.3,2.3,0,0,1,2.3,2.3A2.3,2.3,0,0,1,98.464,2.3Z" transform="translate(341.89 75.5)" fill="#fff"/>
    <path id="Linie_232" data-name="Linie 232" d="M79.587,2.3H0A2.3,2.3,0,0,1-2.3,0,2.3,2.3,0,0,1,0-2.3H79.587a2.3,2.3,0,0,1,2.3,2.3A2.3,2.3,0,0,1,79.587,2.3Z" transform="translate(341.89 53.5)" fill="#fff"/>
    <path id="Linie_233" data-name="Linie 233" d="M98.464,2.3H0A2.3,2.3,0,0,1-2.3,0,2.3,2.3,0,0,1,0-2.3H98.464a2.3,2.3,0,0,1,2.3,2.3A2.3,2.3,0,0,1,98.464,2.3Z" transform="translate(341.89 120.5)" fill="#fff"/>
    <path id="Linie_235" data-name="Linie 235" d="M98.464,2.3H0A2.3,2.3,0,0,1-2.3,0,2.3,2.3,0,0,1,0-2.3H98.464a2.3,2.3,0,0,1,2.3,2.3A2.3,2.3,0,0,1,98.464,2.3Z" transform="translate(341.89 164.5)" fill="#fff"/>
    <path id="Linie_236" data-name="Linie 236" d="M79.587,2.3H0A2.3,2.3,0,0,1-2.3,0,2.3,2.3,0,0,1,0-2.3H79.587a2.3,2.3,0,0,1,2.3,2.3A2.3,2.3,0,0,1,79.587,2.3Z" transform="translate(341.89 142.5)" fill="#fff"/>
    <path id="Linie_239" data-name="Linie 239" d="M66.313,2.3H0A2.3,2.3,0,0,1-2.3,0,2.3,2.3,0,0,1,0-2.3H66.313a2.3,2.3,0,0,1,2.3,2.3A2.3,2.3,0,0,1,66.313,2.3Z" transform="translate(229.718 142.5)" fill="#fff"/>
    <path id="Linie_240" data-name="Linie 240" d="M66.313,2.3H0A2.3,2.3,0,0,1-2.3,0,2.3,2.3,0,0,1,0-2.3H66.313a2.3,2.3,0,0,1,2.3,2.3A2.3,2.3,0,0,1,66.313,2.3Z" transform="translate(229.718 164.5)" fill="#fff"/>
    <path id="Rechteck_767" data-name="Rechteck 767" d="M0-2.3H86.168a2.3,2.3,0,0,1,2.3,2.3V90a2.3,2.3,0,0,1-2.3,2.3H0A2.3,2.3,0,0,1-2.3,90V0A2.3,2.3,0,0,1,0-2.3ZM83.868,2.3H2.3V87.7H83.868Z" transform="translate(229.718 30.5)" fill="#fff"/>
  </g>
</svg>
