<svg xmlns="http://www.w3.org/2000/svg" width="35.234" height="54" viewBox="0 0 35.234 54">
  <g id="portal-icn-1" transform="translate(14966.235 16146)">
    <path id="Pfad_1124" data-name="Pfad 1124" d="M31.5,63.57h0c-.146,0-.295,0-.441-.008h-.013A12.711,12.711,0,0,1,18.91,50.9s0-.006,0-.008a12.544,12.544,0,0,1,6.545-10.935V15.6a6.042,6.042,0,0,1,12.084,0V39.954A12.576,12.576,0,0,1,31.5,63.57Zm-.366-2.006a10.573,10.573,0,0,0,4.971-20.1,1,1,0,0,1-.566-.9V15.6a4.042,4.042,0,0,0-8.084,0V40.565a1,1,0,0,1-.566.9A10.545,10.545,0,0,0,20.91,50.9,10.713,10.713,0,0,0,31.134,61.564Z" transform="translate(-14985.145 -16155.57)" fill="#004a5a"/>
    <path id="Linie_246" data-name="Linie 246" d="M9.25,1H0A1,1,0,0,1-1,0,1,1,0,0,1,0-1H9.25a1,1,0,0,1,1,1A1,1,0,0,1,9.25,1Z" transform="translate(-14941.251 -16138.03)" fill="#004a5a"/>
    <path id="Linie_247" data-name="Linie 247" d="M9.25,1H0A1,1,0,0,1-1,0,1,1,0,0,1,0-1H9.25a1,1,0,0,1,1,1A1,1,0,0,1,9.25,1Z" transform="translate(-14941.251 -16129.309)" fill="#004a5a"/>
    <path id="Linie_248" data-name="Linie 248" d="M9.25,1H0A1,1,0,0,1-1,0,1,1,0,0,1,0-1H9.25a1,1,0,0,1,1,1A1,1,0,0,1,9.25,1Z" transform="translate(-14941.251 -16120.618)" fill="#004a5a"/>
  </g>
</svg>
