<svg xmlns="http://www.w3.org/2000/svg" width="48.272" height="30.95" viewBox="0 0 48.272 30.95">
  <g id="portal-icn-2" transform="translate(14533 16122.95)">
    <path id="Pfad_1125" data-name="Pfad 1125" d="M40.471,20.7a1,1,0,0,1-.707-.293L20.436,1.08a.291.291,0,0,0-.4,0L.707,20.408a1,1,0,0,1-1.414,0,1,1,0,0,1,0-1.414L18.628-.342l.01-.01a2.281,2.281,0,0,1,3.195,0l.01.01L41.178,18.993a1,1,0,0,1-.707,1.707Z" transform="translate(-14488.597 -16102.25) rotate(-180)" fill="#004a5a"/>
    <path id="Linie_249" data-name="Linie 249" d="M46.272,1H0A1,1,0,0,1-1,0,1,1,0,0,1,0-1H46.272a1,1,0,0,1,1,1A1,1,0,0,1,46.272,1Z" transform="translate(-14532 -16093)" fill="#004a5a"/>
  </g>
</svg>
