<svg xmlns="http://www.w3.org/2000/svg" width="73.434" height="52.026" viewBox="0 0 73.434 52.026">
  <g id="portal-icn-4" transform="translate(14988.717 15901.082)">
    <path id="Linie_250" data-name="Linie 250" d="M21.578,1H0A1,1,0,0,1-1,0,1,1,0,0,1,0-1H21.578a1,1,0,0,1,1,1A1,1,0,0,1,21.578,1Z" transform="translate(-14962.789 -15868.609)" fill="#004b5c"/>
    <path id="Linie_251" data-name="Linie 251" d="M21.578,1H0A1,1,0,0,1-1,0,1,1,0,0,1,0-1H21.578a1,1,0,0,1,1,1A1,1,0,0,1,21.578,1Z" transform="translate(-14962.789 -15860.966)" fill="#004b5c"/>
    <path id="Rechteck_790" data-name="Rechteck 790" d="M0-1H71.434a1,1,0,0,1,1,1V22.139a1,1,0,0,1-1,1H0a1,1,0,0,1-1-1V0A1,1,0,0,1,0-1ZM70.434,1H1V21.139H70.434Z" transform="translate(-14987.717 -15900.082)" fill="#004b5c"/>
    <path id="Ellipse_358" data-name="Ellipse 358" d="M1-1A2,2,0,1,1-1,1,2,2,0,0,1,1-1Z" transform="translate(-14953 -15890)" fill="#004a5a"/>
    <path id="Pfad_1127" data-name="Pfad 1127" d="M45.436,52.729H22.981a1,1,0,0,1-.722-.308L4.77,34.167a1,1,0,0,1-.278-.692V25.128a1,1,0,0,1,2,0v7.945L23.408,50.729h21.6L61.925,33.074V25.128a1,1,0,1,1,2,0v8.347a1,1,0,0,1-.278.692L46.158,52.421A1,1,0,0,1,45.436,52.729Z" transform="translate(-14986.209 -15901.785)" fill="#004b5c"/>
  </g>
</svg>
