<?xml version="1.0" encoding="UTF-8"?>
<svg xmlns="http://www.w3.org/2000/svg" id="uuid-0a1e0c39-38a5-417f-9116-f29dd19f5eea" data-name="Icons" viewBox="0 0 72 72">
  <path d="m25.89,33.18h19.72c.55,0,1-.45,1-1s-.45-1-1-1h-19.72c-.55,0-1,.45-1,1s.45,1,1,1Z" style="fill: #004a5a;"></path>
  <path d="m25.89,37h19.72c.55,0,1-.45,1-1s-.45-1-1-1h-19.72c-.55,0-1,.45-1,1s.45,1,1,1Z" style="fill: #004a5a;"></path>
  <path d="m66.61,21.69h0c-.09-.09-.2-.17-.33-.22-.12-.05-.25-.08-.38-.08h-8.78V5.98c0-.55-.45-1-1-1H15.88c-.55,0-1,.45-1,1v15.41H6.1c-.13,0-.26.03-.38.08-.12.05-.23.12-.33.22h0c-1,1-1.55,2.33-1.55,3.75v36.29c0,2.92,2.38,5.3,5.3,5.3h53.72c2.92,0,5.3-2.38,5.3-5.3V25.43c0-1.41-.55-2.74-1.55-3.75Zm-3.63,1.71l-5.86,5.21v-5.21h5.86ZM16.88,6.98h38.24v23.4l-17.05,15.17c-1.18,1.05-2.96,1.05-4.14,0l-17.05-15.15V6.98Zm-2,21.65l-5.9-5.24h5.9v5.24Zm51.28,33.09c0,1.82-1.48,3.3-3.3,3.3H9.14c-1.82,0-3.3-1.48-3.3-3.3V25.43c0-.62.18-1.2.49-1.71l26.27,23.33c.97.86,2.18,1.29,3.4,1.29s2.43-.43,3.4-1.29l26.25-23.36c.32.52.51,1.11.51,1.74v36.29Z" style="fill: #004a5a;"></path>
  <path d="m28.16,21.48c0,.55.45,1,1,1h1.25c.13.63.32,1.22.58,1.77.49,1.04,1.26,1.85,2.27,2.43.98.56,2.2.84,3.63.84,1.05,0,2-.14,2.81-.42.83-.28,1.53-.67,2.09-1.15.57-.49,1.01-1.04,1.31-1.66.24-.5.04-1.1-.45-1.34-.5-.24-1.09-.04-1.34.45-.18.37-.46.71-.82,1.02-.37.32-.85.58-1.44.78-.6.21-1.33.31-2.16.31-1.08,0-1.97-.19-2.64-.58-.66-.37-1.13-.88-1.45-1.55-.13-.28-.24-.58-.33-.91h4.07c.55,0,1-.45,1-1s-.45-1-1-1h-4.3v-2.53s4.3,0,4.3,0c.55,0,1-.45,1-1s-.45-1-1-1h-4.08c.09-.33.2-.64.34-.93.33-.67.8-1.17,1.46-1.55.67-.38,1.55-.58,2.63-.58.83,0,1.56.1,2.16.31.59.2,1.07.46,1.44.78.36.31.64.65.82,1.02.24.5.84.7,1.34.45.5-.25.7-.84.45-1.34-.3-.61-.74-1.17-1.31-1.66-.56-.48-1.27-.87-2.09-1.15-.81-.28-1.76-.42-2.81-.42-1.43,0-2.65.28-3.62.84-1,.57-1.76,1.38-2.26,2.41-.27.55-.47,1.15-.59,1.8h-1.24c-.55,0-1,.45-1,1s.45,1,1,1h1.07v2.53h-1.07c-.55,0-1,.45-1,1Z" style="fill: #004a5a;"></path>
</svg>
