<?xml version="1.0" encoding="UTF-8"?>
<svg xmlns="http://www.w3.org/2000/svg" width="180" height="180" viewBox="0 0 180 180">
  <defs>
    <style>.cls-1{fill:#004a5a;}.cls-2{fill:#fff;}</style>
  </defs>
  <g id="weißer_Kreis">
    <circle class="cls-2" cx="90" cy="90" r="84.33"></circle>
  </g>
  <g id="Kreis">
    <path class="cls-1" d="M90,174.33c-46.5,0-84.33-37.83-84.33-84.33S43.5,5.67,90,5.67s84.33,37.83,84.33,84.33-37.83,84.33-84.33,84.33Zm0-166.67C44.6,7.67,7.67,44.6,7.67,90s36.93,82.33,82.33,82.33,82.33-36.93,82.33-82.33S135.4,7.67,90,7.67Z"></path>
  </g>
  <g id="Icons">
    <path class="cls-1" d="M80.84,107.06c.66,.66,1.54,1.03,2.47,1.03s1.81-.37,2.47-1.03l34.29-34.48c.39-.39,.39-1.02,0-1.41-.39-.39-1.02-.39-1.41,0l-34.29,34.48c-.56,.57-1.55,.56-2.11,0l-15.18-15.26c-.39-.39-1.02-.39-1.41,0-.39,.39-.39,1.02,0,1.41l15.18,15.26Z"></path>
    <path class="cls-1" d="M90,141.18c28.22,0,51.19-22.96,51.19-51.19s-22.96-51.19-51.19-51.19-51.19,22.96-51.19,51.19,22.96,51.19,51.19,51.19Zm0-100.37c27.12,0,49.19,22.06,49.19,49.19s-22.06,49.19-49.19,49.19-49.19-22.06-49.19-49.19,22.06-49.19,49.19-49.19Z"></path>
  </g>
</svg>
