<?xml version="1.0" encoding="UTF-8"?>
<svg xmlns="http://www.w3.org/2000/svg" width="180" height="180" viewBox="0 0 180 180">
  <defs>
    <style>.cls-1{fill:#004a5a;}.cls-2{fill:#fff;}</style>
  </defs>
  <g id="weißer_Kreis">
    <circle class="cls-2" cx="90" cy="90" r="84.33"></circle>
  </g>
  <g id="Kreis">
    <path class="cls-1" d="M90,174.33c-46.5,0-84.33-37.83-84.33-84.33S43.5,5.67,90,5.67s84.33,37.83,84.33,84.33-37.83,84.33-84.33,84.33Zm0-166.67C44.6,7.67,7.67,44.6,7.67,90s36.93,82.33,82.33,82.33,82.33-36.93,82.33-82.33S135.4,7.67,90,7.67Z"></path>
  </g>
  <g id="Icons">
    <path class="cls-1" d="M146.68,45.99H80.89c-1.72,0-3.11,1.4-3.11,3.11v17.29H33.32c-1.72,0-3.11,1.4-3.11,3.11v46.97c0,1.72,1.4,3.11,3.11,3.11h7.71v13.43c0,.41,.25,.78,.63,.93,.12,.05,.25,.07,.37,.07,.27,0,.53-.11,.72-.31l13.13-13.78c.21-.22,.5-.35,.81-.35h42.42c1.72,0,3.11-1.4,3.11-3.11v-17.9h20.98l14.04,14.74c.19,.2,.46,.31,.72,.31,.12,0,.25-.02,.37-.07,.38-.15,.63-.52,.63-.93v-13.43h7.71c1.72,0,3.11-1.4,3.11-3.11V49.1c0-1.72-1.4-3.11-3.11-3.11Zm-46.45,70.48c0,.61-.5,1.11-1.11,1.11H56.69c-.85,0-1.67,.35-2.25,.97l-11.4,11.97v-11.93c0-.55-.45-1-1-1h-8.71c-.61,0-1.11-.5-1.11-1.11v-46.97c0-.61,.5-1.11,1.11-1.11H99.11c.61,0,1.11,.5,1.11,1.11v46.97Zm47.56-20.4c0,.61-.5,1.11-1.11,1.11h-8.71c-.55,0-1,.45-1,1v11.93l-12.61-13.24c-.19-.2-.45-.31-.72-.31h-21.41v-27.07c0-1.72-1.4-3.11-3.11-3.11h-19.34v-17.29c0-.61,.5-1.11,1.11-1.11h65.79c.61,0,1.11,.5,1.11,1.11v46.97Z"></path>
    <rect class="cls-1" x="63.39" y="104.51" width="2.28" height="2.08" rx=".59" ry=".59"></rect>
    <path class="cls-1" d="M61.53,79.23c-4.87,1.14-6.58,5.83-6.8,8.16-.05,.54,.34,1.01,.88,1.07,.54,.04,1.02-.34,1.07-.88,.02-.22,.6-5.34,5.3-6.44,4.24-.99,7.63,.07,8.84,2.77,1.2,2.67-.86,4.85-2.79,6.46-.16,.13-.29,.24-.38,.33-.12,.11-.26,.23-.43,.37-1.09,.92-3.11,2.63-3.42,5.18-.29,2.42-.3,4.73-.3,4.83,0,.54,.44,.98,.98,.98h0c.54,0,.98-.44,.98-.98,0-.02,0-2.3,.28-4.6,.21-1.79,1.73-3.07,2.74-3.92,.18-.16,.35-.29,.48-.42,.08-.07,.18-.16,.31-.27,1.31-1.09,5.28-4.4,3.33-8.76-1.62-3.61-5.86-5.09-11.07-3.88Z"></path>
    <path class="cls-1" d="M114.1,80.93c.52,0,.95-.42,.95-.95v-20.72c0-.52-.42-.95-.95-.95s-.95,.42-.95,.95v20.72c0,.52,.42,.95,.95,.95Z"></path>
    <path class="cls-1" d="M113.56,83.41h1.09c.33,0,.59,.27,.59,.59v.89c0,.33-.27,.59-.59,.59h-1.09c-.33,0-.59-.27-.59-.59v-.89c0-.33,.27-.59,.59-.59Z"></path>
  </g>
</svg>
