<?xml version="1.0" encoding="UTF-8"?>
<svg xmlns="http://www.w3.org/2000/svg" viewBox="0 0 180 180">
  <defs>
    <style>.cls-1{fill:#004a5a;}.cls-2{fill:#fff;}</style>
  </defs>
  <g id="weißer_Kreis">
    <circle class="cls-2" cx="90" cy="90" r="84.33"></circle>
  </g>
  <g id="Kreis">
    <path class="cls-1" d="M90,174.33c-46.5,0-84.33-37.83-84.33-84.33S43.5,5.67,90,5.67s84.33,37.83,84.33,84.33-37.83,84.33-84.33,84.33Zm0-166.67C44.6,7.67,7.67,44.6,7.67,90s36.93,82.33,82.33,82.33,82.33-36.93,82.33-82.33S135.4,7.67,90,7.67Z"></path>
  </g>
  <g id="Icons">
    <path class="cls-1" d="M90,140.58c27.89,0,50.58-22.69,50.58-50.58s-22.69-50.58-50.58-50.58-50.58,22.69-50.58,50.58,22.69,50.58,50.58,50.58Zm0-99.16c26.79,0,48.58,21.79,48.58,48.58s-21.79,48.58-48.58,48.58-48.58-21.79-48.58-48.58,21.79-48.58,48.58-48.58Z"></path>
    <path class="cls-1" d="M90,78.72c3.44,0,6.24-2.8,6.24-6.24s-2.8-6.24-6.24-6.24-6.24,2.8-6.24,6.24,2.8,6.24,6.24,6.24Zm0-10.48c2.34,0,4.24,1.9,4.24,4.24s-1.9,4.24-4.24,4.24-4.24-1.9-4.24-4.24,1.9-4.24,4.24-4.24Z"></path>
    <path class="cls-1" d="M90,87.51c-.55,0-1,.45-1,1v31.41c0,.55,.45,1,1,1s1-.45,1-1v-31.41c0-.55-.45-1-1-1Z"></path>
  </g>
</svg>
