<?xml version="1.0" encoding="UTF-8"?>
<svg xmlns="http://www.w3.org/2000/svg" viewBox="0 0 180 180">
  <defs>
    <style>.cls-1{fill:#004a5a;}.cls-2{fill:#fff;}</style>
  </defs>
  <g id="weißer_Kreis">
    <circle class="cls-2" cx="90" cy="90" r="84.33"></circle>
  </g>
  <g id="Kreis">
    <path class="cls-1" d="M90,174.33c-46.5,0-84.33-37.83-84.33-84.33S43.5,5.67,90,5.67s84.33,37.83,84.33,84.33-37.83,84.33-84.33,84.33Zm0-166.67C44.6,7.67,7.67,44.6,7.67,90s36.93,82.33,82.33,82.33,82.33-36.93,82.33-82.33S135.4,7.67,90,7.67Z"></path>
  </g>
  <g id="Icons">
    <path class="cls-1" d="M66.75,39.1c-.55,0-1,.45-1,1v8.75h-20.75c-1.91,0-3.46,1.55-3.46,3.46v85.13c0,1.91,1.55,3.46,3.46,3.46h89.99c1.91,0,3.46-1.55,3.46-3.46V52.31c0-1.91-1.55-3.46-3.46-3.46h-20.12v-8.75c0-.55-.45-1-1-1s-1,.45-1,1v8.75h-45.12v-8.75c0-.55-.45-1-1-1Zm69.7,98.34c0,.8-.65,1.46-1.46,1.46H45.01c-.8,0-1.46-.65-1.46-1.46V68.89h92.9v68.55Zm-23.58-86.58v7.33c0,.55,.45,1,1,1s1-.45,1-1v-7.33h20.12c.8,0,1.46,.65,1.46,1.46v14.58H43.55v-14.58c0-.8,.65-1.46,1.46-1.46h20.75v7.33c0,.55,.45,1,1,1s1-.45,1-1v-7.33h45.12Z"></path>
    <path class="cls-1" d="M74.92,109.01c0,.55,.45,1,1,1h3.05c.21,1.38,.58,2.64,1.12,3.78,.84,1.77,2.14,3.16,3.87,4.15,1.7,.97,3.83,1.46,6.34,1.46,1.87,0,3.54-.25,4.96-.74,1.44-.49,2.66-1.16,3.62-1.98,.97-.83,1.72-1.78,2.23-2.81,.24-.5,.04-1.09-.45-1.34-.5-.24-1.09-.04-1.34,.45-.39,.79-.98,1.53-1.74,2.18-.77,.66-1.77,1.2-2.97,1.61-1.21,.42-2.66,.63-4.31,.63-2.16,0-3.96-.4-5.35-1.19-1.38-.79-2.38-1.86-3.05-3.27-.42-.88-.72-1.86-.91-2.92h8.66c.55,0,1-.45,1-1s-.45-1-1-1h-8.86c0-.06,0-.12,0-.17v-6.1c0-.05,0-.11,0-.16h8.86c.55,0,1-.45,1-1s-.45-1-1-1h-8.67c.19-1.09,.5-2.08,.93-2.97,.68-1.4,1.69-2.47,3.06-3.26,1.38-.79,3.17-1.19,5.33-1.19,1.65,0,3.1,.21,4.31,.63,1.2,.41,2.2,.95,2.97,1.61,.76,.65,1.35,1.39,1.74,2.18,.24,.49,.84,.7,1.34,.45,.5-.24,.7-.84,.45-1.34-.51-1.04-1.26-1.98-2.23-2.81-.96-.82-2.18-1.49-3.62-1.98-1.42-.49-3.09-.74-4.96-.74-2.51,0-4.64,.49-6.32,1.46-1.71,.98-3.01,2.37-3.86,4.12-.56,1.15-.95,2.43-1.15,3.85h-3.04c-.55,0-1,.45-1,1s.45,1,1,1h2.87s0,.09,0,.13v6.15s0,.1,0,.15h-2.87c-.55,0-1,.45-1,1Z"></path>
    <path class="cls-1" d="M90,130.11c13.97,0,25.34-11.37,25.34-25.34s-11.37-25.34-25.34-25.34-25.34,11.37-25.34,25.34,11.37,25.34,25.34,25.34Zm0-48.68c12.87,0,23.34,10.47,23.34,23.34s-10.47,23.34-23.34,23.34-23.34-10.47-23.34-23.34,10.47-23.34,23.34-23.34Z"></path>
  </g>
</svg>
