<?xml version="1.0" encoding="UTF-8"?>
<svg xmlns="http://www.w3.org/2000/svg" viewBox="0 0 120 120">
  <g id="uuid-e74efafb-345f-4863-a7d6-3bdb9f0f3949" data-name="Kreis">
    <path d="m60,113.04c-29.24,0-53.04-23.79-53.04-53.04S30.76,6.96,60,6.96s53.04,23.79,53.04,53.04-23.79,53.04-53.04,53.04Zm0-104.18c-28.2,0-51.14,22.94-51.14,51.14s22.94,51.14,51.14,51.14,51.14-22.94,51.14-51.14S88.2,8.86,60,8.86Z" style="fill: #64dca0;"></path>
  </g>
  <g id="uuid-dcb4d361-4a09-46c5-b4c4-dffefe4e01e0" data-name="Icons">
    <path d="m93.49,59.52c0-.07-.02-.13-.04-.2-.02-.07-.02-.13-.05-.19,0-.01,0-.02,0-.03l-10.91-21.78s-.01-.02-.02-.02c0-.02-.01-.04-.02-.05-.05-.08-.12-.16-.19-.22-.02-.02-.04-.03-.05-.04-.08-.06-.16-.11-.25-.14-.02,0-.04-.02-.06-.03-.09-.03-.19-.05-.29-.05h-43.18s-.03,0-.04,0c-.03,0-.05,0-.08.01-.1.01-.19.04-.28.08-.02,0-.04,0-.05.01-.01,0-.02.02-.03.02-.1.06-.2.13-.27.21-.02.02-.02.04-.04.06-.04.05-.08.1-.11.16l-10.91,21.78s0,.02,0,.03c-.03.06-.04.13-.05.19-.02.07-.04.13-.04.2,0,.01,0,.02,0,.03,0,6.57,5.34,11.91,11.91,11.91s11.91-5.34,11.91-11.91c0-.01,0-.02,0-.03,0-.07-.02-.13-.04-.2-.02-.07-.02-.13-.05-.19,0-.01,0-.02,0-.03l-10.19-20.33h18.97v42.45h-10.78c-.55,0-1,.45-1,1s.45,1,1,1h23.55c.55,0,1-.45,1-1s-.45-1-1-1h-10.78v-42.45h18.97l-10.19,20.33s0,.02,0,.03c-.03.06-.04.13-.05.19s-.04.13-.04.2c0,.01,0,.02,0,.03,0,6.57,5.34,11.91,11.91,11.91s11.91-5.34,11.91-11.91c0-.01,0-.02,0-.03Zm-55.08-19.52l9.29,18.55h-18.58l9.29-18.55Zm0,29.46c-5.13,0-9.36-3.91-9.86-8.91h19.72c-.5,5-4.73,8.91-9.86,8.91Zm43.18-29.46l9.29,18.55h-18.58l9.29-18.55Zm0,29.46c-5.13,0-9.36-3.91-9.86-8.91h19.72c-.5,5-4.73,8.91-9.86,8.91Z" style="fill: #64dca0;"></path>
  </g>
</svg>
