<?xml version="1.0" encoding="UTF-8"?>
<svg xmlns="http://www.w3.org/2000/svg" viewBox="0 0 120 120">
  <g id="uuid-7d415755-dae6-4f52-b7ee-d4c27b5733a8" data-name="Kreis">
    <path d="m60,113.04c-29.24,0-53.04-23.79-53.04-53.04S30.76,6.96,60,6.96s53.04,23.79,53.04,53.04-23.79,53.04-53.04,53.04Zm0-104.18c-28.2,0-51.14,22.94-51.14,51.14s22.94,51.14,51.14,51.14,51.14-22.94,51.14-51.14S88.2,8.86,60,8.86Z" style="fill: #004a5a;"></path>
  </g>
  <g id="uuid-122cf0ea-9243-4437-b708-98468f19ffd2" data-name="Icons">
    <g>
      <path d="m57.77,43.7h-10.74c-1.25,0-2.26,1.02-2.26,2.26v9.06c0,1.25,1.02,2.26,2.26,2.26h10.74c1.25,0,2.26-1.02,2.26-2.26v-9.06c0-1.25-1.02-2.26-2.26-2.26Zm.26,11.32c0,.15-.12.26-.26.26h-10.74c-.15,0-.26-.12-.26-.26v-9.06c0-.15.12-.26.26-.26h10.74c.15,0,.26.12.26.26v9.06Z" style="fill: #004a5a;"></path>
      <path d="m55.75,69.54h-3.61l2-5.19c.2-.52-.06-1.09-.57-1.29-.52-.2-1.09.06-1.29.57l-2.53,6.55c-.12.31-.08.65.11.93.19.27.5.43.82.43h3.61l-2.13,5.53c-.2.52.06,1.09.57,1.29.12.05.24.07.36.07.4,0,.78-.24.93-.64l2.65-6.89c.12-.31.08-.65-.11-.93s-.5-.43-.82-.43Z" style="fill: #004a5a;"></path>
      <path d="m86.42,33.04h-1.98v-3.7c0-.55-.45-1-1-1s-1,.45-1,1v3.7h-4.05v-3.7c0-.55-.45-1-1-1s-1,.45-1,1v3.7h-2.07c-.55,0-1,.45-1,1v6.05c0,.17.04.34.13.49l2.12,3.75c.18.31.51.51.87.51h2.93v38.01c0,1.12-.91,2.02-2.02,2.02s-2.02-.91-2.02-2.02v-29.67c0-2.21-1.79-4-4-4h-3.13v-10.61c0-1.25-1.02-2.26-2.26-2.26h-26.69c-1.25,0-2.26,1.02-2.26,2.26v51.09h-3.39c-.55,0-1,.45-1,1s.45,1,1,1h38.17c.55,0,1-.45,1-1s-.45-1-1-1h-3.57v-38.48h3.13c1.1,0,2,.9,2,2v29.67c0,2.22,1.81,4.02,4.02,4.02s4.02-1.81,4.02-4.02v-38.01h2.93c.36,0,.69-.19.87-.51l2.12-3.75c.08-.15.13-.32.13-.49v-6.05c0-.55-.45-1-1-1Zm-47.45,56.63v-51.09c0-.15.12-.26.26-.26h26.69c.15,0,.26.12.26.26v51.09h-27.22Zm46.45-49.84l-1.7,3.02h-6.7l-1.7-3.02v-4.79h10.1v4.79Z" style="fill: #004a5a;"></path>
    </g>
  </g>
</svg>
