<?xml version="1.0" encoding="UTF-8"?>
<svg xmlns="http://www.w3.org/2000/svg" viewBox="0 0 120 120">
  <g id="uuid-395f04e3-e297-4e7e-beee-dbf1e636a175" data-name="Kreis">
    <path d="m60,113.04c-29.24,0-53.04-23.79-53.04-53.04S30.76,6.96,60,6.96s53.04,23.79,53.04,53.04-23.79,53.04-53.04,53.04Zm0-104.18c-28.2,0-51.14,22.94-51.14,51.14s22.94,51.14,51.14,51.14,51.14-22.94,51.14-51.14S88.2,8.86,60,8.86Z" style="fill: #004a5a;"></path>
  </g>
  <g id="uuid-c7072592-64fb-4375-8cba-56f14eb2ca1a" data-name="Icons">
    <g>
      <path d="m89.8,79.59c-1.98-1.98-4.87-2.68-7.51-1.85l-7.16-7.16,7.29-7.29,6.05-2.31c.29-.11.51-.34.6-.64l2.61-8.39c.11-.35.02-.74-.25-1l-.9-.9c-.26-.26-.65-.36-1-.25l-8.39,2.61c-.29.09-.53.31-.64.6l-2.36,6.26-7.16,7.16-8.32-8.32c.82-2.46.29-5.07-1.44-6.8-1.76-1.75-4.41-2.29-6.93-1.4-.32.11-.57.39-.64.72s.03.69.27.93l2.75,2.75-.29,2.44-2.44.29-2.75-2.75c-.24-.24-.59-.34-.93-.27-.33.08-.61.32-.72.64-.89,2.52-.36,5.17,1.4,6.93,1.73,1.73,4.34,2.27,6.8,1.44l8.32,8.32-1.17,1.17-.92-.92c-.39-.39-1.02-.39-1.41,0l-12.87,12.87c-.39.39-.39,1.02,0,1.41l5.92,5.92c.19.19.44.29.71.29s.52-.11.71-.29l12.87-12.87c.19-.19.29-.44.29-.71s-.11-.52-.29-.71l-.84-.84,1.17-1.17,7.16,7.16c-.82,2.64-.13,5.53,1.85,7.51,1.41,1.41,3.29,2.19,5.29,2.19s3.88-.78,5.29-2.19c2.92-2.92,2.92-7.66,0-10.58Zm-31.12-18.44c-.29-.29-.73-.37-1.11-.21-1.88.83-3.93.52-5.23-.78-.82-.82-1.25-1.94-1.24-3.13l1.75,1.75c.22.22.52.32.83.29l3.7-.44c.46-.05.82-.42.87-.87l.44-3.7c.04-.3-.07-.61-.29-.83l-1.75-1.75c1.2-.01,2.31.42,3.13,1.24,1.3,1.3,1.6,3.35.78,5.23-.17.38-.08.82.21,1.11l8.78,8.78-2.1,2.1-8.78-8.78Zm-2.39,28.52l-4.5-4.5,11.46-11.46,4.5,4.5-11.46,11.46Zm10-15.75l13.4-13.4c.1-.1.18-.22.23-.35l2.26-6,7.34-2.29.05.05-2.29,7.35-5.8,2.22c-.13.05-.25.13-.35.23l-13.53,13.53-1.32-1.32Zm22.09,14.83c-1.04,1.04-2.41,1.61-3.88,1.61s-2.84-.57-3.88-1.61c-1.57-1.57-2.04-3.92-1.19-5.97.15-.37.07-.8-.22-1.09l-7.61-7.61,2.1-2.1,7.61,7.61c.29.29.72.37,1.09.22,2.06-.85,4.4-.38,5.97,1.19,2.14,2.14,2.14,5.62,0,7.75Z" style="fill: #004a5a;"></path>
      <path d="m87.49,82.61c-.09-.35-.36-.62-.71-.71l-2.75-.74c-.34-.09-.71,0-.97.26l-2.01,2.01c-.25.25-.35.62-.26.97l.74,2.75c.09.34.36.61.71.71l2.75.74c.09.02.17.03.26.03.26,0,.52-.1.71-.29l2.01-2.01c.25-.25.35-.62.26-.97l-.74-2.75Zm-2.54,3.91l-1.64-.44-.44-1.64,1.2-1.2,1.64.44.44,1.64-1.2,1.2Z" style="fill: #004a5a;"></path>
      <path d="m50.57,80.97v-4.75c0-.93-.57-1.76-1.44-2.11-1.58-.64-3.06-1.5-4.39-2.53-.75-.58-1.75-.65-2.55-.19l-6.39,3.69c-.08.05-.16.04-.21.03s-.12-.05-.17-.13l-5.36-9.29c-.08-.14-.03-.31.1-.39l6.39-3.69c.81-.47,1.24-1.37,1.11-2.31-.12-.88-.18-1.71-.18-2.53s.06-1.65.18-2.53c.13-.94-.3-1.85-1.11-2.31l-6.39-3.69c-.08-.05-.12-.12-.13-.17-.01-.05-.02-.13.03-.21l5.36-9.29c.08-.13.25-.18.39-.1l6.39,3.69c.8.46,1.8.39,2.55-.19,1.33-1.03,2.81-1.89,4.39-2.53.88-.36,1.44-1.19,1.44-2.11v-7.39c0-.16.13-.28.28-.28h10.73c.16,0,.28.13.28.28v7.39c0,.93.57,1.76,1.44,2.11,1.58.64,3.06,1.5,4.39,2.53.75.58,1.75.65,2.55.19l6.39-3.69c.13-.08.31-.03.39.1l5.36,9.29c.05.08.04.16.03.21-.01.05-.05.12-.13.17l-6.39,3.69c-.81.47-1.24,1.37-1.11,2.31.12.87.18,1.72.18,2.53,0,.55.45,1,1,1s1-.45,1-1c0-.91-.07-1.85-.2-2.81-.02-.13.03-.24.13-.3l6.39-3.69c.53-.3.91-.8,1.06-1.39s.08-1.2-.23-1.73l-5.36-9.29c-.63-1.09-2.03-1.46-3.12-.84l-6.39,3.69c-.12.07-.24.02-.33-.04-1.48-1.15-3.11-2.09-4.86-2.8-.09-.04-.2-.13-.2-.26v-7.39c0-1.26-1.02-2.28-2.28-2.28h-10.73c-1.26,0-2.28,1.02-2.28,2.28v7.39c0,.13-.1.22-.2.26-1.75.71-3.39,1.66-4.86,2.8-.08.06-.21.1-.33.04l-6.39-3.69c-1.09-.63-2.49-.25-3.12.84l-5.36,9.29c-.63,1.09-.25,2.49.84,3.12l6.39,3.69c.1.06.15.17.13.3-.14.96-.2,1.9-.2,2.81s.07,1.85.2,2.81c.02.13-.03.24-.13.3l-6.39,3.69c-.53.31-.91.8-1.06,1.39s-.08,1.2.23,1.73l5.36,9.29c.3.53.8.91,1.39,1.06.59.16,1.2.08,1.73-.23l6.39-3.69c.12-.07.24-.02.33.04,1.48,1.15,3.12,2.09,4.86,2.8.09.04.2.13.2.26v4.75c0,.55.45,1,1,1s1-.45,1-1Z" style="fill: #004a5a;"></path>
      <path d="m56.22,45.1c-6.43,0-11.66,5.23-11.66,11.66s5.23,11.66,11.66,11.66c.55,0,1-.45,1-1s-.45-1-1-1c-5.33,0-9.66-4.33-9.66-9.66s4.33-9.66,9.66-9.66,9.66,4.33,9.66,9.66c0,.55.45,1,1,1s1-.45,1-1c0-6.43-5.23-11.66-11.66-11.66Z" style="fill: #004a5a;"></path>
    </g>
  </g>
</svg>
