<?xml version="1.0" encoding="UTF-8"?>
<svg xmlns="http://www.w3.org/2000/svg" viewBox="0 0 120 120">
  <g id="uuid-0327abe1-5b66-47ca-976d-7a9d753c648b" data-name="Kreis">
    <path d="m60,113.04c-29.24,0-53.04-23.79-53.04-53.04S30.76,6.96,60,6.96s53.04,23.79,53.04,53.04-23.79,53.04-53.04,53.04Zm0-104.18c-28.2,0-51.14,22.94-51.14,51.14s22.94,51.14,51.14,51.14,51.14-22.94,51.14-51.14S88.2,8.86,60,8.86Z" style="fill: #004a5a;"></path>
  </g>
  <g id="uuid-b788d2e7-0d0a-40eb-b335-c539152be0fe" data-name="Icons">
    <g>
      <path d="m86.34,63.89c2.21,0,4.01-1.8,4.01-4.01s-1.8-4.01-4.01-4.01c-1.94,0-3.56,1.38-3.93,3.21h-5.68c-.52-3.43-2.29-6.45-4.84-8.58l7.38-11.01c.82.41,1.75.64,2.73.64,3.41,0,6.18-2.77,6.18-6.18s-2.77-6.18-6.18-6.18-6.18,2.77-6.18,6.18c0,1.71.7,3.26,1.82,4.38l-7.38,11.02c-2.11-1.29-4.58-2.05-7.23-2.05-3.78,0-7.21,1.52-9.71,3.98l-9.8-7.85c.66-1.11,1.05-2.41,1.05-3.8,0-4.11-3.35-7.46-7.46-7.46s-7.46,3.35-7.46,7.46,3.35,7.46,7.46,7.46c2,0,3.82-.8,5.16-2.09l9.72,7.79c-1.78,2.33-2.85,5.23-2.85,8.39,0,3.84,1.57,7.32,4.1,9.83l-6.1,7.52c-.76-.41-1.62-.66-2.54-.66-2.97,0-5.39,2.42-5.39,5.39s2.42,5.39,5.39,5.39,5.39-2.42,5.39-5.39c0-1.33-.5-2.53-1.3-3.47l6.07-7.48c.34.25.69.49,1.05.71.07.05.13.1.21.13,2.06,1.21,4.44,1.91,6.99,1.91s4.94-.7,6.99-1.91c.08-.03.14-.08.21-.13.1-.06.21-.12.31-.19l4.5,6.47c-1.49,1.36-2.43,3.32-2.43,5.5,0,4.11,3.35,7.46,7.46,7.46s7.46-3.35,7.46-7.46-3.35-7.46-7.46-7.46c-1.22,0-2.37.3-3.38.82l-4.54-6.53c2.91-2.55,4.77-6.28,4.77-10.44,0-.03,0-.06,0-.09h5.63c.51,1.63,2.02,2.82,3.81,2.82Zm0-6.03c1.11,0,2.01.9,2.01,2.01s-.9,2.01-2.01,2.01-2.01-.9-2.01-2.01.9-2.01,2.01-2.01Zm-4.35-28.1c2.3,0,4.18,1.88,4.18,4.18s-1.88,4.18-4.18,4.18-4.18-1.88-4.18-4.18,1.88-4.18,4.18-4.18Zm-44.88,15.31c-3.01,0-5.46-2.45-5.46-5.46s2.45-5.46,5.46-5.46,5.46,2.45,5.46,5.46-2.45,5.46-5.46,5.46Zm7.5,41.56c-1.87,0-3.39-1.52-3.39-3.39s1.52-3.39,3.39-3.39,3.39,1.52,3.39,3.39-1.52,3.39-3.39,3.39Zm35.45-7.32c3.01,0,5.46,2.45,5.46,5.46s-2.45,5.46-5.46,5.46-5.46-2.45-5.46-5.46,2.45-5.46,5.46-5.46Zm-11.4-7.7c-1.68.91-3.6,1.43-5.63,1.43s-3.96-.52-5.63-1.43v-1.2c0-3.11,2.53-5.63,5.63-5.63s5.63,2.53,5.63,5.63v1.2Zm1.99-1.36c-.09-4.14-3.47-7.47-7.63-7.47s-7.54,3.34-7.63,7.47c-2.59-2.18-4.25-5.44-4.25-9.09,0-6.55,5.33-11.88,11.88-11.88s11.88,5.33,11.88,11.88c0,3.65-1.65,6.91-4.25,9.09Z" style="fill: #004a5a;"></path>
      <path d="m63.05,51.6c-2.6,0-4.71,2.11-4.71,4.71s2.11,4.71,4.71,4.71,4.71-2.11,4.71-4.71-2.11-4.71-4.71-4.71Zm0,7.42c-1.49,0-2.71-1.22-2.71-2.71s1.22-2.71,2.71-2.71,2.71,1.22,2.71,2.71-1.22,2.71-2.71,2.71Z" style="fill: #004a5a;"></path>
    </g>
  </g>
</svg>
