<?xml version="1.0" encoding="UTF-8"?>
<svg xmlns="http://www.w3.org/2000/svg" width="176" height="176" viewBox="0 0 176 176">
  <defs>
    <style>.cls-1{fill:none;}.cls-2{fill:#004a5a;}.cls-3{fill:#fff;}</style>
  </defs>
  <g id="Illustrationen">
    <g>
      <path class="cls-3" d="M114.69,19.41l-1.3,1.5c-.4,.46-.35,1.13,.09,1.55,10.46,9.83,17.01,23.78,17.01,39.23s-7.01,30.38-18.12,40.25c-.7,.62-.78,1.67-.17,2.38l13.95,16.09c.53,.62,1.5,.63,2.04,.02,10.61-12.08,17.06-27.9,17.06-45.2,0-23.1-11.48-43.57-29.03-56-.48-.34-1.14-.25-1.52,.19Z"></path>
      <g>
        <path class="cls-2" d="M159.89,125.52c-1-2.47-4.45-7.9-14.73-4.88-2.23,.66-4.41,1.74-6.4,3.18l-14.75,8.85c-1.75-2.18-4.05-3.6-5.98-4.21-1.35-.43-2.78-.68-4.26-.74l-22.82-.95c-1.53-.06-3.05-.27-4.54-.62l-13.33-3.1c-5.7-1.63-11.9-1.05-17.2,1.61-22.99-9.08-37.85-30.91-37.85-55.64,0-32.97,26.83-59.8,59.8-59.8,9.96,0,19.81,2.5,28.5,7.22,.49,.26,1.09,.08,1.36-.4,.26-.49,.08-1.09-.4-1.36-8.98-4.88-19.17-7.46-29.46-7.46-34.08,0-61.8,27.72-61.8,61.8,0,25.02,14.71,47.17,37.62,56.89l-27.34,15.98c-.48,.28-.64,.89-.36,1.37,.28,.48,.89,.64,1.37,.36l28.59-16.71c5.02-2.82,11.08-3.52,16.66-1.92l13.38,3.11c1.61,.37,3.26,.6,4.91,.67l22.82,.95c1.3,.05,2.55,.27,3.74,.65,1.76,.56,3.89,1.92,5.39,4.03,.02,.04,.04,.08,.06,.12,.04,.07,.1,.14,.15,.2,1.07,1.63,1.76,3.69,1.66,6.14l-35.05-.62h-.02c-.54,0-.99,.44-1,.98,0,.55,.43,1.01,.98,1.02l35.99,.63h.02c.51,0,.93-.38,.99-.88,.36-3.04-.29-5.6-1.46-7.66l14.73-8.84c1.88-1.36,3.85-2.34,5.87-2.93,7.66-2.25,10.77,.66,12,3.05l-21.65,17.35-.55,.42c-1.98,1.49-3.69,2.78-5.62,3.83l-27.2,12.33s-.06,.03-.09,.05c-1.82,1.07-3.96,1.46-6.07,1.09l-31.03-4.41c-1.63-.31-3.31,0-4.71,.89l-15.6,9.79c-.47,.29-.61,.91-.32,1.38,.19,.3,.52,.47,.85,.47,.18,0,.37-.05,.53-.15l15.6-9.79c.98-.61,2.14-.83,3.32-.61l31.05,4.42c2.53,.45,5.14-.02,7.35-1.31l27.22-12.34c2.13-1.15,3.98-2.55,5.93-4.02l22.85-18.29c.34-.28,.47-.75,.3-1.16Z"></path>
        <path class="cls-2" d="M99.63,36.72l-2.64,2.64c-.49,.49-1.25,.58-1.84,.23-3.16-1.92-6.59-3.31-10.18-4.13-.7-.16-1.19-.77-1.19-1.47v-3.82c0-1.94-1.58-3.51-3.52-3.51h-6.9c-1.94,0-3.52,1.58-3.52,3.51v3.97c0,.69-.47,1.29-1.13,1.46-3.53,.88-6.89,2.3-9.98,4.22-.6,.37-1.36,.28-1.86-.22l-2.88-2.88c-1.37-1.37-3.6-1.37-4.97,0l-4.88,4.87c-.66,.66-1.03,1.55-1.03,2.49,0,.94,.37,1.82,1.03,2.49l2.95,2.95c.49,.49,.58,1.25,.22,1.84-1.87,3.07-3.24,6.4-4.07,9.9-.16,.68-.76,1.15-1.46,1.15h-4.2c-1.94,0-3.52,1.58-3.52,3.51v6.89c0,1.94,1.58,3.51,3.52,3.51h4.2c.7,0,1.3,.47,1.46,1.15,.83,3.5,2.2,6.83,4.07,9.91,.36,.59,.27,1.35-.22,1.84l-2.95,2.95c-1.37,1.37-1.37,3.6,0,4.97l4.88,4.88c1.33,1.33,3.64,1.33,4.97,0l2.88-2.88c.5-.5,1.26-.59,1.86-.22,3.09,1.93,6.45,3.35,9.98,4.22,.67,.17,1.13,.77,1.13,1.46v3.97c0,1.94,1.58,3.51,3.52,3.51h6.9c1.94,0,3.52-1.58,3.52-3.51v-3.83c0-.71,.48-1.31,1.16-1.47,3.6-.82,7.03-2.21,10.2-4.14,.59-.36,1.35-.26,1.84,.23l2.64,2.64c1.33,1.33,3.64,1.33,4.97,0l4.88-4.88c.66-.66,1.03-1.55,1.03-2.49s-.37-1.82-1.03-2.49l-2.56-2.56c-.5-.5-.59-1.26-.22-1.85,1.98-3.19,3.43-6.64,4.29-10.26,.17-.69,.77-1.17,1.47-1.17h3.58c1.94,0,3.52-1.58,3.52-3.52v-6.89c0-1.94-1.58-3.51-3.52-3.51h-3.58c-.7,0-1.3-.48-1.47-1.17-.86-3.62-2.31-7.07-4.29-10.26-.37-.59-.28-1.36,.22-1.85l2.56-2.56c.66-.66,1.03-1.55,1.03-2.49,0-.94-.37-1.82-1.03-2.49l-4.88-4.87c-1.37-1.37-3.6-1.37-4.97,0Zm8.88,7.36c0,.4-.16,.79-.44,1.07l-2.56,2.56c-1.16,1.16-1.37,2.94-.5,4.33,1.87,3,3.23,6.26,4.04,9.67,.38,1.59,1.79,2.71,3.42,2.71h3.58c.84,0,1.52,.68,1.52,1.51v6.89c0,.84-.68,1.52-1.52,1.52h-3.58c-1.63,0-3.03,1.11-3.42,2.71-.81,3.41-2.18,6.67-4.04,9.67-.86,1.39-.66,3.17,.5,4.32l2.56,2.56c.29,.29,.44,.67,.44,1.07s-.16,.79-.44,1.07l-4.88,4.88c-.57,.57-1.57,.57-2.14,0l-2.64-2.64c-1.15-1.14-2.91-1.36-4.29-.52-2.99,1.81-6.22,3.12-9.61,3.9-1.6,.36-2.72,1.77-2.72,3.42v3.83c0,.83-.68,1.51-1.52,1.51h-6.9c-.84,0-1.52-.68-1.52-1.51v-3.97c0-1.61-1.09-3.01-2.65-3.4-3.33-.83-6.49-2.17-9.4-3.98-.57-.36-1.22-.53-1.85-.53-.9,0-1.8,.35-2.48,1.03l-2.88,2.88c-.57,.57-1.57,.57-2.14,0l-4.88-4.88c-.59-.59-.59-1.55,0-2.14l2.95-2.95c1.14-1.14,1.36-2.91,.52-4.29-1.76-2.9-3.05-6.04-3.83-9.34-.38-1.58-1.78-2.69-3.41-2.69h-4.2c-.84,0-1.52-.68-1.52-1.51v-6.89c0-.84,.68-1.51,1.52-1.51h4.2c1.63,0,3.03-1.1,3.41-2.69,.78-3.3,2.07-6.44,3.83-9.33,.84-1.38,.63-3.15-.52-4.3l-2.95-2.95c-.29-.29-.44-.67-.44-1.07s.16-.79,.44-1.07l4.88-4.87c.59-.59,1.55-.59,2.14,0l2.88,2.88c1.16,1.16,2.94,1.36,4.33,.5,2.91-1.81,6.07-3.15,9.4-3.98,1.56-.39,2.65-1.79,2.65-3.4v-3.97c0-.83,.68-1.51,1.52-1.51h6.9c.84,0,1.52,.68,1.52,1.51v3.82c0,1.65,1.13,3.05,2.74,3.42,3.38,.77,6.6,2.08,9.58,3.89,1.38,.84,3.14,.62,4.29-.52l2.64-2.64c.59-.59,1.55-.59,2.14,0l4.88,4.87c.29,.29,.44,.67,.44,1.07Z"></path>
        <path class="cls-2" d="M99.17,44.63c-.36-.36-.93-.39-1.32-.08l-5.36,4.21s-.06,.05-.09,.08c-.66,.66-1.03,1.57-1.03,2.49l-13.3,13.3-5.52-5.52c.5-1.23,.75-2.53,.75-3.88,0-5.75-4.68-10.43-10.43-10.43-.54,0-1.08,.04-1.61,.12-.37,.06-.68,.32-.8,.68-.12,.36-.02,.75,.24,1.02l5.4,5.4c.37,.37,.37,.98,0,1.35l-4.66,4.66c-.37,.37-.98,.37-1.35,0l-5.68-5.69c-.26-.26-.63-.35-.98-.25-.35,.1-.62,.38-.7,.73-.19,.79-.28,1.59-.28,2.4,0,5.75,4.68,10.43,10.43,10.43,1.32,0,2.6-.24,3.82-.72l2.84,2.84-1.68,1.68c-.3,.3-.38,.76-.19,1.14,.57,1.18,.41,1.61,.42,1.61-.02,.01-.45,.17-1.63-.4-.38-.19-.84-.11-1.14,.19l-10.31,10.31c-2.41,2.41-2.41,6.32,0,8.73,1.17,1.17,2.72,1.81,4.37,1.81s3.2-.64,4.37-1.81l10.31-10.31c.3-.3,.38-.76,.19-1.14-.57-1.18-.41-1.61-.42-1.61,.03-.01,.45-.17,1.63,.4,.38,.19,.84,.11,1.14-.19l1.68-1.68,15.91,15.91c.81,.81,1.86,1.21,2.92,1.21s2.12-.4,2.92-1.21c1.61-1.61,1.61-4.23,0-5.84l-18.32-18.32,13.39-13.39c.87-.04,1.7-.41,2.32-1.03,.02-.02,.05-.05,.07-.08l4.28-5.29c.32-.4,.29-.97-.07-1.34l-2.51-2.51Zm-23.53,31.67c-1.76-.67-2.73-.25-3.24,.26-.51,.51-.93,1.48-.26,3.24l-9.83,9.83c-.79,.79-1.84,1.22-2.95,1.22s-2.16-.43-2.95-1.22c-1.63-1.63-1.63-4.27,0-5.9l9.83-9.83c1.76,.67,2.73,.25,3.24-.26,.51-.51,.94-1.48,.26-3.24l1.2-1.2,5.9,5.9-1.2,1.2Zm22.95,11.7c.4,.4,.62,.94,.62,1.51s-.22,1.1-.62,1.51c-.8,.8-2.21,.8-3.01,0l-16.62-16.62h0l-11.35-11.35c-.19-.19-.45-.29-.71-.29-.15,0-.29,.03-.43,.1-1.13,.54-2.35,.81-3.61,.81-4.65,0-8.43-3.78-8.43-8.43h0l4.23,4.22c1.15,1.15,3.03,1.15,4.18,0l4.66-4.66c1.15-1.15,1.15-3.03,0-4.18l-3.76-3.76c4.23,.45,7.53,4.03,7.53,8.38,0,1.29-.28,2.52-.84,3.67-.19,.38-.11,.84,.19,1.14l6.71,6.71h0l2.21,2.21h0l19.02,19.02Zm-2.64-35.53c-.32,.3-.76,.45-1.19,.41-.3-.03-.59,.08-.8,.29l-13.69,13.69-.8-.8,13.62-13.62c.22-.22,.33-.54,.28-.86-.07-.47,.07-.94,.39-1.28l4.61-3.62,1.25,1.25-3.68,4.54Z"></path>
        <path class="cls-2" d="M68.14,78.81l-9.11,9.12c-.39,.39-.39,1.02,0,1.41,.2,.2,.45,.29,.71,.29s.51-.1,.71-.29l9.11-9.11c.39-.39,.39-1.02,0-1.41-.39-.39-1.02-.39-1.41,0Z"></path>
        <path class="cls-2" d="M67.2,76.46c-.39-.39-1.02-.39-1.41,0l-9.12,9.12c-.39,.39-.39,1.02,0,1.41,.2,.2,.45,.29,.71,.29s.51-.1,.71-.29l9.12-9.11c.39-.39,.39-1.02,0-1.41Z"></path>
      </g>
    </g>
  </g>
  <g id="Rahmen">
    <rect class="cls-1" x="0" width="176" height="176"></rect>
  </g>
</svg>
