<?xml version="1.0" encoding="UTF-8"?>
<svg xmlns="http://www.w3.org/2000/svg" width="176" height="176" viewBox="0 0 176 176">
  <defs>
    <style>.cls-1{fill:none;}.cls-2{fill:#004a5a;}.cls-3{fill:#64dca0;}</style>
  </defs>
  <g id="Ebene_1">
    <g id="news-icn" transform="translate(1.15 1.15)">
      <path id="kalo-swoosh" class="cls-3" d="M65.85,63.29l-.65,.74c-.2,.23-.18,.57,.04,.77,10.78,10.03,11.4,26.89,1.37,37.68-.61,.66-1.25,1.28-1.92,1.87-.35,.3-.39,.83-.09,1.18l6.97,8.01c.25,.28,.68,.31,.96,.07,.02-.02,.04-.04,.06-.06,5.5-6.2,8.53-14.2,8.53-22.49,0-11.1-5.42-21.49-14.51-27.86-.24-.17-.57-.13-.76,.09"></path>
      <g>
        <path class="cls-2" d="M61.21,59.97c-4.53-2.13-9.57-3.26-14.57-3.26-18.76,0-34.03,15.2-34.03,33.87,0,13.25,7.8,25.34,19.87,30.81,.13,.06,.27,.09,.41,.09,.38,0,.74-.22,.91-.59,.23-.5,0-1.1-.5-1.32-11.35-5.15-18.69-16.53-18.69-28.99,0-17.58,14.37-31.87,32.03-31.87,4.71,0,9.46,1.06,13.72,3.07,.5,.24,1.1,.02,1.33-.48s.02-1.1-.48-1.33Z"></path>
        <path class="cls-2" d="M166.16,6.83H79.41c-1.22,.02-2.41,.48-3.29,1.35s-1.37,2.04-1.37,3.29V46.99H12.2c-3.86,0-7,3.13-7.01,7V123.94c0,3.86,3.15,6.99,7.01,6.99h21.01c-.22,1.72,.26,3.69,1.47,5.88l8.69,14.44c.2,.27,4.91,6.49,12.69,8.53l4.56,8.84c.18,.34,.53,.54,.89,.54,.15,0,.31-.04,.46-.11,.49-.25,.68-.86,.43-1.35l-4.76-9.24c-.13-.26-.37-.45-.66-.51-7.03-1.68-11.58-7.36-11.98-7.86l-8.59-14.28c-1.15-2.08-1.52-3.84-1.09-5.25,.41-1.36,1.44-1.91,1.53-1.96,1.85-1.08,2.97-.34,3.49,.22,.01,.02,.02,.04,.04,.05l1.15,1.52c.2,.26,.5,.4,.8,.4,.21,0,.42-.07,.6-.2,.44-.33,.53-.96,.19-1.4l-.8-1.05c-.06-.09-.19-.28-.38-.51-.32-.41-.59-.85-.8-1.31-1.29-2.91,.92-4.09,1.37-4.29,.03-.02,.07-.03,.1-.05,2.54-1.47,4.32,.36,4.83,.99l.88,1.17c.2,.26,.5,.4,.8,.4,.21,0,.42-.07,.6-.2,.44-.33,.53-.96,.2-1.4l-.7-.93h0c-.07-.11-.15-.21-.24-.32l-1.62-2.15c-.76-1.1-1.03-2.11-.81-2.99,.33-1.31,1.66-2.04,1.65-2.04,1.07-.48,2.06-.53,3-.16,1.56,.61,2.64,2.21,3.13,3.08l1.19,2.33c.25,.49,.85,.69,1.35,.44s.69-.85,.44-1.35l-.85-1.66c-.04-.1-.17-.36-.37-.72l-7.97-15.58c-1.97-3.59-2.37-5.87-2.36-7.16,0-.3,.07-.59,.2-.86,.23-.47,.64-.83,1.14-1s1.04-.13,1.46,.08c.8,.45,1.51,1.08,1.98,1.76l23.55,41.59c.18,.33,.52,.51,.87,.51,.17,0,.34-.04,.49-.13,.48-.27,.65-.88,.38-1.36l-1.91-3.37,2.2-11.03s1.07-3.43,3.81-4.67c1.4-.63,3.03-.61,4.87,.06l-2.01,7.35c-.65,2.35-1.05,4.75-1.25,7.17,0,.04-.02,.08-.02,.12,0,.02,0,.03,0,.04-.1,1.2-.16,2.4-.14,3.61,.07,5.11-.23,14.56-3.05,20.37-.13,.27-.13,.58,0,.85l5.99,13.12c.17,.37,.53,.58,.91,.58,.14,0,.28-.03,.41-.09,.5-.23,.72-.82,.49-1.33l-5.8-12.7c2.67-5.87,3.14-14.53,3.05-20.84-.01-.88,0-1.75,.06-2.63h35.72c3.86,0,7-3.13,7.01-7v-54.75h39.97c2.54,.01,4.65-2.08,4.66-4.64V11.47c0-2.56-2.09-4.64-4.65-4.64ZM49.5,90.17c-.95-.47-2.03-.54-3.04-.2-1.01,.34-1.82,1.05-2.29,2-.26,.53-.41,1.13-.41,1.72-.02,2.22,.85,4.96,2.59,8.12l2.85,5.57c-.85,.13-1.7,.22-2.56,.22h0c-4.52,0-8.77-1.78-11.96-4.98-3.19-3.2-4.94-7.46-4.93-11.98,0-4.52,1.78-8.77,4.98-11.96,3.2-3.18,7.44-4.93,11.95-4.93h.04c9.33,.02,16.91,7.63,16.89,16.96,0,4.74-1.99,9.18-5.44,12.37l-5.92-10.45c-.7-1-1.63-1.84-2.74-2.46Zm35.23,33l2.25-8.2c.13-.47-.1-.97-.55-1.18-2.71-1.23-5.18-1.36-7.32-.38-3.57,1.63-4.84,5.73-4.91,6l-1.77,8.86-13.24-23.39c4.08-3.59,6.41-8.7,6.42-14.17,.02-10.44-8.45-18.95-18.89-18.97h-.04c-5.04,0-9.78,1.96-13.36,5.52-3.58,3.57-5.56,8.32-5.57,13.37-.01,5.06,1.95,9.81,5.52,13.4,3.57,3.58,8.32,5.56,13.38,5.57h0c1.18,0,2.36-.12,3.52-.33l1.61,3.16c-1.41-.5-2.88-.42-4.44,.27-.09,.04-2.16,1.13-2.72,3.34-.28,1.08-.14,2.22,.4,3.4-1.02-.11-2.15,.08-3.37,.78-.34,.16-1.92,1-2.6,2.75-.37,.95-.41,1.99-.11,3.09-.86-.07-1.88,.1-3.04,.78-.06,.03-1.25,.65-2.04,2.09H12.2c-2.76,0-5-2.24-5.01-5V53.99c0-2.76,2.25-5,5.01-5h62.54v15.56c0,2.56,2.09,4.64,4.65,4.64h16.02l.13,6.44c0,.41,.27,.77,.65,.92,.11,.04,.23,.06,.35,.06,.28,0,.55-.12,.74-.33l6.41-7.09h4.47v59.75h-24.53c.22-1.94,.57-3.87,1.09-5.75Zm39.46,.75c0,2.76-2.29,4.98-5.03,5h-8.99v-59.75h14.01v54.75Zm44.63-59.39c0,1.46-1.19,2.64-2.65,2.64h-40.76c-.07-.02-.14-.04-.22-.04s-.15,.03-.22,.04h-15.57c-.07-.02-.14-.04-.22-.04s-.15,.03-.22,.04h-5.69c-.28,0-.55,.12-.74,.33l-5.02,5.55-.1-4.9c-.01-.54-.46-.98-1-.98h-16.99c-1.45,.04-2.65-1.18-2.66-2.64V11.47c0-.71,.28-1.37,.78-1.87s1.17-.79,1.88-.77h86.75c1.47-.04,2.65,1.18,2.66,2.64v53.07Z"></path>
        <path class="cls-2" d="M114.08,92.13c.84,.83,1.95,1.29,3.13,1.29h.02c2.45-.01,4.43-2.01,4.42-4.46,0-2.44-1.99-4.43-4.45-4.43h0c-2.45,.01-4.43,2.01-4.42,4.46,0,1.19,.47,2.3,1.31,3.14Zm3.13-5.6h0c1.34,0,2.43,1.09,2.44,2.43h0c0,1.35-1.09,2.45-2.43,2.46-.62,0-1.27-.25-1.73-.71s-.72-1.07-.72-1.73c0-1.35,1.09-2.45,2.45-2.45Z"></path>
        <path class="cls-2" d="M155.31,15.9h-30.42c-.55,0-1,.45-1,1s.45,1,1,1h30.42c.55,0,1-.45,1-1s-.45-1-1-1Z"></path>
        <path class="cls-2" d="M124.89,47.64h24.58c.55,0,1-.45,1-1s-.45-1-1-1h-24.58c-.55,0-1,.45-1,1s.45,1,1,1Z"></path>
        <path class="cls-2" d="M155.31,35.72h-30.42c-.55,0-1,.45-1,1s.45,1,1,1h30.42c.55,0,1-.45,1-1s-.45-1-1-1Z"></path>
        <path class="cls-2" d="M124.89,27.81h24.58c.55,0,1-.45,1-1s-.45-1-1-1h-24.58c-.55,0-1,.45-1,1s.45,1,1,1Z"></path>
        <path class="cls-2" d="M155.31,55.55h-30.42c-.55,0-1,.45-1,1s.45,1,1,1h30.42c.55,0,1-.45,1-1s-.45-1-1-1Z"></path>
        <path class="cls-2" d="M110.73,45.64h-20.48c-.55,0-1,.45-1,1s.45,1,1,1h20.48c.55,0,1-.45,1-1s-.45-1-1-1Z"></path>
        <path class="cls-2" d="M110.73,55.55h-20.48c-.55,0-1,.45-1,1s.45,1,1,1h20.48c.55,0,1-.45,1-1s-.45-1-1-1Z"></path>
        <path class="cls-2" d="M116.86,15.9h-26.62c-.55,0-1,.45-1,1v20.41c0,.55,.45,1,1,1h26.62c.55,0,1-.45,1-1V16.9c0-.55-.45-1-1-1Zm-1,20.41h-24.62V17.9h24.62v18.41Z"></path>
      </g>
    </g>
  </g>
  <g id="Ebene_2">
    <rect class="cls-1" width="176" height="176"></rect>
  </g>
</svg>
