<?xml version="1.0" encoding="UTF-8"?>
<svg xmlns="http://www.w3.org/2000/svg" id="Ebene_1" viewBox="0 0 176 176">
  <defs>
    <style>.cls-1{fill:#fff;}.cls-2{fill:#64dca0;}</style>
  </defs>
  <path class="cls-1" d="m146.63,39.48h0c-.55,0-1,.45-1,1,0,.55.44,1,1,1,4.04.01,7.35,3.31,7.36,7.36,0,.55.45,1,1,1h0c.55,0,1-.45,1-1-.02-5.14-4.21-9.34-9.35-9.35Z"></path>
  <path class="cls-1" d="m146.6,28.63h0c-.55,0-1,.45-1,1,0,.55.44,1,1,1,10.03.03,18.2,8.21,18.23,18.23,0,.55.45,1,1,1h0c.55,0,1-.45,1-1-.03-11.11-9.1-20.19-20.22-20.22Z"></path>
  <path class="cls-1" d="m146.62,34.25h0c-.55,0-1,.45-1,1,0,.55.45,1,1,1,6.93.02,12.58,5.67,12.6,12.6,0,.55.45,1,1,1h0c.55,0,1-.45,1-1-.02-8.02-6.57-14.57-14.59-14.59Z"></path>
  <path class="cls-1" d="m117.65,86.38c-2.23,1.18-4.75,1.8-7.29,1.8-.06,0-.12,0-.17.02-1.29-.02-2.61-.2-4.01-.58-.38-.1-.75-.23-1.19-.38-.02-.01-.05-.02-.07-.03-6.08-2.27-10.17-8.14-10.17-14.57,0-.02,0-.05,0-.07,0-8.6,7.01-15.6,15.61-15.6,1.71,0,3.38.27,4.98.81.52.18,1.09-.11,1.27-.63.18-.52-.11-1.09-.63-1.27-1.81-.61-3.7-.92-5.62-.92-4.7,0-9.13,1.83-12.45,5.16-3.33,3.33-5.16,7.75-5.16,12.47,0,7.27,4.57,13.87,11.37,16.45.03.01.05.02.08.04l.11.04c.44.16.88.3,1.33.43,0,0,.1.03.1.03,1.54.42,3.09.63,4.61.63.06,0,.13,0,.19-.02,2.8-.03,5.58-.73,8.04-2.04.49-.26.67-.86.42-1.35-.26-.49-.86-.67-1.35-.42Z"></path>
  <path class="cls-2" d="m121.27,59.36c-.12-.09-.3-.07-.4.05l-.34.39c-.1.12-.09.3.02.4,2.73,2.56,4.44,6.2,4.44,10.24s-1.83,7.92-4.73,10.5c-.18.16-.21.44-.05.62l3.64,4.2c.14.16.39.16.53,0,2.77-3.15,4.45-7.28,4.45-11.79,0-6.03-3-11.37-7.57-14.61Z"></path>
  <path class="cls-1" d="m103.58,72.9l-2.72,2.72c-.3.25-.46.54-.46.86v.41c0,.41.26.67.67.67h5.71c.42,0,.69-.26.69-.67v-.53c0-.41-.27-.67-.69-.67h-3.14l1.84-1.87c.59-.51,1.04-1.01,1.33-1.49.31-.51.47-1.07.47-1.67,0-1.2-.49-2.09-1.46-2.65-.49-.27-1.11-.41-1.87-.41-1.06,0-1.9.33-2.5.98-.58.63-.89,1.37-.92,2.2,0,.37.26.62.65.62h.67c.37,0,.64-.23.71-.62.06-.43.2-.75.45-.98.24-.22.55-.33.94-.33.43,0,.75.1.96.31.21.21.31.51.31.92,0,.43-.2.84-.61,1.26-.2.22-.54.53-1.03.94Z"></path>
  <path class="cls-1" d="m109.88,75.69c-.42,0-.69.26-.69.67v.53c0,.19.07.36.21.49.13.12.29.18.48.18h5.46c.42,0,.69-.26.69-.67v-.53c0-.41-.27-.67-.69-.67h-1.62v-7.26c0-.19-.07-.35-.19-.48-.13-.13-.29-.19-.48-.19h-.66c-.24,0-.43.06-.55.17l-2.38,1.83c-.21.13-.28.3-.3.41-.04.18,0,.36.14.56l.31.4c.23.32.6.38.96.14l1.13-.87v5.29h-1.83Z"></path>
  <path class="cls-1" d="m119.66,68.24c-.43-.41-.98-.62-1.62-.62s-1.17.21-1.61.63c-.44.42-.67.96-.67,1.59s.22,1.14.65,1.57c.43.43.98.65,1.63.65s1.19-.22,1.62-.65c.43-.43.66-.96.66-1.57s-.22-1.17-.66-1.59Zm-1.01,1.59c0,.19-.05.34-.16.45-.22.22-.67.22-.89,0-.11-.11-.16-.25-.16-.45s.05-.34.16-.45c.22-.22.67-.22.89,0,.11.11.16.25.16.45Z"></path>
  <path class="cls-1" d="m147.81,49.28c-.73-.95-1.88-1.51-3.08-1.51h-12.82s-43.56.74-43.56.74c-2.28.04-4.47,1.04-5.99,2.73-.85.95-1.32,2.18-1.32,3.46v3.09h-10.08c-.49-7.97-7.12-14.31-15.21-14.31H9.46c-.55,0-1,.45-1,1s.45,1,1,1h46.29c7.31,0,13.26,5.95,13.26,13.26v88.62c0,.55.45,1,1,1s1-.45,1-1v-59.7h10.03v3.23c0,1.28.47,2.51,1.32,3.46,1.52,1.7,3.71,2.69,5.99,2.73l43.58.74h12.81c1.19,0,2.34-.56,3.08-1.51h0c.33-.43.56-.9.69-1.4,1.95-7.7,1.97-21.54,1.97-22.12s-.02-14.42-1.97-22.12c-.13-.5-.36-.97-.69-1.4Zm-66.77,36.38h-10.03v-25.87h10.03v25.87Zm2.81,7.35c-.52-.58-.81-1.34-.81-2.12v-36.2c0-.78.29-1.54.81-2.12.52-.57,1.14-1.04,1.81-1.38-.2.85-.25,1.62-.26,1.89v39.49c.01.24.06.99.26,1.81-.67-.34-1.29-.8-1.81-1.38Zm4.54,2.07c-.12,0-.24-.02-.36-.02-.38-.58-.59-1.8-.63-2.53v-39.4c.03-.75.26-2.01.64-2.6.12,0,.23-.02.35-.02l43.54-.74h3.17v46.06h-3.16l-43.56-.74Zm58.17-.66c-.06.23-.17.46-.33.67-.35.46-.91.73-1.49.73h-7.63s0-46.06,0-46.06h7.63c.58,0,1.14.27,1.49.73.16.21.27.43.33.67,1.89,7.46,1.91,21.49,1.91,21.63s-.02,14.17-1.91,21.63Z"></path>
  <path class="cls-1" d="m72.95,64.93h6.14c.55,0,1-.45,1-1s-.45-1-1-1h-6.14c-.55,0-1,.45-1,1s.45,1,1,1Z"></path>
  <path class="cls-1" d="m72.95,70.84h6.14c.55,0,1-.45,1-1s-.45-1-1-1h-6.14c-.55,0-1,.45-1,1s.45,1,1,1Z"></path>
  <path class="cls-1" d="m72.95,82.68h6.14c.55,0,1-.45,1-1s-.45-1-1-1h-6.14c-.55,0-1,.45-1,1s.45,1,1,1Z"></path>
  <path class="cls-1" d="m72.95,76.76h6.14c.55,0,1-.45,1-1s-.45-1-1-1h-6.14c-.55,0-1,.45-1,1s.45,1,1,1Z"></path>
  <path class="cls-1" d="m38.51,73.03c-.55,0-1,.45-1,1v73.34c0,.55.45,1,1,1s1-.45,1-1v-73.34c0-.55-.45-1-1-1Z"></path>
  <path class="cls-1" d="m9.46,73.03c-.55,0-1,.45-1,1v73.34c0,.55.45,1,1,1s1-.45,1-1v-73.34c0-.55-.45-1-1-1Z"></path>
</svg>
