<?xml version="1.0" encoding="UTF-8"?><svg id="Ebene_1" xmlns="http://www.w3.org/2000/svg" width="50" height="50" viewBox="0 0 50 50"><defs><style>.cls-1{fill:#004a5a;}</style></defs><path class="cls-1" d="M24.8457,6.6201C14.9741,6.6201,6.9429,14.6514,6.9429,24.5229s8.0312,17.9028,17.9028,17.9028,17.9033-8.0312,17.9033-17.9028S34.7178,6.6201,24.8457,6.6201Zm0,33.8057c-8.769,0-15.9028-7.1338-15.9028-15.9028s7.1338-15.9028,15.9028-15.9028,15.9033,7.1338,15.9033,15.9028-7.1338,15.9028-15.9033,15.9028Z"/><path class="cls-1" d="M31.542,27.6943l-5.897-3.7227V12.252c0-.5522-.4478-1-1-1s-1,.4478-1,1v11.8091c0,.6348,.3203,1.2158,.8564,1.5537l5.9722,3.771c.166,.1045,.3506,.1543,.5332,.1543,.332,0,.6562-.165,.8467-.4658,.2949-.4678,.1553-1.085-.3115-1.3799Z"/></svg>