<svg xmlns="http://www.w3.org/2000/svg" width="182" height="204" viewBox="0 0 182 204"><g><g><g><path fill="none" stroke="#fff" stroke-linecap="round" stroke-linejoin="round" stroke-miterlimit="20" stroke-width="3.4" d="M28.293 172.9v0l33.272-19.45a26.434 26.434 0 0 1 20.217-2.352l15.56 3.62c1.803.419 3.644.67 5.495.746l26.541 1.105c1.578.066 3.143.327 4.648.806 4.121 1.308 10.14 6.296 9.166 14.493l-41.866-.737v0"/></g><g><path fill="none" stroke="#fff" stroke-linecap="round" stroke-linejoin="round" stroke-miterlimit="20" stroke-width="3.4" d="M140.627 161.923v0l16.466-10.056c2.181-1.578 4.594-2.83 7.179-3.588 9.473-2.781 14.032.825 15.728 5l-25.92 20.776c-2.53 1.908-4.774 3.651-7.394 5.07l-31.64 14.344a11.493 11.493 0 0 1-7.816 1.413l-36.149-5.143a6.458 6.458 0 0 0-4.641.876L48.29 202v0"/></g><g><path fill="none" stroke="#fff" stroke-linecap="round" stroke-linejoin="round" stroke-miterlimit="20" stroke-width="3.4" d="M61.249 152.917c-25.486-10.45-43.44-35.508-43.44-64.76 0-38.637 31.324-69.96 69.965-69.96 11.975 0 23.251 3.01 33.108 8.315"/></g><g><path fill="#64dca0" d="M128.5 30.982l-1.508 1.74c-.46.53-.41 1.317.102 1.8 12.172 11.432 19.792 27.662 19.792 45.638 0 18.601-8.16 35.332-21.081 46.816-.813.72-.914 1.943-.203 2.762l16.226 18.718c.623.718 1.75.734 2.375.023 12.344-14.052 19.843-32.453 19.843-52.575 0-26.875-13.357-50.677-33.77-65.141a1.337 1.337 0 0 0-1.776.22"/></g><g><path fill="none" stroke="#fff" stroke-linecap="round" stroke-linejoin="round" stroke-miterlimit="20" stroke-width="3.4" d="M61.887 114.478a1.174 1.174 0 0 1-1.174-1.174V75.04c0-.648.526-1.174 1.174-1.174h55.742c.648 0 1.173.525 1.173 1.173v38.265c0 .649-.525 1.174-1.174 1.174z"/></g><g><path fill="none" stroke="#fff" stroke-linecap="round" stroke-linejoin="round" stroke-miterlimit="20" stroke-width="3.4" d="M79.53 73.835v0-6.497c0-1.935 1.603-3.503 3.581-3.503h13.284c1.978 0 3.58 1.568 3.58 3.503v6.497"/></g><g><path fill="none" stroke="#fff" stroke-linecap="round" stroke-linejoin="round" stroke-miterlimit="20" stroke-width="3.4" d="M60.713 93.48h58.09"/></g><g><path fill="none" stroke="#fff" stroke-linecap="round" stroke-linejoin="round" stroke-miterlimit="20" stroke-width="3.4" d="M83.724 86.72H95.78"/></g><g><g><path fill="#004a5a" d="M105.875 19.963c0 9.921-8.042 17.963-17.963 17.963-9.921 0-17.966-8.042-17.966-17.963C69.946 10.042 77.99 2 87.912 2c9.921 0 17.963 8.042 17.963 17.963"/></g><g><path fill="none" stroke="#fff" stroke-linecap="round" stroke-linejoin="round" stroke-miterlimit="20" stroke-width="3.4" d="M105.875 19.963c0 9.921-8.042 17.963-17.963 17.963-9.921 0-17.966-8.042-17.966-17.963C69.946 10.042 77.99 2 87.912 2c9.921 0 17.963 8.042 17.963 17.963z"/></g></g><g><g><path fill="#004a5a" d="M2 76.415v-35.93h35.93v35.93z"/></g><g><path fill="none" stroke="#fff" stroke-linecap="round" stroke-linejoin="round" stroke-miterlimit="20" stroke-width="3.4" d="M2 76.415v0-35.93 0h35.93v35.93z"/></g></g><g><g><path fill="#004a5a" d="M36.103 112.184l-20.586 34.392h41.171z"/></g><g><path fill="none" stroke="#fff" stroke-linecap="round" stroke-linejoin="round" stroke-miterlimit="20" stroke-width="3.4" d="M36.103 112.184v0l-20.586 34.392v0h41.171v0z"/></g></g></g></g></svg>