<?xml version="1.0" encoding="UTF-8"?>
<svg xmlns="http://www.w3.org/2000/svg" xmlns:xlink="http://www.w3.org/1999/xlink" version="1.1" x="0px" y="0px" viewBox="0 0 1728 624" style="enable-background:new 0 0 1728 624;" xml:space="preserve">
<style type="text/css">
	.st0{display:none;}
	.st1{display:inline;}
	.st2{fill:#1D4A59;}
	.st3{clip-path:url(#SVGID_00000104689973738584127390000005694421525346990480_);}
	.st4{clip-path:url(#SVGID_00000041276207839752103020000014636437409944775572_);}
	.st5{clip-path:url(#SVGID_00000029754476556177560250000012509778069638915456_);}
	.st6{clip-path:url(#SVGID_00000090276678781934224560000006655874081272657821_);}
	.st7{clip-path:url(#SVGID_00000092453368531847981680000000620629935161086116_);}
	.st8{clip-path:url(#SVGID_00000177456888730994177520000000126888523574170038_);}
	.st9{clip-path:url(#SVGID_00000168795015781991070110000015639050678524774830_);}
	.st10{clip-path:url(#SVGID_00000178204848143215599750000018418698741406768037_);}
	.st11{clip-path:url(#SVGID_00000003803339769376718010000017968041996501779587_);}
	.st12{clip-path:url(#SVGID_00000016076137606500844400000002359838313487079813_);}
	.st13{fill:#004A5A;}
	.st14{fill:none;}
	.st15{fill:#64DCA0;}
</style>
<g id="Ebene_2" class="st0">
</g>
<g id="Ebene_1">
	<g>
		<rect class="st14" width="1728" height="624"></rect>
	</g>
	<g>
		<rect class="st14" width="1728" height="624"></rect>
	</g>
	<g>
		<g>
			<path class="st13" d="M1727.2,299.9c-74-91.2-120.3-194.9-134-299.8l2-0.3c13.7,104.6,59.9,207.9,133.6,298.8L1727.2,299.9z"></path>
		</g>
		<g>
			<g>
				<path class="st13" d="M331.5,624.3C263.4,417.9,113.4,319-0.4,272.4l0.8-1.9c114.2,46.8,264.7,146,333,353.1L331.5,624.3z"></path>
			</g>
			<g>
				<path class="st13" d="M507.2,624.4c-11.2-22.2-28.2-44-50.7-64.8C349.1,460.2,195.6,441.4,0.3,503.7l-0.6-1.9      c196.1-62.5,350.2-43.6,458.2,56.4c22.7,21,39.9,43,51.1,65.4L507.2,624.4z"></path>
			</g>
		</g>
	</g>
</g>
</svg>
