<?xml version="1.0" encoding="UTF-8"?>
<svg xmlns="http://www.w3.org/2000/svg" id="Ebene_1" data-name="Ebene 1" viewBox="0 0 1728 623.5">
  <defs>
    <style>
      .cls-1 {
        fill: #64dca0;
      }
    </style>
  </defs>
  <path class="cls-1" d="M0,363.12c6.23,10.94,12.16,22.03,17.77,33.26,22.39,44.86,39.32,91.21,50.32,137.76,7.05,29.82,11.63,59.71,13.75,89.36h2.02C77.13,529.03,45.71,438.42,0,359.09v4.03Z"></path>
  <path class="cls-1" d="M1728,317.47v-2.71c-44.13,39.73-81.92,83.73-108.47,131.95-13.51-37.48-22.36-76.4-26.43-116.49-4.79-47.2-2.91-96,5.58-145.03,7.96-45.96,21.71-92.07,40.85-137.06C1646.46,31.85,1654.07,15.78,1662.31,0h-2.25c-68.96,132.5-98.17,294.51-41.83,449.06-28.74,53.08-43.82,111.24-38.78,174.44h2.01c-3.21-40.29,1.71-80.23,14.71-119.01,5.94-17.73,13.63-35.4,23.01-52.9,21.93,59.12,56.43,117.12,106.06,171.91h2.73c-20.71-22.71-39.16-46.34-55.26-70.84-21.67-32.98-39.11-67.53-52.27-103.41,12.14-22.3,27.01-44.33,44.54-65.91,18.13-22.32,39.17-44.3,63-65.87Z"></path>
</svg>
