<?xml version="1.0" encoding="UTF-8"?>
<svg xmlns="http://www.w3.org/2000/svg" id="Ebene_1" data-name="Ebene 1" viewBox="0 0 1728 623.5">
  <defs>
    <style>
      .cls-1 {
        fill: #64dca0;
      }
    </style>
  </defs>
  <path class="cls-1" d="M1728,335.06v-2.34c-20.84-12.02-40.01-24.81-57.41-38.37-10.62-8.27-20.63-16.87-30.01-25.76,1.45-38.85,7.46-77.76,18.06-116.48C1672.65,100.92,1694.69,50.06,1724.49,0h-2.35c-54.61,92.07-80.02,181.91-83.49,266.73-19.63-18.86-36.45-39.03-50.22-60.28-22.45-34.66-37.39-73.08-44.41-114.22C1538.04,57.19,1539.36,26.35,1547.92,0h-2.14c-7.99,24.98-10.07,55.44-3.73,92.57,12.29,72.01,47.3,130.05,96.49,176.84-4.06,114.41,31.74,219.61,89.47,308.76v-3.7c-9.18-14.33-17.7-28.9-25.51-43.69-23.62-44.75-40.77-91.35-50.97-138.51-8.66-40.06-12.34-80.49-11.04-120.99,25.77,24.17,55.34,45.31,87.52,63.79Z"></path>
</svg>
