<?xml version="1.0" encoding="UTF-8"?>
<svg xmlns="http://www.w3.org/2000/svg" width="176" height="176" viewBox="0 0 176 176">
  <defs>
    <style>.cls-1{fill:none;}.cls-2{fill:#fff;}.cls-3{fill:#64dca0;}</style>
  </defs>
  <g id="Ebene_1">
    <g>
      <path class="cls-3" d="M141.67,31.28l-.96,1.11c-.29,.34-.26,.84,.06,1.14,7.74,7.27,12.59,17.59,12.59,29.02s-5.19,22.47-13.41,29.77c-.52,.46-.58,1.24-.13,1.76l10.32,11.9c.4,.46,1.11,.47,1.51,.01,7.85-8.93,12.62-20.64,12.62-33.43,0-17.09-8.49-32.23-21.48-41.43-.35-.25-.84-.19-1.13,.14Z"></path>
      <g>
        <path class="cls-2" d="M143,102.92c-.55,0-1,.45-1,1v17.99l-16.16-11.56c-.23-.17-.53-.23-.81-.16-3.19,.73-6.44,1.1-9.67,1.1-23.76,0-43.1-19.33-43.1-43.1s19.33-43.1,43.1-43.1c7.61,0,15.09,2.01,21.63,5.81,.48,.28,1.09,.12,1.37-.36s.12-1.09-.36-1.37c-6.84-3.98-14.67-6.08-22.63-6.08-24.87,0-45.1,20.23-45.1,45.1,0,.34,.02,.67,.03,1.01H14.36c-2,0-3.63,1.63-3.63,3.63v58.48c0,2,1.63,3.63,3.63,3.63h9.85v16.97c0,.41,.25,.78,.63,.93,.12,.05,.25,.07,.37,.07,.27,0,.53-.11,.72-.31l16.34-17.16c.31-.32,.74-.51,1.18-.51h52.81c2,0,3.63-1.63,3.63-3.63v-20.75c4.83,1.77,10.04,2.73,15.47,2.73,3.23,0,6.48-.35,9.67-1.05l17.38,12.43c.17,.12,.38,.19,.58,.19,.16,0,.31-.04,.46-.11,.33-.17,.54-.51,.54-.89v-19.93c0-.55-.45-1-1-1Zm-45.1,28.39c0,.9-.73,1.63-1.63,1.63H43.46c-.99,0-1.95,.41-2.63,1.13l-14.62,15.35v-15.47c0-.55-.45-1-1-1H14.36c-.9,0-1.63-.73-1.63-1.63v-58.48c0-.9,.73-1.63,1.63-1.63h56.02c1.15,17.38,12.18,32.1,27.52,38.57v21.54Z"></path>
        <path class="cls-2" d="M56.01,112.85c.55,0,1-.45,1-1v-30.68c0-.55-.45-1-1-1s-1,.45-1,1v30.68c0,.55,.45,1,1,1Z"></path>
        <path class="cls-2" d="M127.61,57.26c0-4.88-3.47-8.99-8.25-9.77-1.24-.2-2.58-.3-4.09-.3-11.66,.02-12.43,12.37-12.44,12.49-.03,.55,.4,1.02,.95,1.05,.56,.03,1.02-.4,1.05-.95,0-.03,.15-2.69,1.54-5.35,1.81-3.47,4.81-5.23,8.9-5.24,1.38,0,2.63,.09,3.76,.28,3.81,.63,6.58,3.91,6.58,7.8,0,2.02-.76,3.94-2.13,5.41-2.32,2.48-5.36,5.88-6.74,7.94-2.39,3.59-1.6,9.1-1.56,9.34,.07,.5,.5,.85,.99,.85,.05,0,.1,0,.15-.01,.55-.08,.92-.59,.84-1.14,0-.05-.71-4.98,1.25-7.93,1.3-1.95,4.27-5.25,6.54-7.68,1.72-1.84,2.67-4.25,2.67-6.78Z"></path>
        <path class="cls-2" d="M112.36,87.06c0,1.99,1.62,3.61,3.61,3.61s3.61-1.62,3.61-3.61-1.62-3.61-3.61-3.61-3.61,1.62-3.61,3.61Zm5.22,0c0,.89-.72,1.61-1.61,1.61s-1.61-.72-1.61-1.61,.72-1.61,1.61-1.61,1.61,.72,1.61,1.61Z"></path>
        <path class="cls-2" d="M56.01,115.29c-1.99,0-3.61,1.62-3.61,3.61s1.62,3.61,3.61,3.61,3.61-1.62,3.61-3.61-1.62-3.61-3.61-3.61Zm0,5.22c-.89,0-1.61-.72-1.61-1.61s.72-1.61,1.61-1.61,1.61,.72,1.61,1.61-.72,1.61-1.61,1.61Z"></path>
      </g>
    </g>
  </g>
  <g id="Ebene_2">
    <rect class="cls-1" width="176" height="176"></rect>
  </g>
</svg>
