<?xml version="1.0" encoding="UTF-8"?>
<svg id="SVGDoc" width="126" height="54" xmlns="http://www.w3.org/2000/svg" version="1.1" xmlns:xlink="http://www.w3.org/1999/xlink" xmlns:avocode="https://avocode.com/" viewBox="0 0 126 54"><defs></defs><desc>Generated with Avocode.</desc><g><g><title>kalo-logo</title><g><title>Rechteck 158</title></g><g><title>Gruppe 121</title><g><title>Pfad 101</title><path d="M22.58209,35.4646v0l-11.43444,-13.45665c-0.05615,-0.06565 -0.05615,-0.1624 0.00086,-0.22805l10.65268,-12.33886c0.10971,-0.13648 0.16499,-0.30061 0.16499,-0.49238c0,-0.24706 -0.08983,-0.45265 -0.26779,-0.61764c-0.17881,-0.16413 -0.37663,-0.24619 -0.59604,-0.24619h-3.83365c-0.43796,0 -0.78781,0.08897 -1.04782,0.26692c-0.26088,0.17881 -0.4466,0.33603 -0.55544,0.47251l-10.03245,11.57265v0v-1.66459v0v-9.61955c0,-0.30148 -0.09675,-0.54767 -0.28765,-0.7403c-0.19263,-0.19177 -0.43796,-0.28765 -0.74116,-0.28765h-3.61683c-0.27383,0 -0.50706,0.09588 -0.6997,0.28765c-0.19177,0.19263 -0.28765,0.43882 -0.28765,0.7403v26.763c0,0.27468 0.09588,0.50793 0.28765,0.69969c0.19263,0.19177 0.42587,0.28766 0.6997,0.28766h3.61683c0.3032,0 0.54853,-0.09589 0.74116,-0.28766c0.19091,-0.19176 0.28765,-0.425 0.28765,-0.69969v-10.6475v0v-1.71124v0l10.69068,12.60579c0.08207,0.08205 0.25224,0.22546 0.51311,0.43191c0.26001,0.20558 0.62282,0.30838 1.08928,0.30838h3.99864c0.21942,0 0.41723,-0.08292 0.59604,-0.24705c0.17795,-0.16499 0.26779,-0.36972 0.26779,-0.61678c0,-0.19176 -0.06911,-0.36971 -0.20645,-0.53469" fill="#004a5a" fill-opacity="1"></path></g><g><title>Pfad 102</title><path d="M25.87765,36.86228c-0.21942,0 -0.41896,-0.08292 -0.5969,-0.24705c-0.17881,-0.16413 -0.26692,-0.36972 -0.26692,-0.6159c0,-0.10971 0.02678,-0.23325 0.08206,-0.37058l9.90892,-26.5168c0.0812,-0.27383 0.23928,-0.51398 0.47252,-0.71957c0.23236,-0.20559 0.55457,-0.30839 0.96576,-0.30839h4.48151c0.41118,0 0.72562,0.10279 0.94503,0.30839c0.21941,0.20559 0.38354,0.44573 0.49324,0.71957l9.90805,26.5168c0.02678,0.13734 0.0406,0.26087 0.0406,0.37058c0,0.24618 -0.08205,0.45177 -0.24619,0.6159c-0.165,0.16413 -0.35676,0.24705 -0.57617,0.24705h-3.57623c-0.38354,0 -0.66428,-0.08897 -0.84222,-0.26778c-0.1788,-0.17708 -0.29543,-0.34899 -0.34985,-0.51397l-1.91768,-4.97735c-0.00951,-0.02246 -0.0311,-0.03801 -0.05529,-0.03801h-12.12895c-0.0242,0 -0.04666,0.01555 -0.05529,0.03801l-1.91769,4.97735c-0.05529,0.16498 -0.17104,0.33689 -0.34898,0.51397c-0.17882,0.17881 -0.45956,0.26778 -0.84222,0.26778zM34.10127,26.33746v0h9.16431c0.0406,0 0.06911,-0.04061 0.05442,-0.07948l-4.60159,-12.47362c-0.019,-0.05096 -0.09157,-0.05096 -0.11057,0l-4.56186,12.47448c-0.01382,0.03801 0.01469,0.07861 0.05529,0.07861" fill="#004a5a" fill-opacity="1"></path></g><g><title>Pfad 103</title><path d="M56.37827,36.86228c-0.2747,0 -0.50794,-0.09588 -0.69884,-0.28765c-0.19178,-0.19176 -0.28853,-0.425 -0.28853,-0.69884v-26.80444c0,-0.27383 0.09675,-0.50706 0.28853,-0.69883c0.1909,-0.19177 0.42414,-0.28852 0.69884,-0.28852h3.82242c0.2747,0 0.50794,0.09675 0.69969,0.28852c0.19177,0.19177 0.28766,0.425 0.28766,0.69883v22.89824v0h11.27029c0.30061,0 0.54768,0.09675 0.7403,0.28851c0.1909,0.19177 0.28764,0.43882 0.28764,0.73944v2.87825c0,0.27384 -0.09674,0.50708 -0.28764,0.69884c-0.19262,0.19177 -0.43969,0.28765 -0.7403,0.28765z" fill="#004a5a" fill-opacity="1"></path></g><g><title>Pfad 104</title><path d="M108.23717,0.20934v0l-0.6824,0.78694c-0.20818,0.24014 -0.18574,0.5969 0.0458,0.81459c5.50862,5.1743 8.95613,12.51854 8.95613,20.65231c0,8.41796 -3.69202,15.98937 -9.54012,21.18527c-0.3671,0.32652 -0.41289,0.88024 -0.09068,1.25082l7.34338,8.47066c0.28076,0.32394 0.79039,0.33171 1.07375,0.00951c5.58633,-6.35775 8.97946,-14.68587 8.97946,-23.79143c0,-12.16092 -6.04332,-22.93193 -15.28282,-29.47799c-0.25137,-0.17795 -0.60118,-0.13303 -0.80248,0.09934" fill="#00de97" fill-opacity="1"></path></g><g><title>Pfad 105</title><path d="M88.31298,12.48429c-5.54403,0 -9.7327,4.58344 -9.7327,9.8977c0,5.40667 4.18867,10.0791 9.82426,10.0791c5.45247,0 9.59451,-4.76399 9.59451,-9.94262c0,-5.2676 -4.14204,-10.03418 -9.68607,-10.03418M88.23008,37.47559c-8.1649,0 -15.1973,-6.32925 -15.1973,-14.65132c0,-2.14919 0.35161,-4.18005 1.13249,-6.17289c0.43018,-1.13247 1.13248,-2.26667 1.87535,-3.24366c2.96985,-3.90621 7.30625,-5.93792 12.2292,-5.93792c8.43954,0 15.2767,6.48472 15.2767,15.00289c0,8.55618 -6.83717,15.0029 -15.31645,15.0029" fill="#004a5a" fill-opacity="1"></path></g><g><title>Rechteck 157</title></g></g></g></g></svg>