<?xml version="1.0" encoding="UTF-8"?>
<svg xmlns="http://www.w3.org/2000/svg" viewBox="0 0 500 500">
  <defs>
    <style>.cls-1{fill:none;}.cls-2{fill:#fff;}.cls-3{fill:#64dca0;}</style>
  </defs>
  <g id="Ebene_1">
    <g>
      <path class="cls-3" d="M139.86,84.18l-2.84,3.28c-.87,1-.77,2.48,.19,3.39,22.93,21.53,37.27,52.1,37.27,85.95s-15.37,66.54-39.7,88.17c-1.53,1.36-1.72,3.66-.38,5.21l30.56,35.25c1.17,1.35,3.29,1.38,4.47,.04,23.25-26.46,37.37-61.12,37.37-99.01,0-50.61-25.15-95.44-63.6-122.68-1.05-.74-2.5-.55-3.34,.41Z"></path>
      <g>
        <path class="cls-2" d="M465.68,187.49c0-3.02-1.3-5.83-3.57-7.72l-65.34-54.31c-2.91-2.42-6.55-3.75-10.26-3.75h-121.76v-41.15c0-3.28-2.67-5.94-5.94-5.94h-31.17c-3.28,0-5.94,2.67-5.94,5.94v41.15h-42.08c-1.38,0-2.5,1.12-2.5,2.5s1.12,2.5,2.5,2.5h206.89c2.55,0,5.06,.92,7.07,2.59l65.34,54.31c1.12,.93,1.76,2.34,1.76,3.87,0,1.53-.64,2.94-1.76,3.87l-42.13,35.02c-13.31-29.42-42.91-49.95-77.24-49.95-42.34,0-77.52,31.21-83.76,71.83h-57.08c-1.38,0-2.5,1.12-2.5,2.5s1.12,2.5,2.5,2.5h23s0,179.58,0,179.58c0,3.28,2.67,5.94,5.94,5.94h31.17c3.28,0,5.94-2.67,5.94-5.94v-131.86c.8,1.5,1.64,2.97,2.52,4.41,.12,.29,.29,.55,.49,.77,9.92,15.77,24.88,28.08,42.62,34.6,.18,.09,.37,.16,.57,.2,8.93,3.21,18.55,4.97,28.58,4.97,30.23,0,56.79-15.92,71.79-39.8,.19-.21,.35-.46,.47-.73,7.91-12.88,12.48-28.02,12.48-44.22,0-10.55-1.95-20.65-5.49-29.97l43.32-36c2.27-1.88,3.57-4.7,3.57-7.71ZM226.71,80.57c0-.52,.42-.94,.94-.94h31.17c.52,0,.94,.42,.94,.94v41.15h-33.05v-41.15Zm33.05,352.27c0,.52-.42,.94-.94,.94h-31.17c-.52,0-.94-.42-.94-.94V253.27h28.48c-.24,2.61-.38,5.25-.38,7.92,0,10.01,1.76,19.61,4.96,28.54v143.13Zm12.34-129.2v-6.53c0-14.1,11.47-25.57,25.59-25.57,9.9,0,18.89,5.73,23.12,14.64-7.2,5.6-11.84,14.34-11.84,24.15v24.49c-15.26-6.36-28.12-17.34-36.86-31.17Zm41.86,33.04v-26.37c0-14.11,11.48-25.59,25.59-25.59s25.59,11.48,25.59,25.59v26.37c-8.04,2.73-16.64,4.24-25.59,4.24s-17.55-1.5-25.59-4.24Zm56.17-1.87v-24.49c0-9.81-4.64-18.54-11.84-24.15,4.23-8.91,13.23-14.64,23.12-14.64,14.11,0,25.59,11.48,25.59,25.59v6.52c-8.74,13.83-21.6,24.81-36.86,31.17Zm41.75-40.14c-1.25-15.72-14.44-28.14-30.48-28.14-11.59,0-22.16,6.59-27.33,16.88-4.33-2.35-9.28-3.68-14.53-3.68s-10.21,1.33-14.53,3.68c-5.17-10.3-15.73-16.88-27.34-16.88-16.04,0-29.22,12.42-30.47,28.14-4.74-10.19-7.4-21.54-7.4-33.5,0-43.97,35.77-79.74,79.74-79.74s79.74,35.77,79.74,79.74c0,11.96-2.66,23.3-7.4,33.5Z"></path>
        <path class="cls-2" d="M56.95,276.97c13.31,16.86,31.99,26.41,52.82,27.12v132.2c0,1.38,1.12,2.5,2.5,2.5s2.5-1.12,2.5-2.5v-132.19c9.21-.31,18.01-2.3,26.16-5.98,1.26-.57,1.82-2.05,1.25-3.31-.57-1.26-2.05-1.82-3.31-1.25-7.5,3.38-15.6,5.23-24.1,5.53V154.58c0-1.38-1.12-2.5-2.5-2.5s-2.5,1.12-2.5,2.5v144.51c-19.26-.71-36.55-9.59-48.89-25.22-14.11-17.87-21.56-43.74-21.56-74.81,0-54.28,52.03-113.76,67.97-130.7,1.31-1.39,3.08-2.16,4.98-2.16s3.67,.77,4.98,2.16c3.45,3.67,6.95,7.55,10.39,11.55,.9,1.05,2.48,1.16,3.53,.26,1.05-.9,1.16-2.48,.26-3.53-3.49-4.05-7.04-7.99-10.54-11.71-2.27-2.41-5.33-3.73-8.62-3.73s-6.35,1.33-8.62,3.73c-9.07,9.64-26.54,29.41-41.58,53.57-18.41,29.56-27.75,56.67-27.75,80.56,0,32.21,7.83,59.15,22.64,77.91Z"></path>
        <path class="cls-2" d="M339.55,238.45c-10.04,0-18.2,8.16-18.2,18.2s8.16,18.2,18.2,18.2,18.2-8.16,18.2-18.2-8.16-18.2-18.2-18.2Zm0,31.4c-7.28,0-13.2-5.92-13.2-13.2s5.92-13.2,13.2-13.2,13.2,5.92,13.2,13.2-5.92,13.2-13.2,13.2Z"></path>
        <path class="cls-2" d="M381.41,225.25c-10.04,0-18.2,8.16-18.2,18.2s8.16,18.2,18.2,18.2c9.24,0,17.01-6.91,18.08-16.08,.08-.7,.12-1.41,.12-2.12,0-10.04-8.16-18.2-18.2-18.2Zm13.11,19.74s0,0,0,0c-.77,6.64-6.41,11.65-13.11,11.65-7.28,0-13.2-5.92-13.2-13.2s5.92-13.2,13.2-13.2,13.2,5.92,13.2,13.2c0,.52-.03,1.04-.09,1.54Z"></path>
        <path class="cls-2" d="M297.69,225.25c-10.04,0-18.2,8.16-18.2,18.2s8.16,18.2,18.2,18.2,18.2-8.16,18.2-18.2-8.16-18.2-18.2-18.2Zm0,31.4c-7.28,0-13.2-5.92-13.2-13.2s5.92-13.2,13.2-13.2,13.2,5.92,13.2,13.2-5.92,13.2-13.2,13.2Z"></path>
      </g>
    </g>
  </g>
  <g id="Ebene_2">
    <rect class="cls-1" width="500" height="500"></rect>
  </g>
</svg>
