<?xml version="1.0" encoding="UTF-8"?>
<svg xmlns="http://www.w3.org/2000/svg" viewBox="0 0 500 500">
  <defs>
    <style>.cls-1{fill:none;}.cls-2{fill:#fff;}.cls-3{fill:#64dca0;}</style>
  </defs>
  <g id="Ebene_1">
    <path id="Pfad_1284" class="cls-3" d="M439.62,277.29l-2.07,2.32c-.62,.7-.57,1.77,.13,2.39,0,0,.01,.01,.02,.02,33.6,30.53,36.09,82.52,5.56,116.12-2.3,2.53-4.75,4.91-7.34,7.13-1.09,.92-1.23,2.55-.31,3.64,0,.01,.02,.02,.03,.03l22.22,24.97c.79,.91,2.16,1.02,3.08,.25,.09-.08,.17-.16,.25-.25,38.75-42.83,35.45-108.97-7.38-147.72-.51-.46-1.02-.91-1.54-1.36-3.22-2.82-6.6-5.44-10.13-7.86-.79-.55-1.87-.42-2.49,.31"></path>
    <g>
      <path class="cls-2" d="M394.23,227.37c1.03,.93,2.61,.84,3.53-.18,.92-1.03,.84-2.61-.18-3.53L206.12,51.16c-.95-.85-2.39-.86-3.34,0L10.11,223.65c-1.03,.92-1.12,2.5-.19,3.53,.49,.55,1.18,.83,1.86,.83,.59,0,1.19-.21,1.67-.64L204.44,56.38l189.79,170.99Z"></path>
      <path class="cls-2" d="M86.94,262.16h71.84c1.59,0,3.08-.7,4.1-1.92l13.01-15.62c1.65-1.98,1.65-4.86,0-6.84l-13.01-15.62c-1.02-1.22-2.51-1.92-4.1-1.92H86.94c-2.95,0-5.34,2.4-5.34,5.34v31.23c0,2.94,2.4,5.34,5.34,5.34Zm-.34-36.57c0-.19,.15-.34,.34-.34h71.84c.1,0,.2,.04,.26,.12l13.01,15.62c.1,.13,.1,.31,0,.44l-13.01,15.62c-.07,.08-.16,.12-.26,.12H86.94c-.19,0-.34-.15-.34-.34v-31.23Z"></path>
      <path class="cls-2" d="M81.59,318.34c0,2.94,2.4,5.34,5.34,5.34h117.99c1.59,0,3.09-.7,4.1-1.92l13.01-15.62c1.65-1.98,1.65-4.86,0-6.84l-13.01-15.61c-1.02-1.22-2.51-1.92-4.1-1.92H86.94c-2.95,0-5.34,2.4-5.34,5.34v31.23Zm5-31.23c0-.19,.15-.34,.34-.34h117.99c.1,0,.2,.04,.26,.12l13.01,15.61c.11,.13,.11,.31,0,.44l-13.01,15.62c-.06,.08-.16,.12-.26,.12H86.94c-.19,0-.34-.15-.34-.34v-31.23Z"></path>
      <path class="cls-2" d="M81.59,379.86c0,2.95,2.4,5.34,5.34,5.34H251.06c1.59,0,3.08-.7,4.1-1.92l13.01-15.62c1.65-1.98,1.65-4.86,0-6.84l-13.01-15.62c-1.02-1.22-2.51-1.92-4.1-1.92H86.94c-2.95,0-5.34,2.4-5.34,5.34v31.23Zm5-31.23c0-.19,.15-.34,.34-.34H251.06c.1,0,.2,.04,.26,.12l13.01,15.61c.11,.13,.11,.31,0,.44l-13.01,15.62c-.06,.08-.16,.12-.26,.12H86.94c-.19,0-.34-.15-.34-.34v-31.23Z"></path>
      <path class="cls-2" d="M378.13,259.44c-.94,.01-1.87,.04-2.8,.07-6.06,.25-11.97,1.07-17.68,2.4v-39.23c0-1.38-1.12-2.5-2.5-2.5s-2.5,1.12-2.5,2.5v40.54c-40.96,11.93-70.2,50.62-68.38,95.12,.83,20.43,8.1,39.1,19.75,54.16H79.13c-13.27,0-24.08-10.78-24.1-24.06V222.68c0-1.38-1.12-2.5-2.5-2.5s-2.5,1.12-2.5,2.5v165.77c.03,16.03,13.08,29.05,29.1,29.04h227.82c.37,0,.71-.08,1.02-.22,17.48,19.8,43.02,32.21,71.15,32.21,1.3,0,2.61-.03,3.92-.08,19.22-.44,37.68-6.52,53.41-17.58,1.13-.79,1.4-2.35,.61-3.48-.79-1.13-2.36-1.4-3.48-.61-14.91,10.48-32.42,16.25-50.69,16.67-49.62,2.05-91.59-36.67-93.62-86.27-2.03-49.6,36.67-91.59,86.27-93.62,.89-.04,1.77-.06,2.7-.07,15.23-.42,30.47,3,44.07,9.88,1.23,.62,2.74,.13,3.36-1.1,.62-1.23,.13-2.74-1.1-3.36-14.34-7.26-30.43-10.86-46.42-10.42Z"></path>
      <path class="cls-2" d="M326.34,361.76c-.98-.97-2.57-.96-3.54,.02-.97,.98-.96,2.57,.02,3.54l37.14,36.63c.49,.48,1.12,.72,1.76,.72s1.27-.24,1.75-.72l77.72-76.64c.98-.97,1-2.55,.03-3.54-.97-.98-2.55-.99-3.54-.02l-75.97,74.91-35.39-34.9Z"></path>
    </g>
  </g>
  <g id="Ebene_2">
    <rect class="cls-1" width="500" height="500"></rect>
  </g>
</svg>
