<?xml version="1.0" encoding="UTF-8"?>
<svg xmlns="http://www.w3.org/2000/svg" viewBox="0 0 500 500">
  <defs>
    <style>.cls-1{fill:none;}.cls-2{fill:#fff;}.cls-3{fill:#64dca0;}</style>
  </defs>
  <g id="Ebene_1">
    <path class="cls-3" d="M432.96,140.45l-2.33,2.68c-.71,.82-.63,2.03,.16,2.78,18.79,17.65,30.54,42.69,30.54,70.44s-12.59,54.53-32.54,72.25c-1.25,1.11-1.41,3-.31,4.26l25.05,28.89c.96,1.11,2.7,1.13,3.66,.03,19.05-21.68,30.62-50.08,30.62-81.14,0-41.48-20.61-78.21-52.12-100.54-.86-.61-2.05-.45-2.74,.34"></path>
    <g>
      <path class="cls-2" d="M17.7,340.08l74.19,58.96c5.23,4.4,11.25,7.7,17.67,9.77l-14.47,43.4c-.44,1.31,.27,2.73,1.58,3.16,.26,.09,.53,.13,.79,.13,1.05,0,2.02-.66,2.37-1.71l14.55-43.66c3.7,.82,7.49,1.24,11.32,1.24h192.22l13.24,39.9c.44,1.31,1.85,2.02,3.16,1.58,1.31-.43,2.02-1.85,1.58-3.16l-12.72-38.32h87.95c10.58,0,19.18-8.61,19.18-19.18s-8.61-19.18-19.18-19.18h-100.68l-11.88-35.81c-.34-1.02-1.3-1.71-2.37-1.71h-109.69l40.73-122.85,41.1,13.56c-.01,.69-.03,1.37-.03,2.06,0,58.57,47.65,106.22,106.21,106.22,21.67,0,42.52-6.49,60.28-18.76,1.14-.78,1.42-2.34,.64-3.48s-2.34-1.42-3.48-.64c-16.93,11.69-36.79,17.87-57.44,17.87-55.81,0-101.21-45.41-101.21-101.22s45.4-101.21,101.21-101.21c16.49,0,32.84,4.05,47.31,11.71,1.22,.65,2.73,.18,3.38-1.04,.65-1.22,.18-2.73-1.04-3.38-15.18-8.04-32.35-12.29-49.65-12.29-3.17,0-6.31,.15-9.41,.42-22.63-36.74-58.77-62.75-101.96-73.32-78-19.08-160.24,22.37-191.3,96.4-1.62,3.87-3.11,7.81-4.42,11.74-.21,.63-.16,1.32,.14,1.91,.3,.59,.82,1.04,1.45,1.25l153.46,50.62-41.25,124.42h-45.44c-1.08,0-2.03,.69-2.37,1.71l-10.29,30.88c-3.4-1.68-6.62-3.76-9.58-6.24l-69.5-55.01c-9.04-7.15-21.94-5.86-29.38,2.94-3.74,4.42-5.48,10.03-4.91,15.79,.57,5.76,3.38,10.92,7.91,14.52Zm250.87-119.08l-39.76-13.11,48.35-146.59c15.48,22.15,27.04,53,31.34,83.82-22.7,18.06-37.86,45.21-39.94,75.88Zm-44.5-14.68l-73.56-24.26c10.41-30.23,29.11-58.37,54.23-81.5,20.7-19.05,45.22-33.95,67.84-41.32l-48.51,147.09Zm135.56-83.23c-17.17,2.42-33.04,8.96-46.56,18.58-4.55-29.71-15.64-59.25-30.4-81.18,31.98,12.33,58.76,34.01,76.96,62.6Zm-283.16,24.39c30.12-71.79,109.86-111.98,185.5-93.48,1.98,.48,3.93,1.01,5.88,1.56-44.83,15.77-99.81,60.07-122.09,124.93l-72.76-24c1.06-3.02,2.22-6.04,3.47-9.01Zm49.23,258.89c-3.28,0-6.54-.35-9.72-1.02l10.18-30.54c5.74,2.09,11.83,3.19,18.02,3.19h162.66l9.41,28.37H125.7Zm285.43-28.37c7.82,0,14.18,6.36,14.18,14.18s-6.36,14.18-14.18,14.18h-89.61l-9.41-28.37h99.02Zm-116.74-37.52l10.79,32.52H174.07l10.78-32.52h109.54Zm-156.79,0h41.98l-10.78,32.52h-24.62c-5.64,0-11.2-1.01-16.44-2.94l9.86-29.58Zm-119.1-27.48c3.22-3.81,7.77-5.78,12.38-5.78,3.53,0,7.08,1.16,10.08,3.53l69.44,54.96c3.41,2.86,7.16,5.26,11.14,7.15l-10.4,31.21c-5.84-1.88-11.31-4.88-16.09-8.9l-74.24-59.01c-3.46-2.75-5.61-6.69-6.05-11.1-.44-4.4,.9-8.69,3.75-12.07Z"></path>
      <path class="cls-2" d="M441.29,204.69c1.37,0,2.49-1.11,2.5-2.49,.12-23.56-18.96-42.83-42.58-42.95-1.38,0-2.47,1.12-2.48,2.49,0,1.38,1.13,2.5,2.51,2.51,20.81,.1,37.65,17.11,37.55,37.92,0,1.38,1.11,2.51,2.49,2.51h.01Z"></path>
      <path class="cls-2" d="M425.09,202.18c0,1.38,1.11,2.51,2.49,2.51h.01c1.38,0,2.49-1.11,2.5-2.49,.08-15.98-12.86-29.05-28.89-29.13-1.38,0-2.48,1.12-2.48,2.49,0,1.38,1.12,2.5,2.5,2.51,13.23,.06,23.93,10.88,23.87,24.1Z"></path>
      <path class="cls-2" d="M411.76,202.68c0,1.38,1.11,2.51,2.49,2.51h.01c1.38,0,2.49-1.11,2.5-2.49,.04-8.6-6.93-15.64-15.56-15.68-1.38,0-2.49,1.12-2.49,2.49,0,1.38,1.12,2.5,2.5,2.51,5.85,.03,10.58,4.81,10.56,10.66Z"></path>
      <path class="cls-2" d="M398.88,200.19h-49.15c-2.66,0-4.83,2.17-4.83,4.83v24.19h-26.48c-2.66,0-4.83,2.17-4.83,4.83v49.68c0,2.66,2.17,4.83,4.83,4.83h80.45c2.66,0,4.83-2.17,4.83-4.83v-78.7c0-2.49-1.9-4.52-4.32-4.78-.16-.03-.33-.05-.5-.05Zm-80.28,34.02h26.3v49.33h-26.3v-49.33Zm65.41,49.33h-19.42v-18.53h19.42v18.53Zm14.69,0h-9.69v-18.7c0-2.66-2.16-4.83-4.83-4.83h-19.77c-2.66,0-4.83,2.17-4.83,4.83v18.7h-9.69v-78.35h48.8v78.35Z"></path>
      <path class="cls-2" d="M380.07,216.47h6.43v7.45c0,1.38,1.12,2.5,2.5,2.5s2.5-1.12,2.5-2.5v-8.06c0-2.42-1.97-4.38-4.38-4.38h-7.04c-1.38,0-2.5,1.12-2.5,2.5s1.12,2.5,2.5,2.5Z"></path>
      <path class="cls-2" d="M359.61,216.47h6.43v7.45c0,1.38,1.12,2.5,2.5,2.5s2.5-1.12,2.5-2.5v-8.06c0-2.42-1.97-4.38-4.39-4.38h-7.04c-1.38,0-2.5,1.12-2.5,2.5s1.12,2.5,2.5,2.5Z"></path>
      <path class="cls-2" d="M387.45,230.95h-7.04c-1.38,0-2.5,1.12-2.5,2.5s1.12,2.5,2.5,2.5h6.43v7.45c0,1.38,1.12,2.5,2.5,2.5s2.5-1.12,2.5-2.5v-8.06c0-2.42-1.97-4.38-4.38-4.38Z"></path>
      <path class="cls-2" d="M367,230.95h-7.05c-1.38,0-2.5,1.12-2.5,2.5s1.12,2.5,2.5,2.5h6.43v7.45c0,1.38,1.12,2.5,2.5,2.5s2.5-1.12,2.5-2.5v-8.06c0-2.42-1.97-4.38-4.38-4.38Z"></path>
    </g>
  </g>
  <g id="Ebene_2">
    <rect class="cls-1" width="500" height="500"></rect>
  </g>
</svg>
