<?xml version="1.0" encoding="UTF-8"?>
<svg xmlns="http://www.w3.org/2000/svg" viewBox="0 0 500 500">
  <defs>
    <style>.cls-1{fill:none;}.cls-2{fill:#fff;}.cls-3{fill:#64dca0;}</style>
  </defs>
  <g id="Ebene_1">
    <path class="cls-3" d="M402.46,88.85l-2.72,3.14c-.83,.96-.74,2.38,.18,3.25,21.99,20.66,35.75,49.98,35.75,82.45s-14.74,63.84-38.09,84.58c-1.47,1.3-1.65,3.51-.36,4.99l29.32,33.82c1.12,1.29,3.16,1.33,4.29,.04,22.3-25.38,35.85-58.63,35.85-94.98,0-48.55-24.13-91.55-61.01-117.69-1-.71-2.4-.53-3.2,.4Z"></path>
    <g>
      <path class="cls-2" d="M406.25,354.35c.39,0,.78-.09,1.14-.28,.83-.43,1.36-1.29,1.36-2.22v-56.62c0-1.38-1.12-2.5-2.5-2.5s-2.5,1.12-2.5,2.5v51.76l-46.46-33.23c-.58-.42-1.32-.56-2.01-.4-9.08,2.08-18.35,3.14-27.54,3.14-67.7,0-122.78-55.08-122.78-122.78s55.08-122.78,122.78-122.78c21.67,0,42.98,5.72,61.61,16.55,1.19,.69,2.72,.29,3.42-.91,.69-1.19,.29-2.72-.91-3.42-19.39-11.27-41.57-17.23-64.12-17.23-70.46,0-127.78,57.32-127.78,127.78,0,1.07,.01,2.14,.04,3.2H40.79c-5.5,0-9.97,4.47-9.97,9.97v166.14c0,5.5,4.47,9.97,9.97,9.97h28.32v48.56c0,1.02,.62,1.94,1.57,2.32,.3,.12,.62,.18,.93,.18,.67,0,1.33-.27,1.81-.78l46.43-48.74c.93-.98,2.25-1.54,3.6-1.54h150.04c5.5,0,9.97-4.47,9.97-9.97v-59.45c13.8,5.11,28.72,7.91,44.28,7.91,9.19,0,18.46-1.02,27.55-3.02l49.5,35.41c.43,.31,.94,.47,1.45,.47Zm-127.79,18.68c0,2.74-2.23,4.97-4.97,4.97H123.45c-2.71,0-5.35,1.13-7.22,3.09l-42.12,44.21v-44.81c0-1.38-1.12-2.5-2.5-2.5h-30.82c-2.74,0-4.97-2.23-4.97-4.97V206.89c0-2.74,2.23-4.97,4.97-4.97H200.24c3.15,49.46,34.56,91.36,78.23,109.69v61.43Z"></path>
      <path class="cls-2" d="M159.13,320.26c1.38,0,2.5-1.12,2.5-2.5v-87.16c0-1.38-1.12-2.5-2.5-2.5s-2.5,1.12-2.5,2.5v87.16c0,1.38,1.12,2.5,2.5,2.5Z"></path>
      <path class="cls-2" d="M362.18,162.68c0-13.69-9.74-25.23-23.16-27.43-3.46-.57-7.31-.86-11.44-.86h-.12c-32.82,.05-34.98,34.81-35,35.16-.07,1.38,.99,2.55,2.37,2.62,1.39,.07,2.55-.99,2.63-2.36,.07-1.24,1.97-30.38,30.01-30.42h.12c3.86,0,7.43,.27,10.62,.79,11,1.81,18.97,11.27,18.97,22.5,0,5.82-2.18,11.37-6.14,15.61-6.57,7.05-15.22,16.68-19.11,22.51-6.73,10.1-4.48,25.62-4.38,26.28,.19,1.24,1.25,2.13,2.47,2.13,.12,0,.25,0,.38-.03,1.36-.2,2.3-1.48,2.1-2.84-.02-.14-2.05-14.29,3.6-22.76,3.7-5.55,12.16-14.96,18.6-21.87,4.82-5.17,7.48-11.93,7.48-19.02Z"></path>
      <path class="cls-2" d="M319.54,247.34c0,5.47,4.45,9.91,9.91,9.91s9.91-4.45,9.91-9.91-4.45-9.91-9.91-9.91-9.91,4.45-9.91,9.91Zm14.83,0c0,2.71-2.2,4.91-4.91,4.91s-4.91-2.2-4.91-4.91,2.2-4.91,4.91-4.91,4.91,2.2,4.91,4.91Z"></path>
      <path class="cls-2" d="M159.13,327.88c-5.47,0-9.91,4.45-9.91,9.91s4.45,9.91,9.91,9.91,9.91-4.45,9.91-9.91-4.45-9.91-9.91-9.91Zm0,14.83c-2.71,0-4.91-2.2-4.91-4.91s2.2-4.91,4.91-4.91,4.91,2.2,4.91,4.91-2.2,4.91-4.91,4.91Z"></path>
    </g>
  </g>
  <g id="Ebene_2">
    <rect class="cls-1" width="500" height="500"></rect>
  </g>
</svg>
