<?xml version="1.0" encoding="UTF-8"?>
<svg xmlns="http://www.w3.org/2000/svg" viewBox="0 0 500 500">
  <defs>
    <style>.cls-1{fill:none;}.cls-2{fill:#fff;}.cls-3{fill:#64dca0;}</style>
  </defs>
  <g id="Ebene_1">
    <path class="cls-3" d="M426.78,92.03l-1.91,2.2c-.58,.67-.52,1.67,.13,2.28,15.42,14.49,25.08,35.05,25.08,57.83s-10.34,44.77-26.71,59.32c-1.03,.91-1.16,2.46-.26,3.5l20.56,23.72c.79,.91,2.21,.93,3.01,.03,15.64-17.8,25.14-41.12,25.14-66.62,0-34.05-16.92-64.21-42.79-82.55-.7-.5-1.68-.37-2.25,.28"></path>
    <g>
      <path class="cls-2" d="M417.65,140h-20.36c-1.38,0-2.5,1.12-2.5,2.5s1.12,2.5,2.5,2.5h20.36c1.38,0,2.5-1.12,2.5-2.5s-1.12-2.5-2.5-2.5Z"></path>
      <path class="cls-2" d="M420.15,161.07c0-1.38-1.12-2.5-2.5-2.5h-20.36c-1.38,0-2.5,1.12-2.5,2.5s1.12,2.5,2.5,2.5h20.36c1.38,0,2.5-1.12,2.5-2.5Z"></path>
      <path class="cls-2" d="M370.19,106.37c-7.48,0-13.56,5.97-13.56,13.31v51.86c-8.79,4.79-14.22,13.7-14.3,23.61-.11,14.71,12,27.04,27,27.48,.29,0,.58,.01,.86,.01,7.4,0,14.33-2.79,19.6-7.91,5.32-5.16,8.25-12.05,8.25-19.38,0-10-5.44-18.98-14.3-23.81v-51.86c0-7.34-6.08-13.31-13.56-13.31Zm22.86,88.98c0,5.97-2.39,11.58-6.73,15.79-4.5,4.37-10.48,6.67-16.83,6.49-12.1-.35-22.24-10.63-22.15-22.44,.06-8.5,4.99-16.11,12.87-19.86,.87-.41,1.43-1.29,1.43-2.26v-53.39c0-4.58,3.84-8.31,8.56-8.31s8.56,3.73,8.56,8.31v53.39c0,.96,.56,1.84,1.43,2.26,7.94,3.77,12.87,11.44,12.87,20.02Z"></path>
      <path class="cls-2" d="M417.65,121.42h-20.36c-1.38,0-2.5,1.12-2.5,2.5s1.12,2.5,2.5,2.5h20.36c1.38,0,2.5-1.12,2.5-2.5s-1.12-2.5-2.5-2.5Z"></path>
      <path class="cls-2" d="M140.33,219.22c-1.38,0-2.5,1.12-2.5,2.5s1.12,2.5,2.5,2.5h95.76c1.38,0,2.5-1.12,2.5-2.5s-1.12-2.5-2.5-2.5h-95.76Z"></path>
      <path class="cls-2" d="M236.09,248.29h-95.76c-1.38,0-2.5,1.12-2.5,2.5s1.12,2.5,2.5,2.5h95.76c1.38,0,2.5-1.12,2.5-2.5s-1.12-2.5-2.5-2.5Z"></path>
      <path class="cls-2" d="M213.25,277.37h-72.92c-1.38,0-2.5,1.12-2.5,2.5s1.12,2.5,2.5,2.5h72.92c1.38,0,2.5-1.12,2.5-2.5s-1.12-2.5-2.5-2.5Z"></path>
      <path class="cls-2" d="M163.97,173.78c-1.38,0-2.5,1.12-2.5,2.5s1.12,2.5,2.5,2.5h5.65c.43,2.63,1.17,5.06,2.22,7.26,1.73,3.63,4.4,6.48,7.93,8.5,3.46,1.97,7.8,2.97,12.9,2.97,3.78,0,7.17-.5,10.06-1.49,2.93-1,5.42-2.37,7.38-4.05,1.99-1.7,3.53-3.64,4.58-5.78,.61-1.24,.1-2.74-1.14-3.35-1.24-.61-2.74-.1-3.35,1.14-.75,1.52-1.88,2.93-3.35,4.19-1.49,1.27-3.42,2.32-5.75,3.12-2.37,.81-5.21,1.22-8.44,1.22-4.22,0-7.73-.78-10.43-2.32-2.67-1.52-4.59-3.58-5.89-6.3-.74-1.55-1.29-3.27-1.65-5.11h16.67c1.38,0,2.5-1.12,2.5-2.5s-1.12-2.5-2.5-2.5h-17.2v-11.84s17.2,0,17.2,0c1.38,0,2.5-1.12,2.5-2.5s-1.12-2.5-2.5-2.5h-16.69c.37-1.9,.93-3.64,1.69-5.2,1.32-2.71,3.25-4.77,5.91-6.29,2.67-1.53,6.16-2.31,10.38-2.31,3.24,0,6.07,.41,8.44,1.23,2.33,.8,4.27,1.85,5.75,3.12,1.47,1.26,2.6,2.67,3.35,4.19,.61,1.24,2.11,1.75,3.35,1.13,1.24-.61,1.75-2.11,1.13-3.35-1.05-2.13-2.59-4.08-4.58-5.78-1.97-1.68-4.45-3.05-7.38-4.05-2.89-.99-6.27-1.5-10.06-1.5-5.1,0-9.44,1-12.87,2.97-3.5,2.01-6.16,4.85-7.91,8.43-1.08,2.22-1.84,4.69-2.28,7.39h-5.64c-1.38,0-2.5,1.12-2.5,2.5s1.12,2.5,2.5,2.5h5.21v11.84s-5.21,0-5.21,0Z"></path>
      <path class="cls-2" d="M425.95,237.17c1.15-.76,1.46-2.32,.7-3.47-.76-1.15-2.32-1.46-3.47-.7-13.45,8.94-29.14,13.67-45.36,13.67-45.22,0-82.01-36.76-82.01-81.94s36.79-81.94,82.01-81.94c11.47,0,22.56,2.32,32.97,6.89,1.26,.55,2.74-.02,3.29-1.28,.56-1.26-.02-2.74-1.28-3.29-11.05-4.85-22.82-7.31-34.98-7.31-47.98,0-87.01,39-87.01,86.94,0,4.79,.4,9.49,1.15,14.07h-27.61v-55.52c0-5-4.07-9.08-9.08-9.08h-16.68v-14.02c0-5-4.07-9.08-9.08-9.08H96.14c-5,0-9.08,4.07-9.08,9.08v78.62h-12.04s-.07,0-.11,0c-10.15,0-18.45,8.22-18.51,18.39v187.06H28.17c-1.38,0-2.5,1.12-2.5,2.5v17.51c.04,9.93,8.11,17.95,18.08,17.94H393.29c9.91,0,17.99-8.04,18.02-17.95v-17.5c0-1.38-1.12-2.5-2.5-2.5h-28.21c-.03-14.22-.2-86.2-.41-132.63,16.36-.44,32.13-5.41,45.75-14.46Zm-166.6-113.89v184.19c0,2.25-1.83,4.08-4.08,4.08H121.89c-2.25,0-4.08-1.83-4.08-4.08V123.27c0-2.25,1.83-4.08,4.08-4.08H255.26c2.25,0,4.08,1.83,4.08,4.08Zm-167.28-23.09c0-2.25,1.83-4.08,4.08-4.08H229.51c2.25,0,4.08,1.83,4.08,4.08v14.02H121.89c-5,0-9.08,4.07-9.08,9.08v165.18h-16.68c-2.25,0-4.08-1.83-4.08-4.08V100.18ZM406.32,404.25c-.03,7.16-5.86,12.96-13.03,12.96H43.7c-7.16,0-13-5.8-13.02-12.95v-15H406.32v14.99Zm-344.91-19.99V197.21c.05-7.41,6.1-13.41,13.51-13.41,.03,0,.06,0,.09,0h12.05v100.57c0,5,4.07,9.08,9.08,9.08h16.68v14.02c0,5,4.07,9.08,9.08,9.08H255.26c5,0,9.08-4.07,9.08-9.08v-123.67h28.58c8.54,37.97,42.02,66.63,82.28,67.83,.21,46.42,.38,118.38,.41,132.63H61.4Z"></path>
    </g>
  </g>
  <g id="Ebene_2">
    <rect class="cls-1" width="500" height="500"></rect>
  </g>
</svg>
