<?xml version="1.0" encoding="UTF-8"?>
<svg xmlns="http://www.w3.org/2000/svg" viewBox="0 0 500 500">
  <defs>
    <style>.cls-1{fill:none;}.cls-2{fill:#fff;}.cls-3{fill:#64dca0;}</style>
  </defs>
  <g id="Ebene_1">
    <path class="cls-3" d="M241.95,219.77l-1.38,1.59c-.42,.48-.38,1.2,.09,1.64,11.12,10.44,18.08,25.27,18.08,41.69s-7.45,32.28-19.26,42.76c-.74,.66-.83,1.78-.19,2.52l14.82,17.1c.57,.65,1.6,.67,2.17,.02,11.28-12.83,18.13-29.64,18.13-48.02,0-24.55-12.2-46.29-30.85-59.5-.51-.36-1.21-.27-1.62,.2"></path>
    <g>
      <path class="cls-2" d="M173.02,366.57c-5.63,0-10.21,4.59-10.21,10.23s4.58,10.23,10.21,10.23,10.21-4.59,10.21-10.23-4.58-10.23-10.21-10.23Zm0,15.46c-2.87,0-5.21-2.35-5.21-5.23s2.34-5.23,5.21-5.23,5.21,2.35,5.21,5.23-2.34,5.23-5.21,5.23Z"></path>
      <path class="cls-2" d="M244.24,167.7h.01c1.38,0,2.49-1.13,2.49-2.51-.05-9.68,7.77-17.59,17.43-17.64l-.04-5c-12.41,.06-22.46,10.23-22.4,22.66,0,1.38,1.12,2.49,2.5,2.49Z"></path>
      <path class="cls-2" d="M264.17,123.71l-.06-2.5c-23.67,.12-42.83,19.51-42.71,43.23,0,1.38,1.12,2.49,2.5,2.49h.01c1.38,0,2.49-1.13,2.49-2.51-.1-20.96,16.83-38.1,37.77-38.21v-2.5Z"></path>
      <path class="cls-2" d="M264.17,102.58l-.08-2.5c-35.24,.17-63.77,29.05-63.6,64.37,0,1.38,1.12,2.49,2.5,2.49h.01c1.38,0,2.49-1.13,2.49-2.51-.16-32.56,26.14-59.19,58.68-59.35v-2.5Z"></path>
      <path class="cls-2" d="M334.21,283.83c0,1.38,1.12,2.5,2.5,2.5s2.5-1.12,2.5-2.5v-15.89c0-.67,.54-1.21,1.2-1.21h13.85c1.38,0,2.5-1.12,2.5-2.5s-1.12-2.5-2.5-2.5h-13.85c-3.42,0-6.2,2.79-6.2,6.21v15.89Z"></path>
      <path class="cls-2" d="M293.99,283.83c0,1.38,1.12,2.5,2.5,2.5s2.5-1.12,2.5-2.5v-15.89c0-.67,.54-1.21,1.2-1.21h13.85c1.38,0,2.5-1.12,2.5-2.5s-1.12-2.5-2.5-2.5h-13.85c-3.42,0-6.2,2.79-6.2,6.21v15.89Z"></path>
      <path class="cls-2" d="M334.21,245.43c0,1.38,1.12,2.5,2.5,2.5s2.5-1.12,2.5-2.5v-15.9c0-.67,.54-1.21,1.2-1.21h13.85c1.38,0,2.5-1.12,2.5-2.5s-1.12-2.5-2.5-2.5h-13.85c-3.42,0-6.2,2.79-6.2,6.21v15.9Z"></path>
      <path class="cls-2" d="M293.99,245.43c0,1.38,1.12,2.5,2.5,2.5s2.5-1.12,2.5-2.5v-15.9c0-.67,.54-1.21,1.2-1.21h13.85c1.38,0,2.5-1.12,2.5-2.5s-1.12-2.5-2.5-2.5h-13.85c-3.42,0-6.2,2.79-6.2,6.21v15.9Z"></path>
      <path class="cls-2" d="M339.89,207.03v-15.89c0-.67,.54-1.21,1.21-1.21h13.85c1.38,0,2.5-1.12,2.5-2.5s-1.12-2.5-2.5-2.5h-13.85c-3.42,0-6.21,2.79-6.21,6.21v15.89c0,1.38,1.12,2.5,2.5,2.5s2.5-1.12,2.5-2.5Z"></path>
      <path class="cls-2" d="M299.66,207.03v-15.89c0-.67,.54-1.21,1.21-1.21h13.85c1.38,0,2.5-1.12,2.5-2.5s-1.12-2.5-2.5-2.5h-13.85c-3.42,0-6.21,2.79-6.21,6.21v15.89c0,1.38,1.12,2.5,2.5,2.5s2.5-1.12,2.5-2.5Z"></path>
      <path class="cls-2" d="M477.52,337.82c-4.7-.62-9.4,.85-12.88,4.04-.19,.17-.48,.19-.65,.03-1.53-1.41-3.32-2.5-5.25-3.22v-50.44l5.17,4.63c.48,.43,1.07,.64,1.67,.64,.69,0,1.37-.28,1.86-.83,.92-1.03,.83-2.61-.19-3.53l-24.28-21.74v-40.41c0-3.9-3.17-7.08-7.07-7.08h-54.46v-50.1c0-3.91-3.18-7.1-7.09-7.1h-96.63c-3.9,0-7.07,3.18-7.07,7.1v57.88c0,1.38,1.12,2.5,2.5,2.5s2.5-1.12,2.5-2.5v-57.88c0-1.16,.93-2.1,2.07-2.1h96.63c1.15,0,2.09,.94,2.09,2.1v97.98l-23.85,21.36c-1.03,.92-1.12,2.5-.19,3.53,.92,1.03,2.5,1.12,3.53,.19l5.16-4.62v42.32c-1.28-.33-2.6-.51-3.94-.51-1.59,0-3.13,.25-4.59,.69v-13.7c0-3.9-3.17-7.08-7.07-7.08h-38.88c-3.9,0-7.07,3.18-7.07,7.08v39.29h-21.82s-.03,0-.05,0h-.02c-1.12,0-2-.92-2-2.09v-26.64c0-1.38-1.12-2.5-2.5-2.5s-2.5,1.12-2.5,2.5v26.64c0,.73,.11,1.43,.31,2.09h-39.9v-28.06c3.6-.21,6.67-.88,10.1-2.21,1.29-.5,1.93-1.94,1.43-3.23s-1.94-1.93-3.23-1.43c-2.46,.95-4.91,1.63-8.3,1.86v-69.29c0-1.38-1.12-2.5-2.5-2.5s-2.5,1.12-2.5,2.5v69.27c-19.4-1.45-31.79-19.77-31.79-47.54,0-26.06,25.1-54.81,32.79-63,.46-.49,1.24-.8,2.02-.8,.6,0,1.12,.19,1.43,.52l3.78,4.04,3.65-3.42-3.79-4.04c-1.27-1.35-3.07-2.09-5.08-2.09-2.15,0-4.26,.89-5.66,2.38-10.27,10.93-34.15,39.29-34.15,66.42,0,16.03,3.91,29.47,11.31,38.86,6.46,8.21,15.44,13,25.48,13.68v28.08h-9.32c-.07,0-.14,0-.21,0h-76.73c1.67-2.02,2.75-4.16,3.24-6.42,1.01-4.69-.95-8.09-1.38-8.76-1.31-2.24-2.91-3.85-4.78-4.82,2.94-3.2,3.27-6.56,2.93-8.99-.38-2.73-1.66-4.72-2.04-5.27-1.5-2.52-3.34-4.12-5.28-5.07,2.14-1.66,3.55-3.66,4.18-5.98,1.36-4.99-1.51-9.43-1.63-9.61-.02-.04-.05-.08-.08-.11-1.97-2.67-4.41-4.39-7.27-5.14l34.74-22.44c2.56-1.52,4.35-3.96,5.06-6.85s.22-5.88-1.35-8.4c-3.16-5.06-9.67-6.69-14.87-3.67l-31.23,18.9v-66.36c0-4.95,4.01-8.97,8.94-8.97h75.84c1.38,0,2.5-1.12,2.5-2.5s-1.12-2.5-2.5-2.5h-75.84c-7.69,0-13.94,6.27-13.94,13.97v69.38l-47.15,28.54,3.79-13.16c.8-2.47,1.4-5.01,1.79-7.53,.56-3.67,.75-6.25,.57-7.89-.9-8.23-5.65-13.96-12.71-15.31-2.57-.49-5.08,1.11-5.72,3.64l-4.07,16.16c-1.9,7.54-4.82,14.74-8.69,21.4-7.05,12.14-15.62,29.48-16.84,43.78l-16.71,18.18c-.93,1.02-.87,2.6,.15,3.53,.48,.44,1.09,.66,1.69,.66,.68,0,1.35-.27,1.84-.81l17.29-18.82c.39-.42,.62-.96,.65-1.53,.91-14.21,10.56-32.72,16.24-42.48,4.11-7.07,7.21-14.7,9.22-22.69l4-16.12c6.89,1.32,8.37,8.1,8.68,10.95,.07,.66,.1,2.4-.54,6.59-.35,2.26-.88,4.53-1.63,6.83l-5.31,18.44-4.99,3.02c-1.18,.71-1.56,2.25-.84,3.43,.47,.78,1.3,1.21,2.14,1.21,.44,0,.89-.12,1.29-.36l94.62-57.28c2.81-1.63,6.36-.75,8.08,2.01,.86,1.38,1.12,3,.74,4.58s-1.36,2.9-2.83,3.78l-44.67,28.86c-1.72,.92-2.83,1.76-2.94,1.84-.07,.06-.13,.13-.2,.19l-3.09,1.99c-1.16,.75-1.49,2.3-.74,3.46s2.3,1.49,3.46,.74l6.04-3.9c2.02-1.06,5.03-2.24,7.93-1.83,2.1,.3,3.84,1.41,5.31,3.37,.21,.35,1.67,2.91,.96,5.52-.5,1.85-2.05,3.44-4.61,4.71l-5.5,2.43c-.17,.07-.33,.14-.48,.21l-2.65,1.17c-1.26,.56-1.84,2.03-1.28,3.3,.41,.94,1.33,1.49,2.29,1.49,.34,0,.68-.07,1.01-.21l2.88-1.27c1.5-.62,6.84-2.31,10.03,3.16,.04,.07,.1,.15,.14,.22,.62,.86,3.43,5.34-1.97,9.39-.74,.56-1.65,1.07-2.83,1.59-.65,.23-1.12,.47-1.36,.6l-2.66,1.16c-1.27,.55-1.84,2.03-1.29,3.29,.41,.94,1.33,1.5,2.29,1.5,.33,0,.67-.07,1-.21l3.82-1.67c.71-.24,1.81-.47,2.98-.16,1.41,.37,2.67,1.48,3.72,3.31,.02,.03,.05,.09,.07,.12,.06,.09,1.36,2.19,.69,5.13-.69,3.04-3.35,6.07-7.59,8.71l-32.02,18.28c-1.37,.57-16.12,6.51-31.25,2.17-.87-.25-1.82,0-2.46,.64l-16.79,16.91c-.97,.98-.97,2.56,.01,3.54,.49,.48,1.12,.73,1.76,.73s1.29-.25,1.77-.74l15.77-15.88c17.04,4.27,32.65-2.54,33.32-2.84,.08-.03,.15-.07,.22-.11l13.61-7.77v13.3c0,7.75,6.26,14.05,13.95,14.05h9.45s0,0,0,0h79.12c7.69,0,13.94-6.27,13.94-13.97v-13.28c0-.05,.02-.1,.02-.15l.08-11.21h46.59s.04,0,.05,0h101.02l106.9-.28c2.75,0,5.06-1.92,5.51-4.57,.29-1.74,.3-3.52,.02-5.31-1.09-6.95-6.7-12.44-13.63-13.36Zm-96.08-112.92h54.46c1.14,0,2.07,.93,2.07,2.08v35.93l-24.34-21.79c-2.12-1.89-5.31-1.89-7.44,0l-24.75,22.17v-38.4Zm-15.35,58.86l43.43-38.9c.23-.2,.56-.2,.78,0l43.44,38.9v72.39l-25.51,.07-.23-38.57c-.02-3.08-2.53-5.59-5.6-5.59h-25.5c-1.5,0-2.91,.59-3.97,1.65-1.07,1.07-1.65,2.5-1.64,4.01l.15,24.93c-1.44-1.79-2.71-2.75-3.09-3.01-2.81-2.16-6.16-3.3-9.69-3.3-2.5,0-4.9,.57-7.13,1.7-.25,.13-.56,.06-.69-.16-1.21-2.03-2.85-3.73-4.76-5.03v-49.07Zm30.2,33.91c0-.23,.12-.39,.19-.46,.08-.08,.22-.18,.42-.18h25.5c.33,0,.6,.28,.6,.63l.23,38.55-26.71,.07-.23-38.61Zm-91.75-.64c0-1.15,.93-2.08,2.07-2.08h38.88c1.14,0,2.07,.93,2.07,2.08v16.24c-3.14,2.37-5.41,5.9-6.14,10.04-.06,.31-.25,.53-.53,.58-5.47,.97-11.75,4.81-12.84,12.44h-23.5v-39.29Zm-78.56,55.3c0,.06-.02,.12-.02,.18v13.45c0,4.95-4.01,8.97-8.94,8.97h-84.16s0,0,0,0h-4.41c-4.94,0-8.95-4.06-8.95-9.05v-16.15l13.61-7.77c.36-.22,.67-.45,1.01-.67,.14,.02,.28,.04,.43,.04h82.21c.07,0,.15,0,.22,0h9.09s-.07,11.02-.07,11.02Zm152.73-16.01h-45.6c1.22-5.72,6.79-7.19,8.65-7.52,2.36-.42,4.16-2.23,4.58-4.63,.93-5.29,5.48-9.13,10.81-9.13,3.88,0,7.4,2.01,9.41,5.37,1.47,2.46,4.64,3.36,7.23,2.06,1.53-.77,3.17-1.16,4.88-1.16,2.44,0,4.75,.79,6.68,2.29,.04,.03,.1,.07,.14,.1,.23,.16,5.22,3.71,5.97,12.58l-12.75,.03Zm107.49-.68c-.04,.22-.3,.4-.58,.4l-26.87,.07v-11.91c.66,.39,1.29,.83,1.86,1.36,2.06,1.9,5.32,1.89,7.41-.02,2.43-2.22,5.57-3.21,8.85-2.77,4.68,.62,8.61,4.48,9.35,9.18,.2,1.25,.19,2.49-.01,3.7Z"></path>
    </g>
  </g>
  <g id="Ebene_2">
    <rect class="cls-1" width="500" height="500"></rect>
  </g>
</svg>
