<?xml version="1.0" encoding="UTF-8"?>
<svg xmlns="http://www.w3.org/2000/svg" viewBox="0 0 500 500">
  <defs>
    <style>.cls-1{fill:none;}.cls-2{fill:#fff;}.cls-3{fill:#64dca0;}</style>
  </defs>
  <g id="Ebene_1">
    <path class="cls-3" d="M437.46,100.52l-1.63,1.88c-.5,.57-.44,1.43,.11,1.95,13.16,12.36,21.4,29.91,21.4,49.35s-8.82,38.21-22.79,50.62c-.88,.78-.99,2.1-.22,2.99l17.55,20.24c.67,.77,1.89,.79,2.57,.02,13.35-15.19,21.46-35.09,21.46-56.85,0-29.06-14.44-54.8-36.52-70.44-.6-.43-1.44-.32-1.92,.24Z"></path>
    <g>
      <path class="cls-2" d="M292.25,229.3h-44.35v-18.11c0-7.51-6.11-13.61-13.61-13.61h-41.23c-7.51,0-13.61,6.11-13.61,13.61v18.11h-44.35c-7.76,0-14.07,6.31-14.07,14.07v102.92c0,7.76,6.31,14.07,14.07,14.07h157.16c7.76,0,14.07-6.31,14.07-14.07v-102.92c0-7.76-6.31-14.07-14.07-14.07Zm-107.81-18.11c0-4.75,3.86-8.61,8.61-8.61h41.23c4.75,0,8.61,3.86,8.61,8.61v18.11h-58.46v-18.11Zm-49.35,23.11h157.16c5,0,9.07,4.07,9.07,9.07v46.86H126.02v-46.86c0-5,4.07-9.07,9.07-9.07Zm157.16,121.06H135.09c-5,0-9.07-4.07-9.07-9.07v-51.06h175.3v51.06c0,5-4.07,9.07-9.07,9.07Z"></path>
      <path class="cls-2" d="M194.96,274.08h37.42c1.38,0,2.5-1.12,2.5-2.5s-1.12-2.5-2.5-2.5h-37.42c-1.38,0-2.5,1.12-2.5,2.5s1.12,2.5,2.5,2.5Z"></path>
      <path class="cls-2" d="M424.15,241.84c3.98-2.59,7.78-5.5,11.36-8.76,1.02-.93,1.09-2.51,.16-3.53-.93-1.02-2.51-1.09-3.53-.16-2.68,2.44-5.49,4.68-8.41,6.73,.01-.09,.03-.19,.03-.28v-5.56c0-27.37-22.27-49.64-49.64-49.64s-49.64,22.27-49.64,49.64v2.75c-17.42-13.89-28.91-34.49-31.05-57.23,.26-.39,.41-.86,.41-1.37,0-.65-.25-1.23-.65-1.67-.32-5.55-.08-11.22,.77-16.93,4.91-33.11,29.02-59.91,61.42-68.29,.34-.09,34.4-8.51,64.16,9.59,1.18,.72,2.72,.34,3.44-.84,.72-1.18,.34-2.72-.84-3.44-31.6-19.22-66.53-10.54-68.01-10.16-34.35,8.88-59.91,37.3-65.12,72.4-.83,5.64-1.11,11.27-.88,16.84H67.86s-.07,0-.11,0c-10.3,0-18.71,8.35-18.77,18.67v190.41H20.24c-1.38,0-2.5,1.12-2.5,2.5v17.82c.04,10.06,8.23,18.21,18.27,18.21H391.32c10.05,0,18.24-8.16,18.28-18.22v-17.81c0-1.38-1.12-2.5-2.5-2.5h-28.71c-.05-13.39-.27-78.23-.49-124.95,14.79-.28,29.18-4.26,41.97-11.6l57.88,77.88c.49,.66,1.24,1.01,2.01,1.01,.52,0,1.04-.16,1.49-.49,1.11-.82,1.34-2.39,.52-3.5l-57.62-77.52Zm-94.67-7.05v-4.53c0-24.61,20.02-44.64,44.64-44.64s44.64,20.02,44.64,44.64v5.56c0,1.14,.77,2.09,1.81,2.39-16.7,10.59-36.67,14.93-56.6,11.97-13.02-1.93-24.88-6.81-35.03-13.85,.34-.43,.55-.96,.55-1.55Zm75.12,166.52c-.03,7.31-5.98,13.23-13.29,13.23H36.02c-7.3,0-13.25-5.93-13.28-13.22v-15.31H404.6v15.3Zm-350.62-20.3V190.61c.05-7.59,6.28-13.72,13.87-13.69h220.63c1.56,15.63,7.32,30.61,16.92,43.56,14.02,18.9,34.56,31.2,57.83,34.65,3.23,.48,6.45,.77,9.67,.9,.22,46.7,.44,111.55,.49,124.98H53.97Z"></path>
      <path class="cls-2" d="M345.27,140.18c0,15.91,12.94,28.85,28.85,28.85s28.85-12.94,28.85-28.85-12.94-28.85-28.85-28.85-28.85,12.94-28.85,28.85Zm52.7,0c0,13.15-10.7,23.85-23.85,23.85s-23.85-10.7-23.85-23.85,10.7-23.85,23.85-23.85,23.85,10.7,23.85,23.85Z"></path>
    </g>
  </g>
  <g id="Ebene_2">
    <rect class="cls-1" width="500" height="500"></rect>
  </g>
</svg>
