<?xml version="1.0" encoding="UTF-8"?>
<svg xmlns="http://www.w3.org/2000/svg" viewBox="0 0 500 500">
  <defs>
    <style>.cls-1{fill:none;}.cls-2{fill:#fff;}.cls-3{fill:#64dca0;}</style>
  </defs>
  <g id="Ebene_1">
    <path class="cls-3" d="M328.79,143.91l-2.78,3.24c-.85,.99-.77,2.44,.2,3.32,22.56,21.19,36.68,51.28,36.68,84.6s-15.11,65.51-39.09,86.79c-1.51,1.34-1.7,3.61-.37,5.11l30.09,34.69c1.16,1.34,3.24,1.36,4.4,.03,22.9-26.05,36.79-60.17,36.79-97.47,0-49.83-24.77-93.95-62.61-120.77-1.02-.74-2.47-.54-3.3,.4"></path>
    <g>
      <path class="cls-2" d="M200.34,335.53c-15.59-6.92-26.24-22.2-27.13-38.93-.07-1.38-1.25-2.47-2.63-2.36-1.38,.07-2.44,1.25-2.36,2.63,.98,18.58,12.79,35.55,30.09,43.23,.33,.15,.67,.22,1.01,.22,.96,0,1.87-.55,2.29-1.49,.56-1.26,0-2.74-1.27-3.3Z"></path>
      <path class="cls-2" d="M332.23,233.16l-35.21-76.31c-.04-.09-.09-.18-.14-.27-1.33-2.14-3.64-3.43-6.19-3.45-2.58,0-4.87,1.24-6.23,3.36-.05,.09-.1,.17-.15,.27l-25.79,53.99-32.77-72.15c-.04-.09-.09-.18-.14-.27-1.88-3.08-5.16-4.94-8.77-4.96h-.07c-3.57,0-6.83,1.8-8.73,4.82-.05,.09-.1,.18-.15,.27l-59.63,126.72c-.22,.37-.47,.79-.69,1.31-.05,.12-.09,.24-.12,.36-4.89,10.91-7.06,22.56-6.44,34.65,2.04,38.33,33.68,69.42,72.04,70.77,.91,.03,1.82,.05,2.73,.05,19.51,0,37.88-7.4,51.96-20.99,14.29-13.8,22.34-32.2,22.83-51.99,12.15-.13,23.55-4.76,32.28-13.19,9.07-8.76,14.07-20.48,14.07-32.99,0-6.7-1.43-13.15-4.21-19.11-.14-.33-.3-.63-.47-.88Zm-67.97,114.57c-13.75,13.28-31.86,20.2-51.04,19.54-35.79-1.27-65.32-30.28-67.22-66.04-.59-11.42,1.49-22.42,6.17-32.7,.05-.12,.1-.24,.13-.36,.08-.15,.17-.31,.29-.5,.05-.08,.09-.16,.13-.25l59.62-126.69c1-1.51,2.6-2.37,4.42-2.37h.04c1.82,.01,3.48,.93,4.46,2.45l34.79,76.61c.07,.22,.16,.42,.28,.61l22.44,49.42c.04,.08,.07,.15,.12,.23,.17,.29,.32,.59,.42,.8,4.17,9.13,6.28,18.87,6.28,28.96,0,19.14-7.58,37-21.34,50.29Zm55.11-65.18c-7.8,7.53-17.98,11.67-28.84,11.8-.39-9.71-2.62-19.1-6.69-28.02-.17-.35-.35-.7-.55-1.05l-22.07-48.58,27.53-57.61c.61-.86,1.52-.97,1.91-.95,.38,0,1.3,.11,1.9,.98l35.24,76.37c.08,.17,.17,.32,.28,.47,.02,.04,.06,.14,.06,.14,2.5,5.36,3.77,11.11,3.77,17.07,0,11.14-4.45,21.58-12.54,29.39Z"></path>
      <path class="cls-2" d="M70.04,373.79c-.69,1.2-.28,2.72,.91,3.42l23.61,13.64-23.61,13.64c-1.2,.69-1.6,2.22-.91,3.42,.46,.8,1.3,1.25,2.17,1.25,.42,0,.85-.11,1.25-.33l23.61-13.64v27.27c0,1.38,1.12,2.5,2.5,2.5s2.5-1.12,2.5-2.5v-27.27l23.61,13.64c.39,.23,.82,.33,1.25,.33,.86,0,1.7-.45,2.17-1.25,.69-1.2,.28-2.72-.91-3.42l-23.61-13.64,23.61-13.64c1.2-.69,1.6-2.22,.91-3.42-.69-1.2-2.22-1.6-3.42-.91l-23.61,13.64v-27.27c0-1.38-1.12-2.5-2.5-2.5s-2.5,1.12-2.5,2.5v27.27l-23.61-13.64c-1.2-.69-2.72-.28-3.42,.91Z"></path>
      <path class="cls-2" d="M373.14,91.1c-.25-7.6,4.69-14.68,4.74-14.75,.8-1.12,.54-2.69-.59-3.49-1.12-.8-2.69-.54-3.49,.59-.24,.34-5.97,8.49-5.66,17.81,.21,6.41,2.3,9.69,4.14,12.59,1.72,2.7,3.2,5.03,3.36,10.07,.23,7.49-4.61,14.47-4.66,14.54-.79,1.13-.53,2.68,.6,3.48,.44,.31,.94,.46,1.44,.46,.78,0,1.56-.37,2.04-1.06,.24-.34,5.85-8.37,5.57-17.58-.21-6.41-2.3-9.69-4.14-12.59-1.72-2.7-3.2-5.03-3.36-10.08Z"></path>
      <path class="cls-2" d="M392.51,91.13c-.23-7.59,4.67-14.67,4.74-14.76,.8-1.13,.53-2.68-.6-3.48-1.13-.8-2.69-.53-3.49,.59-.24,.34-5.94,8.49-5.66,17.8,.21,6.41,2.3,9.7,4.14,12.6,1.72,2.7,3.2,5.03,3.36,10.08,.25,7.49-4.61,14.45-4.65,14.52-.8,1.12-.54,2.69,.59,3.49,.44,.31,.95,.46,1.45,.46,.78,0,1.55-.37,2.04-1.05,.24-.34,5.88-8.38,5.58-17.58-.21-6.41-2.3-9.7-4.14-12.6-1.72-2.7-3.2-5.03-3.36-10.07Z"></path>
      <path class="cls-2" d="M411.92,91.13c-.23-7.59,4.68-14.67,4.74-14.76,.8-1.13,.53-2.68-.6-3.48-1.13-.8-2.69-.53-3.49,.59-.24,.34-5.94,8.49-5.66,17.8,.21,6.41,2.3,9.69,4.14,12.59,1.72,2.7,3.2,5.03,3.36,10.08,.25,7.49-4.6,14.45-4.65,14.52-.8,1.12-.54,2.69,.59,3.49,.44,.31,.95,.46,1.45,.46,.78,0,1.55-.37,2.04-1.05,.24-.34,5.88-8.38,5.57-17.58-.21-6.41-2.3-9.7-4.14-12.6-1.72-2.7-3.2-5.03-3.36-10.07Z"></path>
      <path class="cls-2" d="M446.29,102.4c0-28.95-23.55-52.5-52.5-52.5s-52.5,23.55-52.5,52.5,23.55,52.5,52.5,52.5c10.47,0,20.22-3.09,28.42-8.39,19.06,31.4,29.13,67.42,29.13,104.36,0,111.02-90.32,201.33-201.34,201.33-29.89,0-58.54-6.36-85.28-18.9l27.51-8.98c1.31-.43,2.03-1.84,1.6-3.15-.43-1.31-1.84-2.03-3.15-1.6l-32.84,10.71c-.88,.03-1.71,.52-2.14,1.36,0,0,0,.01,0,.02-.35,.6-.46,1.33-.23,2.03l10.97,33.61c.34,1.05,1.32,1.73,2.38,1.73,.26,0,.52-.04,.78-.12,1.31-.43,2.03-1.84,1.6-3.15l-9.2-28.21c27.58,13.05,57.16,19.67,88.02,19.67,55.12,0,106.94-21.46,145.91-60.43,38.97-38.97,60.43-90.79,60.43-145.9,0-37.98-10.39-75.03-30.06-107.28,12.17-9.62,20-24.5,20-41.19Zm-100,0c0-26.19,21.31-47.5,47.5-47.5s47.5,21.31,47.5,47.5-21.31,47.5-47.5,47.5-47.5-21.31-47.5-47.5Z"></path>
      <path class="cls-2" d="M338.03,67.3c.06-.09,.11-.17,.16-.27,.45-.96,.23-2.06-.47-2.78l-13.01-31.72c-.52-1.28-1.98-1.89-3.26-1.37-1.28,.52-1.89,1.98-1.36,3.26l10.92,26.63c-25.63-10.96-52.85-16.53-81.02-16.53-55.12,0-106.94,21.46-145.91,60.43-38.97,38.97-60.43,90.79-60.43,145.9,0,34.16,8.53,67.92,24.64,97.8-5.04,3.76-9.35,8.34-12.81,13.66-5.5,8.5-8.41,18.36-8.41,28.52,0,28.95,23.55,52.5,52.5,52.5,21.16,0,40.15-12.59,48.38-32.06,2.73-6.45,4.12-13.32,4.12-20.44,0-28.95-23.55-52.5-52.5-52.5-9.65,0-18.96,2.6-27.1,7.52-15.57-29.04-23.81-61.82-23.81-94.99,0-111.02,90.32-201.33,201.34-201.33,27.75,0,54.56,5.52,79.78,16.43l-27.61,11.35c-1.28,.53-1.89,1.99-1.36,3.26,.4,.97,1.33,1.55,2.31,1.55,.32,0,.64-.06,.95-.19l32.7-13.44c.58-.24,1.01-.67,1.27-1.19ZM147.06,390.84c0,6.44-1.25,12.66-3.72,18.49-7.45,17.62-24.63,29.01-43.78,29.01-26.19,0-47.5-21.31-47.5-47.5,0-9.19,2.63-18.11,7.61-25.79,3.51-5.39,7.98-9.96,13.26-13.56,7.84-5.33,17.05-8.15,26.63-8.15,26.19,0,47.5,21.31,47.5,47.5Z"></path>
    </g>
  </g>
  <g id="Ebene_2">
    <rect class="cls-1" width="500" height="500"></rect>
  </g>
</svg>
