<svg xmlns="http://www.w3.org/2000/svg" width="180" height="180" viewBox="0 0 180 180">
  <g id="icn-circle-1" transform="translate(-190 -1631)">
    <circle id="Ellipse_68" data-name="Ellipse 68" cx="90" cy="90" r="90" transform="translate(190 1631)" fill="#fff"/>
    <path id="Ellipse_68_-_Kontur" data-name="Ellipse 68 - Kontur" d="M90,2A88.659,88.659,0,0,0,72.263,3.788,87.508,87.508,0,0,0,40.8,17.028,88.262,88.262,0,0,0,8.915,55.747,87.54,87.54,0,0,0,3.788,72.263a88.877,88.877,0,0,0,0,35.474A87.508,87.508,0,0,0,17.028,139.2a88.262,88.262,0,0,0,38.719,31.885,87.54,87.54,0,0,0,16.516,5.127,88.877,88.877,0,0,0,35.474,0,87.508,87.508,0,0,0,31.463-13.24,88.262,88.262,0,0,0,31.885-38.719,87.54,87.54,0,0,0,5.127-16.516,88.877,88.877,0,0,0,0-35.474A87.508,87.508,0,0,0,162.972,40.8,88.262,88.262,0,0,0,124.253,8.915a87.54,87.54,0,0,0-16.516-5.127A88.659,88.659,0,0,0,90,2m0-2A90,90,0,1,1,0,90,90,90,0,0,1,90,0Z" transform="translate(190 1631)" fill="#004a5a"/>
    <g id="Gruppe_380" data-name="Gruppe 380" transform="translate(-8.03 53.47)">
      <g id="icon_handy_1" transform="translate(257.03 1616.53)">
        <path id="Pfad_571" data-name="Pfad 571" d="M73.879,85.384H17.42m56.459-12.2V107.5a2.468,2.468,0,0,1-2.505,2.429H19.925A2.468,2.468,0,0,1,17.42,107.5V13.359a2.468,2.468,0,0,1,2.505-2.429H71.374a2.468,2.468,0,0,1,2.505,2.429v8.3" transform="translate(-17.42 -10.93)" fill="rgba(0,0,0,0)"/>
        <path id="Pfad_571_-_Kontur" data-name="Pfad 571 - Kontur" d="M71.374,110.93H19.925A3.472,3.472,0,0,1,16.42,107.5V13.359A3.472,3.472,0,0,1,19.925,9.93H71.374a3.472,3.472,0,0,1,3.505,3.429v8.3a1,1,0,0,1-2,0v-8.3a1.47,1.47,0,0,0-1.505-1.429H19.925a1.47,1.47,0,0,0-1.505,1.429V107.5a1.47,1.47,0,0,0,1.505,1.429H71.374a1.47,1.47,0,0,0,1.505-1.429V73.179a1,1,0,0,1,2,0V107.5A3.472,3.472,0,0,1,71.374,110.93Z" transform="translate(-17.42 -10.93)" fill="#004a5a"/>
        <ellipse id="Ellipse_73" data-name="Ellipse 73" cx="3.945" cy="3.868" rx="3.945" ry="3.868" transform="translate(23.585 83.655)" fill="rgba(0,0,0,0)"/>
        <path id="Ellipse_73_-_Kontur" data-name="Ellipse 73 - Kontur" d="M3.945-1A4.913,4.913,0,0,1,8.889,3.868,4.913,4.913,0,0,1,3.945,8.737,4.913,4.913,0,0,1-1,3.868,4.913,4.913,0,0,1,3.945-1Zm0,7.737A2.911,2.911,0,0,0,6.889,3.868,2.911,2.911,0,0,0,3.945,1,2.911,2.911,0,0,0,1,3.868,2.911,2.911,0,0,0,3.945,6.737Z" transform="translate(23.585 83.655)" fill="#004a5a"/>
        <g id="Zeichenfläche_17" data-name="Zeichenfläche 17" transform="translate(20.865 9.494)">
          <circle id="Ellipse_74" data-name="Ellipse 74" cx="27.067" cy="27.067" r="27.067" fill="rgba(0,0,0,0)"/>
          <path id="Ellipse_74_-_Kontur" data-name="Ellipse 74 - Kontur" d="M27.067-1A28.075,28.075,0,0,1,37.993,52.929,28.074,28.074,0,0,1,16.142,1.206,27.892,27.892,0,0,1,27.067-1Zm0,54.135A26.075,26.075,0,0,0,37.214,3.048,26.074,26.074,0,0,0,16.921,51.087,25.9,25.9,0,0,0,27.067,53.135Z" fill="#004a5a"/>
          <path id="Linie_216" data-name="Linie 216" d="M14.37,23.921a1,1,0,0,1-.848-.469L-.847.531A1,1,0,0,1-.531-.847,1,1,0,0,1,.847-.531l14.37,22.92a1,1,0,0,1-.846,1.531Z" transform="translate(12.698 4.147)" fill="#004a5a"/>
          <path id="Pfad_582" data-name="Pfad 582" d="M36.4,11.15V38.207H63.467" transform="translate(-9.333 -11.139)" fill="rgba(0,0,0,0)"/>
          <path id="Pfad_582_-_Kontur" data-name="Pfad 582 - Kontur" d="M63.467,39.207H36.4a1,1,0,0,1-1-1V11.15a1,1,0,0,1,2,0V37.207H63.467a1,1,0,0,1,0,2Z" transform="translate(-9.333 -11.139)" fill="#004a5a"/>
        </g>
      </g>
    </g>
  </g>
</svg>
