<svg id="icn-1" xmlns="http://www.w3.org/2000/svg" xmlns:xlink="http://www.w3.org/1999/xlink" width="174" height="132" viewBox="0 0 174 132">
  <defs>
    <clipPath id="clip-path">
      <rect id="Rechteck_1004" data-name="Rechteck 1004" width="174" height="132" fill="none"/>
    </clipPath>
  </defs>
  <g id="Gruppe_658" data-name="Gruppe 658">
    <g id="Gruppe_655" data-name="Gruppe 655">
      <g id="Gruppe_654" data-name="Gruppe 654" clip-path="url(#clip-path)">
        <path id="Pfad_1396" data-name="Pfad 1396" d="M144.806,118.392a1,1,0,0,1-1-1c0-.236-.08-23.859-.175-44.932a1,1,0,1,1,2-.009c.095,21.074.174,44.7.175,44.934a1,1,0,0,1-1,1Z" fill="#004b5c"/>
        <path id="Linie_384" data-name="Linie 384" d="M5.672,1H0A1,1,0,0,1-1,0,1,1,0,0,1,0-1H5.672a1,1,0,0,1,1,1A1,1,0,0,1,5.672,1Z" transform="translate(92.592 32.882)" fill="#004b5c"/>
        <path id="Pfad_1397" data-name="Pfad 1397" d="M13.676,118.394a1,1,0,0,1-1-1V39.419s0,0,0-.006a7.588,7.588,0,0,1,7.617-7.531h6.554a1,1,0,0,1,0,2H20.253a5.585,5.585,0,0,0-5.577,5.54v77.972A1,1,0,0,1,13.676,118.394Z" fill="#004b5c"/>
        <path id="Pfad_1398" data-name="Pfad 1398" d="M1.052,116.4H157.419a1,1,0,0,1,1,1v7.2a7.379,7.379,0,0,1-7.378,7.355H7.43A7.378,7.378,0,0,1,.052,124.6v-7.2A1,1,0,0,1,1.052,116.4Zm155.367,2H2.052v6.2A5.388,5.388,0,0,0,7.43,129.95H151.041a5.388,5.388,0,0,0,5.378-5.359Z" fill="#004b5c"/>
        <path id="Pfad_1399" data-name="Pfad 1399" d="M92.592,92.1H26.847a1,1,0,0,1-1-1V16.013a1,1,0,0,1,.3-.712L41.343.333a1,1,0,0,1,.7-.288H92.592a1,1,0,0,1,1,1V91.1A1,1,0,0,1,92.592,92.1Zm-64.745-2H91.592V2.045H42.455L27.847,16.432Z" fill="#004b5c"/>
        <path id="Pfad_1400" data-name="Pfad 1400" d="M42.045,17.53H31.764a1,1,0,0,1,0-2h9.281V1.045a1,1,0,1,1,2,0V16.53A1,1,0,0,1,42.045,17.53Z" fill="#004b5c"/>
        <path id="Pfad_1401" data-name="Pfad 1401" d="M40.748,28.893a1,1,0,0,1-.7-.291l-4.649-4.619a1,1,0,0,1,1.41-1.419l3.944,3.919,7.3-7.245a1,1,0,0,1,1.409,1.419l-8,7.945A1,1,0,0,1,40.748,28.893Z" fill="#004b5c"/>
        <path id="Pfad_1402" data-name="Pfad 1402" d="M40.748,46.072a1,1,0,0,1-.7-.291l-4.649-4.619a1,1,0,0,1,1.41-1.419l3.944,3.919,7.3-7.245a1,1,0,0,1,1.409,1.419l-8,7.945A1,1,0,0,1,40.748,46.072Z" fill="#004b5c"/>
        <path id="Pfad_1403" data-name="Pfad 1403" d="M40.748,61.794a1,1,0,0,1-.7-.291l-4.649-4.618A1,1,0,1,1,36.8,55.467l3.944,3.918,7.3-7.245a1,1,0,0,1,1.409,1.419l-8,7.945A1,1,0,0,1,40.748,61.794Z" fill="#004b5c"/>
        <path id="Pfad_1404" data-name="Pfad 1404" d="M40.748,78.975a1,1,0,0,1-.7-.291l-4.649-4.619a1,1,0,1,1,1.41-1.419l3.944,3.919,7.3-7.245a1,1,0,0,1,1.409,1.419l-8,7.945A1,1,0,0,1,40.748,78.975Z" fill="#004b5c"/>
        <path id="Linie_385" data-name="Linie 385" d="M31.97,1H0A1,1,0,0,1-1,0,1,1,0,0,1,0-1H31.97a1,1,0,0,1,1,1A1,1,0,0,1,31.97,1Z" transform="translate(52.409 25.112)" fill="#004b5c"/>
        <path id="Linie_386" data-name="Linie 386" d="M31.97,1H0A1,1,0,0,1-1,0,1,1,0,0,1,0-1H31.97a1,1,0,0,1,1,1A1,1,0,0,1,31.97,1Z" transform="translate(52.409 42.131)" fill="#004b5c"/>
        <path id="Linie_387" data-name="Linie 387" d="M31.97,1H0A1,1,0,0,1-1,0,1,1,0,0,1,0-1H31.97a1,1,0,0,1,1,1A1,1,0,0,1,31.97,1Z" transform="translate(52.409 58.014)" fill="#004b5c"/>
        <path id="Linie_388" data-name="Linie 388" d="M31.97,1H0A1,1,0,0,1-1,0,1,1,0,0,1,0-1H31.97a1,1,0,0,1,1,1A1,1,0,0,1,31.97,1Z" transform="translate(52.409 75.033)" fill="#004b5c"/>
        <path id="Pfad_1405" data-name="Pfad 1405" d="M132.207,69.359a29.021,29.021,0,0,1-.187-58.041h.282a29.029,29.029,0,0,1,11.376,55.688A28.837,28.837,0,0,1,132.4,69.358Zm.1-56.042h-.264a27.036,27.036,0,1,0,27.193,26.847v-.006A26.907,26.907,0,0,0,132.3,13.317Z" fill="#004a5a"/>
        <path id="Pfad_1406" data-name="Pfad 1406" d="M132.119,11.316h.094A28.843,28.843,0,0,1,132.037,69h-.188a28.843,28.843,0,0,1,.27-57.685ZM132.037,67a26.843,26.843,0,0,0,.166-53.686h-.084A26.843,26.843,0,0,0,131.862,67Z" fill="#004a5a"/>
        <path id="Linie_389" data-name="Linie 389" d="M0,6.649a1,1,0,0,1-1-1V0A1,1,0,0,1,0-1,1,1,0,0,1,1,0V5.649A1,1,0,0,1,0,6.649Z" transform="translate(132.571 22.051)" fill="#004a5a"/>
        <path id="Linie_390" data-name="Linie 390" d="M.263,2.381-.263.451,4.931-.965,5.457.965Z" transform="translate(144.618 35.515)" fill="#004a5a"/>
        <path id="Linie_391" data-name="Linie 391" d="M0,2.416a1,1,0,0,1-.964-.737A1,1,0,0,1-.263.451L4.931-.965a1,1,0,0,1,1.228.7,1,1,0,0,1-.7,1.228L.263,2.381A1,1,0,0,1,0,2.416Z" transform="translate(144.618 35.515)" fill="#004a5a"/>
        <path id="Linie_392" data-name="Linie 392" d="M2.981,4.281-.7.718.7-.718,4.373,2.845Z" transform="translate(141.262 49.354)" fill="#004a5a"/>
        <path id="Linie_393" data-name="Linie 393" d="M3.677,4.563a1,1,0,0,1-.7-.282L-.7.718A1,1,0,0,1-.718-.7,1,1,0,0,1,.7-.718L4.373,2.845a1,1,0,0,1-.7,1.718Z" transform="translate(141.262 49.354)" fill="#004a5a"/>
        <path id="Linie_394" data-name="Linie 394" d="M.718,4.487-.718,3.095,2.959-.7,4.395.7Z" transform="translate(119.11 49.217)" fill="#004a5a"/>
        <path id="Linie_395" data-name="Linie 395" d="M0,4.791a1,1,0,0,1-.7-.282A1,1,0,0,1-.718,3.095L2.959-.7A1,1,0,0,1,4.373-.718,1,1,0,0,1,4.395.7L.718,4.487A1,1,0,0,1,0,4.791Z" transform="translate(119.11 49.217)" fill="#004a5a"/>
        <path id="Linie_396" data-name="Linie 396" d="M4.908,2.51-.286.958.286-.958,5.48.594Z" transform="translate(114.375 35.287)" fill="#004a5a"/>
        <path id="Linie_397" data-name="Linie 397" d="M5.194,2.552a1,1,0,0,1-.287-.042L-.286.958A1,1,0,0,1-.958-.286,1,1,0,0,1,.286-.958L5.48.594a1,1,0,0,1-.286,1.958Z" transform="translate(114.375 35.287)" fill="#004a5a"/>
        <path id="Pfad_1407" data-name="Pfad 1407" d="M132.055,59.092a3.514,3.514,0,0,1-.019-7.028h.019a3.507,3.507,0,0,1,3.513,3.494h0a3.518,3.518,0,0,1-3.494,3.534Zm-.01-5.028a1.514,1.514,0,1,0,1.525,1.506l1-.006h-1.006a1.506,1.506,0,0,0-1.51-1.5Z" fill="#004a5a"/>
        <path id="Pfad_1408" data-name="Pfad 1408" d="M132.064,52.064a3.513,3.513,0,0,1,3.506,3.493v0a3.518,3.518,0,0,1-3.494,3.53h-.021a3.514,3.514,0,0,1-.019-7.028h.028Zm-.009,5.028h.009a1.516,1.516,0,0,0,1.506-1.522s0,0,0-.006a1.509,1.509,0,0,0-1.506-1.5h-.019a1.514,1.514,0,0,0,.01,3.028Z" fill="#004a5a"/>
        <path id="Pfad_1409" data-name="Pfad 1409" d="M154.372,13.311l-.834.949a.7.7,0,0,0,.06.983,33.838,33.838,0,0,1-.716,50.385,1.065,1.065,0,0,0-.114,1.5l8.957,10.207a.88.88,0,0,0,1.235.1.943.943,0,0,0,.1-.1,43.169,43.169,0,0,0-7.683-64.158.748.748,0,0,0-1.006.131" fill="#64dca0"/>
      </g>
    </g>
    <g id="Gruppe_657" data-name="Gruppe 657">
      <g id="Gruppe_656" data-name="Gruppe 656" clip-path="url(#clip-path)">
        <path id="Pfad_1410" data-name="Pfad 1410" d="M132.075,75.833A35.588,35.588,0,1,1,152.188,10.71a1,1,0,0,1-1.115,1.66,33.734,33.734,0,0,0-18.862-5.725h-.154a33.6,33.6,0,1,0,17.406,62.319,1,1,0,0,1,1.036,1.711,35.491,35.491,0,0,1-18.425,5.159Z" fill="#004a5a"/>
      </g>
    </g>
  </g>
</svg>
