<svg xmlns="http://www.w3.org/2000/svg" width="180" height="180" viewBox="0 0 180 180">
  <g id="icn-circle-2" transform="translate(-630 -1631)">
    <circle id="Ellipse_69" data-name="Ellipse 69" cx="90" cy="90" r="90" transform="translate(630 1631)" fill="#fff"/>
    <path id="Ellipse_69_-_Kontur" data-name="Ellipse 69 - Kontur" d="M90,2A88.659,88.659,0,0,0,72.263,3.788,87.508,87.508,0,0,0,40.8,17.028,88.262,88.262,0,0,0,8.915,55.747,87.54,87.54,0,0,0,3.788,72.263a88.877,88.877,0,0,0,0,35.474A87.508,87.508,0,0,0,17.028,139.2a88.262,88.262,0,0,0,38.719,31.885,87.54,87.54,0,0,0,16.516,5.127,88.877,88.877,0,0,0,35.474,0,87.508,87.508,0,0,0,31.463-13.24,88.262,88.262,0,0,0,31.885-38.719,87.54,87.54,0,0,0,5.127-16.516,88.877,88.877,0,0,0,0-35.474A87.508,87.508,0,0,0,162.972,40.8,88.262,88.262,0,0,0,124.253,8.915a87.54,87.54,0,0,0-16.516-5.127A88.659,88.659,0,0,0,90,2m0-2A90,90,0,1,1,0,90,90,90,0,0,1,90,0Z" transform="translate(630 1631)" fill="#004a5a"/>
    <g id="Gruppe_382" data-name="Gruppe 382" transform="translate(-3551 7820)">
      <g id="icon_wohnung" transform="translate(4210 -6148)">
        <g id="Gruppe_381" data-name="Gruppe 381" transform="translate(0 0)">
          <path id="Pfad_573" data-name="Pfad 573" d="M54.707,68.2V60.36a1.8,1.8,0,0,1,1.8-1.8h6.841M34.9,68.2V60.36a1.8,1.8,0,0,1,1.8-1.8h6.841m11.161-9.227V41.547a1.8,1.8,0,0,1,1.8-1.8h6.841M34.9,49.353V41.547a1.8,1.8,0,0,1,1.8-1.8h6.841M55.067,30.5V22.716a1.8,1.8,0,0,1,1.8-1.8h6.823M35.265,30.5V22.716a1.8,1.8,0,0,1,1.8-1.8h6.823M23.42,58.4V12.23A2.249,2.249,0,0,1,25.67,10H73.248a2.249,2.249,0,0,1,2.25,2.248V105H25.67a2.249,2.249,0,0,1-2.25-2.266V71.817M37.641,105V84.5a2.249,2.249,0,0,1,2.25-2.248H59.027a2.249,2.249,0,0,1,2.25,2.248V105" transform="translate(12.205 -10)" fill="rgba(0,0,0,0)"/>
          <path id="Pfad_573_-_Kontur" data-name="Pfad 573 - Kontur" d="M75.5,106H25.67a3.249,3.249,0,0,1-3.25-3.269V12.23s0-.005,0-.008A3.258,3.258,0,0,1,25.67,9H73.248a3.253,3.253,0,0,1,3.25,3.248V105A1,1,0,0,1,75.5,106Zm-13.221-2H74.5V12.248A1.251,1.251,0,0,0,73.248,11H25.67a1.253,1.253,0,0,0-1.25,1.236v90.5s0,.005,0,.008A1.249,1.249,0,0,0,25.67,104H36.641V84.5a3.253,3.253,0,0,1,3.25-3.248H59.027a3.253,3.253,0,0,1,3.25,3.248Zm-23.636,0H60.277V84.5a1.251,1.251,0,0,0-1.25-1.248H39.891a1.251,1.251,0,0,0-1.25,1.248ZM54.707,61.36a1,1,0,0,1-1-1,2.8,2.8,0,0,1,2.8-2.8h6.841a1,1,0,0,1,.2,1.979l-8.641,1.8A1,1,0,0,1,54.707,61.36Zm-19.8,0a1,1,0,0,1-1-1,2.8,2.8,0,0,1,2.8-2.8h6.841a1,1,0,0,1,.2,1.979l-8.641,1.8A1,1,0,0,1,34.905,61.36Zm19.8-18.813a1,1,0,0,1-1-1,2.8,2.8,0,0,1,2.8-2.8h6.841a1,1,0,0,1,.2,1.979l-8.641,1.8A1,1,0,0,1,54.707,42.547Zm-19.8,0a1,1,0,0,1-1-1,2.8,2.8,0,0,1,2.8-2.8h6.841a1,1,0,0,1,.2,1.979l-8.641,1.8A1,1,0,0,1,34.905,42.547ZM55.067,23.716a1,1,0,0,1-1-1,2.8,2.8,0,0,1,2.8-2.8h6.823a1,1,0,0,1,.2,1.979l-8.623,1.8A1,1,0,0,1,55.067,23.716Zm-19.8,0a1,1,0,0,1-1-1,2.8,2.8,0,0,1,2.8-2.8h6.823a1,1,0,0,1,.2,1.979l-8.623,1.8A1,1,0,0,1,35.265,23.716Z" transform="translate(12.205 -10)" fill="#004a5a"/>
          <path id="Pfad_574" data-name="Pfad 574" d="M53.03,25.59H81.076a2.249,2.249,0,0,1,2.25,2.248V90.284a2.249,2.249,0,0,1-2.25,2.266H51.5" transform="translate(34.673 2.45)" fill="rgba(0,0,0,0)"/>
          <path id="Pfad_574_-_Kontur" data-name="Pfad 574 - Kontur" d="M81.077,93.551H51.5a1,1,0,0,1,0-2H81.076a1.249,1.249,0,0,0,1.25-1.258s0-.005,0-.008V27.838a1.251,1.251,0,0,0-1.25-1.248H53.03a1,1,0,0,1,0-2H81.076a3.253,3.253,0,0,1,3.25,3.248V90.281a3.249,3.249,0,0,1-3.25,3.27Z" transform="translate(34.673 2.45)" fill="#004a5a"/>
          <path id="Pfad_575" data-name="Pfad 575" d="M39.849,54.552c0,16.025-8.119,24.6-18.11,24.6S3.63,70.578,3.63,54.552C3.63,41.495,15.655,27.574,20.1,22.79a2.252,2.252,0,0,1,3.258,0C27.824,27.52,39.849,41.495,39.849,54.552Z" transform="translate(-3.63 -0.344)" fill="rgba(0,0,0,0)"/>
          <path id="Pfad_575_-_Kontur" data-name="Pfad 575 - Kontur" d="M21.74,80.157a16.941,16.941,0,0,1-7.482-1.692,17.574,17.574,0,0,1-6.1-4.981C4.54,68.912,2.63,62.366,2.63,54.552c0-5.8,2.261-12.365,6.72-19.513a88.191,88.191,0,0,1,10.019-12.93l.009-.009a3.252,3.252,0,0,1,4.706,0l0,0a85.68,85.68,0,0,1,10.04,12.916c4.46,7.154,6.722,13.726,6.722,19.533,0,7.813-1.91,14.36-5.524,18.932a17.574,17.574,0,0,1-6.1,4.981A16.941,16.941,0,0,1,21.74,80.157Zm-.911-56.681A86.154,86.154,0,0,0,11.047,36.1C6.789,42.924,4.63,49.133,4.63,54.552c0,7.359,1.761,13.476,5.093,17.692a15.592,15.592,0,0,0,5.41,4.423,15.393,15.393,0,0,0,13.213,0,15.592,15.592,0,0,0,5.41-4.423c3.332-4.215,5.093-10.333,5.093-17.692,0-5.427-2.16-11.643-6.419-18.475a83.617,83.617,0,0,0-9.8-12.6,1.252,1.252,0,0,0-1.806,0Z" transform="translate(-3.63 -0.344)" fill="#004a5a"/>
          <path id="Linie_214" data-name="Linie 214" d="M0,52.457a1,1,0,0,1-1-1V0A1,1,0,0,1,0-1,1,1,0,0,1,1,0V51.457A1,1,0,0,1,0,52.457Z" transform="translate(18.11 43.543)" fill="#004a5a"/>
          <path id="Linie_215" data-name="Linie 215" d="M30.117,1H0A1,1,0,0,1-1,0,1,1,0,0,1,0-1H30.117a1,1,0,0,1,1,1A1,1,0,0,1,30.117,1Z" transform="translate(7.039 95)" fill="#004a5a"/>
        </g>
        <path id="Pfad_576" data-name="Pfad 576" d="M24.67,10H72.248a2.249,2.249,0,0,1,2.25,2.248V105" transform="translate(13.205 -10)" fill="rgba(0,0,0,0)"/>
        <path id="Pfad_576_-_Kontur" data-name="Pfad 576 - Kontur" d="M74.5,106a1,1,0,0,1-1-1V12.248A1.251,1.251,0,0,0,72.248,11H24.67a1,1,0,0,1,0-2H72.248a3.253,3.253,0,0,1,3.25,3.248V105A1,1,0,0,1,74.5,106Z" transform="translate(13.205 -10)" fill="#004a5a"/>
      </g>
    </g>
  </g>
</svg>
