<svg id="icn-2" xmlns="http://www.w3.org/2000/svg" xmlns:xlink="http://www.w3.org/1999/xlink" width="159" height="132" viewBox="0 0 159 132">
  <defs>
    <clipPath id="clip-path">
      <rect id="Rechteck_883" data-name="Rechteck 883" width="159" height="132" fill="none"/>
    </clipPath>
  </defs>
  <g id="Gruppe_537" data-name="Gruppe 537" clip-path="url(#clip-path)">
    <path id="Pfad_1277" data-name="Pfad 1277" d="M100.588,125.778H26.54a9.759,9.759,0,0,1-6.855-2.848,9.419,9.419,0,0,1-2.8-6.789V62.259a1,1,0,0,1,2,0v53.886s0,.005,0,.008a7.434,7.434,0,0,0,2.216,5.36,7.77,7.77,0,0,0,5.455,2.265h74.037a1,1,0,0,1,0,2Z" transform="translate(-1.965 -6.184)" fill="#004b5c"/>
    <path id="Pfad_1278" data-name="Pfad 1278" d="M1,58.091a1,1,0,0,1-.667-1.745L62.969.271a1,1,0,0,1,1.336,0l62.241,56.075a1,1,0,1,1-1.339,1.486L63.634,2.36,1.667,57.836A1,1,0,0,1,1,58.091Z" transform="translate(-0.082 -0.096)" fill="#004b5c"/>
    <path id="Pfad_1286" data-name="Pfad 1286" d="M55.22,14H30.508a1,1,0,0,1-1-1V1a1,1,0,0,1,1-1H55.22a1,1,0,0,1,.768.36l5,6a1,1,0,0,1,0,1.28l-5,6A1,1,0,0,1,55.22,14ZM31.508,12H54.751l4.167-5L54.751,2H31.508Z" transform="translate(-4.609 55)" fill="#004b5c"/>
    <path id="Pfad_1287" data-name="Pfad 1287" d="M50.22,14H10.508a1,1,0,0,1-1-1V1a1,1,0,0,1,1-1H50.22a1,1,0,0,1,.768.36l5,6a1,1,0,0,1,0,1.28l-5,6A1,1,0,0,1,50.22,14ZM11.508,12H49.751l4.167-5L49.751,2H11.508Z" transform="translate(15.391 75)" fill="#004b5c"/>
    <path id="Pfad_1288" data-name="Pfad 1288" d="M55.22,14H.508a1,1,0,0,1-1-1V1a1,1,0,0,1,1-1H55.22a1,1,0,0,1,.768.36l5,6a1,1,0,0,1,0,1.28l-5,6A1,1,0,0,1,55.22,14ZM1.508,12H54.751l4.167-5L54.751,2H1.508Z" transform="translate(25.391 95)" fill="#004b5c"/>
    <g id="Gruppe_540" data-name="Gruppe 540" transform="translate(91.687 68.366)">
      <path id="Pfad_1282" data-name="Pfad 1282" d="M158.4,139.961a31.113,31.113,0,0,1-17.173,5.652,30.54,30.54,0,1,1-1.593-61.054,31.188,31.188,0,0,1,14.941,3.355" transform="translate(-109.464 -84.549)" fill="none"/>
      <g id="Gruppe_539" data-name="Gruppe 539" transform="translate(0 0.463)">
        <path id="Pfad_1283" data-name="Pfad 1283" d="M157.66,139.12a30.641,30.641,0,0,1-16.913,5.566,30.077,30.077,0,1,1-1.568-60.127,30.714,30.714,0,0,1,14.715,3.3" transform="translate(-109.464 -84.549)" fill="rgba(0,0,0,0)"/>
        <path id="Pfad_1283_-_Kontur" data-name="Pfad 1283 - Kontur" d="M139.939,145.7a31.631,31.631,0,0,1-21.664-8.539,30.979,30.979,0,0,1-7.008-9.7,30.787,30.787,0,0,1-.631-24.193,30.918,30.918,0,0,1,6.493-10.045,31.6,31.6,0,0,1,22.024-9.658,32.011,32.011,0,0,1,7.941.789,31.622,31.622,0,0,1,7.251,2.623,1,1,0,1,1-.9,1.784,29.621,29.621,0,0,0-6.792-2.457,30.011,30.011,0,0,0-7.445-.739A29.6,29.6,0,0,0,118.57,94.6a28.927,28.927,0,0,0-6.076,9.4,28.787,28.787,0,0,0,.59,22.617,28.988,28.988,0,0,0,6.558,9.078,29.839,29.839,0,0,0,37.442,2.6,1,1,0,1,1,1.151,1.636,31.626,31.626,0,0,1-17.463,5.748Q140.355,145.7,139.939,145.7Z" transform="translate(-109.464 -84.549)" fill="#004b5c"/>
        <path id="Pfad_1284" data-name="Pfad 1284" d="M157.84,89.937l-.672.754a.55.55,0,0,0,.048.782,26.724,26.724,0,0,1-.578,40.068.839.839,0,0,0-.092,1.193l7.224,8.117a.715.715,0,0,0,1,.08.993.993,0,0,0,.081-.08,34,34,0,0,0-2.9-48.467,34.59,34.59,0,0,0-3.294-2.554.608.608,0,0,0-.811.1" transform="translate(-108.144 -84.94)" fill="#64dca0"/>
        <path id="Pfad_1285" data-name="Pfad 1285" d="M121.425,117.77,133.5,129.679l25.267-24.916" transform="translate(-109.126 -84.732)" fill="rgba(0,0,0,0)"/>
        <path id="Pfad_1285_-_Kontur" data-name="Pfad 1285 - Kontur" d="M133.5,130.679a1,1,0,0,1-.7-.288l-12.078-11.909a1,1,0,0,1,1.4-1.424L133.5,128.275l24.565-24.223a1,1,0,1,1,1.4,1.424l-25.267,24.916A1,1,0,0,1,133.5,130.679Z" transform="translate(-109.126 -84.732)" fill="#004b5c"/>
      </g>
    </g>
    <path id="Linie_381" data-name="Linie 381" d="M0,14.426a1,1,0,0,1-1-1V0A1,1,0,0,1,0-1,1,1,0,0,1,1,0V13.426A1,1,0,0,1,0,14.426Z" transform="translate(114.293 56.074)" fill="#004a5a"/>
  </g>
</svg>
