<svg xmlns="http://www.w3.org/2000/svg" width="150.15" height="162.3" viewBox="0 0 150.15 162.3">
  <g id="illus_weiß_schnell" transform="translate(-29.38 -23.22)">
    <path id="Pfad_178" data-name="Pfad 178" d="M116.312,163.872a60.663,60.663,0,0,1-6.923-.4,1.15,1.15,0,1,1,.262-2.285,58.517,58.517,0,0,0,39.368-9.614,1.15,1.15,0,0,1,1.286,1.907A60.828,60.828,0,0,1,116.312,163.872Z" transform="translate(-3.621 -6.622)" fill="#fff"/>
    <path id="Pfad_179" data-name="Pfad 179" d="M53.88,98.464h0a1.15,1.15,0,0,1-1.149-1.151,60.822,60.822,0,0,1,89.984-53.348,1.15,1.15,0,0,1-1.1,2.018A58.522,58.522,0,0,0,55.03,97.314,1.15,1.15,0,0,1,53.88,98.464Z" transform="translate(-1.17 -0.666)" fill="#fff"/>
    <g id="Gruppe_163" data-name="Gruppe 163" transform="translate(61.889 24.37)">
      <g id="Gruppe_161" data-name="Gruppe 161" transform="translate(0 15.654)">
        <path id="Linie_65" data-name="Linie 65" d="M5.7,8.569a1.148,1.148,0,0,1-.913-.449L-.912.7A1.15,1.15,0,0,1-.7-.912,1.15,1.15,0,0,1,.912-.7l5.7,7.419A1.15,1.15,0,0,1,5.7,8.569Z" transform="translate(5.614 4.294)" fill="#fff"/>
        <path id="Linie_66" data-name="Linie 66" d="M0,9.728a1.148,1.148,0,0,1-.914-.452A1.15,1.15,0,0,1-.7,7.664L10.52-.914A1.15,1.15,0,0,1,12.132-.7,1.15,1.15,0,0,1,11.917.914L.7,9.491A1.145,1.145,0,0,1,0,9.728Z" fill="#fff"/>
      </g>
      <g id="Gruppe_162" data-name="Gruppe 162" transform="translate(90.591 15.654)">
        <path id="Linie_67" data-name="Linie 67" d="M0,8.569a1.145,1.145,0,0,1-.7-.238A1.15,1.15,0,0,1-.912,6.718L4.787-.7A1.15,1.15,0,0,1,6.4-.912,1.15,1.15,0,0,1,6.611.7L.912,8.119A1.148,1.148,0,0,1,0,8.569Z" transform="translate(0 4.294)" fill="#fff"/>
        <path id="Linie_68" data-name="Linie 68" d="M11.217,9.728a1.145,1.145,0,0,1-.7-.237L-.7.914A1.15,1.15,0,0,1-.914-.7,1.15,1.15,0,0,1,.7-.914L11.917,7.664a1.15,1.15,0,0,1-.7,2.064Z" transform="translate(0.095)" fill="#fff"/>
      </g>
      <path id="Linie_69" data-name="Linie 69" d="M0,13.784a1.15,1.15,0,0,1-1.15-1.15V0A1.15,1.15,0,0,1,0-1.15,1.15,1.15,0,0,1,1.15,0V12.634A1.15,1.15,0,0,1,0,13.784Z" transform="translate(50.952)" fill="#fff"/>
      <path id="Linie_70" data-name="Linie 70" d="M8.055,1.15H0A1.15,1.15,0,0,1-1.15,0,1.15,1.15,0,0,1,0-1.15H8.055A1.15,1.15,0,0,1,9.205,0,1.15,1.15,0,0,1,8.055,1.15Z" transform="translate(37.806 72.277)" fill="#fff"/>
      <path id="Linie_71" data-name="Linie 71" d="M36.438,1.15H0A1.15,1.15,0,0,1-1.15,0,1.15,1.15,0,0,1,0-1.15H36.438A1.15,1.15,0,0,1,37.588,0,1.15,1.15,0,0,1,36.438,1.15Z" transform="translate(56.044 72.277)" fill="#fff"/>
      <path id="Linie_72" data-name="Linie 72" d="M0,9.766a1.15,1.15,0,0,1-1.15-1.15V0A1.15,1.15,0,0,1,0-1.15,1.15,1.15,0,0,1,1.15,0V8.616A1.15,1.15,0,0,1,0,9.766Z" transform="translate(50.952 77.369)" fill="#fff"/>
      <path id="Linie_73" data-name="Linie 73" d="M0,26.246A1.15,1.15,0,0,1-1.15,25.1V0A1.15,1.15,0,0,1,0-1.15,1.15,1.15,0,0,1,1.15,0V25.1A1.15,1.15,0,0,1,0,26.246Z" transform="translate(50.952 42.09)" fill="#fff"/>
      <path id="Ellipse_20" data-name="Ellipse 20" d="M5.091-1.15A6.241,6.241,0,1,1-1.15,5.091,6.248,6.248,0,0,1,5.091-1.15Zm0,10.183A3.941,3.941,0,1,0,1.15,5.091,3.946,3.946,0,0,0,5.091,9.033Z" transform="translate(45.861 67.186)" fill="#fff"/>
      <path id="Linie_74" data-name="Linie 74" d="M17.744,1.15H0A1.15,1.15,0,0,1-1.15,0,1.15,1.15,0,0,1,0-1.15H17.744A1.15,1.15,0,0,1,18.894,0,1.15,1.15,0,0,1,17.744,1.15Z" transform="translate(42.08)" fill="#fff"/>
    </g>
    <g id="Gruppe_164" data-name="Gruppe 164" transform="translate(30.53 96.4)">
      <path id="Pfad_180" data-name="Pfad 180" d="M102.785,135.529H94.53a1.15,1.15,0,0,1-1.15-1.15V120.14a1.15,1.15,0,0,1,2.3,0v13.089h7.1a1.15,1.15,0,1,1,0,2.3Z" transform="translate(-33.737 -101.446)" fill="#fff"/>
      <path id="Pfad_181" data-name="Pfad 181" d="M78.785,115.849H70.53a1.15,1.15,0,0,1-1.15-1.15V100.46a1.15,1.15,0,0,1,2.3,0v13.089h7.1a1.15,1.15,0,1,1,0,2.3Z" transform="translate(-32.534 -100.46)" fill="#fff"/>
      <path id="Linie_75" data-name="Linie 75" d="M19.729,1.15H0A1.15,1.15,0,0,1-1.15,0,1.15,1.15,0,0,1,0-1.15H19.729A1.15,1.15,0,0,1,20.879,0,1.15,1.15,0,0,1,19.729,1.15Z" transform="translate(6.374 7.523)" fill="#fff"/>
      <path id="Linie_76" data-name="Linie 76" d="M19.729,1.15H0A1.15,1.15,0,0,1-1.15,0,1.15,1.15,0,0,1,0-1.15H19.729A1.15,1.15,0,0,1,20.879,0,1.15,1.15,0,0,1,19.729,1.15Z" transform="translate(6.374 14.239)" fill="#fff"/>
      <path id="Linie_77" data-name="Linie 77" d="M0,28.1a1.15,1.15,0,0,1-1.15-1.15V0A1.15,1.15,0,0,1,0-1.15,1.15,1.15,0,0,1,1.15,0V26.948A1.15,1.15,0,0,1,0,28.1Z" transform="translate(26.122 35.868)" fill="#fff"/>
      <path id="Pfad_182" data-name="Pfad 182" d="M37.22,165.957a1.15,1.15,0,0,1-1.15-1.151L36.089,131a1.15,1.15,0,0,1,1.15-1.149H76.726a1.15,1.15,0,0,1,1.15,1.15v6.858a1.15,1.15,0,0,1-1.15,1.15H38.385l-.014,24.648,37.205-.009V144.194a1.15,1.15,0,1,1,2.3,0v20.6a1.15,1.15,0,0,1-1.15,1.15l-39.506.009Zm1.166-29.248h37.19V132.15H38.388Z" transform="translate(-30.865 -101.99)" fill="#fff"/>
      <path id="Pfad_183" data-name="Pfad 183" d="M54.52,190.566a1.15,1.15,0,0,1-1.15-1.15v-18.77a1.15,1.15,0,0,1,2.3,0v17.618l49.944-.082V134.855L92.049,121.29H83.976a1.15,1.15,0,1,1,0-2.3h8.549a1.15,1.15,0,0,1,.813.337l14.239,14.239a1.15,1.15,0,0,1,.337.813V189.33a1.15,1.15,0,0,1-1.148,1.15l-52.244.086Z" transform="translate(-31.732 -101.446)" fill="#fff"/>
      <path id="Pfad_184" data-name="Pfad 184" d="M82.774,170.81H30.53a1.15,1.15,0,0,1-1.15-1.15v-69.2a1.15,1.15,0,0,1,1.15-1.15h38a1.15,1.15,0,0,1,.813.337l14.248,14.239a1.15,1.15,0,0,1,.337.813V169.66A1.15,1.15,0,0,1,82.774,170.81Zm-51.094-2.3H81.624V115.175L68.05,101.61H31.68Z" transform="translate(-30.53 -100.46)" fill="#fff"/>
    </g>
    <path id="Pfad_185" data-name="Pfad 185" d="M153.844,48.83l-1.32,1.529a1.14,1.14,0,0,0,.085,1.586,55,55,0,0,1-1.14,81.339,1.729,1.729,0,0,0-.171,2.432l14.248,16.471a1.4,1.4,0,0,0,2.09,0A70.083,70.083,0,0,0,155.373,48.649a1.178,1.178,0,0,0-1.529.18Z" transform="translate(-5.543 -1.206)" fill="#64dca0"/>
  </g>
</svg>
