<?xml version="1.0" encoding="UTF-8"?>
<svg xmlns="http://www.w3.org/2000/svg" id="Ebene_1" width="48.272" height="54" viewBox="0 0 48.272 54">
  <defs>
    <style>.cls-1{fill:#004a5a;}</style>
  </defs>
  <g id="Pfad_1125">
    <path class="cls-1" d="M24.1648,44.7528c-.5742,0-1.1465-.2168-1.5928-.6499L3.2253,24.7572c-.3906-.3906-.3906-1.0234,0-1.4141s1.0234-.3906,1.4141,0l18.564,18.563V.9999C23.2034,.4477,23.6511,0,24.2034,0s1,.4478,1,1V41.8358l18.4932-18.4927c.3906-.3906,1.0234-.3906,1.4141,0s.3906,1.0234,0,1.4141l-19.3354,19.335c-.4541,.4409-1.0332,.6606-1.6104,.6606Z"></path>
  </g>
  <g id="Linie_249">
    <path class="cls-1" d="M47.2722,53.9999H1.0002C.448,53.9999,.0002,53.5521,.0002,52.9999s.4478-1,1-1H47.2722c.5522,0,1,.4478,1,1s-.4478,1-1,1Z"></path>
  </g>
</svg>
