<?xml version="1.0" encoding="UTF-8"?>
<svg xmlns="http://www.w3.org/2000/svg" id="Ebene_1" width="73.434" height="52.0259" viewBox="0 0 73.434 52.0259">
  <defs>
    <style>.cls-1{fill:#004a5a;}.cls-2{fill:#004b5c;}</style>
  </defs>
  <g id="Linie_250">
    <path class="cls-2" d="M47.5056,33.4726H25.928c-.5522,0-1-.4478-1-1s.4478-1,1-1h21.5776c.5522,0,1,.4478,1,1s-.4478,1-1,1Z"></path>
  </g>
  <g id="Linie_251">
    <path class="cls-2" d="M47.5056,41.1161H25.928c-.5522,0-1-.4478-1-1s.4478-1,1-1h21.5776c.5522,0,1,.4478,1,1s-.4478,1-1,1Z"></path>
  </g>
  <g id="Rechteck_790">
    <path class="cls-2" d="M72.4338,24.1391H1.0002C.448,24.1391,.0002,23.6913,.0002,23.1391V.9999C.0002,.4477,.448,0,1.0002,0H72.4338c.5522,0,1,.4478,1,1V23.1391c0,.5522-.4478,1-1,1ZM2.0002,22.1391H71.4338V1.9999H2.0002V22.1391Z"></path>
  </g>
  <g id="Ellipse_358">
    <circle class="cls-1" cx="36.717" cy="12.0819" r="2"></circle>
  </g>
  <g id="Pfad_1127">
    <path class="cls-2" d="M47.9436,52.0258H25.489c-.2725,0-.5337-.1113-.7222-.3081L7.2776,33.4638c-.1782-.186-.2778-.4341-.2778-.6919v-8.3472c0-.5522,.4478-1,1-1s1,.4478,1,1v7.9453l16.916,17.6558h21.6011l16.916-17.6558v-7.9453c0-.5522,.4478-1,1-1s1,.4478,1,1v8.3472c0,.2578-.0996,.5059-.2778,.6919l-17.4893,18.2539c-.1885,.1968-.4497,.3081-.7222,.3081Z"></path>
  </g>
</svg>
