<?xml version="1.0" encoding="UTF-8"?>
<svg xmlns="http://www.w3.org/2000/svg" id="Ebene_1" width="35.2336" height="54.0014" viewBox="0 0 35.2336 54.0014">
  <defs>
    <style>.cls-1{fill:#004a5a;}</style>
  </defs>
  <g id="Pfad_1124">
    <path class="cls-1" d="M12.6259,54.0012c-.1602,0-.3193-.0029-.4805-.0088C5.3554,53.6799,.0243,48.1174-.0001,41.3283c.0303-4.5542,2.5786-8.7788,6.5449-10.9438V6.03C6.5512,2.7004,9.2577,.0002,12.5805,.0002c.0059,0,.0112,.0005,.0161,0C15.9184,.0002,18.6254,2.7038,18.6288,6.029V30.3821c4.1812,2.2734,6.7368,6.7266,6.5562,11.5195-.2559,6.7676-5.8433,12.0991-12.5591,12.0996Zm-.043-52.001c-2.2241,0-4.0337,1.8057-4.0381,4.0288V30.9949c0,.3843-.2202,.7349-.5669,.9014-3.605,1.7324-5.9517,5.436-5.978,9.4355,.0205,5.7114,4.5137,10.3994,10.229,10.6621,5.8384,.2314,10.7368-4.3413,10.957-10.1675,.1587-4.1934-2.1733-8.0771-5.9448-9.9097-.2144-.0903-.397-.2549-.5068-.4746l-.001-.002c-.0781-.1562-.1118-.3252-.1045-.4917V6.03c-.0024-2.2222-1.8125-4.0298-4.0352-4.0298h-.0107Z"></path>
  </g>
  <g id="Linie_246">
    <path class="cls-1" d="M34.2338,8.9699h-9.25c-.5522,0-1-.4478-1-1s.4478-1,1-1h9.25c.5522,0,1,.4478,1,1s-.4478,1-1,1Z"></path>
  </g>
  <g id="Linie_247">
    <path class="cls-1" d="M34.2338,17.6916h-9.25c-.5522,0-1-.4478-1-1s.4478-1,1-1h9.25c.5522,0,1,.4478,1,1s-.4478,1-1,1Z"></path>
  </g>
  <g id="Linie_248">
    <path class="cls-1" d="M34.2338,26.3821h-9.25c-.5522,0-1-.4478-1-1s.4478-1,1-1h9.25c.5522,0,1,.4478,1,1s-.4478,1-1,1Z"></path>
  </g>
</svg>
