<?xml version="1.0" encoding="UTF-8"?>
<svg xmlns="http://www.w3.org/2000/svg" id="Ebene_1" width="54.695" height="53.9998" viewBox="0 0 54.695 53.9998">
  <defs>
    <style>.cls-1{fill:#004a5a;}</style>
  </defs>
  <g id="Pfad_1123">
    <path class="cls-1" d="M18.7776,52.9807c-.9253,0-1.813-.5107-2.251-1.3901-.1885-.3794-.2788-.8022-.2607-1.2231l.48-9.855c.022-.4409,.1602-.8687,.3989-1.2383L41.7947,1.1423c.75-1.1582,2.2998-1.4897,3.4575-.7407l8.2998,5.3618c1.1582,.749,1.4907,2.2998,.7422,3.457L29.6433,47.3532c-.2319,.3652-.5635,.6689-.9546,.8721l-8.7861,4.4897c-.3623,.1802-.7466,.2656-1.125,.2656ZM43.8948,2.0007c-.1646,0-.3252,.0806-.4209,.228L18.8244,40.3601h0c-.0483,.0747-.0762,.1616-.0811,.251l-.4795,9.8472c-.0034,.0786,.0146,.1646,.0532,.2417,.1255,.2515,.4346,.3555,.6851,.229l8.7705-4.4814c.0728-.0376,.1392-.0986,.1865-.1733L52.614,8.1355c.1504-.2319,.084-.543-.1479-.6929l-8.2988-5.3613c-.0845-.0547-.1792-.0806-.2725-.0806ZM17.9846,39.8171h0Z"></path>
  </g>
  <g id="Linie_244">
    <path class="cls-1" d="M49.0388,16.5032c-.1855,0-.3735-.0518-.541-.1597l-10.8198-6.981c-.4644-.2993-.5977-.9185-.2983-1.3823s.9185-.5972,1.3823-.2983l10.8198,6.981c.4644,.2993,.5977,.9185,.2983,1.3823-.1914,.2964-.5127,.458-.8413,.458Z"></path>
  </g>
  <g id="Linie_245">
    <path class="cls-1" d="M49.5681,53.9997H1.0002C.448,53.9997,.0002,53.552,.0002,52.9997s.4478-1,1-1H49.5681c.5522,0,1,.4478,1,1s-.4478,1-1,1Z"></path>
  </g>
</svg>
