<svg xmlns="http://www.w3.org/2000/svg" width="75.163" height="66.041" viewBox="0 0 75.163 66.041">
  <g id="portal-icn-6" transform="translate(14111.433 15914.041)">
    <g id="Gruppe_404" data-name="Gruppe 404" transform="translate(-14106.732 -15901)">
      <path id="Pfad_1126" data-name="Pfad 1126" d="M74.167,66.205H3.705v-53a1,1,0,1,1,2,0v51H74.167a1,1,0,0,1,0,2Z" transform="translate(-4.705 -13.205)" fill="#004a5a"/>
      <path id="Pfad_1117" data-name="Pfad 1117" transform="translate(-4.701 -13.041)" fill="#004a5a"/>
      <path id="Pfad_1118" data-name="Pfad 1118" d="M12.525,40.55H18.85A2.248,2.248,0,0,1,21.095,42.8V62.243a1,1,0,0,1-1,1H11.28a1,1,0,0,1-1-1V42.8a2.26,2.26,0,0,1,.665-1.595A2.231,2.231,0,0,1,12.525,40.55Zm6.57,20.693V42.8a.245.245,0,0,0-.245-.245H12.525a.244.244,0,0,0-.173.071.247.247,0,0,0-.073.174V61.243Z" transform="translate(-4.061 -10.254)" fill="#004a5a"/>
      <path id="Pfad_1119" data-name="Pfad 1119" d="M26.935,30.79H33.26A2.248,2.248,0,0,1,35.5,33.035v30.2a1,1,0,0,1-1,1H25.69a1,1,0,0,1-1-1v-30.2a2.26,2.26,0,0,1,.665-1.595A2.231,2.231,0,0,1,26.935,30.79ZM33.5,62.237v-29.2a.245.245,0,0,0-.245-.245H26.935a.244.244,0,0,0-.173.071.247.247,0,0,0-.073.174v29.2Z" transform="translate(-2.594 -11.248)" fill="#004a5a"/>
      <path id="Pfad_1120" data-name="Pfad 1120" d="M41.364,35.47H47.7a2.248,2.248,0,0,1,2.245,2.245V62.76a1,1,0,0,1-1,1H40.13a1,1,0,0,1-1-1V37.715a2.252,2.252,0,0,1,2.225-2.245Zm6.581,26.29V37.715a.245.245,0,0,0-.245-.245H41.37a.246.246,0,0,0-.24.245V61.76Z" transform="translate(-1.123 -10.771)" fill="#004a5a"/>
      <path id="Pfad_1121" data-name="Pfad 1121" d="M55.775,26.21H62.1a2.248,2.248,0,0,1,2.245,2.245V63.714a1,1,0,0,1-1,1H54.53a1,1,0,0,1-1-1V28.455a2.26,2.26,0,0,1,.665-1.595A2.231,2.231,0,0,1,55.775,26.21Zm6.57,36.5V28.455a.245.245,0,0,0-.245-.245H55.775a.243.243,0,0,0-.172.071.247.247,0,0,0-.073.174V62.714Z" transform="translate(0.344 -11.714)" fill="#004a5a"/>
      <path id="Pfad_1122" data-name="Pfad 1122" d="M11.6,37.773a1,1,0,0,1-.6-1.8L30.574,21.5a1,1,0,0,1,1.056-.083L46.9,29.369,67.65,12.592a1,1,0,0,1,1.258,1.555L47.653,31.336a1,1,0,0,1-1.091.109l-15.3-7.964-19.067,14.1A1,1,0,0,1,11.6,37.773Z" transform="translate(-4.029 -13.124)" fill="#004a5a"/>
    </g>
  </g>
</svg>
