<svg xmlns="http://www.w3.org/2000/svg" width="54.696" height="54" viewBox="0 0 54.696 54">
  <g id="portal-icn-3" transform="translate(14098.999 16146)">
    <path id="Pfad_1123" data-name="Pfad 1123" d="M29.51,66.711A2.511,2.511,0,0,1,27,64.1v-.008l.48-9.848A2.517,2.517,0,0,1,27.88,53L52.53,14.871a2.5,2.5,0,0,1,3.459-.74l8.3,5.361a2.5,2.5,0,0,1,.74,3.459L40.381,61.079a2.515,2.515,0,0,1-.955.874l-.007,0-8.78,4.486-.01,0A2.524,2.524,0,0,1,29.51,66.711ZM29,64.182a.514.514,0,0,0,.233.447.519.519,0,0,0,.5.03L38.5,60.179A.512.512,0,0,0,38.7,60l0-.005,24.65-38.132a.5.5,0,0,0-.147-.692L54.9,15.81a.5.5,0,0,0-.378-.07.5.5,0,0,0-.315.217L29.56,54.089a.512.512,0,0,0-.081.251Z" transform="translate(-14109.734 -16159.729)" fill="#004a5a"/>
    <path id="Linie_244" data-name="Linie 244" d="M10.819,7.981a1,1,0,0,1-.541-.16L-.542.84A1,1,0,0,1-.84-.542,1,1,0,0,1,.542-.84l10.82,6.981a1,1,0,0,1-.543,1.84Z" transform="translate(-14060.779 -16137.478)" fill="#004a5a"/>
    <path id="Linie_245" data-name="Linie 245" d="M48.568,1H0A1,1,0,0,1-1,0,1,1,0,0,1,0-1H48.568a1,1,0,0,1,1,1A1,1,0,0,1,48.568,1Z" transform="translate(-14097.999 -16093)" fill="#004a5a"/>
  </g>
</svg>
