<svg xmlns="http://www.w3.org/2000/svg" width="41.407" height="54" viewBox="0 0 41.407 54">
  <g id="portal-icn-5" transform="translate(14532.703 15902)">
    <path id="Pfad_1128" data-name="Pfad 1128" d="M30.831,40.62h0A11.14,11.14,0,0,1,20.666,24.9l.017-.035.074-.148L29.13,6.943a1,1,0,0,1,.059-.108,2.108,2.108,0,0,1,3.563,0,1,1,0,0,1,.064.119L40.93,24.706a2.054,2.054,0,0,1,.1.2,11.166,11.166,0,0,1-9.894,15.708C31.032,40.618,30.933,40.62,30.831,40.62ZM22.48,25.742A9.14,9.14,0,0,0,30.83,38.62c.084,0,.166,0,.25,0a9.178,9.178,0,0,0,8.117-12.9l-.013-.03,0-.006a1,1,0,0,1-.051-.1l-8.089-17.7a.112.112,0,0,0-.142,0l-8.338,17.7-.01.021Z" transform="translate(-14546.507 -15907.854)" fill="#004a5a"/>
    <path id="Pfad_1129" data-name="Pfad 1129" d="M57.029,65.213a1,1,0,0,1-.706-.292l-13.029-13A1,1,0,1,1,44.706,50.5l13.029,13a1,1,0,0,1-.706,1.708Z" transform="translate(-14549.325 -15913.213)" fill="#004a5a"/>
    <path id="Pfad_1130" data-name="Pfad 1130" d="M29.7,38.928a1,1,0,0,1-.4-.085,7.733,7.733,0,0,1-4.612-6.62,1,1,0,1,1,2-.124A5.74,5.74,0,0,0,30.1,37.013a1,1,0,0,1-.4,1.915Z" transform="translate(-14547.111 -15910.911)" fill="#004a5a"/>
    <path id="Pfad_1131" data-name="Pfad 1131" d="M30.031,52.012a17.036,17.036,0,0,1-6.645-32.723,1,1,0,0,1,.78,1.842,15.036,15.036,0,1,0,11.73,0,1,1,0,1,1,.78-1.842,17.036,17.036,0,0,1-6.645,32.723Z" transform="translate(-14545.699 -15909.468)" fill="#004a5a"/>
  </g>
</svg>
