<?xml version="1.0" encoding="UTF-8"?>
<svg xmlns="http://www.w3.org/2000/svg" id="Icons" viewBox="0 0 72 72">
  <defs>
    <style>.cls-1{fill:#004a5a;}</style>
  </defs>
  <path class="cls-1" d="M12.95,21.09c0,5.69,4.63,10.32,10.31,10.32s10.32-4.63,10.32-10.32-4.63-10.31-10.32-10.31-10.31,4.63-10.31,10.31Zm18.63,0c0,4.58-3.73,8.32-8.32,8.32s-8.31-3.73-8.31-8.32,3.73-8.31,8.31-8.31,8.32,3.73,8.32,8.31Z"></path>
  <path class="cls-1" d="M51.13,10.78c-5.69,0-10.32,4.63-10.32,10.31s4.63,10.32,10.32,10.32,10.31-4.63,10.31-10.32-4.63-10.31-10.31-10.31Zm0,18.63c-4.58,0-8.32-3.73-8.32-8.32s3.73-8.31,8.32-8.31,8.31,3.73,8.31,8.31-3.73,8.32-8.31,8.32Z"></path>
  <path class="cls-1" d="M36.77,61.14c.51,.22,1.1,0,1.32-.52l2.81-6.46s.02-.05,.03-.08l5.68-13.05c.96-2.21,2.71-3.53,4.68-3.53s3.71,1.32,4.68,3.53l8.52,19.58c.16,.38,.53,.6,.92,.6,.13,0,.27-.03,.4-.08,.51-.22,.74-.81,.52-1.32l-8.52-19.58c-1.29-2.96-3.72-4.73-6.51-4.73s-5.22,1.77-6.51,4.73l-4.19,9.63c-1.76-8.22-8.97-14.59-17.32-14.59-9.74,0-17.67,7.92-17.67,17.67v7.28c0,.55,.45,1,1,1s1-.45,1-1v-7.28c0-7.7,5.59-14.1,12.92-15.41l-2.19,6.82c-.15,.46-.16,.96-.03,1.43l4.01,14.71c.01,.05,.04,.09,.07,.14,.02,.04,.03,.08,.05,.12,.05,.08,.12,.15,.19,.22,.02,.02,.03,.03,.05,.05,.1,.07,.21,.13,.32,.16,0,0,.01,0,.02,.01,.09,.02,.17,.03,.26,.03h0c.09,0,.17-.01,.26-.03,0,0,.01,0,.02-.01,.12-.04,.23-.09,.32-.16,.02-.01,.03-.03,.05-.05,.07-.06,.14-.13,.19-.22,.02-.04,.04-.08,.06-.12,.02-.05,.05-.09,.07-.14l4.01-14.71c.13-.47,.12-.96-.03-1.43l-2.18-6.79c7.2,1.4,12.87,8.12,12.97,15.97l-2.74,6.3c-.22,.51,0,1.1,.52,1.32Zm-10.46-16.17c.03,.09,.03,.19,0,.29l-3.04,11.17-3.04-11.17c-.03-.09-.02-.19,0-.29l2.46-7.66c.19,0,.38-.03,.58-.03s.38,.02,.58,.03l2.46,7.65Z"></path>
</svg>
