<?xml version="1.0" encoding="UTF-8"?>
<svg xmlns="http://www.w3.org/2000/svg" id="uuid-ac8d1178-2ec8-43d7-b3ca-51a3d0b169f9" data-name="Icons" viewBox="0 0 72 72">
  <path d="m64.54,52.84l-21.23-20.43c1.38-1.35,11.14-10.87,13.09-12.81.05-.05.11-.09.18-.11.96.06,2.55-.02,3.55-1.02,1.21-1.2,3.03-5.31,3.27-6.27.35-1.39-.75-2.49-1.34-3.09-.59-.59-1.7-1.7-3.09-1.35-.96.24-5.06,2.05-6.27,3.27-1.01,1.02-1.08,2.66-1.03,3.46,0,.09-.03.18-.08.26-2.06,2.07-11.72,11.97-12.93,13.2l-3.69-3.55c-.29-.28-.42-.71-.34-1.14.85-4.79-.85-9.62-4.45-12.61-3.69-3.06-8.85-3.81-13.48-1.95-.52.21-.88.66-.97,1.22-.09.56.12,1.11.55,1.46l6.65,5.52c.61.51.69,1.41.19,2.02l-4.07,4.91c-.25.3-.59.48-.97.51-.38.04-.76-.08-1.05-.33l-6.65-5.52c-.43-.36-1.01-.46-1.54-.27-.53.19-.91.63-1.01,1.17-.97,4.89.71,9.83,4.4,12.89,3.39,2.82,8.02,3.69,12.38,2.34.45-.14.93-.01,1.26.33l.82.84-3.43,3.42-3,1.06c-.14.05-.27.13-.37.24l-12.13,12.13c-1.23,1.24-1.27,3.21-.07,4.41l6.19,6.19c.59.59,1.36.88,2.14.88s1.64-.32,2.27-.95l12.13-12.13c.11-.11.19-.23.24-.37l1.06-3,3.31-3.31,18.78,19.27c.41.42.95.65,1.53.65h.01c.58,0,1.12-.22,1.52-.63l7.71-7.76c.41-.41.63-.96.62-1.54,0-.58-.24-1.12-.66-1.52Zm-11.37-36.84c.32-.43.49-.93.5-1.54-.05-.92.11-1.68.45-2.01.89-.89,4.62-2.56,5.34-2.74.29-.07.96.6,1.19.83.24.24.88.88.81,1.18-.21.83-1.89,4.49-2.74,5.34-.35.35-1.16.51-2.13.44-.08,0-.16,0-.24,0-.51.08-.98.32-1.35.68-1.95,1.94-16.08,15.74-16.9,16.56l-1.65-1.65c.81-.82,16.7-17.05,16.73-17.09Zm-29.16,16.73c-3.72,1.15-7.65.41-10.51-1.97-2.94-2.44-4.38-6.32-3.84-10.25l6.09,5.05c1.46,1.21,3.63,1.01,4.84-.45l4.07-4.91c1.21-1.46,1.01-3.63-.45-4.84l-6.09-5.05c3.76-1.26,7.84-.56,10.78,1.88,3.09,2.57,4.5,6.58,3.76,10.72-.19,1.09.15,2.18.93,2.93l3.68,3.54c-.85.86-1.62,1.65-2.25,2.29l-.98-.98c-1.2-1.2-3.17-1.16-4.41.07l-1.41,1.41c-.12.12-.21.27-.25.43l-.37,1.28-.31-.32c-.86-.88-2.12-1.2-3.28-.84Zm6.12,13.7c-.11.11-.19.23-.24.37l-1.06,3-11.97,11.97c-.46.46-1.16.49-1.58.07l-6.19-6.19c-.42-.42-.38-1.13.07-1.58l11.97-11.97,3-1.06c.14-.05.27-.13.37-.23l4.29-4.28c.08-.08.14-.18.19-.28.01-.03.02-.05.03-.07,0-.02.02-.05.03-.07l.78-2.69,1.23-1.23c.46-.46,1.16-.49,1.58-.07l1.69,1.69h0s0,0,0,0l4.51,4.51c.42.42.38,1.13-.07,1.58l-1.24,1.24-2.79.88s-.02.01-.03.02c-.14.05-.26.12-.37.22,0,0,0,0,0,0,0,0,0,0,0,0l-4.19,4.19Zm33.02,8.06l-7.71,7.76s-.08.04-.1.04c-.02,0-.07,0-.11-.05l-18.35-18.83,1.47-.46c.15-.05.29-.13.41-.25l1.41-1.41s0,0,0,0c1.23-1.24,1.27-3.21.07-4.41l-.74-.74c.66-.65,1.47-1.45,2.37-2.33l21.28,20.47s.04.08.05.11,0,.07-.04.11Z" style="fill: #004a5a;"></path>
</svg>
