<?xml version="1.0" encoding="UTF-8"?>
<svg xmlns="http://www.w3.org/2000/svg" viewBox="0 0 176 176">
  <defs>
    <style>.cls-1{fill:none;}.cls-2{fill:#004a5a;}.cls-3{fill:#64dca0;}</style>
  </defs>
  <g id="Ebene_1">
    <g>
      <path class="cls-3" d="M160.38,69.22l-.56,.65c-.17,.2-.15,.49,.04,.67,4.53,4.26,7.37,10.3,7.37,17s-3.04,13.16-7.85,17.44c-.3,.27-.34,.72-.08,1.03l6.04,6.97c.23,.27,.65,.27,.88,0,4.6-5.23,7.39-12.09,7.39-19.58,0-10.01-4.97-18.87-12.58-24.26-.21-.15-.49-.11-.66,.08Z"></path>
      <g>
        <path class="cls-2" d="M26.09,76.19c-.55,0-1,.45-1,1v38.22c0,.55,.45,1,1,1s1-.45,1-1v-38.22c0-.55-.45-1-1-1Z"></path>
        <path class="cls-2" d="M58.2,116.4c.55,0,1-.45,1-1v-5.52c0-.55-.45-1-1-1s-1,.45-1,1v5.52c0,.55,.45,1,1,1Z"></path>
        <path class="cls-2" d="M42.15,76.19c-.55,0-1,.45-1,1v38.22c0,.55,.45,1,1,1s1-.45,1-1v-38.22c0-.55-.45-1-1-1Z"></path>
        <path class="cls-2" d="M49.07,50.16c.07,2.18-1.35,4.23-1.36,4.25-.32,.45-.21,1.07,.24,1.39,.18,.12,.38,.18,.58,.18,.31,0,.62-.15,.82-.42,.07-.1,1.82-2.6,1.73-5.47-.06-2-.72-3.03-1.29-3.93-.5-.79-.93-1.47-.98-2.93-.07-2.22,1.37-4.3,1.39-4.32,.32-.45,.21-1.07-.24-1.39-.45-.32-1.08-.21-1.39,.24-.08,.11-1.85,2.64-1.75,5.54,.06,2.01,.72,3.03,1.29,3.94,.5,.79,.93,1.47,.98,2.93Z"></path>
        <path class="cls-2" d="M58.42,50.16c.07,2.18-1.35,4.23-1.36,4.25-.32,.45-.21,1.07,.24,1.39,.18,.12,.38,.18,.58,.18,.31,0,.62-.15,.82-.42,.07-.1,1.82-2.6,1.73-5.47-.06-2-.72-3.03-1.29-3.93-.5-.79-.93-1.47-.98-2.93-.07-2.22,1.37-4.3,1.39-4.32,.32-.45,.21-1.07-.24-1.39-.45-.32-1.07-.21-1.39,.24-.08,.11-1.85,2.64-1.75,5.54,.06,2.01,.72,3.03,1.29,3.94,.5,.79,.93,1.47,.98,2.93Z"></path>
        <path class="cls-2" d="M67.77,50.16c.07,2.18-1.35,4.23-1.36,4.25-.32,.45-.21,1.07,.24,1.39,.18,.12,.38,.18,.58,.18,.31,0,.62-.15,.82-.42,.07-.1,1.82-2.6,1.73-5.47-.06-2-.72-3.03-1.29-3.93-.5-.79-.93-1.47-.98-2.93-.07-2.22,1.37-4.3,1.39-4.32,.32-.45,.21-1.07-.24-1.39-.45-.32-1.07-.21-1.39,.24-.08,.11-1.85,2.64-1.75,5.54,.06,2.01,.72,3.03,1.29,3.94,.5,.79,.93,1.47,.98,2.93Z"></path>
        <path class="cls-2" d="M60.76,82.27c0-1.41-1.15-2.56-2.56-2.56s-2.56,1.15-2.56,2.56,1.15,2.56,2.56,2.56,2.56-1.15,2.56-2.56Zm-3.12,0c0-.31,.25-.56,.56-.56s.56,.25,.56,.56-.25,.56-.56,.56-.56-.25-.56-.56Z"></path>
        <path class="cls-2" d="M55.64,99.88c0,1.41,1.15,2.56,2.56,2.56s2.56-1.15,2.56-2.56-1.15-2.56-2.56-2.56-2.56,1.15-2.56,2.56Zm2.56-.56c.31,0,.56,.25,.56,.56s-.25,.56-.56,.56-.56-.25-.56-.56,.25-.56,.56-.56Z"></path>
        <path class="cls-2" d="M160.41,111.07c-.29-.47-.91-.61-1.38-.31-3.82,2.4-8.24,3.67-12.77,3.67-13.24,0-24.01-10.77-24.01-24.01s10.77-24.01,24.01-24.01c3.35,0,6.6,.68,9.64,2.01,.51,.22,1.1,0,1.32-.51,.22-.51,0-1.1-.51-1.32-3.3-1.45-6.81-2.18-10.44-2.18-14.34,0-26.01,11.67-26.01,26.01s11.67,26.01,26.01,26.01c4.91,0,9.7-1.38,13.84-3.98,.47-.29,.61-.91,.31-1.38Z"></path>
        <path class="cls-2" d="M140.92,72.67c-1.81,0-3.28,1.47-3.28,3.28v28.93c0,1.81,1.47,3.28,3.28,3.28h10.67c1.81,0,3.28-1.47,3.28-3.28v-28.93c0-1.81-1.47-3.28-3.28-3.28h-10.67Zm11.95,3.28v28.93c0,.71-.57,1.28-1.28,1.28h-10.67c-.71,0-1.28-.57-1.28-1.28v-28.93c0-.71,.57-1.28,1.28-1.28h10.67c.71,0,1.28,.57,1.28,1.28Z"></path>
        <path class="cls-2" d="M149,81.63h-5.49c-1.3,0-2.35,1.05-2.35,2.35s1.05,2.35,2.35,2.35h5.49c1.3,0,2.35-1.05,2.35-2.35s-1.05-2.35-2.35-2.35Zm0,2.7h-5.49c-.19,0-.35-.16-.35-.35s.16-.35,.35-.35h5.49c.19,0,.35,.16,.35,.35s-.16,.35-.35,.35Z"></path>
        <path class="cls-2" d="M110.19,83.45c-.39-.39-1.02-.39-1.41,0-.39,.39-.39,1.02,0,1.41l5.2,5.2h-8.53v-19.75c0-4.08-3.32-7.41-7.41-7.41H18.34c-3.74,0-6.84,2.79-7.33,6.41H2.38c-.55,0-1,.45-1,1v7.33c0,.55,.45,1,1,1H10.94v43.62c0,4.08,3.32,7.41,7.41,7.41H85.18v7.99c0,.55,.45,1,1,1s1-.45,1-1v-7.99h6.98v7.99c0,.55,.45,1,1,1s1-.45,1-1v-7.99h1.9c4.08,0,7.41-3.32,7.41-7.41v-30.2h8.53l-5.21,5.2c-.39,.39-.39,1.02,0,1.41,.2,.2,.45,.29,.71,.29s.51-.1,.71-.29l6.6-6.6c.56-.56,.56-1.47,0-2.03l-6.6-6.6Zm-99.26-6.8H3.38v-5.33h7.56v5.33Zm92.52,13.42h-12.15v-12.89c0-.55-.45-1-1-1s-1,.45-1,1v12.89h-14.05v-12.89c0-.55-.45-1-1-1s-1,.45-1,1v12.89h-9.06v-12.89c0-.55-.45-1-1-1h-9.99c-.55,0-1,.45-1,1v27.77c0,.55,.45,1,1,1h9.99c.55,0,1-.45,1-1v-12.89h9.06v23.33c0,.55,.45,1,1,1s1-.45,1-1v-23.33h14.05v23.33c0,.55,.45,1,1,1s1-.45,1-1v-23.33h12.15v30.2c0,2.98-2.42,5.41-5.41,5.41H18.34c-2.98,0-5.41-2.43-5.41-5.41v-51.95c0-2.98,2.42-5.41,5.41-5.41H98.05c2.98,0,5.41,2.43,5.41,5.41v19.75Zm-45.32,2h4.06v11.89h-7.99v-25.77h7.99v11.89h-4.06c-.55,0-1,.45-1,1s.45,1,1,1Z"></path>
      </g>
    </g>
  </g>
  <g id="Ebene_2">
    <rect class="cls-1" width="176" height="176"></rect>
  </g>
</svg>
