<?xml version="1.0" encoding="UTF-8"?>
<svg xmlns="http://www.w3.org/2000/svg" viewBox="0 0 176 176">
  <defs>
    <style>.cls-1{fill:none;}.cls-2{fill:#004a5a;}.cls-3{fill:#64dca0;}</style>
  </defs>
  <g id="Ebene_1">
    <g>
      <path class="cls-3" d="M85.17,77.36l-.48,.56c-.15,.17-.13,.42,.03,.58,3.91,3.68,6.36,8.89,6.36,14.67s-2.62,11.36-6.78,15.05c-.26,.23-.29,.62-.07,.89l5.22,6.02c.2,.23,.56,.24,.76,0,3.97-4.52,6.38-10.43,6.38-16.9,0-8.64-4.29-16.29-10.86-20.95-.18-.13-.43-.09-.57,.07"></path>
      <g>
        <path class="cls-2" d="M60.9,128.91c-2.05,0-3.72,1.67-3.72,3.72s1.67,3.72,3.72,3.72,3.71-1.67,3.71-3.72-1.67-3.72-3.71-3.72Zm0,5.44c-.95,0-1.72-.77-1.72-1.72s.77-1.72,1.72-1.72,1.71,.77,1.71,1.72-.77,1.72-1.71,1.72Z"></path>
        <path class="cls-2" d="M85.97,59.15h0c.55,0,1-.45,1-1-.02-3.34,2.68-6.07,6.02-6.09v-2c-4.45,.02-8.04,3.65-8.02,8.1,0,.55,.45,1,1,1Z"></path>
        <path class="cls-2" d="M92.97,42.55c-8.4,.04-15.2,6.92-15.15,15.34,0,.55,.45,1,1,1h0c.55,0,1-.45,1-1-.04-7.31,5.87-13.29,13.18-13.33l-.02-2Z"></path>
        <path class="cls-2" d="M71.45,58.88h0c.55,0,1-.45,1-1-.06-11.4,9.15-20.71,20.54-20.77l-.03-2c-12.47,.06-22.57,10.28-22.51,22.78,0,.55,.45,1,1,1Z"></path>
        <path class="cls-2" d="M117.52,99.91c0,.55,.45,1,1,1s1-.45,1-1v-5.59c0-.17,.14-.31,.3-.31h4.88c.55,0,1-.45,1-1s-.45-1-1-1h-4.88c-1.27,0-2.3,1.04-2.3,2.31v5.59Z"></path>
        <path class="cls-2" d="M103.36,99.91c0,.55,.45,1,1,1s1-.45,1-1v-5.59c0-.17,.14-.31,.3-.31h4.88c.55,0,1-.45,1-1s-.45-1-1-1h-4.88c-1.27,0-2.3,1.04-2.3,2.31v5.59Z"></path>
        <path class="cls-2" d="M117.52,86.39c0,.55,.45,1,1,1s1-.45,1-1v-5.59c0-.17,.14-.31,.3-.31h4.88c.55,0,1-.45,1-1s-.45-1-1-1h-4.88c-1.27,0-2.3,1.04-2.3,2.31v5.59Z"></path>
        <path class="cls-2" d="M103.36,86.39c0,.55,.45,1,1,1s1-.45,1-1v-5.59c0-.17,.14-.31,.3-.31h4.88c.55,0,1-.45,1-1s-.45-1-1-1h-4.88c-1.27,0-2.3,1.04-2.3,2.31v5.59Z"></path>
        <path class="cls-2" d="M119.76,72.88v-5.59c0-.17,.14-.31,.3-.31h4.88c.55,0,1-.45,1-1s-.45-1-1-1h-4.88c-1.27,0-2.3,1.04-2.3,2.31v5.59c0,.55,.45,1,1,1s1-.45,1-1Z"></path>
        <path class="cls-2" d="M105.6,72.88v-5.59c0-.17,.14-.31,.3-.31h4.88c.55,0,1-.45,1-1s-.45-1-1-1h-4.88c-1.27,0-2.3,1.04-2.3,2.31v5.59c0,.55,.45,1,1,1s1-.45,1-1Z"></path>
        <path class="cls-2" d="M173,123.59c-.39-2.5-2.41-4.47-4.9-4.8-1.69-.22-3.38,.31-4.7,1.46-.53-.49-1.15-.87-1.81-1.12v-17.41l1.62,1.45c.41,.37,1.04,.33,1.41-.08,.37-.41,.33-1.04-.08-1.41l-8.51-7.62v-14.17c0-1.44-1.17-2.61-2.61-2.61h-19.05v-17.52c0-1.44-1.17-2.62-2.62-2.62h-34.01c-1.44,0-2.61,1.17-2.61,2.62v20.37c0,.55,.45,1,1,1s1-.45,1-1v-20.37c0-.34,.27-.62,.61-.62h34.01c.34,0,.62,.28,.62,.62v34.43l-8.35,7.48c-.41,.37-.45,1-.08,1.41,.2,.22,.47,.33,.75,.33,.24,0,.48-.08,.67-.26l1.62-1.45v14.48c-.41-.1-.84-.15-1.27-.15-.52,0-1.02,.09-1.5,.22v-4.68c0-1.44-1.17-2.61-2.61-2.61h-13.69c-1.44,0-2.61,1.17-2.61,2.61v13.69l-7.57,.02h0c-.33,0-.58-.27-.58-.62v-9.38c0-.55-.45-1-1-1s-1,.45-1,1v9.38c0,.21,.03,.42,.08,.62h-13.77v-9.65c1.23-.08,2.3-.32,3.48-.77,.52-.2,.77-.78,.57-1.29-.2-.52-.78-.77-1.29-.57-.82,.32-1.65,.55-2.76,.64v-24.26c0-.55-.45-1-1-1s-1,.45-1,1v24.24c-6.68-.58-10.95-6.95-10.95-16.59,0-9.13,8.81-19.22,11.51-22.09,.24-.26,.84-.31,1.04-.1l1.33,1.42,1.46-1.37-1.33-1.42c-.47-.5-1.14-.78-1.88-.78-.79,0-1.57,.33-2.08,.88-3.62,3.86-12.05,13.87-12.05,23.46,0,8.95,4.02,17.95,12.95,18.59v9.67h-3.16s-.05,0-.08,0h-26.76c.51-.67,.86-1.37,1.02-2.11,.38-1.79-.43-3.07-.49-3.15-.44-.77-.99-1.32-1.62-1.68,1.71-1.98,.83-4.22,.23-5.07-.5-.84-1.11-1.39-1.76-1.74,.69-.58,1.17-1.25,1.39-2.04,.48-1.78-.48-3.31-.62-3.53-.65-.89-1.46-1.47-2.38-1.77l12.02-7.76c.93-.55,1.58-1.44,1.83-2.49s.08-2.13-.49-3.05c-1.15-1.84-3.51-2.43-5.4-1.33l-10.81,6.54v-23.15c0-1.67,1.36-3.04,3.03-3.04h26.7c.55,0,1-.45,1-1s-.45-1-1-1h-26.7c-2.77,0-5.03,2.26-5.03,5.04v24.36l-16.28,9.85,1.25-4.34c.28-.88,.5-1.78,.63-2.67,.2-1.3,.26-2.22,.2-2.81-.32-2.95-2.03-5.01-4.57-5.49-.97-.19-1.91,.42-2.15,1.37l-1.43,5.69c-.67,2.64-1.69,5.17-3.05,7.5-2.48,4.27-5.5,10.37-5.94,15.42l-5.85,6.37c-.37,.41-.35,1.04,.06,1.41,.19,.18,.43,.26,.68,.26,.27,0,.54-.11,.74-.32l6.09-6.62c.15-.17,.25-.38,.26-.61,.32-4.98,3.71-11.47,5.7-14.9,1.45-2.5,2.55-5.19,3.26-8.02l1.4-5.56c2.24,.51,2.72,2.76,2.83,3.72,.02,.18,.04,.77-.19,2.29-.12,.79-.31,1.58-.57,2.39l-1.85,6.45-1.71,1.04c-.47,.29-.62,.9-.34,1.37,.19,.31,.52,.48,.86,.48,.18,0,.35-.05,.52-.14l33.31-20.16c.93-.54,2.11-.25,2.68,.67,.28,.46,.37,1,.24,1.52-.13,.52-.45,.96-.95,1.26l-15.74,10.17c-.6,.32-.99,.61-1.03,.64-.02,.01-.02,.03-.04,.05l-1.11,.72c-.46,.3-.6,.92-.3,1.38,.3,.46,.92,.6,1.38,.3l2.11-1.36c.7-.37,1.73-.78,2.72-.63,.71,.1,1.31,.48,1.78,1.12,0,0,.58,.94,.33,1.86-.17,.62-.7,1.16-1.54,1.57l-1.96,.86s-.08,.04-.13,.06l-.98,.43c-.51,.22-.73,.81-.51,1.32,.17,.37,.53,.6,.92,.6,.13,0,.27-.03,.4-.09l1-.44c.48-.2,2.31-.8,3.4,1.05,.02,.03,.04,.06,.06,.09,.29,.4,1.09,1.82-.67,3.14-.26,.19-.58,.37-1,.56-.22,.08-.37,.15-.46,.2l-.94,.41c-.51,.22-.74,.81-.52,1.32,.16,.38,.53,.6,.92,.6,.13,0,.27-.03,.4-.08l1.36-.59h.02c.51-.18,1.42-.22,2.21,1.12,0,0,.44,.7,.23,1.67-.23,1.05-1.14,2.1-2.62,3.02l-11.26,6.43c-.51,.21-5.65,2.27-10.91,.76-.35-.1-.73,0-.99,.26l-5.91,5.95c-.39,.39-.39,1.02,0,1.41,.19,.19,.45,.29,.7,.29s.51-.1,.71-.29l5.5-5.54c6.01,1.48,11.5-.92,11.83-1.07l4.61-2.63v4.47c0,2.79,2.26,5.06,5.03,5.06h31.18c2.77,0,5.03-2.26,5.03-5.04v-4.7s0-.02,0-.03l.03-3.83h16.3l35.55-.09h37.63c1.02,0,1.89-.72,2.06-1.71,.11-.62,.11-1.27,0-1.91Zm-93.58,7.5s0,.02,0,.03v4.73c0,1.67-1.36,3.04-3.03,3.04h-31.18c-1.67,0-3.03-1.37-3.03-3.06v-5.62l4.73-2.7c.12-.07,.23-.15,.34-.23,.04,0,.07,.02,.1,.02h28.94s.05,0,.08,0h3.07l-.03,3.79Zm54.96-51.81h19.05c.33,0,.61,.27,.61,.61v12.38l-8.37-7.49c-.79-.7-1.98-.7-2.78,0l-8.51,7.62v-13.13Zm-19.01,45.98l-8.06,.02v-13.69c0-.34,.27-.61,.61-.61h13.69c.34,0,.61,.27,.61,.61v5.67c-1.1,.85-1.9,2.09-2.16,3.56,0,.03-.03,.09-.09,.11-1.93,.34-4.15,1.68-4.6,4.33Zm17.93-.05l-15.87,.04c.5-1.77,2.28-2.25,2.89-2.36,.88-.16,1.55-.83,1.71-1.73,.32-1.81,1.87-3.12,3.69-3.12,1.32,0,2.52,.68,3.21,1.83,.55,.92,1.74,1.26,2.7,.77,1.27-.64,2.78-.51,4,.43,.08,.05,1.7,1.23,2.02,4.13h-4.34Zm6.39,0l-.08-13.4,.09-.1h8.98c.05,0,.09,.05,.09,.1l.08,13.4h-9.16Zm19.9,0h-8.74l-.08-13.41c0-1.15-.95-2.09-2.09-2.09h-8.98c-.56,0-1.09,.22-1.48,.62-.4,.4-.62,.93-.61,1.5l.05,8.44c-.47-.54-.85-.79-.87-.81-1.72-1.34-4-1.56-6.15-.6-.42-.71-1-1.3-1.66-1.76v-17.16l15.25-13.66s.08-.03,.11,0l15.25,13.66v25.28Zm11.34,0h-9.34v-3.83c.16,.11,.31,.22,.45,.35,.77,.71,1.99,.71,2.77,0,.83-.76,1.9-1.09,3.02-.95,1.59,.21,2.93,1.53,3.19,3.13,.07,.43,.07,.85-.09,1.3Z"></path>
      </g>
    </g>
  </g>
  <g id="Ebene_2">
    <rect class="cls-1" width="176" height="176"></rect>
  </g>
</svg>
