<?xml version="1.0" encoding="UTF-8"?>
<svg xmlns="http://www.w3.org/2000/svg" viewBox="0 0 500 500">
  <defs>
    <style>.cls-1{fill:none;}.cls-2{fill:#fff;}.cls-3{fill:#64dca0;}</style>
  </defs>
  <g id="Ebene_1">
    <path id="Pfad_1284" class="cls-3" d="M392.54,102.52l-3.98,4.55c-1.14,1.42-1.14,3.41,.28,4.55h0c64.2,58.24,69.03,157.67,10.51,221.59-4.26,4.83-9.09,9.37-13.92,13.64-1.99,1.7-2.27,4.83-.57,6.82h0l42.33,48.01c1.42,1.7,3.98,1.99,5.97,.57q.28-.28,.57-.57c73.86-81.82,67.61-207.95-14.2-282.1-.85-.85-1.99-1.7-2.84-2.56-6.25-5.4-12.5-10.51-19.32-15.06-1.42-.85-3.69-.85-4.83,.57"></path>
    <g>
      <path class="cls-2" d="M363.53,93.98c.62-1.24,.12-2.74-1.12-3.35-27.33-13.67-57.61-20.43-87.48-19.58h-5.11s-.07,0-.1,0c-47.89,1.95-92.19,22.62-124.75,58.2-.93,1.02-.86,2.6,.16,3.53,.48,.44,1.08,.66,1.69,.66,.68,0,1.35-.27,1.84-.81,31.65-34.58,74.69-54.67,121.22-56.57h5.13c29.12-.85,58.58,5.75,85.17,19.05,1.24,.62,2.74,.12,3.35-1.12Z"></path>
      <path class="cls-2" d="M382.3,391.67c-28.95,20.24-62.86,31.38-98.1,32.22-30.61,1.21-60.99-5.58-87.87-19.67-24.78-12.99-46.17-31.89-62.12-54.84h60.23c.05,0,.11,0,.16,0h43.1s4.73,0,4.73,0c2.85,0,5.25-1.99,5.72-4.72,.31-1.83,.32-3.71,.02-5.58-1.16-7.31-7.09-13.08-14.43-14.04-4.97-.65-9.94,.89-13.62,4.24-.27,.25-.7,.26-.94,.03-1.65-1.51-3.58-2.67-5.66-3.42v-54.29l6.62,5.84c1.03,.91,2.61,.81,3.53-.22,.91-1.04,.81-2.62-.22-3.53l-27.11-23.91v-43.7c0-4.07-3.31-7.39-7.39-7.39h-58.47v-53.67c0-4.09-3.32-7.41-7.41-7.41H19.63c-4.07,0-7.39,3.32-7.39,7.41v201.85c0,1.38,1.12,2.5,2.5,2.5h113.43c16.6,24.9,39.33,45.38,65.84,59.27,25.55,13.39,54.18,20.39,83.18,20.39,2.39,0,4.78-.05,7.18-.14,36.18-.86,71.04-12.31,100.8-33.12,1.13-.79,1.41-2.35,.62-3.48s-2.35-1.41-3.48-.62Zm-253.16-47.3h-49.62c1.23-5.21,6.21-7.49,9.01-7.98,2.45-.43,4.32-2.31,4.76-4.78,.57-3.22,2.41-5.94,4.94-7.7,.12-.06,.23-.13,.34-.21,1.87-1.21,4.09-1.91,6.46-1.91,4.22,0,8.04,2.16,10.22,5.78,1.52,2.53,4.82,3.47,7.49,2.13,1.66-.83,3.45-1.25,5.3-1.25,2.65,0,5.16,.85,7.26,2.47,.04,.03,.1,.07,.14,.1,.25,.17,5.61,3.94,6.45,13.36h-12.1c-.21-.03-.43-.03-.64,0Zm-34.59-23.95c-3.16,2.49-5.44,6.09-6.19,10.31-.07,.39-.34,.67-.71,.73-5.84,1.02-12.06,5.46-13.22,12.91h-26.28v-42.12c0-1.32,1.07-2.39,2.39-2.39h41.62c1.32,0,2.39,1.07,2.39,2.39v18.17Zm52.17-16.91c0-.3,.15-.49,.24-.58,.09-.09,.28-.24,.58-.24h27.27c.45,0,.82,.37,.82,.81l.25,40.88h-28.91l-.25-40.86Zm69.08,29.49c2.14,1.95,5.51,1.94,7.68-.02,2.63-2.39,6.05-3.45,9.62-2.98,5.07,.66,9.34,4.81,10.14,9.87,.21,1.33,.21,2.67-.01,3.96-.05,.31-.41,.56-.79,.56h-4.73s-24.34,0-24.34,0c.09-.26,.15-.53,.15-.82v-12.18c.82,.45,1.59,.99,2.29,1.63Zm-7.14,11.37h-14.22c-.05,0-.1,0-.16,0h-13.4l-.25-40.91c-.02-3.19-2.63-5.78-5.82-5.78h-27.27c-1.56,0-3.03,.61-4.13,1.72s-1.7,2.58-1.69,4.14l.16,26.94c-1.66-2.15-3.18-3.29-3.59-3.58-2.97-2.27-6.51-3.46-10.25-3.46-2.64,0-5.18,.6-7.54,1.78-.36,.18-.79,.08-.97-.23-1.3-2.16-3.06-3.96-5.11-5.33v-52.07l46.5-41.41c.31-.27,.78-.27,1.08,0l46.5,41.02v76.36c0,.29,.06,.56,.15,.82Zm-19.72-140.67c1.32,0,2.39,1.07,2.39,2.39v39.29l-26.02-22.95c-2.19-1.94-5.5-1.94-7.71,0l-27.13,24.16v-42.9h58.47ZM17.24,145.02c0-1.33,1.07-2.41,2.39-2.41H123.06c1.33,0,2.41,1.08,2.41,2.41v106.02l-14.73,13.12c-.36,.19-.67,.46-.9,.8l-9.98,8.89c-1.03,.92-1.12,2.5-.21,3.53,.49,.55,1.18,.84,1.87,.84,.59,0,1.19-.21,1.66-.63l6.24-5.55v45.34c-1.42-.38-2.89-.59-4.39-.59-1.91,0-3.75,.33-5.47,.92v-15.45c0-4.07-3.31-7.39-7.39-7.39H50.54c-4.07,0-7.39,3.31-7.39,7.39v42.12H17.24V145.02Z"></path>
      <path class="cls-2" d="M310.62,337.49c.59,0,1.19-.21,1.67-.64,24.73-22.12,39.33-52.61,41.13-85.85,1.81-33.44-9.54-65.56-31.94-90.46-.92-1.03-2.5-1.11-3.53-.19-1.03,.92-1.11,2.5-.19,3.53,21.51,23.9,32.4,54.74,30.67,86.84-1.73,31.9-15.74,61.16-39.47,82.39-1.03,.92-1.12,2.5-.2,3.53,.49,.55,1.18,.83,1.86,.83Z"></path>
      <path class="cls-2" d="M280.64,301.64c-1.03,.92-1.12,2.5-.19,3.53,.49,.55,1.18,.83,1.86,.83,.59,0,1.19-.21,1.67-.64,16.56-14.84,26.32-35.25,27.49-57.48,1.17-22.15-6.37-43.4-21.22-59.83-.92-1.02-2.51-1.1-3.53-.18-1.02,.93-1.1,2.51-.18,3.53,13.95,15.43,21.03,35.4,19.94,56.21-1.1,20.89-10.28,40.08-25.84,54.02Z"></path>
      <path class="cls-2" d="M252.58,270.16c-1.02,.93-1.1,2.51-.18,3.53,.49,.55,1.17,.82,1.86,.82,.6,0,1.2-.21,1.67-.64,8.43-7.62,13.4-18.02,13.98-29.31,.59-11.29-3.28-22.15-10.89-30.58-.93-1.03-2.51-1.11-3.53-.18-1.02,.93-1.1,2.51-.18,3.53,6.72,7.43,10.13,17.01,9.61,26.97-.52,9.95-4.9,19.14-12.34,25.86Z"></path>
      <path class="cls-2" d="M82.76,269.3c1.38,0,2.5-1.12,2.5-2.5v-16.97c0-.81,.66-1.47,1.47-1.47h14.83c1.38,0,2.5-1.12,2.5-2.5s-1.12-2.5-2.5-2.5h-14.83c-3.57,0-6.47,2.9-6.47,6.47v16.97c0,1.38,1.12,2.5,2.5,2.5Z"></path>
      <path class="cls-2" d="M82.76,228.29c1.38,0,2.5-1.12,2.5-2.5v-16.97c0-.81,.66-1.47,1.47-1.47h14.83c1.38,0,2.5-1.12,2.5-2.5s-1.12-2.5-2.5-2.5h-14.83c-3.57,0-6.47,2.9-6.47,6.47v16.97c0,1.38,1.12,2.5,2.5,2.5Z"></path>
      <path class="cls-2" d="M40.42,187.29c1.38,0,2.5-1.12,2.5-2.5v-16.97c0-.81,.66-1.47,1.47-1.47h14.83c1.38,0,2.5-1.12,2.5-2.5s-1.12-2.5-2.5-2.5h-14.83c-3.57,0-6.47,2.9-6.47,6.47v16.97c0,1.38,1.12,2.5,2.5,2.5Z"></path>
      <path class="cls-2" d="M39.7,228.29c1.38,0,2.5-1.12,2.5-2.5v-16.97c0-.81,.66-1.47,1.47-1.47h14.83c1.38,0,2.5-1.12,2.5-2.5s-1.12-2.5-2.5-2.5h-14.83c-3.57,0-6.47,2.9-6.47,6.47v16.97c0,1.38,1.12,2.5,2.5,2.5Z"></path>
      <path class="cls-2" d="M43.67,248.36h14.83c1.38,0,2.5-1.12,2.5-2.5s-1.12-2.5-2.5-2.5h-14.83c-3.57,0-6.47,2.9-6.47,6.47v16.97c0,1.38,1.12,2.5,2.5,2.5s2.5-1.12,2.5-2.5v-16.97c0-.81,.66-1.47,1.47-1.47Z"></path>
      <path class="cls-2" d="M83.48,187.29c1.38,0,2.5-1.12,2.5-2.5v-16.97c0-.81,.66-1.47,1.47-1.47h14.83c1.38,0,2.5-1.12,2.5-2.5s-1.12-2.5-2.5-2.5h-14.83c-3.57,0-6.47,2.9-6.47,6.47v16.97c0,1.38,1.12,2.5,2.5,2.5Z"></path>
    </g>
  </g>
  <g id="Ebene_2">
    <rect class="cls-1" width="500" height="500"></rect>
  </g>
</svg>
