<?xml version="1.0" encoding="UTF-8"?>
<svg xmlns="http://www.w3.org/2000/svg" viewBox="0 0 500 500">
  <defs>
    <style>.cls-1{fill:none;}.cls-2{fill:#fff;}.cls-3{fill:#64dca0;}</style>
  </defs>
  <g id="Ebene_1">
    <path class="cls-3" d="M369.7,66.84l-4.42,5.09c-1.35,1.55-1.2,3.86,.3,5.27,35.65,33.48,57.96,81.01,57.96,133.66s-23.89,103.48-61.74,137.1c-2.38,2.11-2.67,5.69-.59,8.09l47.53,54.82c1.82,2.1,5.12,2.15,6.95,.06,36.15-41.15,58.11-95.04,58.11-153.97,0-78.7-39.11-148.41-98.9-190.77-1.63-1.15-3.89-.86-5.19,.65Z"></path>
    <g>
      <path class="cls-2" d="M238.47,24.21c-42.67,0-83.89,12.48-119.22,36.1-1.15,.77-1.46,2.32-.69,3.47,.48,.72,1.27,1.11,2.08,1.11,.48,0,.96-.14,1.39-.42,34.5-23.07,74.77-35.26,116.44-35.26s78.59,11.21,112.08,32.42c1.17,.74,2.71,.39,3.45-.77,.74-1.17,.39-2.71-.77-3.45-34.29-21.72-73.97-33.2-114.76-33.2Z"></path>
      <path class="cls-2" d="M33.56,183.3c-1.34-.34-2.7,.46-3.05,1.79-4.52,17.5-6.82,35.63-6.82,53.89,0,53.24,19.63,104.32,55.26,143.82,35.37,39.21,83.63,63.95,135.89,69.67,.09,0,.18,.01,.27,.01,1.26,0,2.34-.95,2.48-2.23,.15-1.37-.84-2.61-2.21-2.76-51.03-5.58-98.17-29.75-132.72-68.05-34.81-38.58-53.97-88.46-53.97-140.47,0-17.83,2.24-35.54,6.66-52.63,.35-1.34-.46-2.7-1.79-3.05Z"></path>
      <path class="cls-2" d="M261.95,452.47c.09,0,.18,0,.28-.02,41.62-4.58,80.73-21.16,113.08-47.93,1.06-.88,1.21-2.46,.33-3.52-.88-1.06-2.46-1.21-3.52-.33-31.6,26.15-69.79,42.34-110.44,46.81-1.37,.15-2.36,1.39-2.21,2.76,.14,1.28,1.22,2.23,2.48,2.23Z"></path>
      <path class="cls-2" d="M56.81,74.93c-.08,.22-7.61,22.76-10.2,52.06-2.41,27.18-.95,65.98,19.66,96.41,20.59,30.41,54.98,46.88,80.21,55.35,22.95,7.7,42.22,10.31,48.26,10.99,8.09,19.82,14.55,38.97,19.62,56.1,18.04,61.01,23.76,113.07,24.08,125.89,0,.57,0,1.12,.01,1.59,0,.07,.02,.14,.02,.21,0,.08,.01,.17,.03,.25,.02,.08,.04,.16,.07,.24,.02,.08,.04,.16,.07,.23,.03,.08,.08,.15,.11,.22,.04,.07,.07,.14,.11,.2,.05,.07,.1,.13,.16,.19,.05,.06,.09,.12,.15,.17,.06,.06,.12,.11,.19,.16,.06,.05,.11,.1,.18,.14,.07,.05,.15,.08,.22,.12,.07,.04,.13,.08,.2,.11,.08,.04,.17,.06,.25,.08,.07,.02,.14,.05,.21,.06,.09,.02,.19,.02,.28,.03,.07,0,.13,.02,.2,.02,.01,0,.03,0,.04,0h0s.03,0,.04,0c.07,0,.13-.02,.2-.02,.09,0,.19-.01,.28-.03,.07-.02,.14-.04,.21-.06,.09-.03,.17-.05,.25-.08,.07-.03,.13-.07,.2-.11,.07-.04,.15-.08,.22-.12,.06-.04,.12-.1,.18-.14,.06-.05,.13-.1,.19-.16,.05-.05,.1-.12,.15-.17,.05-.06,.11-.13,.16-.19,.04-.06,.08-.13,.11-.2,.04-.07,.08-.14,.11-.22,.03-.07,.05-.15,.07-.23,.02-.08,.05-.16,.07-.24,.02-.08,.02-.16,.03-.25,0-.07,.02-.14,.02-.21,0-.56,0-1.22-.01-1.96,0-13.43,1.87-52.34,10.85-100.25,4.56-24.31,10.21-47.27,16.92-68.81,4.74-1.17,21.12-5.56,39.76-14.66,20.15-9.85,46.65-27.27,58.45-54.35,6.5-14.93,12.02-40.75,1.34-78.93-6.35-22.7-15.31-38.83-15.69-39.51-.55-.98-1.68-1.47-2.77-1.21-.75,.18-18.67,4.61-39.61,15.42-35.23,18.19-50.38,39.81-56.88,54.75-6.5,14.92-12.27,40.64-2.87,78.44,4.87,19.6,11.73,34.21,13.65,38.09-6.84,21.87-12.59,45.17-17.21,69.85-4.97,26.5-7.77,50.29-9.3,68.63-5.22-35.91-17.21-93.31-40.69-150.94,1.15-3.22,8.7-25.16,12.01-52.95,3.3-27.8,2.91-67.33-17.72-97.8-20.61-30.44-56.08-46.2-82.22-54.06-28.18-8.48-51.89-9.85-52.13-9.86-1.11-.07-2.15,.63-2.5,1.7Zm203.58,110.9c19.52-44.81,79.81-63.61,91.22-66.81,5.43,10.53,32.74,67.48,13.22,112.29-18.48,42.42-75.74,60.92-91.83,65.35,11.17-34.46,25.12-65.17,41.73-91.81,.73-1.17,.37-2.71-.8-3.44-1.17-.73-2.71-.37-3.44,.8-16.53,26.51-30.45,56.99-41.65,91.1-7.36-16.73-26.16-66.81-8.45-107.48Zm-70.87-45.87c32.35,47.79,13.38,120.13,6.92,140.88-19.52-46.03-46.51-91.65-83.39-126.02-1.01-.94-2.59-.89-3.53,.12-.94,1.01-.89,2.59,.12,3.53,37.67,35.11,64.34,81.88,82.88,125.93-18.6-2.53-89.15-15.13-122.11-63.81-34.87-51.5-13.37-129.31-9.44-142.23,13.46,1.15,93.69,10.08,128.55,61.58Z"></path>
    </g>
  </g>
  <g id="Ebene_2">
    <rect class="cls-1" width="500" height="500"></rect>
  </g>
</svg>
