<?xml version="1.0" encoding="UTF-8"?>
<svg xmlns="http://www.w3.org/2000/svg" viewBox="0 0 500 500">
  <defs>
    <style>.cls-1{fill:none;}.cls-2{fill:#fff;}.cls-3{fill:#64dca0;}</style>
  </defs>
  <g id="Ebene_1">
    <path id="Pfad_1392" class="cls-3" d="M441.86,235.79l-1.83,2.11c-.56,.64-.5,1.61,.13,2.18,30.5,28.39,32.21,76.13,3.82,106.62-1.71,1.84-3.51,3.59-5.39,5.24-.98,.85-1.09,2.34-.25,3.33l19.71,22.66c.69,.81,1.9,.91,2.71,.23,0,0,0,0,0,0,.08-.07,.15-.14,.22-.22,34.92-39.69,31.35-100.09-8-135.39-2.83-2.53-5.8-4.88-8.91-7.06-.7-.5-1.67-.37-2.21,.29"></path>
    <g>
      <path class="cls-2" d="M60.39,184.32c0,1.38,1.12,2.49,2.5,2.49h.01c1.38,0,2.5-1.13,2.49-2.51-.05-11.43,9.2-20.78,20.64-20.83l-.04-5c-14.19,.07-25.67,11.67-25.61,25.86Z"></path>
      <path class="cls-2" d="M51.08,148.4c-9.29,9.38-14.38,21.83-14.31,35.03,0,1.38,1.12,2.49,2.5,2.49h.01c1.38,0,2.49-1.13,2.49-2.51-.06-11.87,4.51-23.05,12.86-31.49,8.35-8.44,19.49-13.11,31.4-13.17v-2.5l-.07-2.5c-13.21,.06-25.6,5.27-34.89,14.65Z"></path>
      <path class="cls-2" d="M14.99,185.93h.01c1.38,0,2.49-1.13,2.49-2.51-.19-37.94,30.53-68.97,68.55-69.15v-2.5l-.1-2.5c-40.7,.2-73.65,33.48-73.45,74.18,0,1.38,1.12,2.49,2.5,2.49Z"></path>
      <path class="cls-2" d="M299.58,283.54h-99.65c-1.38,0-2.5,1.12-2.5,2.5s1.12,2.5,2.5,2.5h99.65c1.38,0,2.5-1.12,2.5-2.5s-1.12-2.5-2.5-2.5Z"></path>
      <path class="cls-2" d="M299.58,318.84h-99.65c-1.38,0-2.5,1.12-2.5,2.5s1.12,2.5,2.5,2.5h99.65c1.38,0,2.5-1.12,2.5-2.5s-1.12-2.5-2.5-2.5Z"></path>
      <path class="cls-2" d="M249.76,234.75c7.37,0,13.36-5.99,13.36-13.36s-5.99-13.36-13.36-13.36-13.36,5.99-13.36,13.36,5.99,13.36,13.36,13.36Zm0-21.71c4.61,0,8.36,3.75,8.36,8.36s-3.75,8.36-8.36,8.36-8.36-3.75-8.36-8.36,3.75-8.36,8.36-8.36Z"></path>
      <path class="cls-2" d="M82.31,193.62v55.56c0,5.6,4.56,10.15,10.15,10.15h22.21c-.01,.11-.03,.21-.03,.32v13.18c0,6.99,2.67,13.62,7.5,18.66l66.73,69.65c5.06,5.28,12.16,8.31,19.48,8.31h82.8c7.32,0,14.41-3.03,19.48-8.31l15.69-16.35c12.3,29.14,38.12,45.93,70.87,45.93,1.68,0,3.37-.04,5.08-.13,12.87-.26,25.66-3.64,36.97-9.79,1.21-.66,1.66-2.18,1-3.39-.66-1.21-2.18-1.66-3.39-1-10.61,5.77-22.6,8.94-34.76,9.19-34.11,1.76-60.82-15.25-72.35-45.71-.05-.41-.19-.81-.44-1.16-.36-1-.71-2.01-1.04-3.04-10.07-31.43-1.24-65.98,20.52-82.02,2.16,6,7.15,18.27,13.04,21.85,.77,.47,1.74,.49,2.52,.04,.21-.12,.39-.26,.56-.43,1.26-1.26,27.14-27.94,5.35-73.69,21.66,3.54,41.99,12.67,59.06,26.57,1.07,.87,2.64,.71,3.52-.36,.87-1.07,.71-2.65-.36-3.52-4.85-3.95-9.96-7.52-15.27-10.71v-19.82c0-5.6-4.56-10.15-10.15-10.15H92.46c-5.6,0-10.15,4.56-10.15,10.15Zm241.2,143.62c.26,.82,.54,1.62,.83,2.43l-17.31,18.03c-4.12,4.3-9.91,6.77-15.87,6.77h-82.8c-5.96,0-11.74-2.47-15.87-6.77l-66.73-69.65c-3.94-4.11-6.11-9.51-6.11-15.2v-13.18c0-.11-.02-.22-.03-.32h216.04c-6.24,7.53-10.94,16.86-13.69,27.4-4.23,16.21-3.68,34.15,1.56,50.51ZM87.31,193.62c0-2.84,2.31-5.15,5.15-5.15H407.05c2.84,0,5.15,2.31,5.15,5.15v16.98c-14.22-7.71-29.8-12.75-46.02-14.78-.94-.12-1.84,.29-2.37,1.06-.53,.77-.59,1.77-.15,2.59,20.84,39.38,4.51,64.03-.8,70.48-4.02-4.19-8.37-14.6-10.38-20.95-.24-.74-.8-1.33-1.53-1.59-.73-.26-1.54-.17-2.2,.24-3.01,1.92-5.82,4.16-8.44,6.67H92.46c-2.84,0-5.15-2.31-5.15-5.15v-55.56Z"></path>
      <path class="cls-2" d="M414.26,279.62c-.5-.76-1.37-1.19-2.28-1.12-.31,.02-31.3,2.78-41.79,33.01-2.98,8.23-3.31,17.03-.92,25.49,2.79,9.35,9.98,20.67,28.42,21.49,.71,.04,1.41,.05,2.1,.05,14.74,0,26.09-8.18,30.58-22.2,4.68-14.6,.22-30.22-10.6-37.12-.66-.42-1.47-.51-2.2-.24-.73,.26-1.3,.85-1.53,1.59-.66,2.08-1.7,4.52-2.66,6.17-2.33-3.71-5.59-12.1,1.01-24.58,.43-.81,.38-1.78-.12-2.54Zm-2.78,32.8c.16,.16,.35,.31,.55,.42,.79,.44,1.75,.43,2.52-.04,2.15-1.31,3.91-4.69,5.03-7.42,6.94,6.4,9.54,18.41,6,29.44-3.96,12.38-14.32,19.37-27.67,18.68-12.46-.56-20.49-6.59-23.85-17.89-2.09-7.41-1.8-15.16,.84-22.43,7.21-20.8,24.74-27.11,33.02-28.96-6.86,17.32,2.91,27.55,3.56,28.2Z"></path>
    </g>
  </g>
  <g id="Ebene_2">
    <rect class="cls-1" width="500" height="500"></rect>
  </g>
</svg>
