<?xml version="1.0" encoding="UTF-8"?>
<svg xmlns="http://www.w3.org/2000/svg" viewBox="0 0 500 500">
  <defs>
    <style>.cls-1{fill:none;}.cls-2{fill:#fff;}.cls-3{fill:#64dca0;}</style>
  </defs>
  <g id="Ebene_1">
    <path class="cls-3" d="M429.82,260.74l-1.8,2.07c-.55,.63-.49,1.57,.12,2.14,14.5,13.62,23.58,32.96,23.58,54.38s-9.72,42.1-25.12,55.78c-.97,.86-1.09,2.32-.24,3.29l19.34,22.3c.74,.85,2.08,.87,2.83,.03,14.71-16.74,23.64-38.67,23.64-62.64,0-32.02-15.91-60.38-40.24-77.62-.66-.47-1.58-.35-2.11,.26Z"></path>
    <g>
      <path class="cls-2" d="M27.82,160.97H395.77c1.19,0,2.22-.84,2.45-2.01s-.39-2.34-1.5-2.8L212.75,80.07c-.61-.25-1.3-.25-1.91,0L26.87,156.16c-1.1,.46-1.73,1.63-1.5,2.8s1.26,2.01,2.45,2.01ZM211.8,85.08l171.39,70.89H40.41L211.8,85.08Z"></path>
      <path class="cls-2" d="M427.45,397.98c-14.76,11.21-32.39,17.14-50.97,17.14-46.51,0-84.35-37.84-84.35-84.35s37.84-84.35,84.35-84.35c14.75,0,29.27,3.86,41.98,11.17,1.2,.69,2.73,.28,3.41-.92,.69-1.2,.28-2.72-.92-3.41-13.47-7.75-28.85-11.84-44.48-11.84s-30.51,4.09-43.35,11.25v-53.76h27.21c1.38,0,2.5-1.12,2.5-2.5s-1.12-2.5-2.5-2.5H63.26c-1.38,0-2.5,1.12-2.5,2.5s1.12,2.5,2.5,2.5h27.21v127.38h-27.21c-1.38,0-2.5,1.12-2.5,2.5s1.12,2.5,2.5,2.5h223.87c.07,12.04,2.53,23.52,6.93,33.99H27.82c-1.38,0-2.5,1.12-2.5,2.5s1.12,2.5,2.5,2.5H296.35c14.61,29.5,45.03,49.84,80.12,49.84,19.69,0,38.36-6.28,54-18.16,1.1-.83,1.31-2.4,.48-3.5-.84-1.1-2.4-1.31-3.5-.48Zm-99.33-142.31c-23.47,15.16-39.41,41.02-40.88,70.62h-13.53v-127.38h54.41v56.76Zm-113.83-56.76h54.41v127.38h-54.41v-127.38Zm-5,127.38h-54.41v-127.38h54.41v127.38Zm-113.83-127.38h54.41v127.38h-54.41v-127.38Z"></path>
      <path class="cls-2" d="M403.19,334.5v-.26c.08-10.18-7.74-16.99-23.24-20.24-4.45-.93-8.29-2.42-11.4-4.42-6.6-4.25-7.36-11.29-6.01-16.04,1.37-4.8,5.52-9.97,13.06-10.09h.51c16.16,0,18.82,12.51,18.93,13.05,.26,1.35,1.56,2.23,2.91,1.99,1.36-.25,2.25-1.56,2-2.92-.03-.17-3.43-17.13-23.84-17.13h-.59c-8.47,.14-15.45,5.53-17.79,13.73-1.73,6.09-.54,12.2,3.02,16.9-9.11,5.07-11.28,14.7-11.28,17.97v.26c-.08,10.18,7.74,16.99,23.24,20.24,4.45,.93,8.29,2.42,11.4,4.42,6.6,4.24,7.36,11.29,6.01,16.04-1.37,4.8-5.52,9.97-13.06,10.09h-.51c-16.16,0-18.82-12.51-18.93-13.05-.26-1.35-1.56-2.24-2.91-1.99-1.36,.25-2.25,1.56-2,2.92,.03,.17,3.43,17.13,23.84,17.13h.59c8.47-.14,15.45-5.53,17.79-13.73,1.73-6.09,.54-12.2-3.02-16.91,9.11-5.07,11.29-14.7,11.29-17.97Zm-14.98,14.24c-.45-.34-.91-.67-1.39-.98-3.62-2.33-8.02-4.05-13.08-5.11-19.36-4.06-19.29-12.53-19.27-15.31v-.3c0-2.12,1.74-10.48,9.98-14.24,.45,.34,.91,.67,1.39,.98,3.62,2.33,8.02,4.05,13.08,5.11,19.36,4.06,19.29,12.53,19.27,15.31v.29c0,2.12-1.74,10.48-9.99,14.24Z"></path>
    </g>
  </g>
  <g id="Ebene_2">
    <rect class="cls-1" x="0" y="0" width="500" height="500"></rect>
  </g>
</svg>
