<?xml version="1.0" encoding="UTF-8"?>
<svg xmlns="http://www.w3.org/2000/svg" viewBox="0 0 500 500">
  <defs>
    <style>.cls-1{fill:none;}.cls-2{fill:#fff;}.cls-3{fill:#64dca0;}</style>
  </defs>
  <g id="Ebene_1">
    <path id="g" class="cls-3" d="M418.16,40.77l-2.76,3.31c-.83,1.1-.83,2.48,.28,3.31h0c45.8,41.93,49.38,112.56,7.45,158.63-3.31,3.59-6.62,6.9-10.21,9.66-1.38,1.1-1.93,3.59-.28,4.97h0l30.35,34.21c1.1,1.1,2.76,1.38,4.41,.28l.28-.28c52.97-58.49,48.28-148.97-10.21-201.67-.83-.83-1.38-1.1-2.21-1.93-4.41-3.86-9.1-7.45-13.79-10.76-1.1-.83-2.48-.83-3.31,.28"></path>
    <g>
      <path class="cls-2" d="M148.55,110.4c0-3.16-1.42-6.05-4.08-8.34-3.83-3.34-8.28-4.77-12.2-6.04-6.15-1.99-8.29-3.03-8.18-6.97,0-6.21,6.16-6.88,8.81-6.88,7.6,0,9.27,5.46,9.44,6.11,.33,1.33,1.68,2.14,3.01,1.83,1.34-.32,2.17-1.67,1.84-3.02-.83-3.43-4.88-9.91-14.29-9.91-8.39,0-13.81,4.66-13.81,11.81-.07,2.66,.59,4.65,1.7,6.2-2.7,1.62-6.39,4.84-6.39,10.42,0,8.67,9.13,11.49,16.46,13.75,2.24,.69,4.35,1.35,6.21,2.12,.22,.38,.53,.7,.93,.93,1.72,.98,2.52,3.61,1.86,6.11-.44,1.65-2.18,5.5-8.89,5.5-5.01,0-7.62-1.49-9.63-5.51-.62-1.24-2.12-1.73-3.35-1.12-1.23,.62-1.74,2.12-1.12,3.35,2.86,5.73,7.21,8.28,14.1,8.28,8.31,0,12.54-4.76,13.72-9.21,.86-3.23,.29-6.57-1.35-9.03,0,0,.01,0,.02-.01,3.26-2.79,5.2-6.66,5.2-10.34Zm-8.28,6.39l-.62,.34c-2.26-.99-4.83-1.79-7.32-2.56-7.82-2.41-12.94-4.33-12.94-8.97s4.97-6.73,5.67-6.98c1.78,.9,3.77,1.55,5.67,2.16,3.64,1.17,7.4,2.39,10.47,5.07,1.58,1.36,2.35,2.85,2.35,4.55,0,2.55-1.73,4.99-3.28,6.39Z"></path>
      <path class="cls-2" d="M374.74,360.86c-5.88,1.61-11.44,4.33-17,8.32l-38.63,23.23c-4.63-5.75-10.68-9.41-15.53-10.84-3.55-1.09-6.96-1.72-11.12-2.04l-59.8-2.48c-4.47-.3-8.38-.9-12-1.87l-34.97-8.26c-16.19-4.34-33.02-2.29-47.43,5.77l-75.04,43.86c-1.19,.7-1.59,2.23-.9,3.42,.46,.79,1.3,1.24,2.16,1.24,.43,0,.86-.11,1.26-.34l75-43.84c13.22-7.41,28.73-9.28,43.72-5.27l34.97,8.26c3.88,1.03,8.09,1.69,12.95,2.01l59.78,2.48c3.69,.28,6.75,.85,9.97,1.84,4.32,1.27,9.75,4.64,13.72,9.97,.06,.27,.15,.53,.3,.78,.21,.35,.49,.62,.81,.82,2.78,4.33,4.58,9.79,4.27,16.32l-92.01-1.61h-.04c-1.36,0-2.47,1.09-2.5,2.46-.02,1.38,1.08,2.52,2.46,2.54l94.35,1.66c1.26,0,2.38-.93,2.53-2.21,.96-8.19-.88-15.06-4.06-20.54l38.46-23.13c.06-.04,.12-.08,.18-.12,5.15-3.72,10.07-6.14,15.49-7.62,20.56-5.8,28.52,1.91,31.58,8.15l-56.95,45.67-.78,.6c-5.4,4.12-10.07,7.68-15.56,10.43l-71.45,32.28c-.06,.03-.12,.06-.18,.09-3.77,2.07-9.53,4.24-15.6,2.79-.08-.02-.15-.03-.23-.04l-81.28-11.57c-4.09-.91-8.56-.08-12.27,2.27l-40.83,25.66c-1.17,.74-1.52,2.28-.79,3.45,.48,.76,1.29,1.17,2.12,1.17,.46,0,.92-.12,1.33-.38l40.84-25.67c2.59-1.65,5.8-2.24,8.58-1.6,.07,.02,.14,.03,.21,.04l81.27,11.57c5.97,1.39,12.52,.26,18.96-3.26l71.45-32.28c6.01-3,10.84-6.69,16.45-10.96l.83-.63,58.49-46.9c.85-.68,1.16-1.83,.77-2.84-2.45-6.42-11.09-20.51-38.31-12.83Z"></path>
      <path class="cls-2" d="M141.47,258.81c-1.37-1.72-2.67-2.93-4.64-4.34-.11-.08-.22-.14-.33-.2-2.58-1.29-5.1-2.19-7.28-2.91-3.65-1.12-7.14-1.32-10.38-.6-.08,.02-.17,.04-.25,.07-2.27,.76-5.2,1.99-7.71,4.86-1.37,1.57-2.42,3.09-3.22,4.7l-3.91-1.05c-1.33-.36-2.71,.43-3.07,1.76-.36,1.33,.43,2.71,1.76,3.07l3.57,.96-2.16,8.17-3.68-1c-1.33-.36-2.71,.43-3.07,1.76-.36,1.33,.43,2.71,1.76,3.07l4.35,1.18c-.08,1.78-.03,3.55,.16,5.24,.33,2.96,1.86,5.94,4.3,8.39,2.25,2.25,5.52,3.96,9.28,4.82,3.07,.62,5.36,.88,7.66,.88,.1,0,.21,0,.31-.02,2.45-.31,4.25-.91,6-1.49,.11-.04,.22-.08,.33-.14,2.02-1.01,3.34-2.33,4.51-3.5,.98-.98,.98-2.56,0-3.54s-2.56-.98-3.54,0c-.99,.99-1.85,1.85-3.07,2.49-1.47,.49-2.89,.95-4.7,1.19-1.9-.01-3.86-.25-6.45-.76-3.9-.9-6.05-2.73-6.79-3.47-1.62-1.62-2.67-3.59-2.87-5.41-.1-.88-.18-2.01-.16-3.34l11.1,3c1.33,.37,2.71-.43,3.07-1.76,.36-1.33-.43-2.71-1.76-3.07l-11.9-3.22,2.16-8.17,12.02,3.25c1.33,.36,2.71-.43,3.07-1.76,.36-1.33-.43-2.71-1.76-3.07l-11.56-3.12c.58-1,1.26-1.87,2.03-2.75,1.36-1.55,2.93-2.53,5.41-3.37,2.36-.5,4.95-.32,7.65,.51,2.69,.9,4.62,1.66,6.39,2.54,1.7,1.23,2.6,2.17,3.48,3.28,.81,1.01,1.19,1.95,1.41,3.48,.2,1.37,1.46,2.33,2.83,2.12,1.37-.19,2.32-1.46,2.12-2.83-.34-2.42-1.08-4.18-2.45-5.9Z"></path>
      <path class="cls-2" d="M122.41,233.32c-22.68,0-41.12,18.45-41.12,41.12s18.45,41.12,41.12,41.12,41.12-18.45,41.12-41.12-18.45-41.12-41.12-41.12Zm0,77.25c-19.92,0-36.12-16.21-36.12-36.12s16.21-36.12,36.12-36.12,36.12,16.21,36.12,36.12-16.21,36.12-36.12,36.12Z"></path>
      <path class="cls-2" d="M338.98,66.41c-23.28,0-42.23,17.46-42.23,38.92v19.57h-1.64c-5.24,0-9.67,3.92-9.67,8.57v71.45c0,3.83,3.75,7.19,8.02,7.19h90.49c4.35,0,8.02-3.29,8.02-7.19v-72c0-4.42-4.09-8.02-9.12-8.02h-1.64v-19.57c0-21.46-18.94-38.92-42.23-38.92Zm-37.23,38.92c0-18.7,16.7-33.92,37.23-33.92s37.23,15.21,37.23,33.92v19.57h-74.45v-19.57Zm85.21,27.59v72c0,1.01-1.32,2.19-3.02,2.19h-90.49c-1.53,0-3.02-1.25-3.02-2.19v-71.45c0-1.9,2.18-3.57,4.67-3.57h87.73c2.2,0,4.12,1.41,4.12,3.02Z"></path>
      <path class="cls-2" d="M330.13,166.24v22.13c0,4.73,3.84,8.57,8.57,8.57s8.57-3.84,8.57-8.57v-22.18c3.6-2.88,5.79-7.16,5.79-11.47,0-7.92-6.44-14.36-14.36-14.36s-14.36,6.44-14.36,14.36c0,4.63,2.09,8.76,5.79,11.53Zm8.57-20.89c5.08,0,9.36,4.29,9.36,9.36,0,3.04-1.84,6.23-4.68,8.13-.7,.46-1.11,1.24-1.11,2.08v23.45c0,1.93-1.63,3.57-3.57,3.57s-3.57-1.63-3.57-3.57v-23.45c0-.87-.45-1.67-1.19-2.13-2.97-1.83-4.6-4.7-4.6-8.08,0-5.08,4.29-9.36,9.36-9.36Z"></path>
      <path class="cls-2" d="M410.66,250.82c-21.44,14.94-46.64,22.84-72.88,22.84-70.38,0-127.63-57.26-127.63-127.63s57.26-127.63,127.63-127.63c20.68,0,40.41,4.79,58.64,14.24,1.23,.63,2.74,.16,3.37-1.07s.16-2.74-1.07-3.37c-18.68-9.68-39.75-14.8-60.94-14.8-34.15,0-65.33,12.98-88.86,34.26H90.69c-1.38,0-2.5,1.12-2.5,2.5v121.43l-20.27-5.75c-.67-.19-1.39-.09-1.98,.27-.59,.36-1.01,.96-1.15,1.64l-7.28,35.86-22.24-3.91c-1.36-.24-2.66,.67-2.89,2.03l-4.22,24s0,0,0,0h0s-15.17,86.31-15.17,86.31c-.12,.65,.03,1.33,.42,1.87,.38,.54,.96,.91,1.61,1.03l24.48,4.3s0,0,0,0c0,0,0,0,0,0l174.94,30.75c.15,.03,.29,.04,.44,.04,1.19,0,2.25-.85,2.46-2.07l3.85-21.9h75.85c1.38,0,2.5-1.12,2.5-2.5v-50.51c12.11,3.65,24.95,5.63,38.24,5.63,27.26,0,53.45-8.21,75.73-23.74,1.13-.79,1.41-2.35,.62-3.48-.79-1.13-2.35-1.41-3.48-.62Zm-179.28-11.6l-3.37,19.18c-9.8-3.01-16.43-12.41-15.93-22.57l19.3,3.39Zm-4.24,24.13l-10.16,57.81c-13.64-.91-24.94,6.82-28.12,19.23l-146.19-25.69c.6-6.97-1.13-13.59-4.99-18.84-3.62-4.93-8.8-8.24-15.08-9.67l10.07-57.32c.71,.05,1.41,.09,2.12,.09,12.16,0,23.14-8.01,26.55-19.63l145.78,25.62c-.94,12.87,7.51,24.86,20.01,28.4ZM36.87,205.04l19.52,3.43c-3.08,9.59-12.57,16.02-22.84,15.46l3.32-18.89Zm-15.13,86.1c4.98,1.19,9.07,3.82,11.92,7.69,3.05,4.15,4.47,9.41,4.08,15.01l-19.39-3.41,3.39-19.29Zm191.12,53.48l-19.05-3.35c2.67-9.61,11.53-15.63,22.3-15.14l-3.25,18.49Zm81.69-23.57h-72.47l14.66-83.42c.12-.65-.03-1.33-.42-1.87-.38-.54-.96-.91-1.61-1.03l-24.41-4.29s0,0,0,0c0,0,0,0,0,0l-147.85-25.99,6.71-33.09,131.48,37.33c.23,.06,.46,.1,.68,.1,1.09,0,2.09-.72,2.4-1.82,.38-1.33-.39-2.71-1.72-3.09l-108.81-30.9V52.65H243.68c-23.8,23.99-38.53,56.99-38.53,93.38,0,58,37.43,107.42,89.4,125.39v49.63Z"></path>
    </g>
  </g>
  <g id="Ebene_2">
    <rect class="cls-1" width="500" height="500"></rect>
  </g>
</svg>
