<?xml version="1.0" encoding="UTF-8"?>
<svg xmlns="http://www.w3.org/2000/svg" viewBox="0 0 500 500">
  <defs>
    <style>.cls-1{fill:none;}.cls-2{fill:#fff;}.cls-3{fill:#64dca0;}</style>
  </defs>
  <g id="Ebene_1">
    <path class="cls-3" d="M386.25,81.5l-4.32,4.99c-1.32,1.52-1.18,3.78,.29,5.16,34.89,32.78,56.73,79.3,56.73,130.83s-23.39,101.29-60.43,134.2c-2.33,2.07-2.62,5.57-.58,7.92l46.52,53.66c1.78,2.05,5.01,2.1,6.8,.06,35.39-40.28,56.88-93.03,56.88-150.71,0-77.04-38.28-145.27-96.81-186.73-1.59-1.13-3.81-.84-5.08,.63Z"></path>
    <g>
      <path class="cls-2" d="M48.95,63.82c-21.83,0-39.6,17.76-39.6,39.6s17.76,39.6,39.6,39.6c11.67,0,22.17-5.07,29.42-13.13l57.62,45.6c-9.43,12.72-15.02,28.44-15.02,45.45,0,24.46,11.55,46.26,29.48,60.27l-44.49,61.06c-5.01-3.11-10.91-4.91-17.23-4.91-18.08,0-32.79,14.71-32.79,32.79s14.71,32.79,32.79,32.79,32.79-14.71,32.79-32.79c0-9.97-4.48-18.92-11.53-24.94l44.48-61.05c12.26,8.36,27.06,13.25,42.98,13.25s29.49-4.51,41.44-12.25l32.29,46.63c-9.17,7.26-15.06,18.47-15.06,31.05,0,21.84,17.76,39.6,39.6,39.6s39.6-17.76,39.6-39.6-17.76-39.6-39.6-39.6c-7.47,0-14.47,2.08-20.44,5.69l-32.28-46.61c15.75-11.72,26.86-29.34,30.01-49.56l34.2,4.21c-.05,.78-.08,1.56-.08,2.35,0,21.84,17.76,39.6,39.6,39.6s39.6-17.76,39.6-39.6-17.76-39.6-39.6-39.6c-19.34,0-35.47,13.93-38.91,32.29l-34.22-4.22c.2-2.26,.32-4.55,.32-6.87,0-24.46-11.56-46.27-29.49-60.28l45.44-62.39c4.92,3.04,10.71,4.8,16.91,4.8,17.79,0,32.26-14.47,32.26-32.26s-14.47-32.26-32.26-32.26-32.26,14.47-32.26,32.26c0,9.8,4.4,18.59,11.32,24.51l-45.43,62.38c-12.26-8.35-27.05-13.25-42.97-13.25-23.37,0-44.31,10.55-58.35,27.12l-57.63-45.6c4.45-6.4,7.08-14.18,7.08-22.55,0-21.84-17.76-39.6-39.6-39.6ZM116.53,370.15c0,15.32-12.47,27.79-27.79,27.79s-27.79-12.47-27.79-27.79,12.47-27.79,27.79-27.79,27.79,12.47,27.79,27.79Zm213.8-7.3c0,19.08-15.52,34.6-34.6,34.6s-34.6-15.52-34.6-34.6,15.52-34.6,34.6-34.6,34.6,15.52,34.6,34.6Zm16.42-158.12c19.08,0,34.6,15.52,34.6,34.6s-15.52,34.6-34.6,34.6-34.6-15.52-34.6-34.6,15.52-34.6,34.6-34.6Zm-67.21-133.92c0-15.03,12.23-27.26,27.26-27.26s27.26,12.23,27.26,27.26-12.23,27.26-27.26,27.26-27.26-12.23-27.26-27.26Zm-82.08,78.64c39.42,0,71.48,32.07,71.48,71.48s-32.07,71.48-71.48,71.48-71.48-32.07-71.48-71.48,32.07-71.48,71.48-71.48Zm-148.5-11.44c-19.08,0-34.6-15.52-34.6-34.6s15.52-34.6,34.6-34.6,34.6,15.52,34.6,34.6-15.52,34.6-34.6,34.6Z"></path>
      <path class="cls-2" d="M150.48,261.66h24.02c.48,0,.93-.14,1.31-.38,.39,.24,.85,.38,1.31,.38,.11,0,.21-.02,.32-.03,.1,0,.2,.03,.3,.03h66.69c2.44,0,4.43-1.99,4.43-4.43v-53.53c0-2.44-1.99-4.43-4.43-4.43h-21.52v-19.63c0-2.44-1.99-4.43-4.43-4.43h-40.74c-.17,0-.34,.02-.5,.05-2.2,.25-3.93,2.11-3.93,4.38v19.63h-22.83c-2.44,0-4.43,1.99-4.43,4.43v53.53c0,2.44,1.99,4.43,4.43,4.43Zm55.26-5h-15.25v-14.5h15.25v14.5Zm38.12-52.39v52.39h-20.95v-52.39h20.95Zm-25.95-24.05v76.44h-7.18v-15.07c0-2.44-1.99-4.43-4.43-4.43h-16.39c-2.44,0-4.43,1.99-4.43,4.43v15.07h-7.18v-76.44h39.6Zm-66.86,24.05h22.26v52.39h-22.26v-52.39Z"></path>
      <path class="cls-2" d="M373.56,78.48c.43,.29,.91,.42,1.39,.42,.8,0,1.59-.39,2.08-1.11,.77-1.15,.46-2.7-.68-3.47-9.73-6.53-20.07-12.29-30.72-17.1-1.26-.57-2.74,0-3.31,1.25-.57,1.26,0,2.74,1.25,3.31,10.4,4.7,20.49,10.32,29.99,16.7Z"></path>
      <path class="cls-2" d="M95.61,121.77c.73,0,1.46-.32,1.95-.93,39.44-49.12,98.15-77.29,161.06-77.29,5.14,0,10.33,.19,15.42,.57,1.36,.1,2.58-.93,2.68-2.31,.1-1.38-.93-2.58-2.31-2.68-5.22-.39-10.53-.58-15.79-.58-64.44,0-124.57,28.85-164.96,79.16-.86,1.08-.69,2.65,.38,3.51,.46,.37,1.01,.55,1.56,.55Z"></path>
      <path class="cls-2" d="M78.05,144.78c-1.2-.68-2.73-.26-3.41,.94-17.96,31.63-27.46,67.69-27.46,104.28,0,29.63,6.01,58.28,17.85,85.17,.41,.94,1.33,1.49,2.29,1.49,.34,0,.68-.07,1.01-.21,1.26-.56,1.84-2.03,1.28-3.3-11.57-26.25-17.43-54.23-17.43-83.16,0-35.73,9.27-70.93,26.81-101.81,.68-1.2,.26-2.73-.94-3.41Z"></path>
      <path class="cls-2" d="M399.67,404.18c-.92-1.03-2.5-1.12-3.53-.2-37.86,33.83-86.7,52.47-137.52,52.47s-101.27-19.24-139.4-54.17c-1.02-.93-2.6-.86-3.53,.16s-.86,2.6,.16,3.53c39.06,35.78,89.77,55.49,142.78,55.49s102.08-19.08,140.85-53.74c1.03-.92,1.12-2.5,.2-3.53Z"></path>
    </g>
  </g>
  <g id="Ebene_2">
    <rect class="cls-1" width="500" height="500"></rect>
  </g>
</svg>
