<?xml version="1.0" encoding="UTF-8"?>
<svg xmlns="http://www.w3.org/2000/svg" viewBox="0 0 500 500">
  <defs>
    <style>.cls-1{fill:none;}.cls-2{fill:#fff;}.cls-3{fill:#64dca0;}</style>
  </defs>
  <g id="Ebene_1">
    <path class="cls-3" d="M418.97,76.98l-2.29,2.64c-.7,.81-.62,2,.15,2.73,18.47,17.35,30.03,41.97,30.03,69.25s-12.38,53.61-31.98,71.03c-1.23,1.09-1.39,2.95-.31,4.19l24.62,28.4c.94,1.09,2.65,1.11,3.6,.03,18.73-21.32,30.11-49.24,30.11-79.77,0-40.77-20.26-76.89-51.24-98.84-.84-.6-2.01-.45-2.69,.33Z"></path>
    <g>
      <path class="cls-2" d="M323.44,105.72c-1.38,0-2.5,1.12-2.5,2.5v7.72h-20.3c-2.8,0-5.08,2.28-5.08,5.08v89.24c0,2.8,2.28,5.08,5.08,5.08h94.34c2.8,0,5.08-2.28,5.08-5.08V121.02c0-2.8-2.28-5.08-5.08-5.08h-19.65v-7.72c0-1.38-1.12-2.5-2.5-2.5s-2.5,1.12-2.5,2.5v7.72h-44.4v-7.72c0-1.38-1.12-2.5-2.5-2.5Zm71.62,104.54s-.03,.08-.08,.08h-94.34s-.08-.03-.08-.08v-70.41h94.49v70.41Zm-24.72-89.32v6.23c0,1.38,1.12,2.5,2.5,2.5s2.5-1.12,2.5-2.5v-6.23h19.65s.08,.03,.08,.08v13.83h-94.49v-13.83s.03-.08,.08-.08h20.3v6.23c0,1.38,1.12,2.5,2.5,2.5s2.5-1.12,2.5-2.5v-6.23h44.4Z"></path>
      <path class="cls-2" d="M413.52,257.46c-.75-1.16-2.3-1.48-3.46-.73-17.55,11.46-37.96,17.52-59.02,17.52-5.81,0-12.53-.59-18.77-1.63,.03-.65,.06-1.31,.06-1.96,0-20.38-16.58-36.97-36.97-36.97-8.33,0-16.02,2.77-22.21,7.44-19.22-20.14-30.2-47.33-30.2-74.98,0-59.6,48.49-108.09,108.09-108.09,18.19,0,36.17,4.6,52.01,13.31,1.21,.67,2.73,.22,3.4-.99,.67-1.21,.22-2.73-.99-3.4-16.57-9.11-35.39-13.93-54.42-13.93-62.36,0-113.09,50.73-113.09,113.09,0,28.84,11.42,57.21,31.42,78.25-6.77,6.7-10.97,16-10.97,26.25,0,20.38,16.58,36.97,36.97,36.97,17.88,0,33.04-12.74,36.31-30.04,6.44,1.06,13.37,1.66,19.37,1.66,22.03,0,43.39-6.34,61.76-18.33,1.16-.75,1.48-2.3,.73-3.46Zm-118.17,45.18c-17.63,0-31.97-14.34-31.97-31.97s14.34-31.97,31.97-31.97,31.97,14.34,31.97,31.97c0,1.25-.07,2.5-.22,3.74-1.87,16.09-15.52,28.23-31.75,28.23Z"></path>
      <path class="cls-2" d="M166.48,299.65c0,20.38,16.58,36.97,36.97,36.97s36.97-16.58,36.97-36.97-16.58-36.97-36.97-36.97-36.97,16.58-36.97,36.97Zm68.94,0c0,17.63-14.34,31.97-31.97,31.97s-31.97-14.34-31.97-31.97,14.34-31.97,31.97-31.97,31.97,14.34,31.97,31.97Z"></path>
      <path class="cls-2" d="M357.02,446.93c1.38,0,2.5-1.12,2.5-2.5v-55.91c0-35.38-28.78-64.17-64.17-64.17-25.32,0-48.33,14.95-58.64,38.08-.02,.05-.04,.1-.06,.15v.02c-9.7-5.88-21.06-9.27-33.21-9.27s-23.5,3.39-33.19,9.27c-10.27-23.23-33.31-38.25-58.74-38.25-35.37,0-64.14,28.77-64.14,64.14v55.93c0,1.38,1.12,2.5,2.5,2.5s2.5-1.12,2.5-2.5v-55.93c0-32.61,26.53-59.14,59.17-59.14,23.41,0,44.64,13.83,54.12,35.23l.32,.87c-16.16,11.66-26.7,30.64-26.7,52.04v26.93c0,1.38,1.12,2.5,2.5,2.5s2.5-1.12,2.5-2.5v-26.93c0-32.62,26.54-59.17,59.17-59.17s59.17,26.54,59.17,59.17v26.93c0,1.38,1.12,2.5,2.5,2.5s2.5-1.12,2.5-2.5v-26.93c0-21.4-10.54-40.37-26.69-52.04l.39-1.06c9.52-21.29,30.72-35.04,54.04-35.04,32.62,0,59.17,26.54,59.17,59.17v55.91c0,1.38,1.12,2.5,2.5,2.5Z"></path>
      <path class="cls-2" d="M148.51,270.67c0-20.38-16.58-36.97-36.97-36.97s-36.97,16.58-36.97,36.97,16.58,36.97,36.97,36.97,36.97-16.58,36.97-36.97Zm-68.94,0c0-17.63,14.34-31.97,31.97-31.97s31.97,14.34,31.97,31.97-14.34,31.97-31.97,31.97-31.97-14.34-31.97-31.97Z"></path>
      <path class="cls-2" d="M31.36,202.46h15.07v26.61c0,1.02,.62,1.94,1.57,2.32,.3,.12,.62,.18,.93,.18,.67,0,1.33-.27,1.81-.78l26.47-27.79c.33-.35,.79-.55,1.27-.55h85.55c3.73,0,6.76-3.03,6.76-6.76v-31.87l24.6,25.82c.48,.5,1.14,.78,1.81,.78,.31,0,.63-.06,.93-.18,.95-.38,1.57-1.3,1.57-2.32v-26.61h15.07c3.73,0,6.76-3.03,6.76-6.76V59.83c0-3.73-3.03-6.76-6.76-6.76H82.1c-3.73,0-6.76,3.03-6.76,6.76v34.38H31.36c-3.73,0-6.76,3.03-6.76,6.76v94.73c0,3.73,3.03,6.76,6.76,6.76ZM80.34,59.83c0-.97,.79-1.76,1.76-1.76H214.78c.97,0,1.76,.79,1.76,1.76v94.73c0,.97-.79,1.76-1.76,1.76h-17.57c-1.38,0-2.5,1.12-2.5,2.5v22.86l-23.91-25.1v-55.61c0-3.73-3.03-6.76-6.76-6.76H80.34V59.83Zm83.7,39.38c.97,0,1.76,.79,1.76,1.76v94.73c0,.97-.79,1.76-1.76,1.76H78.49c-1.84,0-3.63,.76-4.9,2.1l-22.16,23.27v-22.86c0-1.38-1.12-2.5-2.5-2.5H31.36c-.97,0-1.76-.79-1.76-1.76V100.97c0-.97,.79-1.76,1.76-1.76H164.04Z"></path>
    </g>
  </g>
  <g id="Ebene_2">
    <rect class="cls-1" y="0" width="500" height="500"></rect>
  </g>
</svg>
