<?xml version="1.0" encoding="UTF-8"?>
<svg xmlns="http://www.w3.org/2000/svg" viewBox="0 0 500 500">
  <defs>
    <style>.cls-1{fill:none;}.cls-2{fill:#fff;}.cls-3{fill:#64dca0;}</style>
  </defs>
  <g id="Ebene_1">
    <path class="cls-3" d="M285.37,215.57l-1.32,1.52c-.4,.46-.36,1.15,.09,1.57,10.65,10.01,17.32,24.21,17.32,39.95s-7.14,30.93-18.45,40.98c-.71,.63-.8,1.7-.18,2.42l14.2,16.38c.54,.63,1.53,.64,2.08,.02,10.8-12.3,17.37-28.4,17.37-46.02,0-23.52-11.69-44.35-29.56-57.02-.49-.34-1.16-.26-1.55,.19Z"></path>
    <g>
      <path class="cls-2" d="M285.22,314.29c-10.95,9.05-24.81,14.03-39.04,14.03-33.8,0-61.3-27.5-61.3-61.3s27.5-61.3,61.3-61.3c10.6,0,21.04,2.75,30.21,7.95,1.2,.68,2.73,.26,3.41-.94,.68-1.2,.26-2.73-.94-3.41-9.91-5.62-21.21-8.6-32.67-8.6-36.56,0-66.3,29.74-66.3,66.3s29.74,66.3,66.3,66.3c15.39,0,30.38-5.39,42.22-15.18,1.06-.88,1.21-2.46,.33-3.52-.88-1.06-2.46-1.21-3.52-.33Z"></path>
      <path class="cls-2" d="M288.06,267.19l-61.42-35.46c-.77-.45-1.73-.45-2.5,0-.77,.45-1.25,1.27-1.25,2.17v70.92c0,.89,.48,1.72,1.25,2.17,.39,.22,.82,.33,1.25,.33s.86-.11,1.25-.33l61.42-35.46c.77-.45,1.25-1.27,1.25-2.17s-.48-1.72-1.25-2.17Zm-60.17,33.3v-62.26l53.92,31.13-53.92,31.13Z"></path>
      <path class="cls-2" d="M313.98,94.9v43.73H91.24c-11.35,0-20.58,9.23-20.58,20.58v210.66h-31.65c-1.38,0-2.5,1.12-2.5,2.5v19.69c0,10.98,8.93,19.91,19.91,19.91H433.9c10.98,0,19.91-8.93,19.91-19.91v-19.69c0-.66-.26-1.3-.73-1.77-.47-.47-1.1-.73-1.77-.73h-31.65s0-171.16,0-171.16h36.97c3.78,0,6.86-3.08,6.86-6.86V94.9c0-3.78-3.08-6.86-6.86-6.86h-135.79c-3.78,0-6.86,3.08-6.86,6.86Zm134.83,297.15c0,8.22-6.69,14.91-14.91,14.91H56.42c-8.22,0-14.91-6.69-14.91-14.91v-17.19h235.09c.05,0,.1,0,.16,0h172.06s0,17.18,0,17.18Zm-34.15-22.19h-137.75c-.05,0-.1,0-.16,0H75.66V159.21c0-8.59,6.99-15.58,15.58-15.58h222.74v48.22c0,3.78,3.08,6.86,6.86,6.86h15.49v27.29c0,1.02,.62,1.94,1.57,2.32,.3,.12,.62,.18,.93,.18,.67,0,1.33-.27,1.81-.78l27.09-28.44c.35-.37,.84-.58,1.35-.58h45.58v171.16Zm43.83-274.97v96.95c0,1.03-.83,1.86-1.86,1.86h-87.55c-1.87,0-3.68,.78-4.97,2.13l-22.78,23.92v-23.54c0-1.38-1.12-2.5-2.5-2.5h-17.99c-1.03,0-1.86-.83-1.86-1.86V94.9c0-1.03,.83-1.86,1.86-1.86h135.79c1.03,0,1.86,.83,1.86,1.86Z"></path>
      <path class="cls-2" d="M388.74,138.35c9.85,0,17.86-8.01,17.86-17.86s-8.01-17.86-17.86-17.86-17.86,8.01-17.86,17.86,8.01,17.86,17.86,17.86Zm0-30.72c7.09,0,12.86,5.77,12.86,12.86s-5.77,12.86-12.86,12.86-12.86-5.77-12.86-12.86,5.77-12.86,12.86-12.86Z"></path>
      <path class="cls-2" d="M361.25,183.88c1.38,0,2.5-1.12,2.5-2.5v-8.37c0-13.77,11.21-24.98,24.98-24.98s24.98,11.21,24.98,24.98v8.37c0,1.38,1.12,2.5,2.5,2.5s2.5-1.12,2.5-2.5v-8.37c0-16.53-13.45-29.98-29.98-29.98s-29.98,13.45-29.98,29.98v8.37c0,1.38,1.12,2.5,2.5,2.5Z"></path>
    </g>
  </g>
  <g id="Ebene_2">
    <rect class="cls-1" width="500" height="500"></rect>
  </g>
</svg>
