<?xml version="1.0" encoding="UTF-8"?>
<svg xmlns="http://www.w3.org/2000/svg" id="Ebene_1" preserveAspectRatio="none" viewBox="0 0 1440 508">
  <defs>
    <style>.cls-1{fill:none;stroke:#004a5a;stroke-miterlimit:10;}</style>
  </defs>
  <g id="pattern-white-mirrorred-vertical" transform="translate(0.521 0.527)">
    <path id="Pfad_1559" class="cls-1" d="M1517.6427,506.0095s-121.168-160.4201,135.7647-470.7241c192.3272-232.2708-201.4377-221.7379-306.3448-71.3357-104.068,149.199-130.7356,431.6087,170.5801,542.0599Z"></path>
    <path id="Pfad_1560" class="cls-1" d="M1653.4115,35.2853s-413.6965,212.8576-330.257,442.1336c48.9233,134.4357,194.492,28.5896,194.492,28.5896"></path>
  </g>
  <g id="pattern-white-mirrorred-vertical-2" transform="translate(0.521 0.527)">
    <path id="Pfad_1559-2" class="cls-1" d="M277.8022-289.581c-95.845-236.3225-613.6425-330.7919-425.5298,40.2814C103.5721,246.4372-102.4531,451.5045-102.4531,451.5045,327.5842,354.2496,372.8805-55.1489,277.8022-289.581Z"></path>
    <path id="Pfad_1560-2" class="cls-1" d="M-102.458,451.5024s162.3361,180.7789,265.3958-1.6825C338.7061,138.6381-147.733-249.3004-147.733-249.3004"></path>
  </g>
</svg>
