<?xml version="1.0" encoding="UTF-8"?>
<svg xmlns="http://www.w3.org/2000/svg" id="Ebene_1" preserveAspectRatio="none" viewBox="0 0 1440 508">
  <defs>
    <style>.cls-1{fill:none;stroke:#004a5a;stroke-miterlimit:10;}</style>
  </defs>
  <g id="pattern-white-mirrorred-vertical" transform="translate(0.521 0.527)">
    <path id="Pfad_1559" class="cls-1" d="M228.7388-96.3274c-49.0446-176.6945-416.995-317.3154-312.6564-34.3792,139.3841,377.9882-28.1573,489.1017-28.1573,489.1017C208.8194,354.2068,277.3911,78.9537,228.7388-96.3274Z"></path>
    <path id="Pfad_1560" class="cls-1" d="M-112.0782,358.393S-9.8892,506.5519,80.8784,395.973C235.6821,207.3849-83.9215-130.7079-83.9215-130.7079"></path>
  </g>
  <g id="pattern-white-mirrorred-vertical-2" transform="translate(0.521 0.527)">
    <path id="Pfad_1559-2" class="cls-1" d="M1415.9025,649.8355s-24.537-289.6497,487.7263-505.2715c383.4498-161.3942-72.5995-424.1828-298.5306-305.9047-224.1238,117.332-454.3211,458.8991-189.1957,811.1762Z"></path>
    <path id="Pfad_1560-2" class="cls-1" d="M1903.6334,144.567s-621.9092-18.6619-689.0727,332.362c-39.3828,205.8214,201.3468,172.9081,201.3468,172.9081"></path>
  </g>
</svg>
