<?xml version="1.0" encoding="UTF-8"?>
<svg xmlns="http://www.w3.org/2000/svg" xmlns:xlink="http://www.w3.org/1999/xlink" version="1.1" x="0px" y="0px" viewBox="0 0 1728 624" style="enable-background:new 0 0 1728 624;" xml:space="preserve">
<style type="text/css">
	.st0{display:none;}
	.st1{display:inline;}
	.st2{fill:#1D4A59;}
	.st3{clip-path:url(#SVGID_00000052826808962103124130000003014307456759307964_);}
	.st4{clip-path:url(#SVGID_00000066484631987829725540000000909920031172735880_);}
	.st5{clip-path:url(#SVGID_00000045583168155434253310000006338818436422630031_);}
	.st6{clip-path:url(#SVGID_00000019635943599867908490000012949563982913317765_);}
	.st7{clip-path:url(#SVGID_00000072959482023717420370000004520899719512700546_);}
	.st8{clip-path:url(#SVGID_00000010285774185772754300000010729787441495964606_);}
	.st9{clip-path:url(#SVGID_00000017484141813584902020000016234409274968776122_);}
	.st10{clip-path:url(#SVGID_00000090980155591771525070000009845159786864202387_);}
	.st11{clip-path:url(#SVGID_00000121246433014173022220000005506815648076332161_);}
	.st12{clip-path:url(#SVGID_00000073712566329153051760000011815437256886025612_);}
	.st13{fill:#004A5A;}
	.st14{fill:none;}
	.st15{fill:#64DCA0;}
</style>
<g id="Ebene_2" class="st0">
</g>
<g id="Ebene_1">
	<g>
		<g>
			<path class="st15" d="M1727.2,299.9c-74-91.2-120.3-194.9-134-299.8l2-0.3c13.7,104.6,59.9,207.9,133.6,298.8L1727.2,299.9z"></path>
		</g>
		<g>
			<g>
				<path class="st15" d="M331.5,624.3C263.4,417.9,113.4,319-0.4,272.4l0.8-1.9c114.2,46.8,264.7,146,333,353.1L331.5,624.3z"></path>
			</g>
			<g>
				<path class="st15" d="M507.2,624.4c-11.2-22.2-28.2-44-50.7-64.8C349.1,460.2,195.6,441.4,0.3,503.7l-0.6-1.9      c196.1-62.5,350.2-43.6,458.2,56.4c22.7,21,39.9,43,51.1,65.4L507.2,624.4z"></path>
			</g>
		</g>
	</g>
</g>
</svg>
