<?xml version="1.0" encoding="UTF-8"?>
<svg xmlns="http://www.w3.org/2000/svg" id="Ebene_1" data-name="Ebene 1" viewBox="0 0 1728 623.5">
  <defs>
    <style>
      .cls-1 {
        fill: #64dca0;
      }
    </style>
  </defs>
  <path class="cls-1" d="M0,469.2v2.58c27.35,22.76,50.23,49.83,68.53,81.18,14.26,24.43,23.29,47.98,27.1,70.54h2.07c-3.65-21.87-12.34-45.68-27.44-71.55C50.96,518.89,27.2,491.57,0,469.2Z"></path>
  <path class="cls-1" d="M1728,185.13v-2.51c-10.54-7.88-20.57-15.92-30.05-24.13-21.02-18.19-39.51-37.29-55.36-57.13,6.11-34.32,15.93-68.17,29.43-101.36h-2.17c-13.46,33.24-22.95,66.41-28.92,99.28-12.29-15.6-22.94-31.65-31.89-48.08C1600.04,34.66,1592.67,17.56,1586.97,0h-2.14c12.05,37.31,31.18,71.19,55.62,101.94-25.01,142.05,15.77,278.29,87.56,389.53v-3.71c-25.15-39.38-45.59-80.59-60.78-122.59-16.92-46.8-27.28-94.52-30.8-141.83-2.99-40.19-1.07-80.05,5.7-119.31,24.13,29.93,53.31,56.87,85.88,81.1Z"></path>
</svg>
