<?xml version="1.0" encoding="UTF-8"?>
<svg xmlns="http://www.w3.org/2000/svg" id="Ebene_1" data-name="Ebene 1" viewBox="0 0 1728 623.5">
  <defs>
    <style>
      .cls-1 {
        fill: #64dca0;
      }
    </style>
  </defs>
  <path class="cls-1" d="M64.93,576.11C61.33,493.19,37.38,416.65,0,348.56v4.19c17.87,33.07,32.12,67.28,42.48,102.09,11.68,39.21,18.47,79.16,20.37,119.57C44.01,559.31,23.04,545.36,0,532.59v2.29c23.12,12.88,44.11,26.96,62.95,42.21,.64,15.41,.57,30.89-.22,46.41h2.02c.76-15.1,.84-30,.28-44.71,16.99,13.95,32.2,28.86,45.62,44.71h2.64c-14.12-16.86-30.25-32.66-48.36-47.39Z"></path>
  <path class="cls-1" d="M1728,299.75v-2.83c-42.4-41.79-79.25-88.87-107.83-138.43-17.98-31.18-30.75-68.24-37.95-110.15-2.68-15.63-4.56-31.77-5.64-48.33h-2c3.8,58.4,17.62,113.98,43.86,159.48,28.18,48.85,65.33,96.91,109.56,140.27Z"></path>
</svg>
